<svg class="charter" xmlns="http://www.w3.org/2000/svg" version="1.1" width="100%" viewbox="0 0 600 400">
<defs><clipPath id="plot-area"><rect x="52.50" y="25.00" width="512.00" height="350.00"/>
</clipPath></defs><line clip-path="url(#plot-area)"  x1="173.76" y1="25.00" x2="173.76" y2="375.00"  style="stroke: #ccc;stroke-width:0.50"/>
<line clip-path="url(#plot-area)"  x1="296.25" y1="25.00" x2="296.25" y2="375.00"  style="stroke: #ccc;stroke-width:0.50"/>
<line clip-path="url(#plot-area)"  x1="418.74" y1="25.00" x2="418.74" y2="375.00"  style="stroke: #ccc;stroke-width:0.50"/>
<line clip-path="url(#plot-area)"  x1="541.23" y1="25.00" x2="541.23" y2="375.00"  style="stroke: #ccc;stroke-width:0.50"/>
<line clip-path="url(#plot-area)"  x1="52.50" y1="351.84" x2="564.50" y2="351.84"  style="stroke: #ccc;stroke-width:0.50"/>
<line clip-path="url(#plot-area)"  x1="52.50" y1="293.06" x2="564.50" y2="293.06"  style="stroke: #ccc;stroke-width:0.50"/>
<line clip-path="url(#plot-area)"  x1="52.50" y1="234.27" x2="564.50" y2="234.27"  style="stroke: #ccc;stroke-width:0.50"/>
<line clip-path="url(#plot-area)"  x1="52.50" y1="175.49" x2="564.50" y2="175.49"  style="stroke: #ccc;stroke-width:0.50"/>
<line clip-path="url(#plot-area)"  x1="52.50" y1="116.71" x2="564.50" y2="116.71"  style="stroke: #ccc;stroke-width:0.50"/>
<line clip-path="url(#plot-area)"  x1="52.50" y1="57.93" x2="564.50" y2="57.93"  style="stroke: #ccc;stroke-width:0.50"/>
<polyline clip-path="url(#plot-area)" style="fill:none; stroke:#db5f57; stroke-width:2.00;"  points="75.77,40.91 100.27,92.81 124.77,116.19 149.27,134.82 173.76,150.99 198.26,165.67 222.76,178.99 247.26,191.55 271.75,203.48 296.25,214.91 320.75,225.95 345.25,236.99 369.74,248.42 394.24,260.35 418.74,272.91 443.24,286.23 467.73,300.91 492.23,317.08 516.73,335.71 541.23,359.09 " /><polyline clip-path="url(#plot-area)" style="fill:none; stroke:#dbae57; stroke-width:2.00;" stroke-dasharray="5, 5" points="75.77,41.28 100.27,94.31 124.77,116.94 149.27,134.79 173.76,150.30 198.26,164.39 222.76,177.57 247.26,190.13 271.75,202.28 296.25,214.17 320.75,225.95 345.25,237.73 369.74,249.62 394.24,261.77 418.74,274.33 443.24,287.51 467.73,301.60 492.23,317.11 516.73,334.97 541.23,357.59 " /><rect  x="52.00" y="25.00" width="512.00" height="350.00" style="fill:none; fill-opacity:1.00; stroke:black; stroke-width:0.50;" />
<line  x1="173.76" y1="376.00" x2="173.76" y2="381.00"  style="stroke: black;stroke-width:1.00"/>
<text  x="173.76" y="395.00" text-anchor="middle"  font-weight="regular">5.0</text>
<line  x1="296.25" y1="376.00" x2="296.25" y2="381.00"  style="stroke: black;stroke-width:1.00"/>
<text  x="296.25" y="395.00" text-anchor="middle"  font-weight="regular">10.0</text>
<line  x1="418.74" y1="376.00" x2="418.74" y2="381.00"  style="stroke: black;stroke-width:1.00"/>
<text  x="418.74" y="395.00" text-anchor="middle"  font-weight="regular">15.0</text>
<line  x1="541.23" y1="376.00" x2="541.23" y2="381.00"  style="stroke: black;stroke-width:1.00"/>
<text  x="541.23" y="395.00" text-anchor="middle"  font-weight="regular">20.0</text>
<line  x1="46.50" y1="351.84" x2="51.50" y2="351.84"  style="stroke: black;stroke-width:1.00"/>
<text  x="42.50" y="355.84" text-anchor="end"  font-weight="regular">0.5</text>
<line  x1="46.50" y1="293.06" x2="51.50" y2="293.06"  style="stroke: black;stroke-width:1.00"/>
<text  x="42.50" y="297.06" text-anchor="end"  font-weight="regular">1.0</text>
<line  x1="46.50" y1="234.27" x2="51.50" y2="234.27"  style="stroke: black;stroke-width:1.00"/>
<text  x="42.50" y="238.27" text-anchor="end"  font-weight="regular">1.5</text>
<line  x1="46.50" y1="175.49" x2="51.50" y2="175.49"  style="stroke: black;stroke-width:1.00"/>
<text  x="42.50" y="179.49" text-anchor="end"  font-weight="regular">2.0</text>
<line  x1="46.50" y1="116.71" x2="51.50" y2="116.71"  style="stroke: black;stroke-width:1.00"/>
<text  x="42.50" y="120.71" text-anchor="end"  font-weight="regular">2.5</text>
<line  x1="46.50" y1="57.93" x2="51.50" y2="57.93"  style="stroke: black;stroke-width:1.00"/>
<text  x="42.50" y="61.93" text-anchor="end"  font-weight="regular">3.0</text>
<rect  x="454.50" y="35.00" width="100.00" height="36.00" style="fill:white; fill-opacity:0.50; stroke:#333; stroke-width:0.50;" />
<defs><clipPath id="leg-area"><rect x="494.50" y="35.00" width="58.00" height="36.00"/>
</clipPath></defs><line  x1="464.50" y1="46.00" x2="494.50" y2="46.00"  style="stroke: #db5f57;stroke-width:2.00"/>
<text clip-path="url(#leg-area)"  x="524.50" y="50.00" text-anchor="middle"  font-weight="regular">mpiric</text>
<line  x1="464.50" y1="61.00" x2="494.50" y2="61.00" stroke-dasharray="5, 5" style="stroke: #dbae57;stroke-width:2.00"/>
<text clip-path="url(#leg-area)"  x="524.50" y="65.00" text-anchor="middle"  font-weight="regular">libm</text>
</svg>

