<svg class="charter" xmlns="http://www.w3.org/2000/svg" version="1.1" width="100%" viewbox="0 0 600 400">
<defs><clipPath id="plot-area"><rect x="52.50" y="25.00" width="512.00" height="350.00"/>
</clipPath></defs><line clip-path="url(#plot-area)"  x1="52.50" y1="25.00" x2="52.50" y2="375.00"  style="stroke: #ccc;stroke-width:0.50"/>
<line clip-path="url(#plot-area)"  x1="168.86" y1="25.00" x2="168.86" y2="375.00"  style="stroke: #ccc;stroke-width:0.50"/>
<line clip-path="url(#plot-area)"  x1="285.23" y1="25.00" x2="285.23" y2="375.00"  style="stroke: #ccc;stroke-width:0.50"/>
<line clip-path="url(#plot-area)"  x1="401.59" y1="25.00" x2="401.59" y2="375.00"  style="stroke: #ccc;stroke-width:0.50"/>
<line clip-path="url(#plot-area)"  x1="517.95" y1="25.00" x2="517.95" y2="375.00"  style="stroke: #ccc;stroke-width:0.50"/>
<line clip-path="url(#plot-area)"  x1="52.50" y1="358.77" x2="564.50" y2="358.77"  style="stroke: #ccc;stroke-width:0.50"/>
<line clip-path="url(#plot-area)"  x1="52.50" y1="257.69" x2="564.50" y2="257.69"  style="stroke: #ccc;stroke-width:0.50"/>
<line clip-path="url(#plot-area)"  x1="52.50" y1="156.62" x2="564.50" y2="156.62"  style="stroke: #ccc;stroke-width:0.50"/>
<line clip-path="url(#plot-area)"  x1="52.50" y1="55.54" x2="564.50" y2="55.54"  style="stroke: #ccc;stroke-width:0.50"/>
<polyline clip-path="url(#plot-area)" style="fill:none; stroke:#db5f57; stroke-width:2.00;"  points="75.77,40.91 99.05,85.53 122.32,105.64 145.59,121.65 168.86,135.55 192.14,148.17 215.41,159.63 238.68,170.42 261.95,180.68 285.23,190.51 308.50,200.00 331.77,209.49 355.05,219.32 378.32,229.58 401.59,240.37 424.86,251.83 448.14,264.45 471.41,278.35 494.68,294.36 517.95,314.47 541.23,359.09 " /><polyline clip-path="url(#plot-area)" style="fill:none; stroke:#dbae57; stroke-width:2.00;" stroke-dasharray="5, 5" points="75.77,41.23 99.05,86.82 122.32,106.27 145.59,121.63 168.86,134.96 192.14,147.08 215.41,158.41 238.68,169.20 261.95,179.65 285.23,189.88 308.50,200.00 331.77,210.12 355.05,220.35 378.32,230.80 401.59,241.59 424.86,252.92 448.14,265.04 471.41,278.37 494.68,293.73 517.95,313.18 541.23,358.77 " /><rect  x="52.00" y="25.00" width="512.00" height="350.00" style="fill:none; fill-opacity:1.00; stroke:black; stroke-width:0.50;" />
<line  x1="52.50" y1="376.00" x2="52.50" y2="381.00"  style="stroke: black;stroke-width:1.00"/>
<text  x="52.50" y="395.00" text-anchor="middle"  font-weight="regular">0</text>
<line  x1="168.86" y1="376.00" x2="168.86" y2="381.00"  style="stroke: black;stroke-width:1.00"/>
<text  x="168.86" y="395.00" text-anchor="middle"  font-weight="regular">5.0</text>
<line  x1="285.23" y1="376.00" x2="285.23" y2="381.00"  style="stroke: black;stroke-width:1.00"/>
<text  x="285.23" y="395.00" text-anchor="middle"  font-weight="regular">10.0</text>
<line  x1="401.59" y1="376.00" x2="401.59" y2="381.00"  style="stroke: black;stroke-width:1.00"/>
<text  x="401.59" y="395.00" text-anchor="middle"  font-weight="regular">15.0</text>
<line  x1="517.95" y1="376.00" x2="517.95" y2="381.00"  style="stroke: black;stroke-width:1.00"/>
<text  x="517.95" y="395.00" text-anchor="middle"  font-weight="regular">20.0</text>
<line  x1="46.50" y1="358.77" x2="51.50" y2="358.77"  style="stroke: black;stroke-width:1.00"/>
<text  x="42.50" y="362.77" text-anchor="end"  font-weight="regular">0</text>
<line  x1="46.50" y1="257.69" x2="51.50" y2="257.69"  style="stroke: black;stroke-width:1.00"/>
<text  x="42.50" y="261.69" text-anchor="end"  font-weight="regular">1.0</text>
<line  x1="46.50" y1="156.62" x2="51.50" y2="156.62"  style="stroke: black;stroke-width:1.00"/>
<text  x="42.50" y="160.62" text-anchor="end"  font-weight="regular">2.0</text>
<line  x1="46.50" y1="55.54" x2="51.50" y2="55.54"  style="stroke: black;stroke-width:1.00"/>
<text  x="42.50" y="59.54" text-anchor="end"  font-weight="regular">3.0</text>
<rect  x="454.50" y="35.00" width="100.00" height="36.00" style="fill:white; fill-opacity:0.50; stroke:#333; stroke-width:0.50;" />
<defs><clipPath id="leg-area"><rect x="494.50" y="35.00" width="58.00" height="36.00"/>
</clipPath></defs><line  x1="464.50" y1="46.00" x2="494.50" y2="46.00"  style="stroke: #db5f57;stroke-width:2.00"/>
<text clip-path="url(#leg-area)"  x="524.50" y="50.00" text-anchor="middle"  font-weight="regular">mpiric</text>
<line  x1="464.50" y1="61.00" x2="494.50" y2="61.00" stroke-dasharray="5, 5" style="stroke: #dbae57;stroke-width:2.00"/>
<text clip-path="url(#leg-area)"  x="524.50" y="65.00" text-anchor="middle"  font-weight="regular">libm</text>
</svg>

