<svg class="charter" xmlns="http://www.w3.org/2000/svg" version="1.1" width="100%" viewbox="0 0 600 400">
<defs><clipPath id="plot-area"><rect x="52.50" y="25.00" width="512.00" height="350.00"/>
</clipPath></defs><line clip-path="url(#plot-area)"  x1="71.07" y1="25.00" x2="71.07" y2="375.00"  style="stroke: #ccc;stroke-width:0.50"/>
<line clip-path="url(#plot-area)"  x1="165.10" y1="25.00" x2="165.10" y2="375.00"  style="stroke: #ccc;stroke-width:0.50"/>
<line clip-path="url(#plot-area)"  x1="259.13" y1="25.00" x2="259.13" y2="375.00"  style="stroke: #ccc;stroke-width:0.50"/>
<line clip-path="url(#plot-area)"  x1="353.16" y1="25.00" x2="353.16" y2="375.00"  style="stroke: #ccc;stroke-width:0.50"/>
<line clip-path="url(#plot-area)"  x1="447.20" y1="25.00" x2="447.20" y2="375.00"  style="stroke: #ccc;stroke-width:0.50"/>
<line clip-path="url(#plot-area)"  x1="541.23" y1="25.00" x2="541.23" y2="375.00"  style="stroke: #ccc;stroke-width:0.50"/>
<line clip-path="url(#plot-area)"  x1="52.50" y1="369.44" x2="564.50" y2="369.44"  style="stroke: #ccc;stroke-width:0.50"/>
<line clip-path="url(#plot-area)"  x1="52.50" y1="259.87" x2="564.50" y2="259.87"  style="stroke: #ccc;stroke-width:0.50"/>
<line clip-path="url(#plot-area)"  x1="52.50" y1="150.29" x2="564.50" y2="150.29"  style="stroke: #ccc;stroke-width:0.50"/>
<line clip-path="url(#plot-area)"  x1="52.50" y1="40.71" x2="564.50" y2="40.71"  style="stroke: #ccc;stroke-width:0.50"/>
<polyline clip-path="url(#plot-area)" style="fill:none; stroke:#db5f57; stroke-width:2.00;"  points="75.77,359.09 80.47,348.41 85.18,337.60 89.88,326.90 94.58,316.52 99.28,306.71 103.98,297.66 108.68,289.42 113.39,281.39 118.09,273.49 122.79,265.91 127.49,258.55 132.19,251.47 136.89,244.70 141.59,238.27 146.30,232.20 151.00,226.51 155.70,221.23 160.40,216.35 165.10,211.65 169.80,207.04 174.51,202.52 179.21,198.10 183.91,193.77 188.61,189.54 193.31,185.41 198.01,181.42 202.71,177.57 207.42,173.81 212.12,170.17 216.82,166.64 221.52,163.22 226.22,159.91 230.92,156.72 235.63,153.64 240.33,150.68 245.03,147.85 249.73,145.13 254.43,142.53 259.13,140.03 263.84,137.57 268.54,135.14 273.24,132.74 277.94,130.37 282.64,128.02 287.34,125.71 292.04,123.42 296.75,121.16 301.45,118.93 306.15,116.73 310.85,114.56 315.55,112.42 320.25,110.30 324.96,108.22 329.66,106.16 334.36,104.14 339.06,102.18 343.76,100.24 348.46,98.34 353.16,96.46 357.87,94.61 362.57,92.79 367.27,91.00 371.97,89.24 376.67,87.51 381.37,85.81 386.08,84.14 390.78,82.50 395.48,80.89 400.18,79.31 404.88,77.77 409.58,76.25 414.29,74.76 418.99,73.31 423.69,71.89 428.39,70.50 433.09,69.14 437.79,67.81 442.49,66.51 447.20,65.24 451.90,63.98 456.60,62.74 461.30,61.50 466.00,60.27 470.70,59.04 475.41,57.83 480.11,56.62 484.81,55.42 489.51,54.23 494.21,53.04 498.91,51.86 503.61,50.69 508.32,49.53 513.02,48.38 517.72,47.23 522.42,46.09 527.12,44.96 531.82,43.83 536.53,42.71 541.23,41.60 " /><polyline clip-path="url(#plot-area)" style="fill:none; stroke:#dbae57; stroke-width:2.00;" stroke-dasharray="5, 5" points="75.77,358.50 80.47,347.67 85.18,337.05 89.88,326.71 94.58,316.71 99.28,307.11 103.98,297.93 108.68,289.16 113.39,280.81 118.09,272.87 122.79,265.31 127.49,258.12 132.19,251.27 136.89,244.75 141.59,238.53 146.30,232.58 151.00,226.90 155.70,221.47 160.40,216.26 165.10,211.26 169.80,206.45 174.51,201.83 179.21,197.38 183.91,193.09 188.61,188.95 193.31,184.95 198.01,181.08 202.71,177.33 207.42,173.70 212.12,170.18 216.82,166.77 221.52,163.45 226.22,160.23 230.92,157.10 235.63,154.05 240.33,151.08 245.03,148.18 249.73,145.36 254.43,142.60 259.13,139.91 263.84,137.29 268.54,134.72 273.24,132.21 277.94,129.75 282.64,127.35 287.34,125.00 292.04,122.70 296.75,120.44 301.45,118.22 306.15,116.06 310.85,113.93 315.55,111.84 320.25,109.79 324.96,107.77 329.66,105.80 334.36,103.85 339.06,101.94 343.76,100.07 348.46,98.22 353.16,96.40 357.87,94.62 362.57,92.86 367.27,91.13 371.97,89.42 376.67,87.74 381.37,86.09 386.08,84.46 390.78,82.85 395.48,81.27 400.18,79.71 404.88,78.17 409.58,76.65 414.29,75.16 418.99,73.68 423.69,72.22 428.39,70.78 433.09,69.36 437.79,67.96 442.49,66.58 447.20,65.21 451.90,63.86 456.60,62.52 461.30,61.20 466.00,59.90 470.70,58.61 475.41,57.34 480.11,56.08 484.81,54.84 489.51,53.61 494.21,52.39 498.91,51.19 503.61,50.00 508.32,48.82 513.02,47.65 517.72,46.50 522.42,45.36 527.12,44.23 531.82,43.11 536.53,42.00 541.23,40.91 " /><rect  x="52.00" y="25.00" width="512.00" height="350.00" style="fill:none; fill-opacity:1.00; stroke:black; stroke-width:0.50;" />
<line  x1="71.07" y1="376.00" x2="71.07" y2="381.00"  style="stroke: black;stroke-width:1.00"/>
<text  x="71.07" y="395.00" text-anchor="middle"  font-weight="regular">0</text>
<line  x1="165.10" y1="376.00" x2="165.10" y2="381.00"  style="stroke: black;stroke-width:1.00"/>
<text  x="165.10" y="395.00" text-anchor="middle"  font-weight="regular">20.0</text>
<line  x1="259.13" y1="376.00" x2="259.13" y2="381.00"  style="stroke: black;stroke-width:1.00"/>
<text  x="259.13" y="395.00" text-anchor="middle"  font-weight="regular">40.0</text>
<line  x1="353.16" y1="376.00" x2="353.16" y2="381.00"  style="stroke: black;stroke-width:1.00"/>
<text  x="353.16" y="395.00" text-anchor="middle"  font-weight="regular">60.0</text>
<line  x1="447.20" y1="376.00" x2="447.20" y2="381.00"  style="stroke: black;stroke-width:1.00"/>
<text  x="447.20" y="395.00" text-anchor="middle"  font-weight="regular">80.0</text>
<line  x1="541.23" y1="376.00" x2="541.23" y2="381.00"  style="stroke: black;stroke-width:1.00"/>
<text  x="541.23" y="395.00" text-anchor="middle"  font-weight="regular"><tspan>1.0e<tspan  font-size="10" dy="-5" dx="1">2</tspan></tspan></text>
<line  x1="46.50" y1="369.44" x2="51.50" y2="369.44"  style="stroke: black;stroke-width:1.00"/>
<text  x="42.50" y="373.44" text-anchor="end"  font-weight="regular">0</text>
<line  x1="46.50" y1="259.87" x2="51.50" y2="259.87"  style="stroke: black;stroke-width:1.00"/>
<text  x="42.50" y="263.87" text-anchor="end"  font-weight="regular">1.0</text>
<line  x1="46.50" y1="150.29" x2="51.50" y2="150.29"  style="stroke: black;stroke-width:1.00"/>
<text  x="42.50" y="154.29" text-anchor="end"  font-weight="regular">2.0</text>
<line  x1="46.50" y1="40.71" x2="51.50" y2="40.71"  style="stroke: black;stroke-width:1.00"/>
<text  x="42.50" y="44.71" text-anchor="end"  font-weight="regular">3.0</text>
<rect  x="454.50" y="35.00" width="100.00" height="36.00" style="fill:white; fill-opacity:0.50; stroke:#333; stroke-width:0.50;" />
<defs><clipPath id="leg-area"><rect x="494.50" y="35.00" width="58.00" height="36.00"/>
</clipPath></defs><line  x1="464.50" y1="46.00" x2="494.50" y2="46.00"  style="stroke: #db5f57;stroke-width:2.00"/>
<text clip-path="url(#leg-area)"  x="524.50" y="50.00" text-anchor="middle"  font-weight="regular">mpiric</text>
<line  x1="464.50" y1="61.00" x2="494.50" y2="61.00" stroke-dasharray="5, 5" style="stroke: #dbae57;stroke-width:2.00"/>
<text clip-path="url(#leg-area)"  x="524.50" y="65.00" text-anchor="middle"  font-weight="regular">libm</text>
</svg>

