<svg class="charter" xmlns="http://www.w3.org/2000/svg" version="1.1" width="100%" viewbox="0 0 600 400">
<defs><clipPath id="plot-area"><rect x="52.50" y="25.00" width="512.00" height="350.00"/>
</clipPath></defs><line clip-path="url(#plot-area)"  x1="52.50" y1="25.00" x2="52.50" y2="375.00"  style="stroke: #ccc;stroke-width:0.50"/>
<line clip-path="url(#plot-area)"  x1="168.86" y1="25.00" x2="168.86" y2="375.00"  style="stroke: #ccc;stroke-width:0.50"/>
<line clip-path="url(#plot-area)"  x1="285.23" y1="25.00" x2="285.23" y2="375.00"  style="stroke: #ccc;stroke-width:0.50"/>
<line clip-path="url(#plot-area)"  x1="401.59" y1="25.00" x2="401.59" y2="375.00"  style="stroke: #ccc;stroke-width:0.50"/>
<line clip-path="url(#plot-area)"  x1="517.95" y1="25.00" x2="517.95" y2="375.00"  style="stroke: #ccc;stroke-width:0.50"/>
<line clip-path="url(#plot-area)"  x1="52.50" y1="301.08" x2="564.50" y2="301.08"  style="stroke: #ccc;stroke-width:0.50"/>
<line clip-path="url(#plot-area)"  x1="52.50" y1="200.00" x2="564.50" y2="200.00"  style="stroke: #ccc;stroke-width:0.50"/>
<line clip-path="url(#plot-area)"  x1="52.50" y1="98.92" x2="564.50" y2="98.92"  style="stroke: #ccc;stroke-width:0.50"/>
<polyline clip-path="url(#plot-area)" style="fill:none; stroke:#db5f57; stroke-width:2.00;"  points="75.77,359.09 99.05,314.47 122.32,294.36 145.59,278.35 168.86,264.45 192.14,251.83 215.41,240.37 238.68,229.58 261.95,219.32 285.23,209.49 308.50,200.00 331.77,190.51 355.05,180.68 378.32,170.42 401.59,159.63 424.86,148.17 448.14,135.55 471.41,121.65 494.68,105.64 517.95,85.53 541.23,40.91 " /><polyline clip-path="url(#plot-area)" style="fill:none; stroke:#dbae57; stroke-width:2.00;" stroke-dasharray="5, 5" points="75.77,358.77 99.05,313.18 122.32,293.73 145.59,278.37 168.86,265.04 192.14,252.92 215.41,241.59 238.68,230.80 261.95,220.35 285.23,210.12 308.50,200.00 331.77,189.88 355.05,179.65 378.32,169.20 401.59,158.41 424.86,147.08 448.14,134.96 471.41,121.63 494.68,106.27 517.95,86.82 541.23,41.23 " /><rect  x="52.00" y="25.00" width="512.00" height="350.00" style="fill:none; fill-opacity:1.00; stroke:black; stroke-width:0.50;" />
<line  x1="52.50" y1="376.00" x2="52.50" y2="381.00"  style="stroke: black;stroke-width:1.00"/>
<text  x="52.50" y="395.00" text-anchor="middle"  font-weight="regular">0</text>
<line  x1="168.86" y1="376.00" x2="168.86" y2="381.00"  style="stroke: black;stroke-width:1.00"/>
<text  x="168.86" y="395.00" text-anchor="middle"  font-weight="regular">5.0</text>
<line  x1="285.23" y1="376.00" x2="285.23" y2="381.00"  style="stroke: black;stroke-width:1.00"/>
<text  x="285.23" y="395.00" text-anchor="middle"  font-weight="regular">10.0</text>
<line  x1="401.59" y1="376.00" x2="401.59" y2="381.00"  style="stroke: black;stroke-width:1.00"/>
<text  x="401.59" y="395.00" text-anchor="middle"  font-weight="regular">15.0</text>
<line  x1="517.95" y1="376.00" x2="517.95" y2="381.00"  style="stroke: black;stroke-width:1.00"/>
<text  x="517.95" y="395.00" text-anchor="middle"  font-weight="regular">20.0</text>
<line  x1="46.50" y1="301.08" x2="51.50" y2="301.08"  style="stroke: black;stroke-width:1.00"/>
<text  x="42.50" y="305.08" text-anchor="end"  font-weight="regular">-1.0</text>
<line  x1="46.50" y1="200.00" x2="51.50" y2="200.00"  style="stroke: black;stroke-width:1.00"/>
<text  x="42.50" y="204.00" text-anchor="end"  font-weight="regular">0</text>
<line  x1="46.50" y1="98.92" x2="51.50" y2="98.92"  style="stroke: black;stroke-width:1.00"/>
<text  x="42.50" y="102.92" text-anchor="end"  font-weight="regular">1.0</text>
<rect  x="454.50" y="35.00" width="100.00" height="36.00" style="fill:white; fill-opacity:0.50; stroke:#333; stroke-width:0.50;" />
<defs><clipPath id="leg-area"><rect x="494.50" y="35.00" width="58.00" height="36.00"/>
</clipPath></defs><line  x1="464.50" y1="46.00" x2="494.50" y2="46.00"  style="stroke: #db5f57;stroke-width:2.00"/>
<text clip-path="url(#leg-area)"  x="524.50" y="50.00" text-anchor="middle"  font-weight="regular">mpiric</text>
<line  x1="464.50" y1="61.00" x2="494.50" y2="61.00" stroke-dasharray="5, 5" style="stroke: #dbae57;stroke-width:2.00"/>
<text clip-path="url(#leg-area)"  x="524.50" y="65.00" text-anchor="middle"  font-weight="regular">libm</text>
</svg>

