<svg class="charter" xmlns="http://www.w3.org/2000/svg" version="1.1" width="100%" viewbox="0 0 600 400">
<defs><clipPath id="plot-area"><rect x="52.50" y="25.00" width="512.00" height="350.00"/>
</clipPath></defs><line clip-path="url(#plot-area)"  x1="71.02" y1="25.00" x2="71.02" y2="375.00"  style="stroke: #ccc;stroke-width:0.50"/>
<line clip-path="url(#plot-area)"  x1="166.01" y1="25.00" x2="166.01" y2="375.00"  style="stroke: #ccc;stroke-width:0.50"/>
<line clip-path="url(#plot-area)"  x1="261.00" y1="25.00" x2="261.00" y2="375.00"  style="stroke: #ccc;stroke-width:0.50"/>
<line clip-path="url(#plot-area)"  x1="356.00" y1="25.00" x2="356.00" y2="375.00"  style="stroke: #ccc;stroke-width:0.50"/>
<line clip-path="url(#plot-area)"  x1="450.99" y1="25.00" x2="450.99" y2="375.00"  style="stroke: #ccc;stroke-width:0.50"/>
<line clip-path="url(#plot-area)"  x1="545.98" y1="25.00" x2="545.98" y2="375.00"  style="stroke: #ccc;stroke-width:0.50"/>
<line clip-path="url(#plot-area)"  x1="52.50" y1="369.48" x2="564.50" y2="369.48"  style="stroke: #ccc;stroke-width:0.50"/>
<line clip-path="url(#plot-area)"  x1="52.50" y1="259.52" x2="564.50" y2="259.52"  style="stroke: #ccc;stroke-width:0.50"/>
<line clip-path="url(#plot-area)"  x1="52.50" y1="149.57" x2="564.50" y2="149.57"  style="stroke: #ccc;stroke-width:0.50"/>
<line clip-path="url(#plot-area)"  x1="52.50" y1="39.61" x2="564.50" y2="39.61"  style="stroke: #ccc;stroke-width:0.50"/>
<polyline clip-path="url(#plot-area)" style="fill:none; stroke:#db5f57; stroke-width:2.00;"  points="75.77,359.09 80.52,348.37 85.27,337.53 90.02,326.78 94.77,316.38 99.52,306.53 104.27,297.44 109.02,289.18 113.77,281.12 118.52,273.20 123.27,265.58 128.02,258.20 132.77,251.10 137.52,244.30 142.27,237.85 147.02,231.76 151.77,226.06 156.51,220.75 161.26,215.86 166.01,211.14 170.76,206.51 175.51,201.98 180.26,197.54 185.01,193.20 189.76,188.96 194.51,184.81 199.26,180.81 204.01,176.94 208.76,173.17 213.51,169.52 218.26,165.97 223.01,162.54 227.76,159.22 232.51,156.02 237.26,152.93 242.01,149.96 246.76,147.12 251.51,144.39 256.26,141.78 261.00,139.28 265.75,136.81 270.50,134.37 275.25,131.96 280.00,129.58 284.75,127.22 289.50,124.90 294.25,122.61 299.00,120.34 303.75,118.10 308.50,115.90 313.25,113.72 318.00,111.57 322.75,109.44 327.50,107.35 332.25,105.29 337.00,103.26 341.75,101.29 346.50,99.35 351.25,97.43 356.00,95.55 360.74,93.69 365.49,91.87 370.24,90.07 374.99,88.31 379.74,86.57 384.49,84.86 389.24,83.19 393.99,81.54 398.74,79.93 403.49,78.35 408.24,76.79 412.99,75.27 417.74,73.78 422.49,72.32 427.24,70.89 431.99,69.50 436.74,68.13 441.49,66.80 446.24,65.50 450.99,64.22 455.74,62.96 460.49,61.71 465.23,60.47 469.98,59.23 474.73,58.01 479.48,56.79 484.23,55.57 488.98,54.37 493.73,53.17 498.48,51.98 503.23,50.80 507.98,49.63 512.73,48.46 517.48,47.30 522.23,46.15 526.98,45.01 531.73,43.87 536.48,42.74 541.23,41.62 " /><polyline clip-path="url(#plot-area)" style="fill:none; stroke:#dbae57; stroke-width:2.00;" stroke-dasharray="5, 5" points="75.77,358.50 80.52,347.63 85.27,336.97 90.02,326.59 94.77,316.57 99.52,306.93 104.27,297.72 109.02,288.92 113.77,280.54 118.52,272.57 123.27,264.98 128.02,257.77 132.77,250.90 137.52,244.35 142.27,238.11 147.02,232.15 151.77,226.45 156.51,220.99 161.26,215.76 166.01,210.74 170.76,205.92 175.51,201.29 180.26,196.82 185.01,192.51 189.76,188.36 194.51,184.34 199.26,180.46 204.01,176.70 208.76,173.06 213.51,169.53 218.26,166.11 223.01,162.78 227.76,159.55 232.51,156.40 237.26,153.34 242.01,150.36 246.76,147.45 251.51,144.62 256.26,141.85 261.00,139.16 265.75,136.52 270.50,133.94 275.25,131.43 280.00,128.96 284.75,126.55 289.50,124.19 294.25,121.88 299.00,119.61 303.75,117.39 308.50,115.22 313.25,113.08 318.00,110.98 322.75,108.93 327.50,106.91 332.25,104.92 337.00,102.97 341.75,101.05 346.50,99.17 351.25,97.32 356.00,95.50 360.74,93.70 365.49,91.94 370.24,90.20 374.99,88.49 379.74,86.81 384.49,85.15 389.24,83.51 393.99,81.90 398.74,80.31 403.49,78.75 408.24,77.20 412.99,75.68 417.74,74.18 422.49,72.69 427.24,71.23 431.99,69.79 436.74,68.36 441.49,66.95 446.24,65.56 450.99,64.19 455.74,62.84 460.49,61.50 465.23,60.17 469.98,58.87 474.73,57.57 479.48,56.30 484.23,55.03 488.98,53.79 493.73,52.55 498.48,51.33 503.23,50.12 507.98,48.93 512.73,47.75 517.48,46.58 522.23,45.42 526.98,44.27 531.73,43.14 536.48,42.02 541.23,40.91 " /><rect  x="52.00" y="25.00" width="512.00" height="350.00" style="fill:none; fill-opacity:1.00; stroke:black; stroke-width:0.50;" />
<line  x1="71.02" y1="376.00" x2="71.02" y2="381.00"  style="stroke: black;stroke-width:1.00"/>
<text  x="71.02" y="395.00" text-anchor="middle"  font-weight="regular">0</text>
<line  x1="166.01" y1="376.00" x2="166.01" y2="381.00"  style="stroke: black;stroke-width:1.00"/>
<text  x="166.01" y="395.00" text-anchor="middle"  font-weight="regular">20.0</text>
<line  x1="261.00" y1="376.00" x2="261.00" y2="381.00"  style="stroke: black;stroke-width:1.00"/>
<text  x="261.00" y="395.00" text-anchor="middle"  font-weight="regular">40.0</text>
<line  x1="356.00" y1="376.00" x2="356.00" y2="381.00"  style="stroke: black;stroke-width:1.00"/>
<text  x="356.00" y="395.00" text-anchor="middle"  font-weight="regular">60.0</text>
<line  x1="450.99" y1="376.00" x2="450.99" y2="381.00"  style="stroke: black;stroke-width:1.00"/>
<text  x="450.99" y="395.00" text-anchor="middle"  font-weight="regular">80.0</text>
<line  x1="545.98" y1="376.00" x2="545.98" y2="381.00"  style="stroke: black;stroke-width:1.00"/>
<text  x="545.98" y="395.00" text-anchor="middle"  font-weight="regular"><tspan>1.0e<tspan  font-size="10" dy="-5" dx="1">2</tspan></tspan></text>
<line  x1="46.50" y1="369.48" x2="51.50" y2="369.48"  style="stroke: black;stroke-width:1.00"/>
<text  x="42.50" y="373.48" text-anchor="end"  font-weight="regular">0</text>
<line  x1="46.50" y1="259.52" x2="51.50" y2="259.52"  style="stroke: black;stroke-width:1.00"/>
<text  x="42.50" y="263.52" text-anchor="end"  font-weight="regular">1.0</text>
<line  x1="46.50" y1="149.57" x2="51.50" y2="149.57"  style="stroke: black;stroke-width:1.00"/>
<text  x="42.50" y="153.57" text-anchor="end"  font-weight="regular">2.0</text>
<line  x1="46.50" y1="39.61" x2="51.50" y2="39.61"  style="stroke: black;stroke-width:1.00"/>
<text  x="42.50" y="43.61" text-anchor="end"  font-weight="regular">3.0</text>
<rect  x="454.50" y="35.00" width="100.00" height="36.00" style="fill:white; fill-opacity:0.50; stroke:#333; stroke-width:0.50;" />
<defs><clipPath id="leg-area"><rect x="494.50" y="35.00" width="58.00" height="36.00"/>
</clipPath></defs><line  x1="464.50" y1="46.00" x2="494.50" y2="46.00"  style="stroke: #db5f57;stroke-width:2.00"/>
<text clip-path="url(#leg-area)"  x="524.50" y="50.00" text-anchor="middle"  font-weight="regular">mpiric</text>
<line  x1="464.50" y1="61.00" x2="494.50" y2="61.00" stroke-dasharray="5, 5" style="stroke: #dbae57;stroke-width:2.00"/>
<text clip-path="url(#leg-area)"  x="524.50" y="65.00" text-anchor="middle"  font-weight="regular">libm</text>
</svg>

