<svg class="charter" xmlns="http://www.w3.org/2000/svg" version="1.1" width="100%" viewbox="0 0 600 400">
<defs><clipPath id="plot-area"><rect x="52.50" y="25.00" width="512.00" height="350.00"/>
</clipPath></defs><line clip-path="url(#plot-area)"  x1="173.76" y1="25.00" x2="173.76" y2="375.00"  style="stroke: #ccc;stroke-width:0.50"/>
<line clip-path="url(#plot-area)"  x1="296.25" y1="25.00" x2="296.25" y2="375.00"  style="stroke: #ccc;stroke-width:0.50"/>
<line clip-path="url(#plot-area)"  x1="418.74" y1="25.00" x2="418.74" y2="375.00"  style="stroke: #ccc;stroke-width:0.50"/>
<line clip-path="url(#plot-area)"  x1="541.23" y1="25.00" x2="541.23" y2="375.00"  style="stroke: #ccc;stroke-width:0.50"/>
<line clip-path="url(#plot-area)"  x1="52.50" y1="350.39" x2="564.50" y2="350.39"  style="stroke: #ccc;stroke-width:0.50"/>
<line clip-path="url(#plot-area)"  x1="52.50" y1="291.61" x2="564.50" y2="291.61"  style="stroke: #ccc;stroke-width:0.50"/>
<line clip-path="url(#plot-area)"  x1="52.50" y1="232.83" x2="564.50" y2="232.83"  style="stroke: #ccc;stroke-width:0.50"/>
<line clip-path="url(#plot-area)"  x1="52.50" y1="174.05" x2="564.50" y2="174.05"  style="stroke: #ccc;stroke-width:0.50"/>
<line clip-path="url(#plot-area)"  x1="52.50" y1="115.27" x2="564.50" y2="115.27"  style="stroke: #ccc;stroke-width:0.50"/>
<line clip-path="url(#plot-area)"  x1="52.50" y1="56.49" x2="564.50" y2="56.49"  style="stroke: #ccc;stroke-width:0.50"/>
<polyline clip-path="url(#plot-area)" style="fill:none; stroke:#db5f57; stroke-width:2.00;"  points="75.77,359.09 100.27,307.19 124.77,283.81 149.27,265.18 173.76,249.01 198.26,234.33 222.76,221.01 247.26,208.45 271.75,196.52 296.25,185.09 320.75,174.05 345.25,163.01 369.74,151.58 394.24,139.65 418.74,127.09 443.24,113.77 467.73,99.09 492.23,82.92 516.73,64.29 541.23,40.91 " /><polyline clip-path="url(#plot-area)" style="fill:none; stroke:#dbae57; stroke-width:2.00;" stroke-dasharray="5, 5" points="75.77,358.72 100.27,305.69 124.77,283.06 149.27,265.21 173.76,249.70 198.26,235.61 222.76,222.43 247.26,209.87 271.75,197.72 296.25,185.83 320.75,174.05 345.25,162.27 369.74,150.38 394.24,138.23 418.74,125.67 443.24,112.49 467.73,98.40 492.23,82.89 516.73,65.03 541.23,42.41 " /><rect  x="52.00" y="25.00" width="512.00" height="350.00" style="fill:none; fill-opacity:1.00; stroke:black; stroke-width:0.50;" />
<line  x1="173.76" y1="376.00" x2="173.76" y2="381.00"  style="stroke: black;stroke-width:1.00"/>
<text  x="173.76" y="395.00" text-anchor="middle"  font-weight="regular">5.0</text>
<line  x1="296.25" y1="376.00" x2="296.25" y2="381.00"  style="stroke: black;stroke-width:1.00"/>
<text  x="296.25" y="395.00" text-anchor="middle"  font-weight="regular">10.0</text>
<line  x1="418.74" y1="376.00" x2="418.74" y2="381.00"  style="stroke: black;stroke-width:1.00"/>
<text  x="418.74" y="395.00" text-anchor="middle"  font-weight="regular">15.0</text>
<line  x1="541.23" y1="376.00" x2="541.23" y2="381.00"  style="stroke: black;stroke-width:1.00"/>
<text  x="541.23" y="395.00" text-anchor="middle"  font-weight="regular">20.0</text>
<line  x1="46.50" y1="350.39" x2="51.50" y2="350.39"  style="stroke: black;stroke-width:1.00"/>
<text  x="42.50" y="354.39" text-anchor="end"  font-weight="regular">-1.5</text>
<line  x1="46.50" y1="291.61" x2="51.50" y2="291.61"  style="stroke: black;stroke-width:1.00"/>
<text  x="42.50" y="295.61" text-anchor="end"  font-weight="regular">-1.0</text>
<line  x1="46.50" y1="232.83" x2="51.50" y2="232.83"  style="stroke: black;stroke-width:1.00"/>
<text  x="42.50" y="236.83" text-anchor="end"  font-weight="regular">-0.5</text>
<line  x1="46.50" y1="174.05" x2="51.50" y2="174.05"  style="stroke: black;stroke-width:1.00"/>
<text  x="42.50" y="178.05" text-anchor="end"  font-weight="regular">0</text>
<line  x1="46.50" y1="115.27" x2="51.50" y2="115.27"  style="stroke: black;stroke-width:1.00"/>
<text  x="42.50" y="119.27" text-anchor="end"  font-weight="regular">0.5</text>
<line  x1="46.50" y1="56.49" x2="51.50" y2="56.49"  style="stroke: black;stroke-width:1.00"/>
<text  x="42.50" y="60.49" text-anchor="end"  font-weight="regular">1.0</text>
<rect  x="454.50" y="35.00" width="100.00" height="36.00" style="fill:white; fill-opacity:0.50; stroke:#333; stroke-width:0.50;" />
<defs><clipPath id="leg-area"><rect x="494.50" y="35.00" width="58.00" height="36.00"/>
</clipPath></defs><line  x1="464.50" y1="46.00" x2="494.50" y2="46.00"  style="stroke: #db5f57;stroke-width:2.00"/>
<text clip-path="url(#leg-area)"  x="524.50" y="50.00" text-anchor="middle"  font-weight="regular">mpiric</text>
<line  x1="464.50" y1="61.00" x2="494.50" y2="61.00" stroke-dasharray="5, 5" style="stroke: #dbae57;stroke-width:2.00"/>
<text clip-path="url(#leg-area)"  x="524.50" y="65.00" text-anchor="middle"  font-weight="regular">libm</text>
</svg>

