<svg class="charter" xmlns="http://www.w3.org/2000/svg" version="1.1" width="100%" viewbox="0 0 600 400">
<defs><clipPath id="plot-area"><rect x="52.50" y="25.00" width="512.00" height="350.00"/>
</clipPath></defs><line clip-path="url(#plot-area)"  x1="71.02" y1="25.00" x2="71.02" y2="375.00"  style="stroke: #ccc;stroke-width:0.50"/>
<line clip-path="url(#plot-area)"  x1="166.01" y1="25.00" x2="166.01" y2="375.00"  style="stroke: #ccc;stroke-width:0.50"/>
<line clip-path="url(#plot-area)"  x1="261.00" y1="25.00" x2="261.00" y2="375.00"  style="stroke: #ccc;stroke-width:0.50"/>
<line clip-path="url(#plot-area)"  x1="356.00" y1="25.00" x2="356.00" y2="375.00"  style="stroke: #ccc;stroke-width:0.50"/>
<line clip-path="url(#plot-area)"  x1="450.99" y1="25.00" x2="450.99" y2="375.00"  style="stroke: #ccc;stroke-width:0.50"/>
<line clip-path="url(#plot-area)"  x1="545.98" y1="25.00" x2="545.98" y2="375.00"  style="stroke: #ccc;stroke-width:0.50"/>
<line clip-path="url(#plot-area)"  x1="52.50" y1="365.56" x2="564.50" y2="365.56"  style="stroke: #ccc;stroke-width:0.50"/>
<line clip-path="url(#plot-area)"  x1="52.50" y1="255.60" x2="564.50" y2="255.60"  style="stroke: #ccc;stroke-width:0.50"/>
<line clip-path="url(#plot-area)"  x1="52.50" y1="145.64" x2="564.50" y2="145.64"  style="stroke: #ccc;stroke-width:0.50"/>
<line clip-path="url(#plot-area)"  x1="52.50" y1="35.68" x2="564.50" y2="35.68"  style="stroke: #ccc;stroke-width:0.50"/>
<polyline clip-path="url(#plot-area)" style="fill:none; stroke:#db5f57; stroke-width:2.00;"  points="75.77,344.98 80.52,322.81 85.27,301.15 90.02,280.87 94.77,262.27 99.52,245.40 104.27,230.16 109.02,216.42 113.77,204.03 118.52,192.84 123.27,182.71 128.02,173.52 132.77,165.17 137.52,157.56 142.27,150.60 147.02,144.23 151.77,138.37 156.51,132.98 161.26,128.00 166.01,123.40 170.76,119.13 175.51,115.16 180.26,111.47 185.01,108.02 189.76,104.80 194.51,101.79 199.26,98.96 204.01,96.31 208.76,93.81 213.51,91.46 218.26,89.24 223.01,87.14 227.76,85.16 232.51,83.28 237.26,81.50 242.01,79.81 246.76,78.20 251.51,76.67 256.26,75.22 261.00,73.83 265.75,72.50 270.50,71.24 275.25,70.03 280.00,68.87 284.75,67.76 289.50,66.70 294.25,65.68 299.00,64.70 303.75,63.76 308.50,62.86 313.25,61.99 318.00,61.15 322.75,60.35 327.50,59.57 332.25,58.82 337.00,58.10 341.75,57.41 346.50,56.73 351.25,56.08 356.00,55.45 360.74,54.85 365.49,54.26 370.24,53.69 374.99,53.14 379.74,52.60 384.49,52.08 389.24,51.58 393.99,51.09 398.74,50.62 403.49,50.16 408.24,49.71 412.99,49.27 417.74,48.85 422.49,48.44 427.24,48.04 431.99,47.65 436.74,47.27 441.49,46.90 446.24,46.54 450.99,46.19 455.74,45.85 460.49,45.52 465.23,45.19 469.98,44.88 474.73,44.57 479.48,44.27 484.23,43.97 488.98,43.68 493.73,43.40 498.48,43.13 503.23,42.86 507.98,42.60 512.73,42.34 517.48,42.09 522.23,41.84 526.98,41.60 531.73,41.37 536.48,41.13 541.23,40.91 " /><polyline clip-path="url(#plot-area)" style="fill:none; stroke:#dbae57; stroke-width:2.00;" stroke-dasharray="5, 5" points="75.77,343.64 80.52,322.15 85.27,301.46 90.02,281.88 94.77,263.59 99.52,246.71 104.27,231.25 109.02,217.17 113.77,204.40 118.52,192.84 123.27,182.37 128.02,172.90 132.77,164.31 137.52,156.52 142.27,149.43 147.02,142.96 151.77,137.05 156.51,131.63 161.26,126.66 166.01,122.08 170.76,117.85 175.51,113.94 180.26,110.31 185.01,106.94 189.76,103.79 194.51,100.86 199.26,98.12 204.01,95.55 208.76,93.14 213.51,90.87 218.26,88.74 223.01,86.72 227.76,84.82 232.51,83.02 237.26,81.32 242.01,79.70 246.76,78.16 251.51,76.70 256.26,75.31 261.00,73.99 265.75,72.73 270.50,71.52 275.25,70.36 280.00,69.26 284.75,68.20 289.50,67.19 294.25,66.22 299.00,65.28 303.75,64.39 308.50,63.53 313.25,62.70 318.00,61.90 322.75,61.13 327.50,60.38 332.25,59.67 337.00,58.98 341.75,58.31 346.50,57.66 351.25,57.04 356.00,56.43 360.74,55.85 365.49,55.28 370.24,54.73 374.99,54.20 379.74,53.68 384.49,53.18 389.24,52.70 393.99,52.23 398.74,51.77 403.49,51.32 408.24,50.89 412.99,50.46 417.74,50.05 422.49,49.65 427.24,49.26 431.99,48.89 436.74,48.52 441.49,48.16 446.24,47.80 450.99,47.46 455.74,47.13 460.49,46.80 465.23,46.48 469.98,46.17 474.73,45.87 479.48,45.57 484.23,45.28 488.98,45.00 493.73,44.72 498.48,44.45 503.23,44.18 507.98,43.93 512.73,43.67 517.48,43.42 522.23,43.18 526.98,42.94 531.73,42.71 536.48,42.48 541.23,42.25 " /><polyline clip-path="url(#plot-area)" style="fill:none; stroke:#b9db57; stroke-width:2.00;"  points="75.77,355.68 80.52,344.98 85.27,333.93 90.02,322.81 94.77,311.84 99.52,301.15 104.27,290.81 109.02,280.87 113.77,271.35 118.52,262.27 123.27,253.63 128.02,245.40 132.77,237.59 137.52,230.16 142.27,223.11 147.02,216.42 151.77,210.07 156.51,204.03 161.26,198.29 166.01,192.84 170.76,187.65 175.51,182.71 180.26,178.01 185.01,173.52 189.76,169.25 194.51,165.17 199.26,161.28 204.01,157.56 208.76,154.00 213.51,150.60 218.26,147.35 223.01,144.23 227.76,141.24 232.51,138.37 237.26,135.62 242.01,132.98 246.76,130.44 251.51,128.00 256.26,125.66 261.00,123.40 265.75,121.22 270.50,119.13 275.25,117.11 280.00,115.16 284.75,113.28 289.50,111.47 294.25,109.72 299.00,108.02 303.75,106.39 308.50,104.80 313.25,103.27 318.00,101.79 322.75,100.35 327.50,98.96 332.25,97.62 337.00,96.31 341.75,95.04 346.50,93.81 351.25,92.62 356.00,91.46 360.74,90.33 365.49,89.24 370.24,88.18 374.99,87.14 379.74,86.14 384.49,85.16 389.24,84.21 393.99,83.28 398.74,82.38 403.49,81.50 408.24,80.64 412.99,79.81 417.74,78.99 422.49,78.20 427.24,77.43 431.99,76.67 436.74,75.93 441.49,75.22 446.24,74.51 450.99,73.83 455.74,73.16 460.49,72.50 465.23,71.86 469.98,71.24 474.73,70.62 479.48,70.03 484.23,69.44 488.98,68.87 493.73,68.31 498.48,67.76 503.23,67.22 507.98,66.70 512.73,66.18 517.48,65.68 522.23,65.18 526.98,64.70 531.73,64.23 536.48,63.76 541.23,63.30 " /><polyline clip-path="url(#plot-area)" style="fill:none; stroke:#69db57; stroke-width:2.00;" stroke-dasharray="5, 5" points="75.77,354.57 80.52,343.64 85.27,332.81 90.02,322.15 94.77,311.68 99.52,301.46 104.27,291.52 109.02,281.88 113.77,272.56 118.52,263.59 123.27,254.97 128.02,246.71 132.77,238.80 137.52,231.25 142.27,224.04 147.02,217.17 151.77,210.63 156.51,204.40 161.26,198.47 166.01,192.84 170.76,187.47 175.51,182.37 180.26,177.52 185.01,172.90 189.76,168.50 194.51,164.31 199.26,160.32 204.01,156.52 208.76,152.89 213.51,149.43 218.26,146.12 223.01,142.96 227.76,139.94 232.51,137.05 237.26,134.28 242.01,131.63 246.76,129.09 251.51,126.66 256.26,124.32 261.00,122.08 265.75,119.92 270.50,117.85 275.25,115.86 280.00,113.94 284.75,112.09 289.50,110.31 294.25,108.59 299.00,106.94 303.75,105.34 308.50,103.79 313.25,102.30 318.00,100.86 322.75,99.47 327.50,98.12 332.25,96.82 337.00,95.55 341.75,94.33 346.50,93.14 351.25,91.99 356.00,90.87 360.74,89.79 365.49,88.74 370.24,87.72 374.99,86.72 379.74,85.76 384.49,84.82 389.24,83.91 393.99,83.02 398.74,82.16 403.49,81.32 408.24,80.50 412.99,79.70 417.74,78.92 422.49,78.16 427.24,77.43 431.99,76.70 436.74,76.00 441.49,75.31 446.24,74.64 450.99,73.99 455.74,73.35 460.49,72.73 465.23,72.12 469.98,71.52 474.73,70.94 479.48,70.36 484.23,69.81 488.98,69.26 493.73,68.73 498.48,68.20 503.23,67.69 507.98,67.19 512.73,66.70 517.48,66.22 522.23,65.75 526.98,65.28 531.73,64.83 536.48,64.39 541.23,63.95 " /><polyline clip-path="url(#plot-area)" style="fill:none; stroke:#57db94; stroke-width:2.00;"  points="75.77,359.09 80.52,352.18 85.27,344.98 90.02,337.63 94.77,330.22 99.52,322.81 104.27,315.48 109.02,308.24 113.77,301.15 118.52,294.21 123.27,287.45 128.02,280.87 132.77,274.48 137.52,268.28 142.27,262.27 147.02,256.46 151.77,250.84 156.51,245.40 161.26,240.15 166.01,235.07 170.76,230.16 175.51,225.42 180.26,220.84 185.01,216.42 189.76,212.15 194.51,208.02 199.26,204.03 204.01,200.17 208.76,196.44 213.51,192.84 218.26,189.35 223.01,185.97 227.76,182.71 232.51,179.55 237.26,176.49 242.01,173.52 246.76,170.65 251.51,167.87 256.26,165.17 261.00,162.56 265.75,160.02 270.50,157.56 275.25,155.17 280.00,152.85 284.75,150.60 289.50,148.42 294.25,146.29 299.00,144.23 303.75,142.22 308.50,140.27 313.25,138.37 318.00,136.53 322.75,134.73 327.50,132.98 332.25,131.28 337.00,129.62 341.75,128.00 346.50,126.43 351.25,124.89 356.00,123.40 360.74,121.94 365.49,120.52 370.24,119.13 374.99,117.77 379.74,116.45 384.49,115.16 389.24,113.90 393.99,112.67 398.74,111.47 403.49,110.29 408.24,109.14 412.99,108.02 417.74,106.93 422.49,105.85 427.24,104.80 431.99,103.78 436.74,102.77 441.49,101.79 446.24,100.83 450.99,99.89 455.74,98.96 460.49,98.06 465.23,97.18 469.98,96.31 474.73,95.46 479.48,94.63 484.23,93.81 488.98,93.01 493.73,92.23 498.48,91.46 503.23,90.71 507.98,89.97 512.73,89.24 517.48,88.53 522.23,87.83 526.98,87.14 531.73,86.47 536.48,85.81 541.23,85.16 " /><polyline clip-path="url(#plot-area)" style="fill:none; stroke:#57d3db; stroke-width:2.00;" stroke-dasharray="5, 5" points="75.77,358.23 80.52,350.92 85.27,343.64 90.02,336.41 94.77,329.24 99.52,322.15 104.27,315.15 109.02,308.25 113.77,301.46 118.52,294.80 123.27,288.27 128.02,281.88 132.77,275.63 137.52,269.54 142.27,263.59 147.02,257.81 151.77,252.18 156.51,246.71 161.26,241.40 166.01,236.25 170.76,231.25 175.51,226.41 180.26,221.71 185.01,217.17 189.76,212.77 194.51,208.52 199.26,204.40 204.01,200.42 208.76,196.56 213.51,192.84 218.26,189.23 223.01,185.74 227.76,182.37 232.51,179.11 237.26,175.95 242.01,172.90 246.76,169.94 251.51,167.08 256.26,164.31 261.00,161.63 265.75,159.03 270.50,156.52 275.25,154.08 280.00,151.72 284.75,149.43 289.50,147.20 294.25,145.05 299.00,142.96 303.75,140.93 308.50,138.96 313.25,137.05 318.00,135.19 322.75,133.39 327.50,131.63 332.25,129.93 337.00,128.27 341.75,126.66 346.50,125.09 351.25,123.56 356.00,122.08 360.74,120.63 365.49,119.22 370.24,117.85 374.99,116.51 379.74,115.21 384.49,113.94 389.24,112.70 393.99,111.49 398.74,110.31 403.49,109.16 408.24,108.03 412.99,106.94 417.74,105.86 422.49,104.82 427.24,103.79 431.99,102.79 436.74,101.82 441.49,100.86 446.24,99.93 450.99,99.01 455.74,98.12 460.49,97.25 465.23,96.39 469.98,95.55 474.73,94.73 479.48,93.93 484.23,93.14 488.98,92.37 493.73,91.61 498.48,90.87 503.23,90.15 507.98,89.44 512.73,88.74 517.48,88.05 522.23,87.38 526.98,86.72 531.73,86.08 536.48,85.44 541.23,84.82 " /><rect  x="52.00" y="25.00" width="512.00" height="350.00" style="fill:none; fill-opacity:1.00; stroke:black; stroke-width:0.50;" />
<line  x1="71.02" y1="376.00" x2="71.02" y2="381.00"  style="stroke: black;stroke-width:1.00"/>
<text  x="71.02" y="395.00" text-anchor="middle"  font-weight="regular">0</text>
<line  x1="166.01" y1="376.00" x2="166.01" y2="381.00"  style="stroke: black;stroke-width:1.00"/>
<text  x="166.01" y="395.00" text-anchor="middle"  font-weight="regular">20.0</text>
<line  x1="261.00" y1="376.00" x2="261.00" y2="381.00"  style="stroke: black;stroke-width:1.00"/>
<text  x="261.00" y="395.00" text-anchor="middle"  font-weight="regular">40.0</text>
<line  x1="356.00" y1="376.00" x2="356.00" y2="381.00"  style="stroke: black;stroke-width:1.00"/>
<text  x="356.00" y="395.00" text-anchor="middle"  font-weight="regular">60.0</text>
<line  x1="450.99" y1="376.00" x2="450.99" y2="381.00"  style="stroke: black;stroke-width:1.00"/>
<text  x="450.99" y="395.00" text-anchor="middle"  font-weight="regular">80.0</text>
<line  x1="545.98" y1="376.00" x2="545.98" y2="381.00"  style="stroke: black;stroke-width:1.00"/>
<text  x="545.98" y="395.00" text-anchor="middle"  font-weight="regular"><tspan>1.0e<tspan  font-size="10" dy="-5" dx="1">2</tspan></tspan></text>
<line  x1="46.50" y1="365.56" x2="51.50" y2="365.56"  style="stroke: black;stroke-width:1.00"/>
<text  x="42.50" y="369.56" text-anchor="end"  font-weight="regular">0</text>
<line  x1="46.50" y1="255.60" x2="51.50" y2="255.60"  style="stroke: black;stroke-width:1.00"/>
<text  x="42.50" y="259.60" text-anchor="end"  font-weight="regular">0.5</text>
<line  x1="46.50" y1="145.64" x2="51.50" y2="145.64"  style="stroke: black;stroke-width:1.00"/>
<text  x="42.50" y="149.64" text-anchor="end"  font-weight="regular">1.0</text>
<line  x1="46.50" y1="35.68" x2="51.50" y2="35.68"  style="stroke: black;stroke-width:1.00"/>
<text  x="42.50" y="39.68" text-anchor="end"  font-weight="regular">1.5</text>
<rect  x="454.50" y="35.00" width="100.00" height="96.00" style="fill:white; fill-opacity:0.50; stroke:#333; stroke-width:0.50;" />
<defs><clipPath id="leg-area"><rect x="494.50" y="35.00" width="58.00" height="96.00"/>
</clipPath></defs><line  x1="464.50" y1="46.00" x2="494.50" y2="46.00"  style="stroke: #db5f57;stroke-width:2.00"/>
<text clip-path="url(#leg-area)"  x="524.50" y="50.00" text-anchor="middle"  font-weight="regular">mpiric</text>
<line  x1="464.50" y1="61.00" x2="494.50" y2="61.00" stroke-dasharray="5, 5" style="stroke: #dbae57;stroke-width:2.00"/>
<text clip-path="url(#leg-area)"  x="524.50" y="65.00" text-anchor="middle"  font-weight="regular">libm</text>
<line  x1="464.50" y1="76.00" x2="494.50" y2="76.00"  style="stroke: #b9db57;stroke-width:2.00"/>
<text clip-path="url(#leg-area)"  x="524.50" y="80.00" text-anchor="middle"  font-weight="regular">mpiric</text>
<line  x1="464.50" y1="91.00" x2="494.50" y2="91.00" stroke-dasharray="5, 5" style="stroke: #69db57;stroke-width:2.00"/>
<text clip-path="url(#leg-area)"  x="524.50" y="95.00" text-anchor="middle"  font-weight="regular">libm</text>
<line  x1="464.50" y1="106.00" x2="494.50" y2="106.00"  style="stroke: #57db94;stroke-width:2.00"/>
<text clip-path="url(#leg-area)"  x="524.50" y="110.00" text-anchor="middle"  font-weight="regular">mpiric</text>
<line  x1="464.50" y1="121.00" x2="494.50" y2="121.00" stroke-dasharray="5, 5" style="stroke: #57d3db;stroke-width:2.00"/>
<text clip-path="url(#leg-area)"  x="524.50" y="125.00" text-anchor="middle"  font-weight="regular">libm</text>
</svg>

