<svg class="charter" xmlns="http://www.w3.org/2000/svg" version="1.1" width="100%" viewbox="0 0 600 400">
<defs><clipPath id="plot-area"><rect x="52.50" y="25.00" width="512.00" height="350.00"/>
</clipPath></defs><line clip-path="url(#plot-area)"  x1="71.07" y1="25.00" x2="71.07" y2="375.00"  style="stroke: #ccc;stroke-width:0.50"/>
<line clip-path="url(#plot-area)"  x1="165.10" y1="25.00" x2="165.10" y2="375.00"  style="stroke: #ccc;stroke-width:0.50"/>
<line clip-path="url(#plot-area)"  x1="259.13" y1="25.00" x2="259.13" y2="375.00"  style="stroke: #ccc;stroke-width:0.50"/>
<line clip-path="url(#plot-area)"  x1="353.16" y1="25.00" x2="353.16" y2="375.00"  style="stroke: #ccc;stroke-width:0.50"/>
<line clip-path="url(#plot-area)"  x1="447.20" y1="25.00" x2="447.20" y2="375.00"  style="stroke: #ccc;stroke-width:0.50"/>
<line clip-path="url(#plot-area)"  x1="541.23" y1="25.00" x2="541.23" y2="375.00"  style="stroke: #ccc;stroke-width:0.50"/>
<line clip-path="url(#plot-area)"  x1="52.50" y1="311.18" x2="564.50" y2="311.18"  style="stroke: #ccc;stroke-width:0.50"/>
<line clip-path="url(#plot-area)"  x1="52.50" y1="223.81" x2="564.50" y2="223.81"  style="stroke: #ccc;stroke-width:0.50"/>
<line clip-path="url(#plot-area)"  x1="52.50" y1="136.45" x2="564.50" y2="136.45"  style="stroke: #ccc;stroke-width:0.50"/>
<line clip-path="url(#plot-area)"  x1="52.50" y1="49.08" x2="564.50" y2="49.08"  style="stroke: #ccc;stroke-width:0.50"/>
<polyline clip-path="url(#plot-area)" style="fill:none; stroke:#db5f57; stroke-width:2.00;"  points="75.77,49.04 80.47,49.00 85.18,48.95 89.88,48.90 94.58,48.84 99.28,48.78 103.98,48.71 108.68,48.61 113.39,48.44 118.09,40.91 122.79,358.47 127.49,358.61 132.19,358.69 136.89,358.74 141.59,358.78 146.30,358.81 151.00,358.84 155.70,358.86 160.40,358.88 165.10,358.89 169.80,358.91 174.51,358.92 179.21,358.93 183.91,358.94 188.61,358.95 193.31,358.96 198.01,358.96 202.71,358.97 207.42,358.98 212.12,358.98 216.82,358.99 221.52,358.99 226.22,359.00 230.92,359.00 235.63,359.00 240.33,359.01 245.03,359.01 249.73,359.01 254.43,359.02 259.13,359.02 263.84,359.02 268.54,359.03 273.24,359.03 277.94,359.03 282.64,359.03 287.34,359.04 292.04,359.04 296.75,359.04 301.45,359.04 306.15,359.04 310.85,359.05 315.55,359.05 320.25,359.05 324.96,359.05 329.66,359.05 334.36,359.06 339.06,359.06 343.76,359.06 348.46,359.06 353.16,359.06 357.87,359.06 362.57,359.06 367.27,359.06 371.97,359.07 376.67,359.07 381.37,359.07 386.08,359.07 390.78,359.07 395.48,359.07 400.18,359.07 404.88,359.07 409.58,359.07 414.29,359.07 418.99,359.08 423.69,359.08 428.39,359.08 433.09,359.08 437.79,359.08 442.49,359.08 447.20,359.08 451.90,359.08 456.60,359.08 461.30,359.08 466.00,359.08 470.70,359.08 475.41,359.08 480.11,359.08 484.81,359.08 489.51,359.09 494.21,359.09 498.91,359.09 503.61,359.09 508.32,359.09 513.02,359.09 517.72,359.09 522.42,359.09 527.12,359.09 531.82,359.09 536.53,359.09 541.23,359.09 " /><polyline clip-path="url(#plot-area)" style="fill:none; stroke:#dbae57; stroke-width:2.00;" stroke-dasharray="5, 5" points="75.77,49.04 80.47,49.00 85.18,48.95 89.88,48.90 94.58,48.84 99.28,48.78 103.98,48.71 108.68,48.60 113.39,48.44 118.09,40.91 122.79,-nan 127.49,-nan 132.19,-nan 136.89,-nan 141.59,-nan 146.30,-nan 151.00,-nan 155.70,-nan 160.40,-nan 165.10,-nan 169.80,-nan 174.51,-nan 179.21,-nan 183.91,-nan 188.61,-nan 193.31,-nan 198.01,-nan 202.71,-nan 207.42,-nan 212.12,-nan 216.82,-nan 221.52,-nan 226.22,-nan 230.92,-nan 235.63,-nan 240.33,-nan 245.03,-nan 249.73,-nan 254.43,-nan 259.13,-nan 263.84,-nan 268.54,-nan 273.24,-nan 277.94,-nan 282.64,-nan 287.34,-nan 292.04,-nan 296.75,-nan 301.45,-nan 306.15,-nan 310.85,-nan 315.55,-nan 320.25,-nan 324.96,-nan 329.66,-nan 334.36,-nan 339.06,-nan 343.76,-nan 348.46,-nan 353.16,-nan 357.87,-nan 362.57,-nan 367.27,-nan 371.97,-nan 376.67,-nan 381.37,-nan 386.08,-nan 390.78,-nan 395.48,-nan 400.18,-nan 404.88,-nan 409.58,-nan 414.29,-nan 418.99,-nan 423.69,-nan 428.39,-nan 433.09,-nan 437.79,-nan 442.49,-nan 447.20,-nan 451.90,-nan 456.60,-nan 461.30,-nan 466.00,-nan 470.70,-nan 475.41,-nan 480.11,-nan 484.81,-nan 489.51,-nan 494.21,-nan 498.91,-nan 503.61,-nan 508.32,-nan 513.02,-nan 517.72,-nan 522.42,-nan 527.12,-nan 531.82,-nan 536.53,-nan 541.23,-nan " /><rect  x="52.00" y="25.00" width="512.00" height="350.00" style="fill:none; fill-opacity:1.00; stroke:black; stroke-width:0.50;" />
<line  x1="71.07" y1="376.00" x2="71.07" y2="381.00"  style="stroke: black;stroke-width:1.00"/>
<text  x="71.07" y="395.00" text-anchor="middle"  font-weight="regular">0</text>
<line  x1="165.10" y1="376.00" x2="165.10" y2="381.00"  style="stroke: black;stroke-width:1.00"/>
<text  x="165.10" y="395.00" text-anchor="middle"  font-weight="regular">20.0</text>
<line  x1="259.13" y1="376.00" x2="259.13" y2="381.00"  style="stroke: black;stroke-width:1.00"/>
<text  x="259.13" y="395.00" text-anchor="middle"  font-weight="regular">40.0</text>
<line  x1="353.16" y1="376.00" x2="353.16" y2="381.00"  style="stroke: black;stroke-width:1.00"/>
<text  x="353.16" y="395.00" text-anchor="middle"  font-weight="regular">60.0</text>
<line  x1="447.20" y1="376.00" x2="447.20" y2="381.00"  style="stroke: black;stroke-width:1.00"/>
<text  x="447.20" y="395.00" text-anchor="middle"  font-weight="regular">80.0</text>
<line  x1="541.23" y1="376.00" x2="541.23" y2="381.00"  style="stroke: black;stroke-width:1.00"/>
<text  x="541.23" y="395.00" text-anchor="middle"  font-weight="regular"><tspan>1.0e<tspan  font-size="10" dy="-5" dx="1">2</tspan></tspan></text>
<line  x1="46.50" y1="311.18" x2="51.50" y2="311.18"  style="stroke: black;stroke-width:1.00"/>
<text  x="42.50" y="315.18" text-anchor="end"  font-weight="regular"><tspan>-6.0e<tspan  font-size="10" dy="-5" dx="1">2</tspan></tspan></text>
<line  x1="46.50" y1="223.81" x2="51.50" y2="223.81"  style="stroke: black;stroke-width:1.00"/>
<text  x="42.50" y="227.81" text-anchor="end"  font-weight="regular"><tspan>-4.0e<tspan  font-size="10" dy="-5" dx="1">2</tspan></tspan></text>
<line  x1="46.50" y1="136.45" x2="51.50" y2="136.45"  style="stroke: black;stroke-width:1.00"/>
<text  x="42.50" y="140.45" text-anchor="end"  font-weight="regular"><tspan>-2.0e<tspan  font-size="10" dy="-5" dx="1">2</tspan></tspan></text>
<line  x1="46.50" y1="49.08" x2="51.50" y2="49.08"  style="stroke: black;stroke-width:1.00"/>
<text  x="42.50" y="53.08" text-anchor="end"  font-weight="regular">0</text>
<rect  x="454.50" y="35.00" width="100.00" height="36.00" style="fill:white; fill-opacity:0.50; stroke:#333; stroke-width:0.50;" />
<defs><clipPath id="leg-area"><rect x="494.50" y="35.00" width="58.00" height="36.00"/>
</clipPath></defs><line  x1="464.50" y1="46.00" x2="494.50" y2="46.00"  style="stroke: #db5f57;stroke-width:2.00"/>
<text clip-path="url(#leg-area)"  x="524.50" y="50.00" text-anchor="middle"  font-weight="regular">mpiric</text>
<line  x1="464.50" y1="61.00" x2="494.50" y2="61.00" stroke-dasharray="5, 5" style="stroke: #dbae57;stroke-width:2.00"/>
<text clip-path="url(#leg-area)"  x="524.50" y="65.00" text-anchor="middle"  font-weight="regular">libm</text>
</svg>

