<svg class="charter" xmlns="http://www.w3.org/2000/svg" version="1.1" width="100%" viewbox="0 0 600 400">
<defs><clipPath id="plot-area"><rect x="52.50" y="25.00" width="512.00" height="350.00"/>
</clipPath></defs><line clip-path="url(#plot-area)"  x1="71.02" y1="25.00" x2="71.02" y2="375.00"  style="stroke: #ccc;stroke-width:0.50"/>
<line clip-path="url(#plot-area)"  x1="166.01" y1="25.00" x2="166.01" y2="375.00"  style="stroke: #ccc;stroke-width:0.50"/>
<line clip-path="url(#plot-area)"  x1="261.00" y1="25.00" x2="261.00" y2="375.00"  style="stroke: #ccc;stroke-width:0.50"/>
<line clip-path="url(#plot-area)"  x1="356.00" y1="25.00" x2="356.00" y2="375.00"  style="stroke: #ccc;stroke-width:0.50"/>
<line clip-path="url(#plot-area)"  x1="450.99" y1="25.00" x2="450.99" y2="375.00"  style="stroke: #ccc;stroke-width:0.50"/>
<line clip-path="url(#plot-area)"  x1="545.98" y1="25.00" x2="545.98" y2="375.00"  style="stroke: #ccc;stroke-width:0.50"/>
<line clip-path="url(#plot-area)"  x1="52.50" y1="265.56" x2="564.50" y2="265.56"  style="stroke: #ccc;stroke-width:0.50"/>
<line clip-path="url(#plot-area)"  x1="52.50" y1="150.50" x2="564.50" y2="150.50"  style="stroke: #ccc;stroke-width:0.50"/>
<line clip-path="url(#plot-area)"  x1="52.50" y1="35.44" x2="564.50" y2="35.44"  style="stroke: #ccc;stroke-width:0.50"/>
<polyline clip-path="url(#plot-area)" style="fill:none; stroke:#db5f57; stroke-width:2.00;"  points="75.77,359.09 80.52,335.89 85.27,313.22 90.02,292.00 94.77,272.54 99.52,254.89 104.27,238.94 109.02,224.56 113.77,211.60 118.52,199.88 123.27,189.29 128.02,179.68 132.77,170.94 137.52,162.97 142.27,155.69 147.02,149.02 151.77,142.89 156.51,137.25 161.26,132.04 166.01,127.22 170.76,122.76 175.51,118.61 180.26,114.74 185.01,111.14 189.76,107.77 194.51,104.61 199.26,101.66 204.01,98.88 208.76,96.27 213.51,93.80 218.26,91.48 223.01,89.29 227.76,87.21 232.51,85.25 237.26,83.38 242.01,81.61 246.76,79.93 251.51,78.33 256.26,76.81 261.00,75.35 265.75,73.97 270.50,72.64 275.25,71.38 280.00,70.17 284.75,69.01 289.50,67.89 294.25,66.83 299.00,65.80 303.75,64.82 308.50,63.88 313.25,62.97 318.00,62.09 322.75,61.25 327.50,60.44 332.25,59.66 337.00,58.90 341.75,58.17 346.50,57.47 351.25,56.79 356.00,56.13 360.74,55.49 365.49,54.88 370.24,54.28 374.99,53.70 379.74,53.14 384.49,52.60 389.24,52.07 393.99,51.56 398.74,51.07 403.49,50.59 408.24,50.12 412.99,49.66 417.74,49.22 422.49,48.79 427.24,48.37 431.99,47.96 436.74,47.57 441.49,47.18 446.24,46.81 450.99,46.44 455.74,46.08 460.49,45.73 465.23,45.39 469.98,45.06 474.73,44.74 479.48,44.42 484.23,44.11 488.98,43.81 493.73,43.52 498.48,43.23 503.23,42.95 507.98,42.67 512.73,42.40 517.48,42.14 522.23,41.88 526.98,41.63 531.73,41.39 536.48,41.15 541.23,40.91 " /><polyline clip-path="url(#plot-area)" style="fill:none; stroke:#dbae57; stroke-width:2.00;" stroke-dasharray="5, 5" points="75.77,357.68 80.52,335.19 85.27,313.55 90.02,293.06 94.77,273.92 99.52,256.26 104.27,240.08 109.02,225.35 113.77,211.98 118.52,199.88 123.27,188.93 128.02,179.02 132.77,170.04 137.52,161.88 142.27,154.46 147.02,147.69 151.77,141.51 156.51,135.84 161.26,130.64 166.01,125.84 170.76,121.42 175.51,117.32 180.26,113.53 185.01,110.00 189.76,106.71 194.51,103.64 199.26,100.77 204.01,98.09 208.76,95.56 213.51,93.19 218.26,90.96 223.01,88.85 227.76,86.86 232.51,84.98 237.26,83.19 242.01,81.50 246.76,79.89 251.51,78.36 256.26,76.91 261.00,75.52 265.75,74.20 270.50,72.94 275.25,71.73 280.00,70.58 284.75,69.47 289.50,68.41 294.25,67.39 299.00,66.42 303.75,65.48 308.50,64.57 313.25,63.71 318.00,62.87 322.75,62.06 327.50,61.29 332.25,60.54 337.00,59.81 341.75,59.12 346.50,58.44 351.25,57.79 356.00,57.15 360.74,56.54 365.49,55.95 370.24,55.37 374.99,54.82 379.74,54.28 384.49,53.75 389.24,53.24 393.99,52.75 398.74,52.27 403.49,51.80 408.24,51.35 412.99,50.91 417.74,50.48 422.49,50.06 427.24,49.65 431.99,49.26 436.74,48.87 441.49,48.49 446.24,48.12 450.99,47.77 455.74,47.42 460.49,47.08 465.23,46.74 469.98,46.42 474.73,46.10 479.48,45.79 484.23,45.48 488.98,45.19 493.73,44.90 498.48,44.61 503.23,44.34 507.98,44.07 512.73,43.80 517.48,43.54 522.23,43.28 526.98,43.03 531.73,42.79 536.48,42.55 541.23,42.32 " /><rect  x="52.00" y="25.00" width="512.00" height="350.00" style="fill:none; fill-opacity:1.00; stroke:black; stroke-width:0.50;" />
<line  x1="71.02" y1="376.00" x2="71.02" y2="381.00"  style="stroke: black;stroke-width:1.00"/>
<text  x="71.02" y="395.00" text-anchor="middle"  font-weight="regular">0</text>
<line  x1="166.01" y1="376.00" x2="166.01" y2="381.00"  style="stroke: black;stroke-width:1.00"/>
<text  x="166.01" y="395.00" text-anchor="middle"  font-weight="regular">20.0</text>
<line  x1="261.00" y1="376.00" x2="261.00" y2="381.00"  style="stroke: black;stroke-width:1.00"/>
<text  x="261.00" y="395.00" text-anchor="middle"  font-weight="regular">40.0</text>
<line  x1="356.00" y1="376.00" x2="356.00" y2="381.00"  style="stroke: black;stroke-width:1.00"/>
<text  x="356.00" y="395.00" text-anchor="middle"  font-weight="regular">60.0</text>
<line  x1="450.99" y1="376.00" x2="450.99" y2="381.00"  style="stroke: black;stroke-width:1.00"/>
<text  x="450.99" y="395.00" text-anchor="middle"  font-weight="regular">80.0</text>
<line  x1="545.98" y1="376.00" x2="545.98" y2="381.00"  style="stroke: black;stroke-width:1.00"/>
<text  x="545.98" y="395.00" text-anchor="middle"  font-weight="regular"><tspan>1.0e<tspan  font-size="10" dy="-5" dx="1">2</tspan></tspan></text>
<line  x1="46.50" y1="265.56" x2="51.50" y2="265.56"  style="stroke: black;stroke-width:1.00"/>
<text  x="42.50" y="269.56" text-anchor="end"  font-weight="regular">0.5</text>
<line  x1="46.50" y1="150.50" x2="51.50" y2="150.50"  style="stroke: black;stroke-width:1.00"/>
<text  x="42.50" y="154.50" text-anchor="end"  font-weight="regular">1.0</text>
<line  x1="46.50" y1="35.44" x2="51.50" y2="35.44"  style="stroke: black;stroke-width:1.00"/>
<text  x="42.50" y="39.44" text-anchor="end"  font-weight="regular">1.5</text>
<rect  x="454.50" y="35.00" width="100.00" height="36.00" style="fill:white; fill-opacity:0.50; stroke:#333; stroke-width:0.50;" />
<defs><clipPath id="leg-area"><rect x="494.50" y="35.00" width="58.00" height="36.00"/>
</clipPath></defs><line  x1="464.50" y1="46.00" x2="494.50" y2="46.00"  style="stroke: #db5f57;stroke-width:2.00"/>
<text clip-path="url(#leg-area)"  x="524.50" y="50.00" text-anchor="middle"  font-weight="regular">mpiric</text>
<line  x1="464.50" y1="61.00" x2="494.50" y2="61.00" stroke-dasharray="5, 5" style="stroke: #dbae57;stroke-width:2.00"/>
<text clip-path="url(#leg-area)"  x="524.50" y="65.00" text-anchor="middle"  font-weight="regular">libm</text>
</svg>

