<svg class="charter" xmlns="http://www.w3.org/2000/svg" version="1.1" width="100%" viewbox="0 0 600 400">
<defs><clipPath id="plot-area"><rect x="52.50" y="25.00" width="512.00" height="350.00"/>
</clipPath></defs><line clip-path="url(#plot-area)"  x1="71.07" y1="25.00" x2="71.07" y2="375.00"  style="stroke: #ccc;stroke-width:0.50"/>
<line clip-path="url(#plot-area)"  x1="165.10" y1="25.00" x2="165.10" y2="375.00"  style="stroke: #ccc;stroke-width:0.50"/>
<line clip-path="url(#plot-area)"  x1="259.13" y1="25.00" x2="259.13" y2="375.00"  style="stroke: #ccc;stroke-width:0.50"/>
<line clip-path="url(#plot-area)"  x1="353.16" y1="25.00" x2="353.16" y2="375.00"  style="stroke: #ccc;stroke-width:0.50"/>
<line clip-path="url(#plot-area)"  x1="447.20" y1="25.00" x2="447.20" y2="375.00"  style="stroke: #ccc;stroke-width:0.50"/>
<line clip-path="url(#plot-area)"  x1="541.23" y1="25.00" x2="541.23" y2="375.00"  style="stroke: #ccc;stroke-width:0.50"/>
<line clip-path="url(#plot-area)"  x1="52.50" y1="265.63" x2="564.50" y2="265.63"  style="stroke: #ccc;stroke-width:0.50"/>
<line clip-path="url(#plot-area)"  x1="52.50" y1="150.65" x2="564.50" y2="150.65"  style="stroke: #ccc;stroke-width:0.50"/>
<line clip-path="url(#plot-area)"  x1="52.50" y1="35.68" x2="564.50" y2="35.68"  style="stroke: #ccc;stroke-width:0.50"/>
<polyline clip-path="url(#plot-area)" style="fill:none; stroke:#db5f57; stroke-width:2.00;"  points="75.77,359.09 80.47,335.91 85.18,313.26 89.88,292.05 94.58,272.61 99.28,254.96 103.98,239.03 108.68,224.66 113.39,211.70 118.09,200.00 122.79,189.41 127.49,179.81 132.19,171.07 136.89,163.12 141.59,155.84 146.30,149.17 151.00,143.05 155.70,137.41 160.40,132.21 165.10,127.39 169.80,122.93 174.51,118.78 179.21,114.92 183.91,111.32 188.61,107.95 193.31,104.80 198.01,101.84 202.71,99.07 207.42,96.46 212.12,94.00 216.82,91.68 221.52,89.48 226.22,87.41 230.92,85.45 235.63,83.58 240.33,81.81 245.03,80.13 249.73,78.54 254.43,77.01 259.13,75.56 263.84,74.17 268.54,72.85 273.24,71.59 277.94,70.38 282.64,69.22 287.34,68.11 292.04,67.04 296.75,66.02 301.45,65.03 306.15,64.09 310.85,63.18 315.55,62.31 320.25,61.47 324.96,60.66 329.66,59.87 334.36,59.12 339.06,58.39 343.76,57.69 348.46,57.01 353.16,56.35 357.87,55.71 362.57,55.10 367.27,54.50 371.97,53.92 376.67,53.37 381.37,52.82 386.08,52.30 390.78,51.79 395.48,51.29 400.18,50.81 404.88,50.34 409.58,49.89 414.29,49.45 418.99,49.02 423.69,48.60 428.39,48.19 433.09,47.79 437.79,47.41 442.49,47.03 447.20,46.67 451.90,46.31 456.60,45.96 461.30,45.62 466.00,45.29 470.70,44.97 475.41,44.65 480.11,44.34 484.81,44.04 489.51,43.75 494.21,43.46 498.91,43.18 503.61,42.90 508.32,42.63 513.02,42.37 517.72,42.11 522.42,41.86 527.12,41.62 531.82,41.38 536.53,41.14 541.23,40.91 " /><polyline clip-path="url(#plot-area)" style="fill:none; stroke:#dbae57; stroke-width:2.00;" stroke-dasharray="5, 5" points="75.77,357.68 80.47,335.21 85.18,313.58 89.88,293.11 94.58,273.99 99.28,256.33 103.98,240.17 108.68,225.45 113.39,212.09 118.09,200.00 122.79,189.06 127.49,179.15 132.19,170.17 136.89,162.02 141.59,154.61 146.30,147.85 151.00,141.67 155.70,136.00 160.40,130.80 165.10,126.01 169.80,121.59 174.51,117.50 179.21,113.71 183.91,110.18 188.61,106.89 193.31,103.83 198.01,100.96 202.71,98.28 207.42,95.75 212.12,93.38 216.82,91.15 221.52,89.05 226.22,87.06 230.92,85.17 235.63,83.39 240.33,81.70 245.03,80.10 249.73,78.57 254.43,77.12 259.13,75.73 263.84,74.41 268.54,73.15 273.24,71.94 277.94,70.79 282.64,69.68 287.34,68.62 292.04,67.60 296.75,66.63 301.45,65.69 306.15,64.79 310.85,63.92 315.55,63.09 320.25,62.28 324.96,61.50 329.66,60.75 334.36,60.03 339.06,59.33 343.76,58.66 348.46,58.01 353.16,57.37 357.87,56.76 362.57,56.17 367.27,55.60 371.97,55.04 376.67,54.50 381.37,53.98 386.08,53.47 390.78,52.97 395.48,52.49 400.18,52.03 404.88,51.57 409.58,51.13 414.29,50.70 418.99,50.28 423.69,49.88 428.39,49.48 433.09,49.09 437.79,48.72 442.49,48.35 447.20,47.99 451.90,47.64 456.60,47.30 461.30,46.97 466.00,46.64 470.70,46.33 475.41,46.02 480.11,45.71 484.81,45.42 489.51,45.13 494.21,44.84 498.91,44.57 503.61,44.29 508.32,44.03 513.02,43.77 517.72,43.51 522.42,43.26 527.12,43.02 531.82,42.78 536.53,42.55 541.23,42.32 " /><rect  x="52.00" y="25.00" width="512.00" height="350.00" style="fill:none; fill-opacity:1.00; stroke:black; stroke-width:0.50;" />
<line  x1="71.07" y1="376.00" x2="71.07" y2="381.00"  style="stroke: black;stroke-width:1.00"/>
<text  x="71.07" y="395.00" text-anchor="middle"  font-weight="regular">0</text>
<line  x1="165.10" y1="376.00" x2="165.10" y2="381.00"  style="stroke: black;stroke-width:1.00"/>
<text  x="165.10" y="395.00" text-anchor="middle"  font-weight="regular">20.0</text>
<line  x1="259.13" y1="376.00" x2="259.13" y2="381.00"  style="stroke: black;stroke-width:1.00"/>
<text  x="259.13" y="395.00" text-anchor="middle"  font-weight="regular">40.0</text>
<line  x1="353.16" y1="376.00" x2="353.16" y2="381.00"  style="stroke: black;stroke-width:1.00"/>
<text  x="353.16" y="395.00" text-anchor="middle"  font-weight="regular">60.0</text>
<line  x1="447.20" y1="376.00" x2="447.20" y2="381.00"  style="stroke: black;stroke-width:1.00"/>
<text  x="447.20" y="395.00" text-anchor="middle"  font-weight="regular">80.0</text>
<line  x1="541.23" y1="376.00" x2="541.23" y2="381.00"  style="stroke: black;stroke-width:1.00"/>
<text  x="541.23" y="395.00" text-anchor="middle"  font-weight="regular"><tspan>1.0e<tspan  font-size="10" dy="-5" dx="1">2</tspan></tspan></text>
<line  x1="46.50" y1="265.63" x2="51.50" y2="265.63"  style="stroke: black;stroke-width:1.00"/>
<text  x="42.50" y="269.63" text-anchor="end"  font-weight="regular">0.5</text>
<line  x1="46.50" y1="150.65" x2="51.50" y2="150.65"  style="stroke: black;stroke-width:1.00"/>
<text  x="42.50" y="154.65" text-anchor="end"  font-weight="regular">1.0</text>
<line  x1="46.50" y1="35.68" x2="51.50" y2="35.68"  style="stroke: black;stroke-width:1.00"/>
<text  x="42.50" y="39.68" text-anchor="end"  font-weight="regular">1.5</text>
<rect  x="454.50" y="35.00" width="100.00" height="36.00" style="fill:white; fill-opacity:0.50; stroke:#333; stroke-width:0.50;" />
<defs><clipPath id="leg-area"><rect x="494.50" y="35.00" width="58.00" height="36.00"/>
</clipPath></defs><line  x1="464.50" y1="46.00" x2="494.50" y2="46.00"  style="stroke: #db5f57;stroke-width:2.00"/>
<text clip-path="url(#leg-area)"  x="524.50" y="50.00" text-anchor="middle"  font-weight="regular">mpiric</text>
<line  x1="464.50" y1="61.00" x2="494.50" y2="61.00" stroke-dasharray="5, 5" style="stroke: #dbae57;stroke-width:2.00"/>
<text clip-path="url(#leg-area)"  x="524.50" y="65.00" text-anchor="middle"  font-weight="regular">libm</text>
</svg>

