<svg class="charter" xmlns="http://www.w3.org/2000/svg" version="1.1" width="100%" viewbox="0 0 600 400">
<defs><clipPath id="plot-area"><rect x="52.50" y="25.00" width="512.00" height="350.00"/>
</clipPath></defs><line clip-path="url(#plot-area)"  x1="71.07" y1="25.00" x2="71.07" y2="375.00"  style="stroke: #ccc;stroke-width:0.50"/>
<line clip-path="url(#plot-area)"  x1="165.10" y1="25.00" x2="165.10" y2="375.00"  style="stroke: #ccc;stroke-width:0.50"/>
<line clip-path="url(#plot-area)"  x1="259.13" y1="25.00" x2="259.13" y2="375.00"  style="stroke: #ccc;stroke-width:0.50"/>
<line clip-path="url(#plot-area)"  x1="353.16" y1="25.00" x2="353.16" y2="375.00"  style="stroke: #ccc;stroke-width:0.50"/>
<line clip-path="url(#plot-area)"  x1="447.20" y1="25.00" x2="447.20" y2="375.00"  style="stroke: #ccc;stroke-width:0.50"/>
<line clip-path="url(#plot-area)"  x1="541.23" y1="25.00" x2="541.23" y2="375.00"  style="stroke: #ccc;stroke-width:0.50"/>
<line clip-path="url(#plot-area)"  x1="52.50" y1="365.55" x2="564.50" y2="365.55"  style="stroke: #ccc;stroke-width:0.50"/>
<line clip-path="url(#plot-area)"  x1="52.50" y1="255.67" x2="564.50" y2="255.67"  style="stroke: #ccc;stroke-width:0.50"/>
<line clip-path="url(#plot-area)"  x1="52.50" y1="145.79" x2="564.50" y2="145.79"  style="stroke: #ccc;stroke-width:0.50"/>
<line clip-path="url(#plot-area)"  x1="52.50" y1="35.91" x2="564.50" y2="35.91"  style="stroke: #ccc;stroke-width:0.50"/>
<polyline clip-path="url(#plot-area)" style="fill:none; stroke:#db5f57; stroke-width:2.00;"  points="75.77,344.99 80.47,322.84 85.18,301.19 89.88,280.92 94.58,262.34 99.28,245.48 103.98,230.25 108.68,216.52 113.39,204.14 118.09,192.95 122.79,182.83 127.49,173.65 132.19,165.31 136.89,157.70 141.59,150.75 146.30,144.38 151.00,138.53 155.70,133.14 160.40,128.16 165.10,123.56 169.80,119.29 174.51,115.33 179.21,111.64 183.91,108.20 188.61,104.98 193.31,101.97 198.01,99.14 202.71,96.49 207.42,94.00 212.12,91.64 216.82,89.43 221.52,87.33 226.22,85.35 230.92,83.47 235.63,81.69 240.33,80.00 245.03,78.40 249.73,76.87 254.43,75.41 259.13,74.02 263.84,72.70 268.54,71.44 273.24,70.23 277.94,69.07 282.64,67.96 287.34,66.90 292.04,65.88 296.75,64.90 301.45,63.97 306.15,63.06 310.85,62.20 315.55,61.36 320.25,60.56 324.96,59.78 329.66,59.03 334.36,58.31 339.06,57.62 343.76,56.94 348.46,56.29 353.16,55.67 357.87,55.06 362.57,54.47 367.27,53.90 371.97,53.35 376.67,52.81 381.37,52.29 386.08,51.79 390.78,51.30 395.48,50.83 400.18,50.37 404.88,49.92 409.58,49.49 414.29,49.07 418.99,48.66 423.69,48.26 428.39,47.87 433.09,47.49 437.79,47.12 442.49,46.76 447.20,46.41 451.90,46.07 456.60,45.74 461.30,45.41 466.00,45.10 470.70,44.79 475.41,44.48 480.11,44.19 484.81,43.90 489.51,43.62 494.21,43.35 498.91,43.08 503.61,42.82 508.32,42.56 513.02,42.31 517.72,42.06 522.42,41.82 527.12,41.59 531.82,41.36 536.53,41.13 541.23,40.91 " /><polyline clip-path="url(#plot-area)" style="fill:none; stroke:#dbae57; stroke-width:2.00;" stroke-dasharray="5, 5" points="75.77,343.65 80.47,322.17 85.18,301.50 89.88,281.93 94.58,263.66 99.28,246.79 103.98,231.34 108.68,217.27 113.39,204.51 118.09,192.95 122.79,182.49 127.49,173.03 132.19,164.45 136.89,156.66 141.59,149.57 146.30,143.11 151.00,137.20 155.70,131.79 160.40,126.82 165.10,122.24 169.80,118.02 174.51,114.11 179.21,110.48 183.91,107.11 188.61,103.97 193.31,101.04 198.01,98.30 202.71,95.73 207.42,93.32 212.12,91.06 216.82,88.93 221.52,86.91 226.22,85.01 230.92,83.21 235.63,81.51 240.33,79.89 245.03,78.36 249.73,76.90 254.43,75.51 259.13,74.19 263.84,72.92 268.54,71.72 273.24,70.57 277.94,69.46 282.64,68.41 287.34,67.39 292.04,66.42 296.75,65.49 301.45,64.59 306.15,63.73 310.85,62.90 315.55,62.10 320.25,61.33 324.96,60.59 329.66,59.88 334.36,59.18 339.06,58.52 343.76,57.87 348.46,57.25 353.16,56.64 357.87,56.06 362.57,55.49 367.27,54.94 371.97,54.41 376.67,53.90 381.37,53.40 386.08,52.91 390.78,52.44 395.48,51.98 400.18,51.53 404.88,51.10 409.58,50.68 414.29,50.27 418.99,49.87 423.69,49.48 428.39,49.10 433.09,48.73 437.79,48.37 442.49,48.02 447.20,47.68 451.90,47.34 456.60,47.02 461.30,46.70 466.00,46.39 470.70,46.09 475.41,45.79 480.11,45.50 484.81,45.22 489.51,44.94 494.21,44.67 498.91,44.40 503.61,44.14 508.32,43.89 513.02,43.64 517.72,43.40 522.42,43.16 527.12,42.93 531.82,42.70 536.53,42.47 541.23,42.25 " /><polyline clip-path="url(#plot-area)" style="fill:none; stroke:#b9db57; stroke-width:2.00;"  points="75.77,355.68 80.47,344.99 85.18,333.94 89.88,322.84 94.58,311.88 99.28,301.19 103.98,290.86 108.68,280.92 113.39,271.41 118.09,262.34 122.79,253.70 127.49,245.48 132.19,237.67 136.89,230.25 141.59,223.21 146.30,216.52 151.00,210.17 155.70,204.14 160.40,198.40 165.10,192.95 169.80,187.77 174.51,182.83 179.21,178.13 183.91,173.65 188.61,169.38 193.31,165.31 198.01,161.42 202.71,157.70 207.42,154.15 212.12,150.75 216.82,147.49 221.52,144.38 226.22,141.39 230.92,138.53 235.63,135.78 240.33,133.14 245.03,130.60 249.73,128.16 254.43,125.82 259.13,123.56 263.84,121.39 268.54,119.29 273.24,117.28 277.94,115.33 282.64,113.45 287.34,111.64 292.04,109.89 296.75,108.20 301.45,106.56 306.15,104.98 310.85,103.45 315.55,101.97 320.25,100.53 324.96,99.14 329.66,97.80 334.36,96.49 339.06,95.22 343.76,94.00 348.46,92.80 353.16,91.64 357.87,90.52 362.57,89.43 367.27,88.36 371.97,87.33 376.67,86.33 381.37,85.35 386.08,84.40 390.78,83.47 395.48,82.57 400.18,81.69 404.88,80.84 409.58,80.00 414.29,79.19 418.99,78.40 423.69,77.62 428.39,76.87 433.09,76.13 437.79,75.41 442.49,74.71 447.20,74.02 451.90,73.36 456.60,72.70 461.30,72.06 466.00,71.44 470.70,70.82 475.41,70.23 480.11,69.64 484.81,69.07 489.51,68.51 494.21,67.96 498.91,67.43 503.61,66.90 508.32,66.39 513.02,65.88 517.72,65.39 522.42,64.90 527.12,64.43 531.82,63.97 536.53,63.51 541.23,63.06 " /><polyline clip-path="url(#plot-area)" style="fill:none; stroke:#69db57; stroke-width:2.00;" stroke-dasharray="5, 5" points="75.77,354.57 80.47,343.65 85.18,332.83 89.88,322.17 94.58,311.71 99.28,301.50 103.98,291.56 108.68,281.93 113.39,272.62 118.09,263.66 122.79,255.05 127.49,246.79 132.19,238.89 136.89,231.34 141.59,224.13 146.30,217.27 151.00,210.73 155.70,204.51 160.40,198.58 165.10,192.95 169.80,187.59 174.51,182.49 179.21,177.64 183.91,173.03 188.61,168.63 193.31,164.45 198.01,160.46 202.71,156.66 207.42,153.03 212.12,149.57 216.82,146.27 221.52,143.11 226.22,140.09 230.92,137.20 235.63,134.44 240.33,131.79 245.03,129.25 249.73,126.82 254.43,124.48 259.13,122.24 263.84,120.09 268.54,118.02 273.24,116.02 277.94,114.11 282.64,112.26 287.34,110.48 292.04,108.77 296.75,107.11 301.45,105.51 306.15,103.97 310.85,102.48 315.55,101.04 320.25,99.65 324.96,98.30 329.66,97.00 334.36,95.73 339.06,94.51 343.76,93.32 348.46,92.17 353.16,91.06 357.87,89.98 362.57,88.93 367.27,87.90 371.97,86.91 376.67,85.95 381.37,85.01 386.08,84.10 390.78,83.21 395.48,82.35 400.18,81.51 404.88,80.69 409.58,79.89 414.29,79.12 418.99,78.36 423.69,77.62 428.39,76.90 433.09,76.20 437.79,75.51 442.49,74.84 447.20,74.19 451.90,73.55 456.60,72.92 461.30,72.31 466.00,71.72 470.70,71.14 475.41,70.57 480.11,70.01 484.81,69.46 489.51,68.93 494.21,68.41 498.91,67.89 503.61,67.39 508.32,66.90 513.02,66.42 517.72,65.95 522.42,65.49 527.12,65.04 531.82,64.59 536.53,64.16 541.23,63.73 " /><polyline clip-path="url(#plot-area)" style="fill:none; stroke:#57db94; stroke-width:2.00;"  points="75.77,359.09 80.47,352.18 85.18,344.99 89.88,337.65 94.58,330.24 99.28,322.84 103.98,315.51 108.68,308.28 113.39,301.19 118.09,294.26 122.79,287.50 127.49,280.92 132.19,274.54 136.89,268.34 141.59,262.34 146.30,256.53 151.00,250.91 155.70,245.48 160.40,240.23 165.10,235.15 169.80,230.25 174.51,225.52 179.21,220.94 183.91,216.52 188.61,212.25 193.31,208.12 198.01,204.14 202.71,200.28 207.42,196.55 212.12,192.95 216.82,189.47 221.52,186.09 226.22,182.83 230.92,179.67 235.63,176.61 240.33,173.65 245.03,170.78 249.73,168.00 254.43,165.31 259.13,162.69 263.84,160.16 268.54,157.70 273.24,155.31 277.94,153.00 282.64,150.75 287.34,148.56 292.04,146.44 296.75,144.38 301.45,142.37 306.15,140.42 310.85,138.53 315.55,136.68 320.25,134.88 324.96,133.14 329.66,131.44 334.36,129.78 339.06,128.16 343.76,126.59 348.46,125.06 353.16,123.56 357.87,122.10 362.57,120.68 367.27,119.29 371.97,117.94 376.67,116.62 381.37,115.33 386.08,114.07 390.78,112.84 395.48,111.64 400.18,110.47 404.88,109.32 409.58,108.20 414.29,107.10 418.99,106.03 423.69,104.98 428.39,103.95 433.09,102.95 437.79,101.97 442.49,101.01 447.20,100.07 451.90,99.14 456.60,98.24 461.30,97.36 466.00,96.49 470.70,95.64 475.41,94.81 480.11,94.00 484.81,93.20 489.51,92.41 494.21,91.64 498.91,90.89 503.61,90.15 508.32,89.43 513.02,88.72 517.72,88.02 522.42,87.33 527.12,86.66 531.82,86.00 536.53,85.35 541.23,84.71 " /><polyline clip-path="url(#plot-area)" style="fill:none; stroke:#57d3db; stroke-width:2.00;" stroke-dasharray="5, 5" points="75.77,358.23 80.47,350.92 85.18,343.65 89.88,336.42 94.58,329.26 99.28,322.17 103.98,315.18 108.68,308.28 113.39,301.50 118.09,294.84 122.79,288.32 127.49,281.93 132.19,275.69 136.89,269.60 141.59,263.66 146.30,257.88 151.00,252.25 155.70,246.79 160.40,241.48 165.10,236.33 169.80,231.34 174.51,226.50 179.21,221.81 183.91,217.27 188.61,212.87 193.31,208.62 198.01,204.51 202.71,200.53 207.42,196.68 212.12,192.95 216.82,189.35 221.52,185.86 226.22,182.49 230.92,179.23 235.63,176.08 240.33,173.03 245.03,170.07 249.73,167.22 254.43,164.45 259.13,161.77 263.84,159.17 268.54,156.66 273.24,154.22 277.94,151.86 282.64,149.57 287.34,147.35 292.04,145.20 296.75,143.11 301.45,141.08 306.15,139.11 310.85,137.20 315.55,135.35 320.25,133.54 324.96,131.79 329.66,130.09 334.36,128.43 339.06,126.82 343.76,125.25 348.46,123.73 353.16,122.24 357.87,120.80 362.57,119.39 367.27,118.02 371.97,116.68 376.67,115.38 381.37,114.11 386.08,112.87 390.78,111.66 395.48,110.48 400.18,109.33 404.88,108.21 409.58,107.11 414.29,106.04 418.99,104.99 423.69,103.97 428.39,102.97 433.09,102.00 437.79,101.04 442.49,100.11 447.20,99.19 451.90,98.30 456.60,97.43 461.30,96.57 466.00,95.73 470.70,94.91 475.41,94.11 480.11,93.32 484.81,92.55 489.51,91.80 494.21,91.06 498.91,90.33 503.61,89.62 508.32,88.93 513.02,88.24 517.72,87.57 522.42,86.91 527.12,86.27 531.82,85.63 536.53,85.01 541.23,84.40 " /><rect  x="52.00" y="25.00" width="512.00" height="350.00" style="fill:none; fill-opacity:1.00; stroke:black; stroke-width:0.50;" />
<line  x1="71.07" y1="376.00" x2="71.07" y2="381.00"  style="stroke: black;stroke-width:1.00"/>
<text  x="71.07" y="395.00" text-anchor="middle"  font-weight="regular">0</text>
<line  x1="165.10" y1="376.00" x2="165.10" y2="381.00"  style="stroke: black;stroke-width:1.00"/>
<text  x="165.10" y="395.00" text-anchor="middle"  font-weight="regular">20.0</text>
<line  x1="259.13" y1="376.00" x2="259.13" y2="381.00"  style="stroke: black;stroke-width:1.00"/>
<text  x="259.13" y="395.00" text-anchor="middle"  font-weight="regular">40.0</text>
<line  x1="353.16" y1="376.00" x2="353.16" y2="381.00"  style="stroke: black;stroke-width:1.00"/>
<text  x="353.16" y="395.00" text-anchor="middle"  font-weight="regular">60.0</text>
<line  x1="447.20" y1="376.00" x2="447.20" y2="381.00"  style="stroke: black;stroke-width:1.00"/>
<text  x="447.20" y="395.00" text-anchor="middle"  font-weight="regular">80.0</text>
<line  x1="541.23" y1="376.00" x2="541.23" y2="381.00"  style="stroke: black;stroke-width:1.00"/>
<text  x="541.23" y="395.00" text-anchor="middle"  font-weight="regular"><tspan>1.0e<tspan  font-size="10" dy="-5" dx="1">2</tspan></tspan></text>
<line  x1="46.50" y1="365.55" x2="51.50" y2="365.55"  style="stroke: black;stroke-width:1.00"/>
<text  x="42.50" y="369.55" text-anchor="end"  font-weight="regular">0</text>
<line  x1="46.50" y1="255.67" x2="51.50" y2="255.67"  style="stroke: black;stroke-width:1.00"/>
<text  x="42.50" y="259.67" text-anchor="end"  font-weight="regular">0.5</text>
<line  x1="46.50" y1="145.79" x2="51.50" y2="145.79"  style="stroke: black;stroke-width:1.00"/>
<text  x="42.50" y="149.79" text-anchor="end"  font-weight="regular">1.0</text>
<line  x1="46.50" y1="35.91" x2="51.50" y2="35.91"  style="stroke: black;stroke-width:1.00"/>
<text  x="42.50" y="39.91" text-anchor="end"  font-weight="regular">1.5</text>
<rect  x="454.50" y="35.00" width="100.00" height="96.00" style="fill:white; fill-opacity:0.50; stroke:#333; stroke-width:0.50;" />
<defs><clipPath id="leg-area"><rect x="494.50" y="35.00" width="58.00" height="96.00"/>
</clipPath></defs><line  x1="464.50" y1="46.00" x2="494.50" y2="46.00"  style="stroke: #db5f57;stroke-width:2.00"/>
<text clip-path="url(#leg-area)"  x="524.50" y="50.00" text-anchor="middle"  font-weight="regular">mpiric</text>
<line  x1="464.50" y1="61.00" x2="494.50" y2="61.00" stroke-dasharray="5, 5" style="stroke: #dbae57;stroke-width:2.00"/>
<text clip-path="url(#leg-area)"  x="524.50" y="65.00" text-anchor="middle"  font-weight="regular">libm</text>
<line  x1="464.50" y1="76.00" x2="494.50" y2="76.00"  style="stroke: #b9db57;stroke-width:2.00"/>
<text clip-path="url(#leg-area)"  x="524.50" y="80.00" text-anchor="middle"  font-weight="regular">mpiric</text>
<line  x1="464.50" y1="91.00" x2="494.50" y2="91.00" stroke-dasharray="5, 5" style="stroke: #69db57;stroke-width:2.00"/>
<text clip-path="url(#leg-area)"  x="524.50" y="95.00" text-anchor="middle"  font-weight="regular">libm</text>
<line  x1="464.50" y1="106.00" x2="494.50" y2="106.00"  style="stroke: #57db94;stroke-width:2.00"/>
<text clip-path="url(#leg-area)"  x="524.50" y="110.00" text-anchor="middle"  font-weight="regular">mpiric</text>
<line  x1="464.50" y1="121.00" x2="494.50" y2="121.00" stroke-dasharray="5, 5" style="stroke: #57d3db;stroke-width:2.00"/>
<text clip-path="url(#leg-area)"  x="524.50" y="125.00" text-anchor="middle"  font-weight="regular">libm</text>
</svg>

