<svg class="charter" xmlns="http://www.w3.org/2000/svg" version="1.1" width="100%" viewbox="0 0 600 400">
<defs><clipPath id="plot-area"><rect x="52.50" y="25.00" width="512.00" height="350.00"/>
</clipPath></defs><line clip-path="url(#plot-area)"  x1="71.07" y1="25.00" x2="71.07" y2="375.00"  style="stroke: #ccc;stroke-width:0.50"/>
<line clip-path="url(#plot-area)"  x1="165.10" y1="25.00" x2="165.10" y2="375.00"  style="stroke: #ccc;stroke-width:0.50"/>
<line clip-path="url(#plot-area)"  x1="259.13" y1="25.00" x2="259.13" y2="375.00"  style="stroke: #ccc;stroke-width:0.50"/>
<line clip-path="url(#plot-area)"  x1="353.16" y1="25.00" x2="353.16" y2="375.00"  style="stroke: #ccc;stroke-width:0.50"/>
<line clip-path="url(#plot-area)"  x1="447.20" y1="25.00" x2="447.20" y2="375.00"  style="stroke: #ccc;stroke-width:0.50"/>
<line clip-path="url(#plot-area)"  x1="541.23" y1="25.00" x2="541.23" y2="375.00"  style="stroke: #ccc;stroke-width:0.50"/>
<line clip-path="url(#plot-area)"  x1="52.50" y1="323.74" x2="564.50" y2="323.74"  style="stroke: #ccc;stroke-width:0.50"/>
<line clip-path="url(#plot-area)"  x1="52.50" y1="253.03" x2="564.50" y2="253.03"  style="stroke: #ccc;stroke-width:0.50"/>
<line clip-path="url(#plot-area)"  x1="52.50" y1="182.32" x2="564.50" y2="182.32"  style="stroke: #ccc;stroke-width:0.50"/>
<line clip-path="url(#plot-area)"  x1="52.50" y1="111.62" x2="564.50" y2="111.62"  style="stroke: #ccc;stroke-width:0.50"/>
<line clip-path="url(#plot-area)"  x1="52.50" y1="40.91" x2="564.50" y2="40.91"  style="stroke: #ccc;stroke-width:0.50"/>
<polyline clip-path="url(#plot-area)" style="fill:none; stroke:#db5f57; stroke-width:2.00;"  points="75.77,359.09 80.47,359.09 85.18,359.09 89.88,359.09 94.58,359.09 99.28,359.09 103.98,359.09 108.68,359.09 113.39,359.09 118.09,323.74 122.79,323.74 127.49,323.74 132.19,323.74 136.89,323.74 141.59,323.74 146.30,323.74 151.00,323.74 155.70,323.74 160.40,323.74 165.10,288.38 169.80,288.38 174.51,288.38 179.21,288.38 183.91,288.38 188.61,288.38 193.31,288.38 198.01,288.38 202.71,288.38 207.42,288.38 212.12,253.03 216.82,253.03 221.52,253.03 226.22,253.03 230.92,253.03 235.63,253.03 240.33,253.03 245.03,253.03 249.73,253.03 254.43,253.03 259.13,217.68 263.84,217.68 268.54,217.68 273.24,217.68 277.94,217.68 282.64,217.68 287.34,217.68 292.04,217.68 296.75,217.68 301.45,217.68 306.15,217.68 310.85,182.32 315.55,182.32 320.25,182.32 324.96,182.32 329.66,182.32 334.36,182.32 339.06,182.32 343.76,182.32 348.46,182.32 353.16,182.32 357.87,146.97 362.57,146.97 367.27,146.97 371.97,146.97 376.67,146.97 381.37,146.97 386.08,146.97 390.78,146.97 395.48,146.97 400.18,146.97 404.88,111.62 409.58,111.62 414.29,111.62 418.99,111.62 423.69,111.62 428.39,111.62 433.09,111.62 437.79,111.62 442.49,111.62 447.20,111.62 451.90,76.26 456.60,76.26 461.30,76.26 466.00,76.26 470.70,76.26 475.41,76.26 480.11,76.26 484.81,76.26 489.51,76.26 494.21,76.26 498.91,40.91 503.61,40.91 508.32,40.91 513.02,40.91 517.72,40.91 522.42,40.91 527.12,40.91 531.82,40.91 536.53,40.91 541.23,40.91 " /><polyline clip-path="url(#plot-area)" style="fill:none; stroke:#dbae57; stroke-width:2.00;" stroke-dasharray="5, 5" points="75.77,359.09 80.47,359.09 85.18,359.09 89.88,359.09 94.58,359.09 99.28,359.09 103.98,359.09 108.68,359.09 113.39,359.09 118.09,359.09 122.79,323.74 127.49,323.74 132.19,323.74 136.89,323.74 141.59,323.74 146.30,323.74 151.00,323.74 155.70,323.74 160.40,323.74 165.10,288.38 169.80,288.38 174.51,288.38 179.21,288.38 183.91,288.38 188.61,288.38 193.31,288.38 198.01,288.38 202.71,288.38 207.42,288.38 212.12,253.03 216.82,253.03 221.52,253.03 226.22,253.03 230.92,253.03 235.63,253.03 240.33,253.03 245.03,253.03 249.73,253.03 254.43,253.03 259.13,217.68 263.84,217.68 268.54,217.68 273.24,217.68 277.94,217.68 282.64,217.68 287.34,217.68 292.04,217.68 296.75,217.68 301.45,217.68 306.15,217.68 310.85,182.32 315.55,182.32 320.25,182.32 324.96,182.32 329.66,182.32 334.36,182.32 339.06,182.32 343.76,182.32 348.46,182.32 353.16,182.32 357.87,146.97 362.57,146.97 367.27,146.97 371.97,146.97 376.67,146.97 381.37,146.97 386.08,146.97 390.78,146.97 395.48,146.97 400.18,146.97 404.88,111.62 409.58,111.62 414.29,111.62 418.99,111.62 423.69,111.62 428.39,111.62 433.09,111.62 437.79,111.62 442.49,111.62 447.20,111.62 451.90,76.26 456.60,76.26 461.30,76.26 466.00,76.26 470.70,76.26 475.41,76.26 480.11,76.26 484.81,76.26 489.51,76.26 494.21,76.26 498.91,40.91 503.61,40.91 508.32,40.91 513.02,40.91 517.72,40.91 522.42,40.91 527.12,40.91 531.82,40.91 536.53,40.91 541.23,40.91 " /><rect  x="52.00" y="25.00" width="512.00" height="350.00" style="fill:none; fill-opacity:1.00; stroke:black; stroke-width:0.50;" />
<line  x1="71.07" y1="376.00" x2="71.07" y2="381.00"  style="stroke: black;stroke-width:1.00"/>
<text  x="71.07" y="395.00" text-anchor="middle"  font-weight="regular">0</text>
<line  x1="165.10" y1="376.00" x2="165.10" y2="381.00"  style="stroke: black;stroke-width:1.00"/>
<text  x="165.10" y="395.00" text-anchor="middle"  font-weight="regular">20.0</text>
<line  x1="259.13" y1="376.00" x2="259.13" y2="381.00"  style="stroke: black;stroke-width:1.00"/>
<text  x="259.13" y="395.00" text-anchor="middle"  font-weight="regular">40.0</text>
<line  x1="353.16" y1="376.00" x2="353.16" y2="381.00"  style="stroke: black;stroke-width:1.00"/>
<text  x="353.16" y="395.00" text-anchor="middle"  font-weight="regular">60.0</text>
<line  x1="447.20" y1="376.00" x2="447.20" y2="381.00"  style="stroke: black;stroke-width:1.00"/>
<text  x="447.20" y="395.00" text-anchor="middle"  font-weight="regular">80.0</text>
<line  x1="541.23" y1="376.00" x2="541.23" y2="381.00"  style="stroke: black;stroke-width:1.00"/>
<text  x="541.23" y="395.00" text-anchor="middle"  font-weight="regular"><tspan>1.0e<tspan  font-size="10" dy="-5" dx="1">2</tspan></tspan></text>
<line  x1="46.50" y1="323.74" x2="51.50" y2="323.74"  style="stroke: black;stroke-width:1.00"/>
<text  x="42.50" y="327.74" text-anchor="end"  font-weight="regular">2.0</text>
<line  x1="46.50" y1="253.03" x2="51.50" y2="253.03"  style="stroke: black;stroke-width:1.00"/>
<text  x="42.50" y="257.03" text-anchor="end"  font-weight="regular">4.0</text>
<line  x1="46.50" y1="182.32" x2="51.50" y2="182.32"  style="stroke: black;stroke-width:1.00"/>
<text  x="42.50" y="186.32" text-anchor="end"  font-weight="regular">6.0</text>
<line  x1="46.50" y1="111.62" x2="51.50" y2="111.62"  style="stroke: black;stroke-width:1.00"/>
<text  x="42.50" y="115.62" text-anchor="end"  font-weight="regular">8.0</text>
<line  x1="46.50" y1="40.91" x2="51.50" y2="40.91"  style="stroke: black;stroke-width:1.00"/>
<text  x="42.50" y="44.91" text-anchor="end"  font-weight="regular">10.0</text>
<rect  x="454.50" y="35.00" width="100.00" height="36.00" style="fill:white; fill-opacity:0.50; stroke:#333; stroke-width:0.50;" />
<defs><clipPath id="leg-area"><rect x="494.50" y="35.00" width="58.00" height="36.00"/>
</clipPath></defs><line  x1="464.50" y1="46.00" x2="494.50" y2="46.00"  style="stroke: #db5f57;stroke-width:2.00"/>
<text clip-path="url(#leg-area)"  x="524.50" y="50.00" text-anchor="middle"  font-weight="regular">mpiric</text>
<line  x1="464.50" y1="61.00" x2="494.50" y2="61.00" stroke-dasharray="5, 5" style="stroke: #dbae57;stroke-width:2.00"/>
<text clip-path="url(#leg-area)"  x="524.50" y="65.00" text-anchor="middle"  font-weight="regular">libm</text>
</svg>

