<svg class="charter" xmlns="http://www.w3.org/2000/svg" version="1.1" width="100%" viewbox="0 0 600 400">
<defs><clipPath id="plot-area"><rect x="52.50" y="25.00" width="512.00" height="350.00"/>
</clipPath></defs><line clip-path="url(#plot-area)"  x1="71.07" y1="25.00" x2="71.07" y2="375.00"  style="stroke: #ccc;stroke-width:0.50"/>
<line clip-path="url(#plot-area)"  x1="165.10" y1="25.00" x2="165.10" y2="375.00"  style="stroke: #ccc;stroke-width:0.50"/>
<line clip-path="url(#plot-area)"  x1="259.13" y1="25.00" x2="259.13" y2="375.00"  style="stroke: #ccc;stroke-width:0.50"/>
<line clip-path="url(#plot-area)"  x1="353.16" y1="25.00" x2="353.16" y2="375.00"  style="stroke: #ccc;stroke-width:0.50"/>
<line clip-path="url(#plot-area)"  x1="447.20" y1="25.00" x2="447.20" y2="375.00"  style="stroke: #ccc;stroke-width:0.50"/>
<line clip-path="url(#plot-area)"  x1="541.23" y1="25.00" x2="541.23" y2="375.00"  style="stroke: #ccc;stroke-width:0.50"/>
<line clip-path="url(#plot-area)"  x1="52.50" y1="359.14" x2="564.50" y2="359.14"  style="stroke: #ccc;stroke-width:0.50"/>
<line clip-path="url(#plot-area)"  x1="52.50" y1="279.58" x2="564.50" y2="279.58"  style="stroke: #ccc;stroke-width:0.50"/>
<line clip-path="url(#plot-area)"  x1="52.50" y1="200.01" x2="564.50" y2="200.01"  style="stroke: #ccc;stroke-width:0.50"/>
<line clip-path="url(#plot-area)"  x1="52.50" y1="120.45" x2="564.50" y2="120.45"  style="stroke: #ccc;stroke-width:0.50"/>
<line clip-path="url(#plot-area)"  x1="52.50" y1="40.89" x2="564.50" y2="40.89"  style="stroke: #ccc;stroke-width:0.50"/>
<polyline clip-path="url(#plot-area)" style="fill:none; stroke:#db5f57; stroke-width:2.00;"  points="75.77,41.68 80.47,44.03 85.18,47.94 89.88,53.37 94.58,60.26 99.28,68.55 103.98,78.16 108.68,89.01 113.39,100.99 118.09,113.97 122.79,127.83 127.49,142.42 132.19,157.57 136.89,173.11 141.59,188.86 146.30,204.61 151.00,220.38 155.70,236.03 160.40,251.37 165.10,266.21 169.80,280.39 174.51,293.76 179.21,306.17 183.91,317.50 188.61,327.64 193.31,336.49 198.01,343.97 202.71,350.01 207.42,354.55 212.12,357.56 216.82,359.00 221.52,358.87 226.22,357.16 230.92,353.89 235.63,349.10 240.33,342.81 245.03,335.09 249.73,326.02 254.43,315.67 259.13,304.15 263.84,291.57 268.54,278.06 273.24,263.75 277.94,248.82 282.64,233.41 287.34,217.73 292.04,201.96 296.75,186.20 301.45,170.48 306.15,154.99 310.85,139.92 315.55,125.44 320.25,111.72 324.96,98.90 329.66,87.10 334.36,76.46 339.06,67.06 343.76,59.00 348.46,52.35 353.16,47.18 357.87,43.53 362.57,41.43 367.27,40.91 371.97,41.96 376.67,44.58 381.37,48.75 386.08,54.42 390.78,61.55 395.48,70.07 400.18,79.90 404.88,90.95 409.58,103.10 414.29,116.24 418.99,130.24 423.69,144.93 428.39,160.16 433.09,175.75 437.79,191.51 442.49,207.26 447.20,223.02 451.90,238.63 456.60,253.90 461.30,268.64 466.00,282.70 470.70,295.91 475.41,308.15 480.11,319.29 484.81,329.22 489.51,337.84 494.21,345.09 498.91,350.88 503.61,355.17 508.32,357.91 513.02,359.09 517.72,358.69 522.42,356.72 527.12,353.19 531.82,348.14 536.53,341.61 541.23,333.66 " /><polyline clip-path="url(#plot-area)" style="fill:none; stroke:#dbae57; stroke-width:2.00;" stroke-dasharray="5, 5" points="75.77,41.68 80.47,44.06 85.18,47.99 89.88,53.45 94.58,60.37 99.28,68.68 103.98,78.31 108.68,89.15 113.39,101.10 118.09,114.04 122.79,127.83 127.49,142.35 132.19,157.45 136.89,172.97 141.59,188.76 146.30,204.66 151.00,220.52 155.70,236.17 160.40,251.46 165.10,266.23 169.80,280.35 174.51,293.66 179.21,306.04 183.91,317.35 188.61,327.50 193.31,336.37 198.01,343.87 202.71,349.95 207.42,354.52 212.12,357.55 216.82,359.00 221.52,358.87 226.22,357.15 230.92,353.86 235.63,349.03 240.33,342.71 245.03,334.97 249.73,325.88 254.43,315.53 259.13,304.03 263.84,291.48 268.54,278.03 273.24,263.79 277.94,248.92 282.64,233.56 287.34,217.86 292.04,201.98 296.75,186.09 301.45,170.33 306.15,154.88 310.85,139.87 315.55,125.46 320.25,111.80 324.96,99.02 329.66,87.25 334.36,76.60 339.06,67.19 343.76,59.10 348.46,52.43 353.16,47.22 357.87,43.55 362.57,41.44 367.27,40.91 371.97,41.97 376.67,44.61 381.37,48.81 386.08,54.51 390.78,61.67 395.48,70.21 400.18,80.05 404.88,91.08 409.58,103.21 414.29,116.30 418.99,130.23 423.69,144.85 428.39,160.03 433.09,175.61 437.79,191.43 442.49,207.33 447.20,223.17 451.90,238.77 456.60,253.98 461.30,268.66 466.00,282.65 470.70,295.81 475.41,308.02 480.11,319.14 484.81,329.08 489.51,337.73 494.21,345.00 498.91,350.82 503.61,355.14 508.32,357.90 513.02,359.09 517.72,358.69 522.42,356.70 527.12,353.15 531.82,348.07 536.53,341.51 541.23,333.53 " /><rect  x="52.00" y="25.00" width="512.00" height="350.00" style="fill:none; fill-opacity:1.00; stroke:black; stroke-width:0.50;" />
<line  x1="71.07" y1="376.00" x2="71.07" y2="381.00"  style="stroke: black;stroke-width:1.00"/>
<text  x="71.07" y="395.00" text-anchor="middle"  font-weight="regular">0</text>
<line  x1="165.10" y1="376.00" x2="165.10" y2="381.00"  style="stroke: black;stroke-width:1.00"/>
<text  x="165.10" y="395.00" text-anchor="middle"  font-weight="regular">20.0</text>
<line  x1="259.13" y1="376.00" x2="259.13" y2="381.00"  style="stroke: black;stroke-width:1.00"/>
<text  x="259.13" y="395.00" text-anchor="middle"  font-weight="regular">40.0</text>
<line  x1="353.16" y1="376.00" x2="353.16" y2="381.00"  style="stroke: black;stroke-width:1.00"/>
<text  x="353.16" y="395.00" text-anchor="middle"  font-weight="regular">60.0</text>
<line  x1="447.20" y1="376.00" x2="447.20" y2="381.00"  style="stroke: black;stroke-width:1.00"/>
<text  x="447.20" y="395.00" text-anchor="middle"  font-weight="regular">80.0</text>
<line  x1="541.23" y1="376.00" x2="541.23" y2="381.00"  style="stroke: black;stroke-width:1.00"/>
<text  x="541.23" y="395.00" text-anchor="middle"  font-weight="regular"><tspan>1.0e<tspan  font-size="10" dy="-5" dx="1">2</tspan></tspan></text>
<line  x1="46.50" y1="359.14" x2="51.50" y2="359.14"  style="stroke: black;stroke-width:1.00"/>
<text  x="42.50" y="363.14" text-anchor="end"  font-weight="regular">-1.0</text>
<line  x1="46.50" y1="279.58" x2="51.50" y2="279.58"  style="stroke: black;stroke-width:1.00"/>
<text  x="42.50" y="283.58" text-anchor="end"  font-weight="regular">-0.5</text>
<line  x1="46.50" y1="200.01" x2="51.50" y2="200.01"  style="stroke: black;stroke-width:1.00"/>
<text  x="42.50" y="204.01" text-anchor="end"  font-weight="regular">0</text>
<line  x1="46.50" y1="120.45" x2="51.50" y2="120.45"  style="stroke: black;stroke-width:1.00"/>
<text  x="42.50" y="124.45" text-anchor="end"  font-weight="regular">0.5</text>
<line  x1="46.50" y1="40.89" x2="51.50" y2="40.89"  style="stroke: black;stroke-width:1.00"/>
<text  x="42.50" y="44.89" text-anchor="end"  font-weight="regular">1.0</text>
<rect  x="454.50" y="35.00" width="100.00" height="36.00" style="fill:white; fill-opacity:0.50; stroke:#333; stroke-width:0.50;" />
<defs><clipPath id="leg-area"><rect x="494.50" y="35.00" width="58.00" height="36.00"/>
</clipPath></defs><line  x1="464.50" y1="46.00" x2="494.50" y2="46.00"  style="stroke: #db5f57;stroke-width:2.00"/>
<text clip-path="url(#leg-area)"  x="524.50" y="50.00" text-anchor="middle"  font-weight="regular">mpiric</text>
<line  x1="464.50" y1="61.00" x2="494.50" y2="61.00" stroke-dasharray="5, 5" style="stroke: #dbae57;stroke-width:2.00"/>
<text clip-path="url(#leg-area)"  x="524.50" y="65.00" text-anchor="middle"  font-weight="regular">libm</text>
</svg>

