<svg class="charter" xmlns="http://www.w3.org/2000/svg" version="1.1" width="100%" viewbox="0 0 600 400">
<defs><clipPath id="plot-area"><rect x="52.50" y="25.00" width="512.00" height="350.00"/>
</clipPath></defs><line clip-path="url(#plot-area)"  x1="71.07" y1="25.00" x2="71.07" y2="375.00"  style="stroke: #ccc;stroke-width:0.50"/>
<line clip-path="url(#plot-area)"  x1="165.10" y1="25.00" x2="165.10" y2="375.00"  style="stroke: #ccc;stroke-width:0.50"/>
<line clip-path="url(#plot-area)"  x1="259.13" y1="25.00" x2="259.13" y2="375.00"  style="stroke: #ccc;stroke-width:0.50"/>
<line clip-path="url(#plot-area)"  x1="353.16" y1="25.00" x2="353.16" y2="375.00"  style="stroke: #ccc;stroke-width:0.50"/>
<line clip-path="url(#plot-area)"  x1="447.20" y1="25.00" x2="447.20" y2="375.00"  style="stroke: #ccc;stroke-width:0.50"/>
<line clip-path="url(#plot-area)"  x1="541.23" y1="25.00" x2="541.23" y2="375.00"  style="stroke: #ccc;stroke-width:0.50"/>
<line clip-path="url(#plot-area)"  x1="52.50" y1="359.12" x2="564.50" y2="359.12"  style="stroke: #ccc;stroke-width:0.50"/>
<line clip-path="url(#plot-area)"  x1="52.50" y1="301.33" x2="564.50" y2="301.33"  style="stroke: #ccc;stroke-width:0.50"/>
<line clip-path="url(#plot-area)"  x1="52.50" y1="243.55" x2="564.50" y2="243.55"  style="stroke: #ccc;stroke-width:0.50"/>
<line clip-path="url(#plot-area)"  x1="52.50" y1="185.76" x2="564.50" y2="185.76"  style="stroke: #ccc;stroke-width:0.50"/>
<line clip-path="url(#plot-area)"  x1="52.50" y1="127.97" x2="564.50" y2="127.97"  style="stroke: #ccc;stroke-width:0.50"/>
<line clip-path="url(#plot-area)"  x1="52.50" y1="70.18" x2="564.50" y2="70.18"  style="stroke: #ccc;stroke-width:0.50"/>
<polyline clip-path="url(#plot-area)" style="fill:none; stroke:#db5f57; stroke-width:2.00;"  points="75.77,359.09 80.47,359.09 85.18,359.09 89.88,359.09 94.58,359.09 99.28,359.09 103.98,359.08 108.68,359.08 113.39,359.08 118.09,359.08 122.79,359.07 127.49,359.07 132.19,359.06 136.89,359.06 141.59,359.05 146.30,359.05 151.00,359.04 155.70,359.03 160.40,359.02 165.10,359.01 169.80,359.00 174.51,358.99 179.21,358.97 183.91,358.96 188.61,358.94 193.31,358.92 198.01,358.90 202.71,358.88 207.42,358.86 212.12,358.83 216.82,358.80 221.52,358.76 226.22,358.73 230.92,358.69 235.63,358.64 240.33,358.59 245.03,358.54 249.73,358.47 254.43,358.40 259.13,358.33 263.84,358.25 268.54,358.16 273.24,358.06 277.94,357.94 282.64,357.82 287.34,357.68 292.04,357.53 296.75,357.36 301.45,357.18 306.15,356.98 310.85,356.75 315.55,356.50 320.25,356.22 324.96,355.91 329.66,355.58 334.36,355.22 339.06,354.81 343.76,354.35 348.46,353.84 353.16,353.28 357.87,352.66 362.57,351.99 367.27,351.27 371.97,350.45 376.67,349.52 381.37,348.49 386.08,347.36 390.78,346.12 395.48,344.77 400.18,343.31 404.88,341.65 409.58,339.79 414.29,337.71 418.99,335.43 423.69,332.93 428.39,330.23 433.09,327.29 437.79,323.95 442.49,320.19 447.20,316.01 451.90,311.41 456.60,306.39 461.30,300.96 466.00,295.03 470.70,288.28 475.41,280.70 480.11,272.29 484.81,263.03 489.51,252.94 494.21,242.02 498.91,230.07 503.61,216.46 508.32,201.19 513.02,184.24 517.72,165.62 522.42,145.32 527.12,123.35 531.82,99.25 536.53,71.82 541.23,41.04 " /><polyline clip-path="url(#plot-area)" style="fill:none; stroke:#dbae57; stroke-width:2.00;" stroke-dasharray="5, 5" points="75.77,359.09 80.47,359.09 85.18,359.09 89.88,359.09 94.58,359.09 99.28,359.09 103.98,359.08 108.68,359.08 113.39,359.08 118.09,359.08 122.79,359.07 127.49,359.07 132.19,359.06 136.89,359.06 141.59,359.05 146.30,359.05 151.00,359.04 155.70,359.03 160.40,359.02 165.10,359.01 169.80,359.00 174.51,358.99 179.21,358.97 183.91,358.96 188.61,358.94 193.31,358.92 198.01,358.90 202.71,358.88 207.42,358.86 212.12,358.83 216.82,358.80 221.52,358.76 226.22,358.73 230.92,358.69 235.63,358.64 240.33,358.59 245.03,358.54 249.73,358.47 254.43,358.41 259.13,358.33 263.84,358.25 268.54,358.16 273.24,358.06 277.94,357.94 282.64,357.82 287.34,357.68 292.04,357.53 296.75,357.36 301.45,357.18 306.15,356.98 310.85,356.75 315.55,356.50 320.25,356.23 324.96,355.92 329.66,355.58 334.36,355.21 339.06,354.80 343.76,354.35 348.46,353.85 353.16,353.29 357.87,352.68 362.57,352.00 367.27,351.25 371.97,350.43 376.67,349.51 381.37,348.50 386.08,347.38 390.78,346.15 395.48,344.78 400.18,343.28 404.88,341.61 409.58,339.77 414.29,337.73 418.99,335.49 423.69,333.00 428.39,330.25 433.09,327.22 437.79,323.86 442.49,320.15 447.20,316.05 451.90,311.53 456.60,306.52 461.30,300.99 466.00,294.87 470.70,288.12 475.41,280.65 480.11,272.40 484.81,263.28 489.51,253.20 494.21,242.06 498.91,229.75 503.61,216.14 508.32,201.10 513.02,184.48 517.72,166.12 522.42,145.82 527.12,123.38 531.82,98.59 536.53,71.19 541.23,40.91 " /><rect  x="52.00" y="25.00" width="512.00" height="350.00" style="fill:none; fill-opacity:1.00; stroke:black; stroke-width:0.50;" />
<line  x1="71.07" y1="376.00" x2="71.07" y2="381.00"  style="stroke: black;stroke-width:1.00"/>
<text  x="71.07" y="395.00" text-anchor="middle"  font-weight="regular">0</text>
<line  x1="165.10" y1="376.00" x2="165.10" y2="381.00"  style="stroke: black;stroke-width:1.00"/>
<text  x="165.10" y="395.00" text-anchor="middle"  font-weight="regular">20.0</text>
<line  x1="259.13" y1="376.00" x2="259.13" y2="381.00"  style="stroke: black;stroke-width:1.00"/>
<text  x="259.13" y="395.00" text-anchor="middle"  font-weight="regular">40.0</text>
<line  x1="353.16" y1="376.00" x2="353.16" y2="381.00"  style="stroke: black;stroke-width:1.00"/>
<text  x="353.16" y="395.00" text-anchor="middle"  font-weight="regular">60.0</text>
<line  x1="447.20" y1="376.00" x2="447.20" y2="381.00"  style="stroke: black;stroke-width:1.00"/>
<text  x="447.20" y="395.00" text-anchor="middle"  font-weight="regular">80.0</text>
<line  x1="541.23" y1="376.00" x2="541.23" y2="381.00"  style="stroke: black;stroke-width:1.00"/>
<text  x="541.23" y="395.00" text-anchor="middle"  font-weight="regular"><tspan>1.0e<tspan  font-size="10" dy="-5" dx="1">2</tspan></tspan></text>
<line  x1="46.50" y1="359.12" x2="51.50" y2="359.12"  style="stroke: black;stroke-width:1.00"/>
<text  x="42.50" y="363.12" text-anchor="end"  font-weight="regular">0</text>
<line  x1="46.50" y1="301.33" x2="51.50" y2="301.33"  style="stroke: black;stroke-width:1.00"/>
<text  x="42.50" y="305.33" text-anchor="end"  font-weight="regular"><tspan>2.0e<tspan  font-size="10" dy="-5" dx="1">3</tspan></tspan></text>
<line  x1="46.50" y1="243.55" x2="51.50" y2="243.55"  style="stroke: black;stroke-width:1.00"/>
<text  x="42.50" y="247.55" text-anchor="end"  font-weight="regular"><tspan>4.0e<tspan  font-size="10" dy="-5" dx="1">3</tspan></tspan></text>
<line  x1="46.50" y1="185.76" x2="51.50" y2="185.76"  style="stroke: black;stroke-width:1.00"/>
<text  x="42.50" y="189.76" text-anchor="end"  font-weight="regular"><tspan>6.0e<tspan  font-size="10" dy="-5" dx="1">3</tspan></tspan></text>
<line  x1="46.50" y1="127.97" x2="51.50" y2="127.97"  style="stroke: black;stroke-width:1.00"/>
<text  x="42.50" y="131.97" text-anchor="end"  font-weight="regular"><tspan>8.0e<tspan  font-size="10" dy="-5" dx="1">3</tspan></tspan></text>
<line  x1="46.50" y1="70.18" x2="51.50" y2="70.18"  style="stroke: black;stroke-width:1.00"/>
<text  x="42.50" y="74.18" text-anchor="end"  font-weight="regular"><tspan>1.0e<tspan  font-size="10" dy="-5" dx="1">4</tspan></tspan></text>
<rect  x="454.50" y="35.00" width="100.00" height="36.00" style="fill:white; fill-opacity:0.50; stroke:#333; stroke-width:0.50;" />
<defs><clipPath id="leg-area"><rect x="494.50" y="35.00" width="58.00" height="36.00"/>
</clipPath></defs><line  x1="464.50" y1="46.00" x2="494.50" y2="46.00"  style="stroke: #db5f57;stroke-width:2.00"/>
<text clip-path="url(#leg-area)"  x="524.50" y="50.00" text-anchor="middle"  font-weight="regular">mpiric</text>
<line  x1="464.50" y1="61.00" x2="494.50" y2="61.00" stroke-dasharray="5, 5" style="stroke: #dbae57;stroke-width:2.00"/>
<text clip-path="url(#leg-area)"  x="524.50" y="65.00" text-anchor="middle"  font-weight="regular">libm</text>
</svg>

