<svg class="charter" xmlns="http://www.w3.org/2000/svg" version="1.1" width="100%" viewbox="0 0 600 400">
<defs><clipPath id="plot-area"><rect x="52.50" y="25.00" width="512.00" height="350.00"/>
</clipPath></defs><line clip-path="url(#plot-area)"  x1="71.07" y1="25.00" x2="71.07" y2="375.00"  style="stroke: #ccc;stroke-width:0.50"/>
<line clip-path="url(#plot-area)"  x1="165.10" y1="25.00" x2="165.10" y2="375.00"  style="stroke: #ccc;stroke-width:0.50"/>
<line clip-path="url(#plot-area)"  x1="259.13" y1="25.00" x2="259.13" y2="375.00"  style="stroke: #ccc;stroke-width:0.50"/>
<line clip-path="url(#plot-area)"  x1="353.16" y1="25.00" x2="353.16" y2="375.00"  style="stroke: #ccc;stroke-width:0.50"/>
<line clip-path="url(#plot-area)"  x1="447.20" y1="25.00" x2="447.20" y2="375.00"  style="stroke: #ccc;stroke-width:0.50"/>
<line clip-path="url(#plot-area)"  x1="541.23" y1="25.00" x2="541.23" y2="375.00"  style="stroke: #ccc;stroke-width:0.50"/>
<line clip-path="url(#plot-area)"  x1="52.50" y1="327.71" x2="564.50" y2="327.71"  style="stroke: #ccc;stroke-width:0.50"/>
<line clip-path="url(#plot-area)"  x1="52.50" y1="256.01" x2="564.50" y2="256.01"  style="stroke: #ccc;stroke-width:0.50"/>
<line clip-path="url(#plot-area)"  x1="52.50" y1="184.31" x2="564.50" y2="184.31"  style="stroke: #ccc;stroke-width:0.50"/>
<line clip-path="url(#plot-area)"  x1="52.50" y1="112.61" x2="564.50" y2="112.61"  style="stroke: #ccc;stroke-width:0.50"/>
<line clip-path="url(#plot-area)"  x1="52.50" y1="40.91" x2="564.50" y2="40.91"  style="stroke: #ccc;stroke-width:0.50"/>
<polyline clip-path="url(#plot-area)" style="fill:none; stroke:#db5f57; stroke-width:2.00;"  points="75.77,356.74 80.47,314.33 85.18,275.52 89.88,239.19 94.58,206.12 99.28,178.02 103.98,153.14 108.68,131.95 113.39,114.81 118.09,100.17 122.79,88.23 127.49,78.83 132.19,70.96 136.89,64.71 141.59,59.84 146.30,55.82 151.00,52.68 155.70,50.23 160.40,48.23 165.10,46.68 169.80,45.47 174.51,44.48 179.21,43.73 183.91,43.13 188.61,42.65 193.31,42.28 198.01,41.99 202.71,41.76 207.42,41.58 212.12,41.43 216.82,41.32 221.52,41.23 226.22,41.16 230.92,41.11 235.63,41.07 240.33,41.03 245.03,41.01 249.73,40.99 254.43,40.97 259.13,40.96 263.84,40.95 268.54,40.94 273.24,40.93 277.94,40.93 282.64,40.92 287.34,40.92 292.04,40.92 296.75,40.92 301.45,40.91 306.15,40.91 310.85,40.91 315.55,40.91 320.25,40.91 324.96,40.91 329.66,40.91 334.36,40.91 339.06,40.91 343.76,40.91 348.46,40.91 353.16,40.91 357.87,40.91 362.57,40.91 367.27,40.91 371.97,40.91 376.67,40.91 381.37,40.91 386.08,40.91 390.78,40.91 395.48,40.91 400.18,40.91 404.88,40.91 409.58,40.91 414.29,40.91 418.99,40.91 423.69,40.91 428.39,40.91 433.09,40.91 437.79,40.91 442.49,40.91 447.20,40.91 451.90,40.91 456.60,40.91 461.30,40.91 466.00,40.91 470.70,40.91 475.41,40.91 480.11,40.91 484.81,40.91 489.51,40.91 494.21,40.91 498.91,40.91 503.61,40.91 508.32,40.91 513.02,40.91 517.72,40.91 522.42,40.91 527.12,40.91 531.82,40.91 536.53,40.91 541.23,40.91 " /><polyline clip-path="url(#plot-area)" style="fill:none; stroke:#dbae57; stroke-width:2.00;" stroke-dasharray="5, 5" points="75.77,359.09 80.47,319.57 85.18,281.60 89.88,245.83 94.58,212.81 99.28,182.93 103.98,156.42 108.68,133.37 113.39,113.72 118.09,97.30 122.79,83.86 127.49,73.06 132.19,64.57 136.89,58.01 141.59,53.06 146.30,49.39 151.00,46.72 155.70,44.82 160.40,43.49 165.10,42.59 169.80,41.98 174.51,41.58 179.21,41.32 183.91,41.16 188.61,41.06 193.31,40.99 198.01,40.96 202.71,40.94 207.42,40.92 212.12,40.92 216.82,40.91 221.52,40.91 226.22,40.91 230.92,40.91 235.63,40.91 240.33,40.91 245.03,40.91 249.73,40.91 254.43,40.91 259.13,40.91 263.84,40.91 268.54,40.91 273.24,40.91 277.94,40.91 282.64,40.91 287.34,40.91 292.04,40.91 296.75,40.91 301.45,40.91 306.15,40.91 310.85,40.91 315.55,40.91 320.25,40.91 324.96,40.91 329.66,40.91 334.36,40.91 339.06,40.91 343.76,40.91 348.46,40.91 353.16,40.91 357.87,40.91 362.57,40.91 367.27,40.91 371.97,40.91 376.67,40.91 381.37,40.91 386.08,40.91 390.78,40.91 395.48,40.91 400.18,40.91 404.88,40.91 409.58,40.91 414.29,40.91 418.99,40.91 423.69,40.91 428.39,40.91 433.09,40.91 437.79,40.91 442.49,40.91 447.20,40.91 451.90,40.91 456.60,40.91 461.30,40.91 466.00,40.91 470.70,40.91 475.41,40.91 480.11,40.91 484.81,40.91 489.51,40.91 494.21,40.91 498.91,40.91 503.61,40.91 508.32,40.91 513.02,40.91 517.72,40.91 522.42,40.91 527.12,40.91 531.82,40.91 536.53,40.91 541.23,40.91 " /><rect  x="52.00" y="25.00" width="512.00" height="350.00" style="fill:none; fill-opacity:1.00; stroke:black; stroke-width:0.50;" />
<line  x1="71.07" y1="376.00" x2="71.07" y2="381.00"  style="stroke: black;stroke-width:1.00"/>
<text  x="71.07" y="395.00" text-anchor="middle"  font-weight="regular">0</text>
<line  x1="165.10" y1="376.00" x2="165.10" y2="381.00"  style="stroke: black;stroke-width:1.00"/>
<text  x="165.10" y="395.00" text-anchor="middle"  font-weight="regular">20.0</text>
<line  x1="259.13" y1="376.00" x2="259.13" y2="381.00"  style="stroke: black;stroke-width:1.00"/>
<text  x="259.13" y="395.00" text-anchor="middle"  font-weight="regular">40.0</text>
<line  x1="353.16" y1="376.00" x2="353.16" y2="381.00"  style="stroke: black;stroke-width:1.00"/>
<text  x="353.16" y="395.00" text-anchor="middle"  font-weight="regular">60.0</text>
<line  x1="447.20" y1="376.00" x2="447.20" y2="381.00"  style="stroke: black;stroke-width:1.00"/>
<text  x="447.20" y="395.00" text-anchor="middle"  font-weight="regular">80.0</text>
<line  x1="541.23" y1="376.00" x2="541.23" y2="381.00"  style="stroke: black;stroke-width:1.00"/>
<text  x="541.23" y="395.00" text-anchor="middle"  font-weight="regular"><tspan>1.0e<tspan  font-size="10" dy="-5" dx="1">2</tspan></tspan></text>
<line  x1="46.50" y1="327.71" x2="51.50" y2="327.71"  style="stroke: black;stroke-width:1.00"/>
<text  x="42.50" y="331.71" text-anchor="end"  font-weight="regular">0.2</text>
<line  x1="46.50" y1="256.01" x2="51.50" y2="256.01"  style="stroke: black;stroke-width:1.00"/>
<text  x="42.50" y="260.01" text-anchor="end"  font-weight="regular">0.4</text>
<line  x1="46.50" y1="184.31" x2="51.50" y2="184.31"  style="stroke: black;stroke-width:1.00"/>
<text  x="42.50" y="188.31" text-anchor="end"  font-weight="regular">0.6</text>
<line  x1="46.50" y1="112.61" x2="51.50" y2="112.61"  style="stroke: black;stroke-width:1.00"/>
<text  x="42.50" y="116.61" text-anchor="end"  font-weight="regular">0.8</text>
<line  x1="46.50" y1="40.91" x2="51.50" y2="40.91"  style="stroke: black;stroke-width:1.00"/>
<text  x="42.50" y="44.91" text-anchor="end"  font-weight="regular">1.0</text>
<rect  x="454.50" y="35.00" width="100.00" height="36.00" style="fill:white; fill-opacity:0.50; stroke:#333; stroke-width:0.50;" />
<defs><clipPath id="leg-area"><rect x="494.50" y="35.00" width="58.00" height="36.00"/>
</clipPath></defs><line  x1="464.50" y1="46.00" x2="494.50" y2="46.00"  style="stroke: #db5f57;stroke-width:2.00"/>
<text clip-path="url(#leg-area)"  x="524.50" y="50.00" text-anchor="middle"  font-weight="regular">mpiric</text>
<line  x1="464.50" y1="61.00" x2="494.50" y2="61.00" stroke-dasharray="5, 5" style="stroke: #dbae57;stroke-width:2.00"/>
<text clip-path="url(#leg-area)"  x="524.50" y="65.00" text-anchor="middle"  font-weight="regular">libm</text>
</svg>

