<svg class="charter" xmlns="http://www.w3.org/2000/svg" version="1.1" width="100%" viewbox="0 0 600 400">
<defs><clipPath id="plot-area"><rect x="52.50" y="25.00" width="512.00" height="350.00"/>
</clipPath></defs><line clip-path="url(#plot-area)"  x1="71.02" y1="25.00" x2="71.02" y2="375.00"  style="stroke: #ccc;stroke-width:0.50"/>
<line clip-path="url(#plot-area)"  x1="166.01" y1="25.00" x2="166.01" y2="375.00"  style="stroke: #ccc;stroke-width:0.50"/>
<line clip-path="url(#plot-area)"  x1="261.00" y1="25.00" x2="261.00" y2="375.00"  style="stroke: #ccc;stroke-width:0.50"/>
<line clip-path="url(#plot-area)"  x1="356.00" y1="25.00" x2="356.00" y2="375.00"  style="stroke: #ccc;stroke-width:0.50"/>
<line clip-path="url(#plot-area)"  x1="450.99" y1="25.00" x2="450.99" y2="375.00"  style="stroke: #ccc;stroke-width:0.50"/>
<line clip-path="url(#plot-area)"  x1="545.98" y1="25.00" x2="545.98" y2="375.00"  style="stroke: #ccc;stroke-width:0.50"/>
<line clip-path="url(#plot-area)"  x1="52.50" y1="327.71" x2="564.50" y2="327.71"  style="stroke: #ccc;stroke-width:0.50"/>
<line clip-path="url(#plot-area)"  x1="52.50" y1="256.01" x2="564.50" y2="256.01"  style="stroke: #ccc;stroke-width:0.50"/>
<line clip-path="url(#plot-area)"  x1="52.50" y1="184.31" x2="564.50" y2="184.31"  style="stroke: #ccc;stroke-width:0.50"/>
<line clip-path="url(#plot-area)"  x1="52.50" y1="112.61" x2="564.50" y2="112.61"  style="stroke: #ccc;stroke-width:0.50"/>
<line clip-path="url(#plot-area)"  x1="52.50" y1="40.91" x2="564.50" y2="40.91"  style="stroke: #ccc;stroke-width:0.50"/>
<polyline clip-path="url(#plot-area)" style="fill:none; stroke:#db5f57; stroke-width:2.00;"  points="75.77,356.74 80.52,314.33 85.27,275.52 90.02,239.19 94.77,206.12 99.52,178.02 104.27,153.14 109.02,131.95 113.77,114.81 118.52,100.17 123.27,88.23 128.02,78.83 132.77,70.96 137.52,64.71 142.27,59.84 147.02,55.82 151.77,52.68 156.51,50.23 161.26,48.23 166.01,46.68 170.76,45.47 175.51,44.48 180.26,43.73 185.01,43.13 189.76,42.65 194.51,42.28 199.26,41.99 204.01,41.76 208.76,41.58 213.51,41.43 218.26,41.32 223.01,41.23 227.76,41.16 232.51,41.11 237.26,41.07 242.01,41.03 246.76,41.01 251.51,40.99 256.26,40.97 261.00,40.96 265.75,40.95 270.50,40.94 275.25,40.93 280.00,40.93 284.75,40.92 289.50,40.92 294.25,40.92 299.00,40.92 303.75,40.91 308.50,40.91 313.25,40.91 318.00,40.91 322.75,40.91 327.50,40.91 332.25,40.91 337.00,40.91 341.75,40.91 346.50,40.91 351.25,40.91 356.00,40.91 360.74,40.91 365.49,40.91 370.24,40.91 374.99,40.91 379.74,40.91 384.49,40.91 389.24,40.91 393.99,40.91 398.74,40.91 403.49,40.91 408.24,40.91 412.99,40.91 417.74,40.91 422.49,40.91 427.24,40.91 431.99,40.91 436.74,40.91 441.49,40.91 446.24,40.91 450.99,40.91 455.74,40.91 460.49,40.91 465.23,40.91 469.98,40.91 474.73,40.91 479.48,40.91 484.23,40.91 488.98,40.91 493.73,40.91 498.48,40.91 503.23,40.91 507.98,40.91 512.73,40.91 517.48,40.91 522.23,40.91 526.98,40.91 531.73,40.91 536.48,40.91 541.23,40.91 " /><polyline clip-path="url(#plot-area)" style="fill:none; stroke:#dbae57; stroke-width:2.00;" stroke-dasharray="5, 5" points="75.77,359.09 80.52,319.57 85.27,281.60 90.02,245.83 94.77,212.81 99.52,182.93 104.27,156.42 109.02,133.37 113.77,113.72 118.52,97.30 123.27,83.86 128.02,73.06 132.77,64.57 137.52,58.01 142.27,53.06 147.02,49.39 151.77,46.72 156.51,44.82 161.26,43.49 166.01,42.59 170.76,41.98 175.51,41.58 180.26,41.32 185.01,41.16 189.76,41.06 194.51,40.99 199.26,40.96 204.01,40.94 208.76,40.92 213.51,40.92 218.26,40.91 223.01,40.91 227.76,40.91 232.51,40.91 237.26,40.91 242.01,40.91 246.76,40.91 251.51,40.91 256.26,40.91 261.00,40.91 265.75,40.91 270.50,40.91 275.25,40.91 280.00,40.91 284.75,40.91 289.50,40.91 294.25,40.91 299.00,40.91 303.75,40.91 308.50,40.91 313.25,40.91 318.00,40.91 322.75,40.91 327.50,40.91 332.25,40.91 337.00,40.91 341.75,40.91 346.50,40.91 351.25,40.91 356.00,40.91 360.74,40.91 365.49,40.91 370.24,40.91 374.99,40.91 379.74,40.91 384.49,40.91 389.24,40.91 393.99,40.91 398.74,40.91 403.49,40.91 408.24,40.91 412.99,40.91 417.74,40.91 422.49,40.91 427.24,40.91 431.99,40.91 436.74,40.91 441.49,40.91 446.24,40.91 450.99,40.91 455.74,40.91 460.49,40.91 465.23,40.91 469.98,40.91 474.73,40.91 479.48,40.91 484.23,40.91 488.98,40.91 493.73,40.91 498.48,40.91 503.23,40.91 507.98,40.91 512.73,40.91 517.48,40.91 522.23,40.91 526.98,40.91 531.73,40.91 536.48,40.91 541.23,40.91 " /><rect  x="52.00" y="25.00" width="512.00" height="350.00" style="fill:none; fill-opacity:1.00; stroke:black; stroke-width:0.50;" />
<line  x1="71.02" y1="376.00" x2="71.02" y2="381.00"  style="stroke: black;stroke-width:1.00"/>
<text  x="71.02" y="395.00" text-anchor="middle"  font-weight="regular">0</text>
<line  x1="166.01" y1="376.00" x2="166.01" y2="381.00"  style="stroke: black;stroke-width:1.00"/>
<text  x="166.01" y="395.00" text-anchor="middle"  font-weight="regular">20.0</text>
<line  x1="261.00" y1="376.00" x2="261.00" y2="381.00"  style="stroke: black;stroke-width:1.00"/>
<text  x="261.00" y="395.00" text-anchor="middle"  font-weight="regular">40.0</text>
<line  x1="356.00" y1="376.00" x2="356.00" y2="381.00"  style="stroke: black;stroke-width:1.00"/>
<text  x="356.00" y="395.00" text-anchor="middle"  font-weight="regular">60.0</text>
<line  x1="450.99" y1="376.00" x2="450.99" y2="381.00"  style="stroke: black;stroke-width:1.00"/>
<text  x="450.99" y="395.00" text-anchor="middle"  font-weight="regular">80.0</text>
<line  x1="545.98" y1="376.00" x2="545.98" y2="381.00"  style="stroke: black;stroke-width:1.00"/>
<text  x="545.98" y="395.00" text-anchor="middle"  font-weight="regular"><tspan>1.0e<tspan  font-size="10" dy="-5" dx="1">2</tspan></tspan></text>
<line  x1="46.50" y1="327.71" x2="51.50" y2="327.71"  style="stroke: black;stroke-width:1.00"/>
<text  x="42.50" y="331.71" text-anchor="end"  font-weight="regular">0.2</text>
<line  x1="46.50" y1="256.01" x2="51.50" y2="256.01"  style="stroke: black;stroke-width:1.00"/>
<text  x="42.50" y="260.01" text-anchor="end"  font-weight="regular">0.4</text>
<line  x1="46.50" y1="184.31" x2="51.50" y2="184.31"  style="stroke: black;stroke-width:1.00"/>
<text  x="42.50" y="188.31" text-anchor="end"  font-weight="regular">0.6</text>
<line  x1="46.50" y1="112.61" x2="51.50" y2="112.61"  style="stroke: black;stroke-width:1.00"/>
<text  x="42.50" y="116.61" text-anchor="end"  font-weight="regular">0.8</text>
<line  x1="46.50" y1="40.91" x2="51.50" y2="40.91"  style="stroke: black;stroke-width:1.00"/>
<text  x="42.50" y="44.91" text-anchor="end"  font-weight="regular">1.0</text>
<rect  x="454.50" y="35.00" width="100.00" height="36.00" style="fill:white; fill-opacity:0.50; stroke:#333; stroke-width:0.50;" />
<defs><clipPath id="leg-area"><rect x="494.50" y="35.00" width="58.00" height="36.00"/>
</clipPath></defs><line  x1="464.50" y1="46.00" x2="494.50" y2="46.00"  style="stroke: #db5f57;stroke-width:2.00"/>
<text clip-path="url(#leg-area)"  x="524.50" y="50.00" text-anchor="middle"  font-weight="regular">mpiric</text>
<line  x1="464.50" y1="61.00" x2="494.50" y2="61.00" stroke-dasharray="5, 5" style="stroke: #dbae57;stroke-width:2.00"/>
<text clip-path="url(#leg-area)"  x="524.50" y="65.00" text-anchor="middle"  font-weight="regular">libm</text>
</svg>

