<svg class="charter" xmlns="http://www.w3.org/2000/svg" version="1.1" width="100%" viewbox="0 0 600 400">
<defs><clipPath id="plot-area"><rect x="52.50" y="25.00" width="512.00" height="350.00"/>
</clipPath></defs><line clip-path="url(#plot-area)"  x1="71.02" y1="25.00" x2="71.02" y2="375.00"  style="stroke: #ccc;stroke-width:0.50"/>
<line clip-path="url(#plot-area)"  x1="166.01" y1="25.00" x2="166.01" y2="375.00"  style="stroke: #ccc;stroke-width:0.50"/>
<line clip-path="url(#plot-area)"  x1="261.00" y1="25.00" x2="261.00" y2="375.00"  style="stroke: #ccc;stroke-width:0.50"/>
<line clip-path="url(#plot-area)"  x1="356.00" y1="25.00" x2="356.00" y2="375.00"  style="stroke: #ccc;stroke-width:0.50"/>
<line clip-path="url(#plot-area)"  x1="450.99" y1="25.00" x2="450.99" y2="375.00"  style="stroke: #ccc;stroke-width:0.50"/>
<line clip-path="url(#plot-area)"  x1="545.98" y1="25.00" x2="545.98" y2="375.00"  style="stroke: #ccc;stroke-width:0.50"/>
<line clip-path="url(#plot-area)"  x1="52.50" y1="359.09" x2="564.50" y2="359.09"  style="stroke: #ccc;stroke-width:0.50"/>
<line clip-path="url(#plot-area)"  x1="52.50" y1="279.13" x2="564.50" y2="279.13"  style="stroke: #ccc;stroke-width:0.50"/>
<line clip-path="url(#plot-area)"  x1="52.50" y1="199.18" x2="564.50" y2="199.18"  style="stroke: #ccc;stroke-width:0.50"/>
<line clip-path="url(#plot-area)"  x1="52.50" y1="119.22" x2="564.50" y2="119.22"  style="stroke: #ccc;stroke-width:0.50"/>
<line clip-path="url(#plot-area)"  x1="52.50" y1="39.26" x2="564.50" y2="39.26"  style="stroke: #ccc;stroke-width:0.50"/>
<polyline clip-path="url(#plot-area)" style="fill:none; stroke:#db5f57; stroke-width:2.00;"  points="75.77,359.09 80.52,359.09 85.27,359.09 90.02,359.09 94.77,359.09 99.52,359.09 104.27,359.09 109.02,359.09 113.77,359.09 118.52,359.09 123.27,359.09 128.02,359.09 132.77,359.09 137.52,359.09 142.27,359.09 147.02,359.09 151.77,359.09 156.51,359.09 161.26,359.09 166.01,359.09 170.76,359.09 175.51,359.09 180.26,359.09 185.01,359.09 189.76,359.09 194.51,359.09 199.26,359.09 204.01,359.09 208.76,359.09 213.51,359.09 218.26,359.09 223.01,359.09 227.76,359.09 232.51,359.09 237.26,359.09 242.01,359.09 246.76,359.09 251.51,359.09 256.26,359.09 261.00,359.09 265.75,359.09 270.50,359.09 275.25,359.09 280.00,359.09 284.75,359.09 289.50,359.09 294.25,359.09 299.00,359.09 303.75,359.09 308.50,359.09 313.25,359.09 318.00,359.08 322.75,359.08 327.50,359.08 332.25,359.08 337.00,359.07 341.75,359.07 346.50,359.07 351.25,359.06 356.00,359.05 360.74,359.04 365.49,359.03 370.24,359.01 374.99,358.99 379.74,358.96 384.49,358.93 389.24,358.89 393.99,358.84 398.74,358.77 403.49,358.69 408.24,358.59 412.99,358.46 417.74,358.30 422.49,358.09 427.24,357.82 431.99,357.50 436.74,357.08 441.49,356.56 446.24,355.92 450.99,355.09 455.74,354.05 460.49,352.77 465.23,351.10 469.98,349.03 474.73,346.48 479.48,343.15 484.23,339.02 488.98,333.93 493.73,327.29 498.48,319.04 503.23,308.89 507.98,295.64 512.73,279.17 517.48,258.93 522.23,232.50 526.98,199.63 531.73,159.24 536.48,106.51 541.23,40.91 " /><rect  x="52.00" y="25.00" width="512.00" height="350.00" style="fill:none; fill-opacity:1.00; stroke:black; stroke-width:0.50;" />
<line  x1="71.02" y1="376.00" x2="71.02" y2="381.00"  style="stroke: black;stroke-width:1.00"/>
<text  x="71.02" y="395.00" text-anchor="middle"  font-weight="regular">0</text>
<line  x1="166.01" y1="376.00" x2="166.01" y2="381.00"  style="stroke: black;stroke-width:1.00"/>
<text  x="166.01" y="395.00" text-anchor="middle"  font-weight="regular">20.0</text>
<line  x1="261.00" y1="376.00" x2="261.00" y2="381.00"  style="stroke: black;stroke-width:1.00"/>
<text  x="261.00" y="395.00" text-anchor="middle"  font-weight="regular">40.0</text>
<line  x1="356.00" y1="376.00" x2="356.00" y2="381.00"  style="stroke: black;stroke-width:1.00"/>
<text  x="356.00" y="395.00" text-anchor="middle"  font-weight="regular">60.0</text>
<line  x1="450.99" y1="376.00" x2="450.99" y2="381.00"  style="stroke: black;stroke-width:1.00"/>
<text  x="450.99" y="395.00" text-anchor="middle"  font-weight="regular">80.0</text>
<line  x1="545.98" y1="376.00" x2="545.98" y2="381.00"  style="stroke: black;stroke-width:1.00"/>
<text  x="545.98" y="395.00" text-anchor="middle"  font-weight="regular"><tspan>1.0e<tspan  font-size="10" dy="-5" dx="1">2</tspan></tspan></text>
<line  x1="46.50" y1="359.09" x2="51.50" y2="359.09"  style="stroke: black;stroke-width:1.00"/>
<text  x="42.50" y="363.09" text-anchor="end"  font-weight="regular">0</text>
<line  x1="46.50" y1="279.13" x2="51.50" y2="279.13"  style="stroke: black;stroke-width:1.00"/>
<text  x="42.50" y="283.13" text-anchor="end"  font-weight="regular"><tspan>2.0e<tspan  font-size="10" dy="-5" dx="1">9</tspan></tspan></text>
<line  x1="46.50" y1="199.18" x2="51.50" y2="199.18"  style="stroke: black;stroke-width:1.00"/>
<text  x="42.50" y="203.18" text-anchor="end"  font-weight="regular"><tspan>4.0e<tspan  font-size="10" dy="-5" dx="1">9</tspan></tspan></text>
<line  x1="46.50" y1="119.22" x2="51.50" y2="119.22"  style="stroke: black;stroke-width:1.00"/>
<text  x="42.50" y="123.22" text-anchor="end"  font-weight="regular"><tspan>6.0e<tspan  font-size="10" dy="-5" dx="1">9</tspan></tspan></text>
<line  x1="46.50" y1="39.26" x2="51.50" y2="39.26"  style="stroke: black;stroke-width:1.00"/>
<text  x="42.50" y="43.26" text-anchor="end"  font-weight="regular"><tspan>8.0e<tspan  font-size="10" dy="-5" dx="1">9</tspan></tspan></text>
<rect  x="454.50" y="35.00" width="100.00" height="21.00" style="fill:white; fill-opacity:0.50; stroke:#333; stroke-width:0.50;" />
<defs><clipPath id="leg-area"><rect x="494.50" y="35.00" width="58.00" height="21.00"/>
</clipPath></defs><line  x1="464.50" y1="46.00" x2="494.50" y2="46.00"  style="stroke: #db5f57;stroke-width:2.00"/>
<text clip-path="url(#leg-area)"  x="524.50" y="50.00" text-anchor="middle"  font-weight="regular">mpiric</text>
</svg>

