<svg class="charter" xmlns="http://www.w3.org/2000/svg" version="1.1" width="100%" viewbox="0 0 600 400">
<defs><clipPath id="plot-area"><rect x="52.50" y="25.00" width="512.00" height="350.00"/>
</clipPath></defs><line clip-path="url(#plot-area)"  x1="71.02" y1="25.00" x2="71.02" y2="375.00"  style="stroke: #ccc;stroke-width:0.50"/>
<line clip-path="url(#plot-area)"  x1="166.01" y1="25.00" x2="166.01" y2="375.00"  style="stroke: #ccc;stroke-width:0.50"/>
<line clip-path="url(#plot-area)"  x1="261.00" y1="25.00" x2="261.00" y2="375.00"  style="stroke: #ccc;stroke-width:0.50"/>
<line clip-path="url(#plot-area)"  x1="356.00" y1="25.00" x2="356.00" y2="375.00"  style="stroke: #ccc;stroke-width:0.50"/>
<line clip-path="url(#plot-area)"  x1="450.99" y1="25.00" x2="450.99" y2="375.00"  style="stroke: #ccc;stroke-width:0.50"/>
<line clip-path="url(#plot-area)"  x1="545.98" y1="25.00" x2="545.98" y2="375.00"  style="stroke: #ccc;stroke-width:0.50"/>
<line clip-path="url(#plot-area)"  x1="52.50" y1="359.11" x2="564.50" y2="359.11"  style="stroke: #ccc;stroke-width:0.50"/>
<line clip-path="url(#plot-area)"  x1="52.50" y1="279.28" x2="564.50" y2="279.28"  style="stroke: #ccc;stroke-width:0.50"/>
<line clip-path="url(#plot-area)"  x1="52.50" y1="199.45" x2="564.50" y2="199.45"  style="stroke: #ccc;stroke-width:0.50"/>
<line clip-path="url(#plot-area)"  x1="52.50" y1="119.63" x2="564.50" y2="119.63"  style="stroke: #ccc;stroke-width:0.50"/>
<line clip-path="url(#plot-area)"  x1="52.50" y1="39.80" x2="564.50" y2="39.80"  style="stroke: #ccc;stroke-width:0.50"/>
<polyline clip-path="url(#plot-area)" style="fill:none; stroke:#db5f57; stroke-width:2.00;"  points="75.77,359.09 80.52,359.09 85.27,359.09 90.02,359.08 94.77,359.08 99.52,359.08 104.27,359.08 109.02,359.07 113.77,359.07 118.52,359.07 123.27,359.06 128.02,359.06 132.77,359.05 137.52,359.04 142.27,359.04 147.02,359.03 151.77,359.02 156.51,359.01 161.26,359.00 166.01,358.99 170.76,358.98 175.51,358.96 180.26,358.95 185.01,358.93 189.76,358.91 194.51,358.89 199.26,358.87 204.01,358.85 208.76,358.82 213.51,358.79 218.26,358.75 223.01,358.72 227.76,358.67 232.51,358.63 237.26,358.58 242.01,358.53 246.76,358.46 251.51,358.39 256.26,358.32 261.00,358.23 265.75,358.14 270.50,358.05 275.25,357.93 280.00,357.81 284.75,357.67 289.50,357.52 294.25,357.35 299.00,357.17 303.75,356.97 308.50,356.75 313.25,356.49 318.00,356.21 322.75,355.90 327.50,355.56 332.25,355.20 337.00,354.80 341.75,354.35 346.50,353.84 351.25,353.28 356.00,352.65 360.74,351.97 365.49,351.23 370.24,350.43 374.99,349.52 379.74,348.50 384.49,347.36 389.24,346.11 393.99,344.74 398.74,343.25 403.49,341.64 408.24,339.81 412.99,337.74 417.74,335.45 422.49,332.93 427.24,330.17 431.99,327.18 436.74,323.93 441.49,320.24 446.24,316.08 450.99,311.46 455.74,306.38 460.49,300.84 465.23,294.83 469.98,288.28 474.73,280.83 479.48,272.45 484.23,263.15 488.98,252.92 493.73,241.77 498.48,229.69 503.23,216.49 507.98,201.46 512.73,184.58 517.48,165.84 522.23,145.26 526.98,122.83 531.73,98.55 536.48,71.92 541.23,41.61 " /><polyline clip-path="url(#plot-area)" style="fill:none; stroke:#dbae57; stroke-width:2.00;" stroke-dasharray="5, 5" points="75.77,359.09 80.52,359.09 85.27,359.09 90.02,359.08 94.77,359.08 99.52,359.08 104.27,359.08 109.02,359.07 113.77,359.07 118.52,359.07 123.27,359.06 128.02,359.06 132.77,359.05 137.52,359.04 142.27,359.04 147.02,359.03 151.77,359.02 156.51,359.01 161.26,359.00 166.01,358.99 170.76,358.98 175.51,358.96 180.26,358.95 185.01,358.93 189.76,358.91 194.51,358.89 199.26,358.87 204.01,358.85 208.76,358.82 213.51,358.79 218.26,358.75 223.01,358.72 227.76,358.68 232.51,358.63 237.26,358.58 242.01,358.52 246.76,358.46 251.51,358.39 256.26,358.32 261.00,358.24 265.75,358.15 270.50,358.04 275.25,357.93 280.00,357.81 284.75,357.67 289.50,357.52 294.25,357.35 299.00,357.17 303.75,356.96 308.50,356.74 313.25,356.49 318.00,356.21 322.75,355.91 327.50,355.57 332.25,355.20 337.00,354.79 341.75,354.34 346.50,353.84 351.25,353.28 356.00,352.67 360.74,351.99 365.49,351.24 370.24,350.41 374.99,349.50 379.74,348.49 384.49,347.37 389.24,346.14 393.99,344.77 398.74,343.27 403.49,341.60 408.24,339.76 412.99,337.72 417.74,335.47 422.49,332.99 427.24,330.24 431.99,327.21 436.74,323.85 441.49,320.14 446.24,316.05 450.99,311.52 455.74,306.51 460.49,300.98 465.23,294.87 469.98,288.11 474.73,280.64 479.48,272.39 484.23,263.27 488.98,253.19 493.73,242.05 498.48,229.74 503.23,216.13 507.98,201.10 512.73,184.48 517.48,166.11 522.23,145.81 526.98,123.38 531.73,98.59 536.48,71.19 541.23,40.91 " /><rect  x="52.00" y="25.00" width="512.00" height="350.00" style="fill:none; fill-opacity:1.00; stroke:black; stroke-width:0.50;" />
<line  x1="71.02" y1="376.00" x2="71.02" y2="381.00"  style="stroke: black;stroke-width:1.00"/>
<text  x="71.02" y="395.00" text-anchor="middle"  font-weight="regular">0</text>
<line  x1="166.01" y1="376.00" x2="166.01" y2="381.00"  style="stroke: black;stroke-width:1.00"/>
<text  x="166.01" y="395.00" text-anchor="middle"  font-weight="regular">20.0</text>
<line  x1="261.00" y1="376.00" x2="261.00" y2="381.00"  style="stroke: black;stroke-width:1.00"/>
<text  x="261.00" y="395.00" text-anchor="middle"  font-weight="regular">40.0</text>
<line  x1="356.00" y1="376.00" x2="356.00" y2="381.00"  style="stroke: black;stroke-width:1.00"/>
<text  x="356.00" y="395.00" text-anchor="middle"  font-weight="regular">60.0</text>
<line  x1="450.99" y1="376.00" x2="450.99" y2="381.00"  style="stroke: black;stroke-width:1.00"/>
<text  x="450.99" y="395.00" text-anchor="middle"  font-weight="regular">80.0</text>
<line  x1="545.98" y1="376.00" x2="545.98" y2="381.00"  style="stroke: black;stroke-width:1.00"/>
<text  x="545.98" y="395.00" text-anchor="middle"  font-weight="regular"><tspan>1.0e<tspan  font-size="10" dy="-5" dx="1">2</tspan></tspan></text>
<line  x1="46.50" y1="359.11" x2="51.50" y2="359.11"  style="stroke: black;stroke-width:1.00"/>
<text  x="42.50" y="363.11" text-anchor="end"  font-weight="regular">0</text>
<line  x1="46.50" y1="279.28" x2="51.50" y2="279.28"  style="stroke: black;stroke-width:1.00"/>
<text  x="42.50" y="283.28" text-anchor="end"  font-weight="regular"><tspan>5.0e<tspan  font-size="10" dy="-5" dx="1">3</tspan></tspan></text>
<line  x1="46.50" y1="199.45" x2="51.50" y2="199.45"  style="stroke: black;stroke-width:1.00"/>
<text  x="42.50" y="203.45" text-anchor="end"  font-weight="regular"><tspan>1.0e<tspan  font-size="10" dy="-5" dx="1">4</tspan></tspan></text>
<line  x1="46.50" y1="119.63" x2="51.50" y2="119.63"  style="stroke: black;stroke-width:1.00"/>
<text  x="42.50" y="123.63" text-anchor="end"  font-weight="regular"><tspan>1.5e<tspan  font-size="10" dy="-5" dx="1">4</tspan></tspan></text>
<line  x1="46.50" y1="39.80" x2="51.50" y2="39.80"  style="stroke: black;stroke-width:1.00"/>
<text  x="42.50" y="43.80" text-anchor="end"  font-weight="regular"><tspan>2.0e<tspan  font-size="10" dy="-5" dx="1">4</tspan></tspan></text>
<rect  x="454.50" y="35.00" width="100.00" height="36.00" style="fill:white; fill-opacity:0.50; stroke:#333; stroke-width:0.50;" />
<defs><clipPath id="leg-area"><rect x="494.50" y="35.00" width="58.00" height="36.00"/>
</clipPath></defs><line  x1="464.50" y1="46.00" x2="494.50" y2="46.00"  style="stroke: #db5f57;stroke-width:2.00"/>
<text clip-path="url(#leg-area)"  x="524.50" y="50.00" text-anchor="middle"  font-weight="regular">mpiric</text>
<line  x1="464.50" y1="61.00" x2="494.50" y2="61.00" stroke-dasharray="5, 5" style="stroke: #dbae57;stroke-width:2.00"/>
<text clip-path="url(#leg-area)"  x="524.50" y="65.00" text-anchor="middle"  font-weight="regular">libm</text>
</svg>

