<svg class="charter" xmlns="http://www.w3.org/2000/svg" version="1.1" width="100%" viewbox="0 0 600 400">
<defs><clipPath id="plot-area"><rect x="52.50" y="25.00" width="512.00" height="350.00"/>
</clipPath></defs><line clip-path="url(#plot-area)"  x1="71.02" y1="25.00" x2="71.02" y2="375.00"  style="stroke: #ccc;stroke-width:0.50"/>
<line clip-path="url(#plot-area)"  x1="166.01" y1="25.00" x2="166.01" y2="375.00"  style="stroke: #ccc;stroke-width:0.50"/>
<line clip-path="url(#plot-area)"  x1="261.00" y1="25.00" x2="261.00" y2="375.00"  style="stroke: #ccc;stroke-width:0.50"/>
<line clip-path="url(#plot-area)"  x1="356.00" y1="25.00" x2="356.00" y2="375.00"  style="stroke: #ccc;stroke-width:0.50"/>
<line clip-path="url(#plot-area)"  x1="450.99" y1="25.00" x2="450.99" y2="375.00"  style="stroke: #ccc;stroke-width:0.50"/>
<line clip-path="url(#plot-area)"  x1="545.98" y1="25.00" x2="545.98" y2="375.00"  style="stroke: #ccc;stroke-width:0.50"/>
<line clip-path="url(#plot-area)"  x1="52.50" y1="359.09" x2="564.50" y2="359.09"  style="stroke: #ccc;stroke-width:0.50"/>
<line clip-path="url(#plot-area)"  x1="52.50" y1="253.03" x2="564.50" y2="253.03"  style="stroke: #ccc;stroke-width:0.50"/>
<line clip-path="url(#plot-area)"  x1="52.50" y1="146.97" x2="564.50" y2="146.97"  style="stroke: #ccc;stroke-width:0.50"/>
<line clip-path="url(#plot-area)"  x1="52.50" y1="40.91" x2="564.50" y2="40.91"  style="stroke: #ccc;stroke-width:0.50"/>
<polyline clip-path="url(#plot-area)" style="fill:none; stroke:#db5f57; stroke-width:2.00;"  points="75.77,348.48 80.52,337.88 85.27,327.27 90.02,316.67 94.77,306.06 99.52,295.45 104.27,284.85 109.02,274.24 113.77,263.64 118.52,359.09 123.27,348.48 128.02,337.88 132.77,327.27 137.52,316.67 142.27,306.06 147.02,295.45 151.77,284.85 156.51,274.24 161.26,263.64 166.01,359.09 170.76,348.48 175.51,337.88 180.26,327.27 185.01,316.67 189.76,306.06 194.51,295.45 199.26,284.85 204.01,274.24 208.76,263.64 213.51,253.03 218.26,348.48 223.01,337.88 227.76,327.27 232.51,316.67 237.26,306.06 242.01,295.45 246.76,284.85 251.51,274.24 256.26,263.64 261.00,253.03 265.75,348.49 270.50,337.88 275.25,327.27 280.00,316.67 284.75,306.06 289.50,295.45 294.25,284.85 299.00,274.24 303.75,263.64 308.50,253.03 313.25,348.49 318.00,337.88 322.75,327.27 327.50,316.67 332.25,306.06 337.00,295.45 341.75,284.85 346.50,274.24 351.25,263.64 356.00,253.03 360.74,348.49 365.49,337.88 370.24,327.27 374.99,316.67 379.74,306.06 384.49,295.45 389.24,284.85 393.99,274.24 398.74,263.64 403.49,253.03 408.24,348.49 412.99,337.88 417.74,327.27 422.49,316.67 427.24,306.06 431.99,295.46 436.74,284.85 441.49,274.24 446.24,263.64 450.99,253.03 455.74,348.49 460.49,337.88 465.23,327.27 469.98,316.67 474.73,306.06 479.48,295.45 484.23,284.85 488.98,274.24 493.73,263.64 498.48,253.03 503.23,348.49 507.98,337.88 512.73,327.27 517.48,316.67 522.23,306.06 526.98,295.45 531.73,284.85 536.48,274.24 541.23,263.64 " /><polyline clip-path="url(#plot-area)" style="fill:none; stroke:#dbae57; stroke-width:2.00;" stroke-dasharray="5, 5" points="75.77,348.48 80.52,337.88 85.27,327.27 90.02,316.67 94.77,306.06 99.52,295.45 104.27,284.85 109.02,274.24 113.77,263.64 118.52,359.09 123.27,348.48 128.02,337.88 132.77,327.27 137.52,316.67 142.27,306.06 147.02,295.45 151.77,284.85 156.51,274.24 161.26,263.64 166.01,359.09 170.76,348.48 175.51,337.88 180.26,327.27 185.01,316.67 189.76,306.06 194.51,295.45 199.26,284.85 204.01,274.24 208.76,263.64 213.51,253.03 218.26,348.48 223.01,337.88 227.76,327.27 232.51,316.67 237.26,306.06 242.01,295.45 246.76,284.85 251.51,274.24 256.26,263.64 261.00,253.03 265.75,348.49 270.50,337.88 275.25,327.27 280.00,316.67 284.75,306.06 289.50,295.45 294.25,284.85 299.00,274.24 303.75,263.64 308.50,253.03 313.25,348.49 318.00,337.88 322.75,327.27 327.50,316.67 332.25,306.06 337.00,295.45 341.75,284.85 346.50,274.24 351.25,263.64 356.00,253.03 360.74,348.49 365.49,337.88 370.24,327.27 374.99,316.67 379.74,306.06 384.49,295.45 389.24,284.85 393.99,274.24 398.74,263.64 403.49,253.03 408.24,348.49 412.99,337.88 417.74,327.27 422.49,316.67 427.24,306.06 431.99,295.46 436.74,284.85 441.49,274.24 446.24,263.64 450.99,253.03 455.74,348.49 460.49,337.88 465.23,327.27 469.98,316.67 474.73,306.06 479.48,295.45 484.23,284.85 488.98,274.24 493.73,263.64 498.48,253.03 503.23,348.49 507.98,337.88 512.73,327.27 517.48,316.67 522.23,306.06 526.98,295.45 531.73,284.85 536.48,274.24 541.23,263.64 " /><polyline clip-path="url(#plot-area)" style="fill:none; stroke:#b9db57; stroke-width:2.00;"  points="75.77,348.48 80.52,337.88 85.27,327.27 90.02,316.67 94.77,306.06 99.52,295.45 104.27,284.85 109.02,274.24 113.77,263.64 118.52,253.03 123.27,242.42 128.02,231.82 132.77,221.21 137.52,210.61 142.27,200.00 147.02,189.39 151.77,178.79 156.51,168.18 161.26,157.58 166.01,359.09 170.76,348.48 175.51,337.88 180.26,327.27 185.01,316.67 189.76,306.06 194.51,295.45 199.26,284.85 204.01,274.24 208.76,263.64 213.51,253.03 218.26,242.42 223.01,231.82 227.76,221.21 232.51,210.61 237.26,200.00 242.01,189.39 246.76,178.79 251.51,168.18 256.26,157.58 261.00,146.97 265.75,348.49 270.50,337.88 275.25,327.27 280.00,316.67 284.75,306.06 289.50,295.45 294.25,284.85 299.00,274.24 303.75,263.64 308.50,253.03 313.25,242.42 318.00,231.82 322.75,221.21 327.50,210.61 332.25,200.00 337.00,189.39 341.75,178.79 346.50,168.18 351.25,157.58 356.00,146.97 360.74,348.49 365.49,337.88 370.24,327.27 374.99,316.67 379.74,306.06 384.49,295.45 389.24,284.85 393.99,274.24 398.74,263.64 403.49,253.03 408.24,242.42 412.99,231.82 417.74,221.21 422.49,210.61 427.24,200.00 431.99,189.39 436.74,178.79 441.49,168.18 446.24,157.58 450.99,146.97 455.74,348.49 460.49,337.88 465.23,327.27 469.98,316.67 474.73,306.06 479.48,295.45 484.23,284.85 488.98,274.24 493.73,263.64 498.48,253.03 503.23,242.42 507.98,231.82 512.73,221.21 517.48,210.61 522.23,200.00 526.98,189.39 531.73,178.79 536.48,168.18 541.23,157.58 " /><polyline clip-path="url(#plot-area)" style="fill:none; stroke:#69db57; stroke-width:2.00;" stroke-dasharray="5, 5" points="75.77,348.48 80.52,337.88 85.27,327.27 90.02,316.67 94.77,306.06 99.52,295.45 104.27,284.85 109.02,274.24 113.77,263.64 118.52,253.03 123.27,242.42 128.02,231.82 132.77,221.21 137.52,210.61 142.27,200.00 147.02,189.39 151.77,178.79 156.51,168.18 161.26,157.58 166.01,359.09 170.76,348.48 175.51,337.88 180.26,327.27 185.01,316.67 189.76,306.06 194.51,295.45 199.26,284.85 204.01,274.24 208.76,263.64 213.51,253.03 218.26,242.42 223.01,231.82 227.76,221.21 232.51,210.61 237.26,200.00 242.01,189.39 246.76,178.79 251.51,168.18 256.26,157.58 261.00,146.97 265.75,348.49 270.50,337.88 275.25,327.27 280.00,316.67 284.75,306.06 289.50,295.45 294.25,284.85 299.00,274.24 303.75,263.64 308.50,253.03 313.25,242.42 318.00,231.82 322.75,221.21 327.50,210.61 332.25,200.00 337.00,189.39 341.75,178.79 346.50,168.18 351.25,157.58 356.00,146.97 360.74,348.49 365.49,337.88 370.24,327.27 374.99,316.67 379.74,306.06 384.49,295.45 389.24,284.85 393.99,274.24 398.74,263.64 403.49,253.03 408.24,242.42 412.99,231.82 417.74,221.21 422.49,210.61 427.24,200.00 431.99,189.39 436.74,178.79 441.49,168.18 446.24,157.58 450.99,146.97 455.74,348.49 460.49,337.88 465.23,327.27 469.98,316.67 474.73,306.06 479.48,295.45 484.23,284.85 488.98,274.24 493.73,263.64 498.48,253.03 503.23,242.42 507.98,231.82 512.73,221.21 517.48,210.61 522.23,200.00 526.98,189.39 531.73,178.79 536.48,168.18 541.23,157.58 " /><polyline clip-path="url(#plot-area)" style="fill:none; stroke:#57db94; stroke-width:2.00;"  points="75.77,348.48 80.52,337.88 85.27,327.27 90.02,316.67 94.77,306.06 99.52,295.45 104.27,284.85 109.02,274.24 113.77,263.64 118.52,253.03 123.27,242.42 128.02,231.82 132.77,221.21 137.52,210.61 142.27,200.00 147.02,189.39 151.77,178.79 156.51,168.18 161.26,157.58 166.01,146.97 170.76,136.36 175.51,125.76 180.26,115.15 185.01,104.55 189.76,93.94 194.51,83.33 199.26,72.73 204.01,62.12 208.76,51.52 213.51,40.91 218.26,348.48 223.01,337.88 227.76,327.27 232.51,316.67 237.26,306.06 242.01,295.45 246.76,284.85 251.51,274.24 256.26,263.64 261.00,253.03 265.75,242.42 270.50,231.82 275.25,221.21 280.00,210.61 284.75,200.00 289.50,189.39 294.25,178.79 299.00,168.18 303.75,157.58 308.50,146.97 313.25,136.36 318.00,125.76 322.75,115.15 327.50,104.55 332.25,93.94 337.00,83.33 341.75,72.73 346.50,62.12 351.25,51.52 356.00,40.91 360.74,348.49 365.49,337.88 370.24,327.27 374.99,316.67 379.74,306.06 384.49,295.45 389.24,284.85 393.99,274.24 398.74,263.64 403.49,253.03 408.24,242.42 412.99,231.82 417.74,221.21 422.49,210.61 427.24,200.00 431.99,189.39 436.74,178.79 441.49,168.18 446.24,157.58 450.99,146.97 455.74,136.36 460.49,125.76 465.23,115.15 469.98,104.55 474.73,93.94 479.48,83.33 484.23,72.73 488.98,62.12 493.73,51.52 498.48,40.91 503.23,348.49 507.98,337.88 512.73,327.27 517.48,316.67 522.23,306.06 526.98,295.45 531.73,284.85 536.48,274.24 541.23,263.64 " /><polyline clip-path="url(#plot-area)" style="fill:none; stroke:#57d3db; stroke-width:2.00;" stroke-dasharray="5, 5" points="75.77,348.48 80.52,337.88 85.27,327.27 90.02,316.67 94.77,306.06 99.52,295.45 104.27,284.85 109.02,274.24 113.77,263.64 118.52,253.03 123.27,242.42 128.02,231.82 132.77,221.21 137.52,210.61 142.27,200.00 147.02,189.39 151.77,178.79 156.51,168.18 161.26,157.58 166.01,146.97 170.76,136.36 175.51,125.76 180.26,115.15 185.01,104.55 189.76,93.94 194.51,83.33 199.26,72.73 204.01,62.12 208.76,51.52 213.51,40.91 218.26,348.48 223.01,337.88 227.76,327.27 232.51,316.67 237.26,306.06 242.01,295.45 246.76,284.85 251.51,274.24 256.26,263.64 261.00,253.03 265.75,242.42 270.50,231.82 275.25,221.21 280.00,210.61 284.75,200.00 289.50,189.39 294.25,178.79 299.00,168.18 303.75,157.58 308.50,146.97 313.25,136.36 318.00,125.76 322.75,115.15 327.50,104.55 332.25,93.94 337.00,83.33 341.75,72.73 346.50,62.12 351.25,51.52 356.00,40.91 360.74,348.49 365.49,337.88 370.24,327.27 374.99,316.67 379.74,306.06 384.49,295.45 389.24,284.85 393.99,274.24 398.74,263.64 403.49,253.03 408.24,242.42 412.99,231.82 417.74,221.21 422.49,210.61 427.24,200.00 431.99,189.39 436.74,178.79 441.49,168.18 446.24,157.58 450.99,146.97 455.74,136.36 460.49,125.76 465.23,115.15 469.98,104.55 474.73,93.94 479.48,83.33 484.23,72.73 488.98,62.12 493.73,51.52 498.48,40.91 503.23,348.49 507.98,337.88 512.73,327.27 517.48,316.67 522.23,306.06 526.98,295.45 531.73,284.85 536.48,274.24 541.23,263.64 " /><rect  x="52.00" y="25.00" width="512.00" height="350.00" style="fill:none; fill-opacity:1.00; stroke:black; stroke-width:0.50;" />
<line  x1="71.02" y1="376.00" x2="71.02" y2="381.00"  style="stroke: black;stroke-width:1.00"/>
<text  x="71.02" y="395.00" text-anchor="middle"  font-weight="regular">0</text>
<line  x1="166.01" y1="376.00" x2="166.01" y2="381.00"  style="stroke: black;stroke-width:1.00"/>
<text  x="166.01" y="395.00" text-anchor="middle"  font-weight="regular">20.0</text>
<line  x1="261.00" y1="376.00" x2="261.00" y2="381.00"  style="stroke: black;stroke-width:1.00"/>
<text  x="261.00" y="395.00" text-anchor="middle"  font-weight="regular">40.0</text>
<line  x1="356.00" y1="376.00" x2="356.00" y2="381.00"  style="stroke: black;stroke-width:1.00"/>
<text  x="356.00" y="395.00" text-anchor="middle"  font-weight="regular">60.0</text>
<line  x1="450.99" y1="376.00" x2="450.99" y2="381.00"  style="stroke: black;stroke-width:1.00"/>
<text  x="450.99" y="395.00" text-anchor="middle"  font-weight="regular">80.0</text>
<line  x1="545.98" y1="376.00" x2="545.98" y2="381.00"  style="stroke: black;stroke-width:1.00"/>
<text  x="545.98" y="395.00" text-anchor="middle"  font-weight="regular"><tspan>1.0e<tspan  font-size="10" dy="-5" dx="1">2</tspan></tspan></text>
<line  x1="46.50" y1="359.09" x2="51.50" y2="359.09"  style="stroke: black;stroke-width:1.00"/>
<text  x="42.50" y="363.09" text-anchor="end"  font-weight="regular">0</text>
<line  x1="46.50" y1="253.03" x2="51.50" y2="253.03"  style="stroke: black;stroke-width:1.00"/>
<text  x="42.50" y="257.03" text-anchor="end"  font-weight="regular">1.0</text>
<line  x1="46.50" y1="146.97" x2="51.50" y2="146.97"  style="stroke: black;stroke-width:1.00"/>
<text  x="42.50" y="150.97" text-anchor="end"  font-weight="regular">2.0</text>
<line  x1="46.50" y1="40.91" x2="51.50" y2="40.91"  style="stroke: black;stroke-width:1.00"/>
<text  x="42.50" y="44.91" text-anchor="end"  font-weight="regular">3.0</text>
<rect  x="454.50" y="35.00" width="100.00" height="96.00" style="fill:white; fill-opacity:0.50; stroke:#333; stroke-width:0.50;" />
<defs><clipPath id="leg-area"><rect x="494.50" y="35.00" width="58.00" height="96.00"/>
</clipPath></defs><line  x1="464.50" y1="46.00" x2="494.50" y2="46.00"  style="stroke: #db5f57;stroke-width:2.00"/>
<text clip-path="url(#leg-area)"  x="524.50" y="50.00" text-anchor="middle"  font-weight="regular">mpiric</text>
<line  x1="464.50" y1="61.00" x2="494.50" y2="61.00" stroke-dasharray="5, 5" style="stroke: #dbae57;stroke-width:2.00"/>
<text clip-path="url(#leg-area)"  x="524.50" y="65.00" text-anchor="middle"  font-weight="regular">libm</text>
<line  x1="464.50" y1="76.00" x2="494.50" y2="76.00"  style="stroke: #b9db57;stroke-width:2.00"/>
<text clip-path="url(#leg-area)"  x="524.50" y="80.00" text-anchor="middle"  font-weight="regular">mpiric</text>
<line  x1="464.50" y1="91.00" x2="494.50" y2="91.00" stroke-dasharray="5, 5" style="stroke: #69db57;stroke-width:2.00"/>
<text clip-path="url(#leg-area)"  x="524.50" y="95.00" text-anchor="middle"  font-weight="regular">libm</text>
<line  x1="464.50" y1="106.00" x2="494.50" y2="106.00"  style="stroke: #57db94;stroke-width:2.00"/>
<text clip-path="url(#leg-area)"  x="524.50" y="110.00" text-anchor="middle"  font-weight="regular">mpiric</text>
<line  x1="464.50" y1="121.00" x2="494.50" y2="121.00" stroke-dasharray="5, 5" style="stroke: #57d3db;stroke-width:2.00"/>
<text clip-path="url(#leg-area)"  x="524.50" y="125.00" text-anchor="middle"  font-weight="regular">libm</text>
</svg>

