<svg class="charter" xmlns="http://www.w3.org/2000/svg" version="1.1" width="100%" viewbox="0 0 600 400">
<defs><clipPath id="plot-area"><rect x="52.50" y="25.00" width="512.00" height="350.00"/>
</clipPath></defs><line clip-path="url(#plot-area)"  x1="71.07" y1="25.00" x2="71.07" y2="375.00"  style="stroke: #ccc;stroke-width:0.50"/>
<line clip-path="url(#plot-area)"  x1="165.10" y1="25.00" x2="165.10" y2="375.00"  style="stroke: #ccc;stroke-width:0.50"/>
<line clip-path="url(#plot-area)"  x1="259.13" y1="25.00" x2="259.13" y2="375.00"  style="stroke: #ccc;stroke-width:0.50"/>
<line clip-path="url(#plot-area)"  x1="353.16" y1="25.00" x2="353.16" y2="375.00"  style="stroke: #ccc;stroke-width:0.50"/>
<line clip-path="url(#plot-area)"  x1="447.20" y1="25.00" x2="447.20" y2="375.00"  style="stroke: #ccc;stroke-width:0.50"/>
<line clip-path="url(#plot-area)"  x1="541.23" y1="25.00" x2="541.23" y2="375.00"  style="stroke: #ccc;stroke-width:0.50"/>
<line clip-path="url(#plot-area)"  x1="52.50" y1="359.09" x2="564.50" y2="359.09"  style="stroke: #ccc;stroke-width:0.50"/>
<line clip-path="url(#plot-area)"  x1="52.50" y1="253.03" x2="564.50" y2="253.03"  style="stroke: #ccc;stroke-width:0.50"/>
<line clip-path="url(#plot-area)"  x1="52.50" y1="146.97" x2="564.50" y2="146.97"  style="stroke: #ccc;stroke-width:0.50"/>
<line clip-path="url(#plot-area)"  x1="52.50" y1="40.91" x2="564.50" y2="40.91"  style="stroke: #ccc;stroke-width:0.50"/>
<polyline clip-path="url(#plot-area)" style="fill:none; stroke:#db5f57; stroke-width:2.00;"  points="75.77,348.48 80.47,337.88 85.18,327.27 89.88,316.67 94.58,306.06 99.28,295.45 103.98,284.85 108.68,274.24 113.39,263.64 118.09,253.03 122.79,348.48 127.49,337.88 132.19,327.27 136.89,316.67 141.59,306.06 146.30,295.45 151.00,284.85 155.70,274.24 160.40,263.64 165.10,359.09 169.80,348.48 174.51,337.88 179.21,327.27 183.91,316.67 188.61,306.06 193.31,295.45 198.01,284.85 202.71,274.24 207.42,263.64 212.12,359.09 216.82,348.48 221.52,337.88 226.22,327.27 230.92,316.67 235.63,306.06 240.33,295.45 245.03,284.85 249.73,274.24 254.43,263.64 259.13,359.09 263.84,348.48 268.54,337.88 273.24,327.27 277.94,316.67 282.64,306.06 287.34,295.45 292.04,284.85 296.75,274.24 301.45,263.64 306.15,253.03 310.85,348.48 315.55,337.88 320.25,327.27 324.96,316.67 329.66,306.06 334.36,295.45 339.06,284.85 343.76,274.24 348.46,263.64 353.16,253.03 357.87,348.48 362.57,337.88 367.27,327.27 371.97,316.67 376.67,306.06 381.37,295.45 386.08,284.85 390.78,274.24 395.48,263.64 400.18,253.03 404.88,348.48 409.58,337.88 414.29,327.27 418.99,316.67 423.69,306.06 428.39,295.45 433.09,284.85 437.79,274.24 442.49,263.64 447.20,253.03 451.90,348.48 456.60,337.88 461.30,327.27 466.00,316.67 470.70,306.06 475.41,295.45 480.11,284.85 484.81,274.24 489.51,263.64 494.21,253.03 498.91,348.48 503.61,337.88 508.32,327.27 513.02,316.67 517.72,306.06 522.42,295.45 527.12,284.85 531.82,274.24 536.53,263.64 541.23,253.03 " /><polyline clip-path="url(#plot-area)" style="fill:none; stroke:#dbae57; stroke-width:2.00;" stroke-dasharray="5, 5" points="75.77,348.48 80.47,337.88 85.18,327.27 89.88,316.67 94.58,306.06 99.28,295.45 103.98,284.85 108.68,274.24 113.39,263.64 118.09,253.03 122.79,348.48 127.49,337.88 132.19,327.27 136.89,316.67 141.59,306.06 146.30,295.45 151.00,284.85 155.70,274.24 160.40,263.64 165.10,359.09 169.80,348.48 174.51,337.88 179.21,327.27 183.91,316.67 188.61,306.06 193.31,295.45 198.01,284.85 202.71,274.24 207.42,263.64 212.12,359.09 216.82,348.48 221.52,337.88 226.22,327.27 230.92,316.67 235.63,306.06 240.33,295.45 245.03,284.85 249.73,274.24 254.43,263.64 259.13,359.09 263.84,348.48 268.54,337.88 273.24,327.27 277.94,316.67 282.64,306.06 287.34,295.45 292.04,284.85 296.75,274.24 301.45,263.64 306.15,253.03 310.85,348.48 315.55,337.88 320.25,327.27 324.96,316.67 329.66,306.06 334.36,295.45 339.06,284.85 343.76,274.24 348.46,263.64 353.16,253.03 357.87,348.48 362.57,337.88 367.27,327.27 371.97,316.67 376.67,306.06 381.37,295.45 386.08,284.85 390.78,274.24 395.48,263.64 400.18,253.03 404.88,348.48 409.58,337.88 414.29,327.27 418.99,316.67 423.69,306.06 428.39,295.45 433.09,284.85 437.79,274.24 442.49,263.64 447.20,253.03 451.90,348.48 456.60,337.88 461.30,327.27 466.00,316.67 470.70,306.06 475.41,295.45 480.11,284.85 484.81,274.24 489.51,263.64 494.21,253.03 498.91,348.48 503.61,337.88 508.32,327.27 513.02,316.67 517.72,306.06 522.42,295.45 527.12,284.85 531.82,274.24 536.53,263.64 541.23,253.03 " /><polyline clip-path="url(#plot-area)" style="fill:none; stroke:#b9db57; stroke-width:2.00;"  points="75.77,348.48 80.47,337.88 85.18,327.27 89.88,316.67 94.58,306.06 99.28,295.45 103.98,284.85 108.68,274.24 113.39,263.64 118.09,253.03 122.79,242.42 127.49,231.82 132.19,221.21 136.89,210.61 141.59,200.00 146.30,189.39 151.00,178.79 155.70,168.18 160.40,157.58 165.10,359.09 169.80,348.48 174.51,337.88 179.21,327.27 183.91,316.67 188.61,306.06 193.31,295.45 198.01,284.85 202.71,274.24 207.42,263.64 212.12,253.03 216.82,242.42 221.52,231.82 226.22,221.21 230.92,210.61 235.63,200.00 240.33,189.39 245.03,178.79 249.73,168.18 254.43,157.58 259.13,359.09 263.84,348.48 268.54,337.88 273.24,327.27 277.94,316.67 282.64,306.06 287.34,295.45 292.04,284.85 296.75,274.24 301.45,263.64 306.15,253.03 310.85,242.42 315.55,231.82 320.25,221.21 324.96,210.61 329.66,200.00 334.36,189.39 339.06,178.79 343.76,168.18 348.46,157.58 353.16,146.97 357.87,348.48 362.57,337.88 367.27,327.27 371.97,316.67 376.67,306.06 381.37,295.45 386.08,284.85 390.78,274.24 395.48,263.64 400.18,253.03 404.88,242.42 409.58,231.82 414.29,221.21 418.99,210.61 423.69,200.00 428.39,189.39 433.09,178.79 437.79,168.18 442.49,157.58 447.20,146.97 451.90,348.48 456.60,337.88 461.30,327.27 466.00,316.67 470.70,306.06 475.41,295.45 480.11,284.85 484.81,274.24 489.51,263.64 494.21,253.03 498.91,242.42 503.61,231.82 508.32,221.21 513.02,210.61 517.72,200.00 522.42,189.39 527.12,178.79 531.82,168.18 536.53,157.58 541.23,146.97 " /><polyline clip-path="url(#plot-area)" style="fill:none; stroke:#69db57; stroke-width:2.00;" stroke-dasharray="5, 5" points="75.77,348.48 80.47,337.88 85.18,327.27 89.88,316.67 94.58,306.06 99.28,295.45 103.98,284.85 108.68,274.24 113.39,263.64 118.09,253.03 122.79,242.42 127.49,231.82 132.19,221.21 136.89,210.61 141.59,200.00 146.30,189.39 151.00,178.79 155.70,168.18 160.40,157.58 165.10,359.09 169.80,348.48 174.51,337.88 179.21,327.27 183.91,316.67 188.61,306.06 193.31,295.45 198.01,284.85 202.71,274.24 207.42,263.64 212.12,253.03 216.82,242.42 221.52,231.82 226.22,221.21 230.92,210.61 235.63,200.00 240.33,189.39 245.03,178.79 249.73,168.18 254.43,157.58 259.13,359.09 263.84,348.48 268.54,337.88 273.24,327.27 277.94,316.67 282.64,306.06 287.34,295.45 292.04,284.85 296.75,274.24 301.45,263.64 306.15,253.03 310.85,242.42 315.55,231.82 320.25,221.21 324.96,210.61 329.66,200.00 334.36,189.39 339.06,178.79 343.76,168.18 348.46,157.58 353.16,146.97 357.87,348.48 362.57,337.88 367.27,327.27 371.97,316.67 376.67,306.06 381.37,295.45 386.08,284.85 390.78,274.24 395.48,263.64 400.18,253.03 404.88,242.42 409.58,231.82 414.29,221.21 418.99,210.61 423.69,200.00 428.39,189.39 433.09,178.79 437.79,168.18 442.49,157.58 447.20,146.97 451.90,348.48 456.60,337.88 461.30,327.27 466.00,316.67 470.70,306.06 475.41,295.45 480.11,284.85 484.81,274.24 489.51,263.64 494.21,253.03 498.91,242.42 503.61,231.82 508.32,221.21 513.02,210.61 517.72,200.00 522.42,189.39 527.12,178.79 531.82,168.18 536.53,157.58 541.23,146.97 " /><polyline clip-path="url(#plot-area)" style="fill:none; stroke:#57db94; stroke-width:2.00;"  points="75.77,348.48 80.47,337.88 85.18,327.27 89.88,316.67 94.58,306.06 99.28,295.45 103.98,284.85 108.68,274.24 113.39,263.64 118.09,253.03 122.79,242.42 127.49,231.82 132.19,221.21 136.89,210.61 141.59,200.00 146.30,189.39 151.00,178.79 155.70,168.18 160.40,157.58 165.10,146.97 169.80,136.36 174.51,125.76 179.21,115.15 183.91,104.55 188.61,93.94 193.31,83.33 198.01,72.73 202.71,62.12 207.42,51.52 212.12,359.09 216.82,348.48 221.52,337.88 226.22,327.27 230.92,316.67 235.63,306.06 240.33,295.45 245.03,284.85 249.73,274.24 254.43,263.64 259.13,253.03 263.84,242.42 268.54,231.82 273.24,221.21 277.94,210.61 282.64,200.00 287.34,189.39 292.04,178.79 296.75,168.18 301.45,157.58 306.15,146.97 310.85,136.36 315.55,125.76 320.25,115.15 324.96,104.55 329.66,93.94 334.36,83.33 339.06,72.73 343.76,62.12 348.46,51.52 353.16,40.91 357.87,348.48 362.57,337.88 367.27,327.27 371.97,316.67 376.67,306.06 381.37,295.45 386.08,284.85 390.78,274.24 395.48,263.64 400.18,253.03 404.88,242.42 409.58,231.82 414.29,221.21 418.99,210.61 423.69,200.00 428.39,189.39 433.09,178.79 437.79,168.18 442.49,157.58 447.20,146.97 451.90,136.36 456.60,125.76 461.30,115.15 466.00,104.55 470.70,93.94 475.41,83.33 480.11,72.73 484.81,62.12 489.51,51.52 494.21,40.91 498.91,348.48 503.61,337.88 508.32,327.27 513.02,316.67 517.72,306.06 522.42,295.45 527.12,284.85 531.82,274.24 536.53,263.64 541.23,253.03 " /><polyline clip-path="url(#plot-area)" style="fill:none; stroke:#57d3db; stroke-width:2.00;" stroke-dasharray="5, 5" points="75.77,348.48 80.47,337.88 85.18,327.27 89.88,316.67 94.58,306.06 99.28,295.45 103.98,284.85 108.68,274.24 113.39,263.64 118.09,253.03 122.79,242.42 127.49,231.82 132.19,221.21 136.89,210.61 141.59,200.00 146.30,189.39 151.00,178.79 155.70,168.18 160.40,157.58 165.10,146.97 169.80,136.36 174.51,125.76 179.21,115.15 183.91,104.55 188.61,93.94 193.31,83.33 198.01,72.73 202.71,62.12 207.42,51.52 212.12,359.09 216.82,348.48 221.52,337.88 226.22,327.27 230.92,316.67 235.63,306.06 240.33,295.45 245.03,284.85 249.73,274.24 254.43,263.64 259.13,253.03 263.84,242.42 268.54,231.82 273.24,221.21 277.94,210.61 282.64,200.00 287.34,189.39 292.04,178.79 296.75,168.18 301.45,157.58 306.15,146.97 310.85,136.36 315.55,125.76 320.25,115.15 324.96,104.55 329.66,93.94 334.36,83.33 339.06,72.73 343.76,62.12 348.46,51.52 353.16,40.91 357.87,348.48 362.57,337.88 367.27,327.27 371.97,316.67 376.67,306.06 381.37,295.45 386.08,284.85 390.78,274.24 395.48,263.64 400.18,253.03 404.88,242.42 409.58,231.82 414.29,221.21 418.99,210.61 423.69,200.00 428.39,189.39 433.09,178.79 437.79,168.18 442.49,157.58 447.20,146.97 451.90,136.36 456.60,125.76 461.30,115.15 466.00,104.55 470.70,93.94 475.41,83.33 480.11,72.73 484.81,62.12 489.51,51.52 494.21,40.91 498.91,348.48 503.61,337.88 508.32,327.27 513.02,316.67 517.72,306.06 522.42,295.45 527.12,284.85 531.82,274.24 536.53,263.64 541.23,253.03 " /><rect  x="52.00" y="25.00" width="512.00" height="350.00" style="fill:none; fill-opacity:1.00; stroke:black; stroke-width:0.50;" />
<line  x1="71.07" y1="376.00" x2="71.07" y2="381.00"  style="stroke: black;stroke-width:1.00"/>
<text  x="71.07" y="395.00" text-anchor="middle"  font-weight="regular">0</text>
<line  x1="165.10" y1="376.00" x2="165.10" y2="381.00"  style="stroke: black;stroke-width:1.00"/>
<text  x="165.10" y="395.00" text-anchor="middle"  font-weight="regular">20.0</text>
<line  x1="259.13" y1="376.00" x2="259.13" y2="381.00"  style="stroke: black;stroke-width:1.00"/>
<text  x="259.13" y="395.00" text-anchor="middle"  font-weight="regular">40.0</text>
<line  x1="353.16" y1="376.00" x2="353.16" y2="381.00"  style="stroke: black;stroke-width:1.00"/>
<text  x="353.16" y="395.00" text-anchor="middle"  font-weight="regular">60.0</text>
<line  x1="447.20" y1="376.00" x2="447.20" y2="381.00"  style="stroke: black;stroke-width:1.00"/>
<text  x="447.20" y="395.00" text-anchor="middle"  font-weight="regular">80.0</text>
<line  x1="541.23" y1="376.00" x2="541.23" y2="381.00"  style="stroke: black;stroke-width:1.00"/>
<text  x="541.23" y="395.00" text-anchor="middle"  font-weight="regular"><tspan>1.0e<tspan  font-size="10" dy="-5" dx="1">2</tspan></tspan></text>
<line  x1="46.50" y1="359.09" x2="51.50" y2="359.09"  style="stroke: black;stroke-width:1.00"/>
<text  x="42.50" y="363.09" text-anchor="end"  font-weight="regular">0</text>
<line  x1="46.50" y1="253.03" x2="51.50" y2="253.03"  style="stroke: black;stroke-width:1.00"/>
<text  x="42.50" y="257.03" text-anchor="end"  font-weight="regular">1.0</text>
<line  x1="46.50" y1="146.97" x2="51.50" y2="146.97"  style="stroke: black;stroke-width:1.00"/>
<text  x="42.50" y="150.97" text-anchor="end"  font-weight="regular">2.0</text>
<line  x1="46.50" y1="40.91" x2="51.50" y2="40.91"  style="stroke: black;stroke-width:1.00"/>
<text  x="42.50" y="44.91" text-anchor="end"  font-weight="regular">3.0</text>
<rect  x="454.50" y="35.00" width="100.00" height="96.00" style="fill:white; fill-opacity:0.50; stroke:#333; stroke-width:0.50;" />
<defs><clipPath id="leg-area"><rect x="494.50" y="35.00" width="58.00" height="96.00"/>
</clipPath></defs><line  x1="464.50" y1="46.00" x2="494.50" y2="46.00"  style="stroke: #db5f57;stroke-width:2.00"/>
<text clip-path="url(#leg-area)"  x="524.50" y="50.00" text-anchor="middle"  font-weight="regular">mpiric</text>
<line  x1="464.50" y1="61.00" x2="494.50" y2="61.00" stroke-dasharray="5, 5" style="stroke: #dbae57;stroke-width:2.00"/>
<text clip-path="url(#leg-area)"  x="524.50" y="65.00" text-anchor="middle"  font-weight="regular">libm</text>
<line  x1="464.50" y1="76.00" x2="494.50" y2="76.00"  style="stroke: #b9db57;stroke-width:2.00"/>
<text clip-path="url(#leg-area)"  x="524.50" y="80.00" text-anchor="middle"  font-weight="regular">mpiric</text>
<line  x1="464.50" y1="91.00" x2="494.50" y2="91.00" stroke-dasharray="5, 5" style="stroke: #69db57;stroke-width:2.00"/>
<text clip-path="url(#leg-area)"  x="524.50" y="95.00" text-anchor="middle"  font-weight="regular">libm</text>
<line  x1="464.50" y1="106.00" x2="494.50" y2="106.00"  style="stroke: #57db94;stroke-width:2.00"/>
<text clip-path="url(#leg-area)"  x="524.50" y="110.00" text-anchor="middle"  font-weight="regular">mpiric</text>
<line  x1="464.50" y1="121.00" x2="494.50" y2="121.00" stroke-dasharray="5, 5" style="stroke: #57d3db;stroke-width:2.00"/>
<text clip-path="url(#leg-area)"  x="524.50" y="125.00" text-anchor="middle"  font-weight="regular">libm</text>
</svg>

