<svg class="charter" xmlns="http://www.w3.org/2000/svg" version="1.1" width="100%" viewbox="0 0 600 400">
<defs><clipPath id="plot-area"><rect x="52.50" y="25.00" width="512.00" height="350.00"/>
</clipPath></defs><line clip-path="url(#plot-area)"  x1="71.07" y1="25.00" x2="71.07" y2="375.00"  style="stroke: #ccc;stroke-width:0.50"/>
<line clip-path="url(#plot-area)"  x1="165.10" y1="25.00" x2="165.10" y2="375.00"  style="stroke: #ccc;stroke-width:0.50"/>
<line clip-path="url(#plot-area)"  x1="259.13" y1="25.00" x2="259.13" y2="375.00"  style="stroke: #ccc;stroke-width:0.50"/>
<line clip-path="url(#plot-area)"  x1="353.16" y1="25.00" x2="353.16" y2="375.00"  style="stroke: #ccc;stroke-width:0.50"/>
<line clip-path="url(#plot-area)"  x1="447.20" y1="25.00" x2="447.20" y2="375.00"  style="stroke: #ccc;stroke-width:0.50"/>
<line clip-path="url(#plot-area)"  x1="541.23" y1="25.00" x2="541.23" y2="375.00"  style="stroke: #ccc;stroke-width:0.50"/>
<line clip-path="url(#plot-area)"  x1="52.50" y1="338.18" x2="564.50" y2="338.18"  style="stroke: #ccc;stroke-width:0.50"/>
<line clip-path="url(#plot-area)"  x1="52.50" y1="269.09" x2="564.50" y2="269.09"  style="stroke: #ccc;stroke-width:0.50"/>
<line clip-path="url(#plot-area)"  x1="52.50" y1="200.00" x2="564.50" y2="200.00"  style="stroke: #ccc;stroke-width:0.50"/>
<line clip-path="url(#plot-area)"  x1="52.50" y1="130.91" x2="564.50" y2="130.91"  style="stroke: #ccc;stroke-width:0.50"/>
<line clip-path="url(#plot-area)"  x1="52.50" y1="61.82" x2="564.50" y2="61.82"  style="stroke: #ccc;stroke-width:0.50"/>
<polyline clip-path="url(#plot-area)" style="fill:none; stroke:#db5f57; stroke-width:2.00;"  points="75.77,359.00 80.47,311.11 85.18,283.65 89.88,263.22 94.58,247.89 99.28,235.76 103.98,224.90 108.68,215.33 113.39,207.02 118.09,200.00 122.79,193.77 127.49,187.87 132.19,182.28 136.89,177.01 141.59,172.06 146.30,167.43 151.00,163.12 155.70,159.13 160.40,155.46 165.10,152.11 169.80,148.96 174.51,145.88 179.21,142.89 183.91,139.98 188.61,137.14 193.31,134.39 198.01,131.72 202.71,129.12 207.42,126.61 212.12,124.17 216.82,121.82 221.52,119.54 226.22,117.35 230.92,115.23 235.63,113.20 240.33,111.24 245.03,109.37 249.73,107.57 254.43,105.85 259.13,104.22 263.84,102.63 268.54,101.06 273.24,99.52 277.94,97.99 282.64,96.49 287.34,95.00 292.04,93.53 296.75,92.09 301.45,90.66 306.15,89.25 310.85,87.86 315.55,86.50 320.25,85.15 324.96,83.82 329.66,82.52 334.36,81.23 339.06,79.96 343.76,78.72 348.46,77.49 353.16,76.28 357.87,75.09 362.57,73.93 367.27,72.78 371.97,71.65 376.67,70.54 381.37,69.46 386.08,68.39 390.78,67.34 395.48,66.31 400.18,65.31 404.88,64.32 409.58,63.35 414.29,62.40 418.99,61.47 423.69,60.57 428.39,59.68 433.09,58.81 437.79,57.96 442.49,57.13 447.20,56.33 451.90,55.53 456.60,54.74 461.30,53.95 466.00,53.17 470.70,52.40 475.41,51.63 480.11,50.86 484.81,50.10 489.51,49.34 494.21,48.59 498.91,47.85 503.61,47.11 508.32,46.37 513.02,45.64 517.72,44.91 522.42,44.19 527.12,43.48 531.82,42.77 536.53,42.06 541.23,41.36 " /><polyline clip-path="url(#plot-area)" style="fill:none; stroke:#dbae57; stroke-width:2.00;" stroke-dasharray="5, 5" points="75.77,359.09 80.47,311.20 85.18,283.19 89.88,263.31 94.58,247.89 99.28,235.29 103.98,224.64 108.68,215.42 113.39,207.28 118.09,200.00 122.79,193.41 127.49,187.40 132.19,181.87 136.89,176.75 141.59,171.99 146.30,167.53 151.00,163.34 155.70,159.39 160.40,155.65 165.10,152.11 169.80,148.74 174.51,145.52 179.21,142.45 183.91,139.51 188.61,136.69 193.31,133.98 198.01,131.37 202.71,128.86 207.42,126.44 212.12,124.09 216.82,121.83 221.52,119.64 226.22,117.51 230.92,115.45 235.63,113.44 240.33,111.50 245.03,109.60 249.73,107.76 254.43,105.97 259.13,104.22 263.84,102.51 268.54,100.85 273.24,99.22 277.94,97.63 282.64,96.08 287.34,94.56 292.04,93.08 296.75,91.62 301.45,90.20 306.15,88.80 310.85,87.43 315.55,86.09 320.25,84.77 324.96,83.48 329.66,82.22 334.36,80.97 339.06,79.75 343.76,78.55 348.46,77.36 353.16,76.20 357.87,75.06 362.57,73.94 367.27,72.83 371.97,71.74 376.67,70.67 381.37,69.62 386.08,68.58 390.78,67.56 395.48,66.55 400.18,65.55 404.88,64.57 409.58,63.61 414.29,62.65 418.99,61.71 423.69,60.79 428.39,59.87 433.09,58.97 437.79,58.08 442.49,57.20 447.20,56.33 451.90,55.47 456.60,54.62 461.30,53.78 466.00,52.96 470.70,52.14 475.41,51.33 480.11,50.53 484.81,49.74 489.51,48.96 494.21,48.19 498.91,47.43 503.61,46.67 508.32,45.92 513.02,45.18 517.72,44.45 522.42,43.73 527.12,43.01 531.82,42.30 536.53,41.60 541.23,40.91 " /><rect  x="52.00" y="25.00" width="512.00" height="350.00" style="fill:none; fill-opacity:1.00; stroke:black; stroke-width:0.50;" />
<line  x1="71.07" y1="376.00" x2="71.07" y2="381.00"  style="stroke: black;stroke-width:1.00"/>
<text  x="71.07" y="395.00" text-anchor="middle"  font-weight="regular">0</text>
<line  x1="165.10" y1="376.00" x2="165.10" y2="381.00"  style="stroke: black;stroke-width:1.00"/>
<text  x="165.10" y="395.00" text-anchor="middle"  font-weight="regular">20.0</text>
<line  x1="259.13" y1="376.00" x2="259.13" y2="381.00"  style="stroke: black;stroke-width:1.00"/>
<text  x="259.13" y="395.00" text-anchor="middle"  font-weight="regular">40.0</text>
<line  x1="353.16" y1="376.00" x2="353.16" y2="381.00"  style="stroke: black;stroke-width:1.00"/>
<text  x="353.16" y="395.00" text-anchor="middle"  font-weight="regular">60.0</text>
<line  x1="447.20" y1="376.00" x2="447.20" y2="381.00"  style="stroke: black;stroke-width:1.00"/>
<text  x="447.20" y="395.00" text-anchor="middle"  font-weight="regular">80.0</text>
<line  x1="541.23" y1="376.00" x2="541.23" y2="381.00"  style="stroke: black;stroke-width:1.00"/>
<text  x="541.23" y="395.00" text-anchor="middle"  font-weight="regular"><tspan>1.0e<tspan  font-size="10" dy="-5" dx="1">2</tspan></tspan></text>
<line  x1="46.50" y1="338.18" x2="51.50" y2="338.18"  style="stroke: black;stroke-width:1.00"/>
<text  x="42.50" y="342.18" text-anchor="end"  font-weight="regular">-2.0</text>
<line  x1="46.50" y1="269.09" x2="51.50" y2="269.09"  style="stroke: black;stroke-width:1.00"/>
<text  x="42.50" y="273.09" text-anchor="end"  font-weight="regular">-1.0</text>
<line  x1="46.50" y1="200.00" x2="51.50" y2="200.00"  style="stroke: black;stroke-width:1.00"/>
<text  x="42.50" y="204.00" text-anchor="end"  font-weight="regular">0</text>
<line  x1="46.50" y1="130.91" x2="51.50" y2="130.91"  style="stroke: black;stroke-width:1.00"/>
<text  x="42.50" y="134.91" text-anchor="end"  font-weight="regular">1.0</text>
<line  x1="46.50" y1="61.82" x2="51.50" y2="61.82"  style="stroke: black;stroke-width:1.00"/>
<text  x="42.50" y="65.82" text-anchor="end"  font-weight="regular">2.0</text>
<rect  x="454.50" y="35.00" width="100.00" height="36.00" style="fill:white; fill-opacity:0.50; stroke:#333; stroke-width:0.50;" />
<defs><clipPath id="leg-area"><rect x="494.50" y="35.00" width="58.00" height="36.00"/>
</clipPath></defs><line  x1="464.50" y1="46.00" x2="494.50" y2="46.00"  style="stroke: #db5f57;stroke-width:2.00"/>
<text clip-path="url(#leg-area)"  x="524.50" y="50.00" text-anchor="middle"  font-weight="regular">mpiric</text>
<line  x1="464.50" y1="61.00" x2="494.50" y2="61.00" stroke-dasharray="5, 5" style="stroke: #dbae57;stroke-width:2.00"/>
<text clip-path="url(#leg-area)"  x="524.50" y="65.00" text-anchor="middle"  font-weight="regular">libm</text>
</svg>

