<svg class="charter" xmlns="http://www.w3.org/2000/svg" version="1.1" width="100%" viewbox="0 0 600 400">
<defs><clipPath id="plot-area"><rect x="52.50" y="25.00" width="512.00" height="350.00"/>
</clipPath></defs><line clip-path="url(#plot-area)"  x1="71.07" y1="25.00" x2="71.07" y2="375.00"  style="stroke: #ccc;stroke-width:0.50"/>
<line clip-path="url(#plot-area)"  x1="165.10" y1="25.00" x2="165.10" y2="375.00"  style="stroke: #ccc;stroke-width:0.50"/>
<line clip-path="url(#plot-area)"  x1="259.13" y1="25.00" x2="259.13" y2="375.00"  style="stroke: #ccc;stroke-width:0.50"/>
<line clip-path="url(#plot-area)"  x1="353.16" y1="25.00" x2="353.16" y2="375.00"  style="stroke: #ccc;stroke-width:0.50"/>
<line clip-path="url(#plot-area)"  x1="447.20" y1="25.00" x2="447.20" y2="375.00"  style="stroke: #ccc;stroke-width:0.50"/>
<line clip-path="url(#plot-area)"  x1="541.23" y1="25.00" x2="541.23" y2="375.00"  style="stroke: #ccc;stroke-width:0.50"/>
<line clip-path="url(#plot-area)"  x1="52.50" y1="359.18" x2="564.50" y2="359.18"  style="stroke: #ccc;stroke-width:0.50"/>
<line clip-path="url(#plot-area)"  x1="52.50" y1="279.50" x2="564.50" y2="279.50"  style="stroke: #ccc;stroke-width:0.50"/>
<line clip-path="url(#plot-area)"  x1="52.50" y1="199.82" x2="564.50" y2="199.82"  style="stroke: #ccc;stroke-width:0.50"/>
<line clip-path="url(#plot-area)"  x1="52.50" y1="120.14" x2="564.50" y2="120.14"  style="stroke: #ccc;stroke-width:0.50"/>
<line clip-path="url(#plot-area)"  x1="52.50" y1="40.46" x2="564.50" y2="40.46"  style="stroke: #ccc;stroke-width:0.50"/>
<polyline clip-path="url(#plot-area)" style="fill:none; stroke:#db5f57; stroke-width:2.00;"  points="75.77,359.09 80.47,311.12 85.18,283.61 89.88,263.14 94.58,247.79 99.28,235.64 103.98,224.77 108.68,215.17 113.39,206.86 118.09,199.82 122.79,193.58 127.49,187.67 132.19,182.07 136.89,176.79 141.59,171.84 146.30,167.20 151.00,162.88 155.70,158.88 160.40,155.21 165.10,151.85 169.80,148.69 174.51,145.61 179.21,142.61 183.91,139.69 188.61,136.86 193.31,134.10 198.01,131.42 202.71,128.82 207.42,126.30 212.12,123.86 216.82,121.50 221.52,119.23 226.22,117.03 230.92,114.91 235.63,112.87 240.33,110.91 245.03,109.03 249.73,107.23 254.43,105.51 259.13,103.87 263.84,102.28 268.54,100.72 273.24,99.17 277.94,97.64 282.64,96.13 287.34,94.64 292.04,93.17 296.75,91.72 301.45,90.29 306.15,88.88 310.85,87.49 315.55,86.12 320.25,84.77 324.96,83.45 329.66,82.14 334.36,80.85 339.06,79.58 343.76,78.33 348.46,77.10 353.16,75.89 357.87,74.70 362.57,73.53 367.27,72.38 371.97,71.25 376.67,70.14 381.37,69.05 386.08,67.98 390.78,66.93 395.48,65.91 400.18,64.90 404.88,63.91 409.58,62.94 414.29,61.99 418.99,61.06 423.69,60.15 428.39,59.26 433.09,58.39 437.79,57.54 442.49,56.71 447.20,55.90 451.90,55.10 456.60,54.31 461.30,53.52 466.00,52.74 470.70,51.97 475.41,51.19 480.11,50.43 484.81,49.66 489.51,48.91 494.21,48.16 498.91,47.41 503.61,46.67 508.32,45.93 513.02,45.20 517.72,44.47 522.42,43.75 527.12,43.03 531.82,42.32 536.53,41.61 541.23,40.91 " /><rect  x="52.00" y="25.00" width="512.00" height="350.00" style="fill:none; fill-opacity:1.00; stroke:black; stroke-width:0.50;" />
<line  x1="71.07" y1="376.00" x2="71.07" y2="381.00"  style="stroke: black;stroke-width:1.00"/>
<text  x="71.07" y="395.00" text-anchor="middle"  font-weight="regular">0</text>
<line  x1="165.10" y1="376.00" x2="165.10" y2="381.00"  style="stroke: black;stroke-width:1.00"/>
<text  x="165.10" y="395.00" text-anchor="middle"  font-weight="regular">20.0</text>
<line  x1="259.13" y1="376.00" x2="259.13" y2="381.00"  style="stroke: black;stroke-width:1.00"/>
<text  x="259.13" y="395.00" text-anchor="middle"  font-weight="regular">40.0</text>
<line  x1="353.16" y1="376.00" x2="353.16" y2="381.00"  style="stroke: black;stroke-width:1.00"/>
<text  x="353.16" y="395.00" text-anchor="middle"  font-weight="regular">60.0</text>
<line  x1="447.20" y1="376.00" x2="447.20" y2="381.00"  style="stroke: black;stroke-width:1.00"/>
<text  x="447.20" y="395.00" text-anchor="middle"  font-weight="regular">80.0</text>
<line  x1="541.23" y1="376.00" x2="541.23" y2="381.00"  style="stroke: black;stroke-width:1.00"/>
<text  x="541.23" y="395.00" text-anchor="middle"  font-weight="regular"><tspan>1.0e<tspan  font-size="10" dy="-5" dx="1">2</tspan></tspan></text>
<line  x1="46.50" y1="359.18" x2="51.50" y2="359.18"  style="stroke: black;stroke-width:1.00"/>
<text  x="42.50" y="363.18" text-anchor="end"  font-weight="regular">-1.0</text>
<line  x1="46.50" y1="279.50" x2="51.50" y2="279.50"  style="stroke: black;stroke-width:1.00"/>
<text  x="42.50" y="283.50" text-anchor="end"  font-weight="regular">-0.5</text>
<line  x1="46.50" y1="199.82" x2="51.50" y2="199.82"  style="stroke: black;stroke-width:1.00"/>
<text  x="42.50" y="203.82" text-anchor="end"  font-weight="regular">0</text>
<line  x1="46.50" y1="120.14" x2="51.50" y2="120.14"  style="stroke: black;stroke-width:1.00"/>
<text  x="42.50" y="124.14" text-anchor="end"  font-weight="regular">0.5</text>
<line  x1="46.50" y1="40.46" x2="51.50" y2="40.46"  style="stroke: black;stroke-width:1.00"/>
<text  x="42.50" y="44.46" text-anchor="end"  font-weight="regular">1.0</text>
<rect  x="454.50" y="35.00" width="100.00" height="21.00" style="fill:white; fill-opacity:0.50; stroke:#333; stroke-width:0.50;" />
<defs><clipPath id="leg-area"><rect x="494.50" y="35.00" width="58.00" height="21.00"/>
</clipPath></defs><line  x1="464.50" y1="46.00" x2="494.50" y2="46.00"  style="stroke: #db5f57;stroke-width:2.00"/>
<text clip-path="url(#leg-area)"  x="524.50" y="50.00" text-anchor="middle"  font-weight="regular">mpiric</text>
</svg>

