<svg class="charter" xmlns="http://www.w3.org/2000/svg" version="1.1" width="100%" viewbox="0 0 600 400">
<defs><clipPath id="plot-area"><rect x="52.50" y="25.00" width="512.00" height="350.00"/>
</clipPath></defs><line clip-path="url(#plot-area)"  x1="71.02" y1="25.00" x2="71.02" y2="375.00"  style="stroke: #ccc;stroke-width:0.50"/>
<line clip-path="url(#plot-area)"  x1="166.01" y1="25.00" x2="166.01" y2="375.00"  style="stroke: #ccc;stroke-width:0.50"/>
<line clip-path="url(#plot-area)"  x1="261.00" y1="25.00" x2="261.00" y2="375.00"  style="stroke: #ccc;stroke-width:0.50"/>
<line clip-path="url(#plot-area)"  x1="356.00" y1="25.00" x2="356.00" y2="375.00"  style="stroke: #ccc;stroke-width:0.50"/>
<line clip-path="url(#plot-area)"  x1="450.99" y1="25.00" x2="450.99" y2="375.00"  style="stroke: #ccc;stroke-width:0.50"/>
<line clip-path="url(#plot-area)"  x1="545.98" y1="25.00" x2="545.98" y2="375.00"  style="stroke: #ccc;stroke-width:0.50"/>
<line clip-path="url(#plot-area)"  x1="52.50" y1="338.14" x2="564.50" y2="338.14"  style="stroke: #ccc;stroke-width:0.50"/>
<line clip-path="url(#plot-area)"  x1="52.50" y1="268.90" x2="564.50" y2="268.90"  style="stroke: #ccc;stroke-width:0.50"/>
<line clip-path="url(#plot-area)"  x1="52.50" y1="199.65" x2="564.50" y2="199.65"  style="stroke: #ccc;stroke-width:0.50"/>
<line clip-path="url(#plot-area)"  x1="52.50" y1="130.41" x2="564.50" y2="130.41"  style="stroke: #ccc;stroke-width:0.50"/>
<line clip-path="url(#plot-area)"  x1="52.50" y1="61.17" x2="564.50" y2="61.17"  style="stroke: #ccc;stroke-width:0.50"/>
<polyline clip-path="url(#plot-area)" style="fill:none; stroke:#db5f57; stroke-width:2.00;"  points="75.77,359.00 80.52,311.00 85.27,283.48 90.02,263.01 94.77,247.65 99.52,235.49 104.27,224.61 109.02,215.01 113.77,206.69 118.52,199.65 123.27,193.41 128.02,187.49 132.77,181.89 137.52,176.61 142.27,171.65 147.02,167.01 151.77,162.70 156.51,158.70 161.26,155.02 166.01,151.66 170.76,148.50 175.51,145.42 180.26,142.42 185.01,139.50 189.76,136.66 194.51,133.90 199.26,131.22 204.01,128.62 208.76,126.10 213.51,123.66 218.26,121.30 223.01,119.02 227.76,116.82 232.51,114.70 237.26,112.66 242.01,110.70 246.76,108.82 251.51,107.02 256.26,105.30 261.00,103.66 265.75,102.07 270.50,100.50 275.25,98.95 280.00,97.42 284.75,95.91 289.50,94.42 294.25,92.95 299.00,91.50 303.75,90.07 308.50,88.66 313.25,87.27 318.00,85.90 322.75,84.55 327.50,83.22 332.25,81.91 337.00,80.62 341.75,79.35 346.50,78.10 351.25,76.87 356.00,75.66 360.74,74.47 365.49,73.30 370.24,72.15 374.99,71.02 379.74,69.91 384.49,68.82 389.24,67.75 393.99,66.70 398.74,65.67 403.49,64.66 408.24,63.67 412.99,62.70 417.74,61.75 422.49,60.82 427.24,59.91 431.99,59.02 436.74,58.15 441.49,57.30 446.24,56.47 450.99,55.66 455.74,54.87 460.49,54.07 465.23,53.29 469.98,52.50 474.73,51.73 479.48,50.95 484.23,50.19 488.98,49.42 493.73,48.67 498.48,47.91 503.23,47.17 507.98,46.42 512.73,45.69 517.48,44.96 522.23,44.23 526.98,43.51 531.73,42.79 536.48,42.08 541.23,41.37 " /><polyline clip-path="url(#plot-area)" style="fill:none; stroke:#dbae57; stroke-width:2.00;" stroke-dasharray="5, 5" points="75.77,359.09 80.52,311.10 85.27,283.02 90.02,263.10 94.77,247.65 99.52,235.02 104.27,224.35 109.02,215.10 113.77,206.95 118.52,199.65 123.27,193.05 128.02,187.03 132.77,181.49 137.52,176.35 142.27,171.58 147.02,167.11 151.77,162.91 156.51,158.95 161.26,155.21 166.01,151.66 170.76,148.28 175.51,145.06 180.26,141.98 185.01,139.03 189.76,136.20 194.51,133.49 199.26,130.88 204.01,128.36 208.76,125.93 213.51,123.58 218.26,121.31 223.01,119.11 227.76,116.98 232.51,114.91 237.26,112.91 242.01,110.96 246.76,109.06 251.51,107.21 256.26,105.41 261.00,103.66 265.75,101.95 270.50,100.28 275.25,98.65 280.00,97.06 284.75,95.50 289.50,93.98 294.25,92.49 299.00,91.04 303.75,89.61 308.50,88.21 313.25,86.84 318.00,85.49 322.75,84.17 327.50,82.88 332.25,81.61 337.00,80.36 341.75,79.14 346.50,77.93 351.25,76.75 356.00,75.58 360.74,74.44 365.49,73.31 370.24,72.21 374.99,71.12 379.74,70.04 384.49,68.98 389.24,67.94 393.99,66.92 398.74,65.91 403.49,64.91 408.24,63.93 412.99,62.96 417.74,62.00 422.49,61.06 427.24,60.13 431.99,59.22 436.74,58.31 441.49,57.42 446.24,56.54 450.99,55.66 455.74,54.80 460.49,53.95 465.23,53.12 469.98,52.29 474.73,51.47 479.48,50.66 484.23,49.86 488.98,49.06 493.73,48.28 498.48,47.51 503.23,46.74 507.98,45.99 512.73,45.24 517.48,44.50 522.23,43.76 526.98,43.04 531.73,42.32 536.48,41.61 541.23,40.91 " /><rect  x="52.00" y="25.00" width="512.00" height="350.00" style="fill:none; fill-opacity:1.00; stroke:black; stroke-width:0.50;" />
<line  x1="71.02" y1="376.00" x2="71.02" y2="381.00"  style="stroke: black;stroke-width:1.00"/>
<text  x="71.02" y="395.00" text-anchor="middle"  font-weight="regular">0</text>
<line  x1="166.01" y1="376.00" x2="166.01" y2="381.00"  style="stroke: black;stroke-width:1.00"/>
<text  x="166.01" y="395.00" text-anchor="middle"  font-weight="regular">20.0</text>
<line  x1="261.00" y1="376.00" x2="261.00" y2="381.00"  style="stroke: black;stroke-width:1.00"/>
<text  x="261.00" y="395.00" text-anchor="middle"  font-weight="regular">40.0</text>
<line  x1="356.00" y1="376.00" x2="356.00" y2="381.00"  style="stroke: black;stroke-width:1.00"/>
<text  x="356.00" y="395.00" text-anchor="middle"  font-weight="regular">60.0</text>
<line  x1="450.99" y1="376.00" x2="450.99" y2="381.00"  style="stroke: black;stroke-width:1.00"/>
<text  x="450.99" y="395.00" text-anchor="middle"  font-weight="regular">80.0</text>
<line  x1="545.98" y1="376.00" x2="545.98" y2="381.00"  style="stroke: black;stroke-width:1.00"/>
<text  x="545.98" y="395.00" text-anchor="middle"  font-weight="regular"><tspan>1.0e<tspan  font-size="10" dy="-5" dx="1">2</tspan></tspan></text>
<line  x1="46.50" y1="338.14" x2="51.50" y2="338.14"  style="stroke: black;stroke-width:1.00"/>
<text  x="42.50" y="342.14" text-anchor="end"  font-weight="regular">-2.0</text>
<line  x1="46.50" y1="268.90" x2="51.50" y2="268.90"  style="stroke: black;stroke-width:1.00"/>
<text  x="42.50" y="272.90" text-anchor="end"  font-weight="regular">-1.0</text>
<line  x1="46.50" y1="199.65" x2="51.50" y2="199.65"  style="stroke: black;stroke-width:1.00"/>
<text  x="42.50" y="203.65" text-anchor="end"  font-weight="regular">0</text>
<line  x1="46.50" y1="130.41" x2="51.50" y2="130.41"  style="stroke: black;stroke-width:1.00"/>
<text  x="42.50" y="134.41" text-anchor="end"  font-weight="regular">1.0</text>
<line  x1="46.50" y1="61.17" x2="51.50" y2="61.17"  style="stroke: black;stroke-width:1.00"/>
<text  x="42.50" y="65.17" text-anchor="end"  font-weight="regular">2.0</text>
<rect  x="454.50" y="35.00" width="100.00" height="36.00" style="fill:white; fill-opacity:0.50; stroke:#333; stroke-width:0.50;" />
<defs><clipPath id="leg-area"><rect x="494.50" y="35.00" width="58.00" height="36.00"/>
</clipPath></defs><line  x1="464.50" y1="46.00" x2="494.50" y2="46.00"  style="stroke: #db5f57;stroke-width:2.00"/>
<text clip-path="url(#leg-area)"  x="524.50" y="50.00" text-anchor="middle"  font-weight="regular">mpiric</text>
<line  x1="464.50" y1="61.00" x2="494.50" y2="61.00" stroke-dasharray="5, 5" style="stroke: #dbae57;stroke-width:2.00"/>
<text clip-path="url(#leg-area)"  x="524.50" y="65.00" text-anchor="middle"  font-weight="regular">libm</text>
</svg>

