<svg class="charter" xmlns="http://www.w3.org/2000/svg" version="1.1" width="100%" viewbox="0 0 600 400">
<defs><clipPath id="plot-area"><rect x="52.50" y="25.00" width="512.00" height="350.00"/>
</clipPath></defs><line clip-path="url(#plot-area)"  x1="71.07" y1="25.00" x2="71.07" y2="375.00"  style="stroke: #ccc;stroke-width:0.50"/>
<line clip-path="url(#plot-area)"  x1="165.10" y1="25.00" x2="165.10" y2="375.00"  style="stroke: #ccc;stroke-width:0.50"/>
<line clip-path="url(#plot-area)"  x1="259.13" y1="25.00" x2="259.13" y2="375.00"  style="stroke: #ccc;stroke-width:0.50"/>
<line clip-path="url(#plot-area)"  x1="353.16" y1="25.00" x2="353.16" y2="375.00"  style="stroke: #ccc;stroke-width:0.50"/>
<line clip-path="url(#plot-area)"  x1="447.20" y1="25.00" x2="447.20" y2="375.00"  style="stroke: #ccc;stroke-width:0.50"/>
<line clip-path="url(#plot-area)"  x1="541.23" y1="25.00" x2="541.23" y2="375.00"  style="stroke: #ccc;stroke-width:0.50"/>
<line clip-path="url(#plot-area)"  x1="52.50" y1="359.09" x2="564.50" y2="359.09"  style="stroke: #ccc;stroke-width:0.50"/>
<line clip-path="url(#plot-area)"  x1="52.50" y1="295.45" x2="564.50" y2="295.45"  style="stroke: #ccc;stroke-width:0.50"/>
<line clip-path="url(#plot-area)"  x1="52.50" y1="231.82" x2="564.50" y2="231.82"  style="stroke: #ccc;stroke-width:0.50"/>
<line clip-path="url(#plot-area)"  x1="52.50" y1="168.18" x2="564.50" y2="168.18"  style="stroke: #ccc;stroke-width:0.50"/>
<line clip-path="url(#plot-area)"  x1="52.50" y1="104.55" x2="564.50" y2="104.55"  style="stroke: #ccc;stroke-width:0.50"/>
<line clip-path="url(#plot-area)"  x1="52.50" y1="40.91" x2="564.50" y2="40.91"  style="stroke: #ccc;stroke-width:0.50"/>
<polyline clip-path="url(#plot-area)" style="fill:none; stroke:#db5f57; stroke-width:2.00;"  points="75.77,359.06 80.47,359.03 85.18,359.00 89.88,358.96 94.58,358.93 99.28,358.90 103.98,358.87 108.68,358.84 113.39,358.80 118.09,358.77 122.79,358.74 127.49,358.71 132.19,358.68 136.89,358.65 141.59,358.61 146.30,358.58 151.00,358.55 155.70,358.52 160.40,358.48 165.10,358.45 169.80,358.43 174.51,358.40 179.21,358.37 183.91,358.33 188.61,358.30 193.31,358.27 198.01,358.24 202.71,358.20 207.42,358.17 212.12,358.14 216.82,358.10 221.52,358.07 226.22,358.04 230.92,358.00 235.63,357.97 240.33,357.94 245.03,357.91 249.73,357.88 254.43,357.85 259.13,357.82 263.84,357.79 268.54,357.76 273.24,357.73 277.94,357.70 282.64,357.67 287.34,357.64 292.04,357.61 296.75,357.58 301.45,357.55 306.15,357.51 310.85,357.48 315.55,357.45 320.25,357.42 324.96,357.38 329.66,357.35 334.36,357.32 339.06,357.28 343.76,357.25 348.46,357.21 353.16,357.18 357.87,357.15 362.57,357.11 367.27,357.08 371.97,357.05 376.67,357.01 381.37,356.98 386.08,356.95 390.78,356.92 395.48,356.88 400.18,356.85 404.88,356.82 409.58,356.79 414.29,356.76 418.99,356.72 423.69,356.69 428.39,356.66 433.09,356.63 437.79,356.60 442.49,356.57 447.20,356.55 451.90,356.52 456.60,356.49 461.30,356.46 466.00,356.43 470.70,356.40 475.41,356.37 480.11,356.34 484.81,356.31 489.51,356.28 494.21,356.25 498.91,356.22 503.61,356.19 508.32,356.16 513.02,356.13 517.72,356.10 522.42,356.06 527.12,356.03 531.82,356.00 536.53,355.97 541.23,355.94 " /><polyline clip-path="url(#plot-area)" style="fill:none; stroke:#dbae57; stroke-width:2.00;" stroke-dasharray="5, 5" points="75.77,359.06 80.47,359.03 85.18,359.00 89.88,358.96 94.58,358.93 99.28,358.90 103.98,358.87 108.68,358.84 113.39,358.80 118.09,358.77 122.79,358.74 127.49,358.71 132.19,358.68 136.89,358.65 141.59,358.61 146.30,358.58 151.00,358.55 155.70,358.52 160.40,358.49 165.10,358.45 169.80,358.42 174.51,358.39 179.21,358.36 183.91,358.33 188.61,358.30 193.31,358.26 198.01,358.23 202.71,358.20 207.42,358.17 212.12,358.14 216.82,358.10 221.52,358.07 226.22,358.04 230.92,358.01 235.63,357.98 240.33,357.95 245.03,357.91 249.73,357.88 254.43,357.85 259.13,357.82 263.84,357.79 268.54,357.75 273.24,357.72 277.94,357.69 282.64,357.66 287.34,357.63 292.04,357.60 296.75,357.56 301.45,357.53 306.15,357.50 310.85,357.47 315.55,357.44 320.25,357.40 324.96,357.37 329.66,357.34 334.36,357.31 339.06,357.28 343.76,357.25 348.46,357.21 353.16,357.18 357.87,357.15 362.57,357.12 367.27,357.09 371.97,357.05 376.67,357.02 381.37,356.99 386.08,356.96 390.78,356.93 395.48,356.90 400.18,356.86 404.88,356.83 409.58,356.80 414.29,356.77 418.99,356.74 423.69,356.70 428.39,356.67 433.09,356.64 437.79,356.61 442.49,356.58 447.20,356.55 451.90,356.51 456.60,356.48 461.30,356.45 466.00,356.42 470.70,356.39 475.41,356.35 480.11,356.32 484.81,356.29 489.51,356.26 494.21,356.23 498.91,356.20 503.61,356.16 508.32,356.13 513.02,356.10 517.72,356.07 522.42,356.04 527.12,356.00 531.82,355.97 536.53,355.94 541.23,355.91 " /><polyline clip-path="url(#plot-area)" style="fill:none; stroke:#b9db57; stroke-width:2.00;"  points="75.77,359.09 80.47,359.08 85.18,359.06 89.88,359.04 94.58,359.01 99.28,358.98 103.98,358.94 108.68,358.89 113.39,358.83 118.09,358.77 122.79,358.71 127.49,358.64 132.19,358.56 136.89,358.47 141.59,358.38 146.30,358.28 151.00,358.16 155.70,358.05 160.40,357.93 165.10,357.82 169.80,357.70 174.51,357.57 179.21,357.43 183.91,357.28 188.61,357.12 193.31,356.96 198.01,356.79 202.71,356.61 207.42,356.43 212.12,356.24 216.82,356.04 221.52,355.83 226.22,355.61 230.92,355.39 235.63,355.16 240.33,354.93 245.03,354.69 249.73,354.46 254.43,354.23 259.13,354.00 263.84,353.77 268.54,353.53 273.24,353.27 277.94,353.01 282.64,352.73 287.34,352.45 292.04,352.16 296.75,351.85 301.45,351.54 306.15,351.22 310.85,350.90 315.55,350.57 320.25,350.23 324.96,349.88 329.66,349.53 334.36,349.18 339.06,348.82 343.76,348.46 348.46,348.08 353.16,347.69 357.87,347.29 362.57,346.89 367.27,346.47 371.97,346.04 376.67,345.61 381.37,345.17 386.08,344.72 390.78,344.27 395.48,343.82 400.18,343.36 404.88,342.89 409.58,342.43 414.29,341.97 418.99,341.50 423.69,341.03 428.39,340.57 433.09,340.11 437.79,339.64 442.49,339.18 447.20,338.73 451.90,338.27 456.60,337.81 461.30,337.33 466.00,336.84 470.70,336.34 475.41,335.82 480.11,335.30 484.81,334.76 489.51,334.22 494.21,333.66 498.91,333.10 503.61,332.53 508.32,331.94 513.02,331.35 517.72,330.75 522.42,330.14 527.12,329.52 531.82,328.90 536.53,328.26 541.23,327.62 " /><polyline clip-path="url(#plot-area)" style="fill:none; stroke:#69db57; stroke-width:2.00;" stroke-dasharray="5, 5" points="75.77,359.09 80.47,359.08 85.18,359.06 89.88,359.04 94.58,359.01 99.28,358.98 103.98,358.94 108.68,358.89 113.39,358.83 118.09,358.77 122.79,358.71 127.49,358.63 132.19,358.55 136.89,358.47 141.59,358.38 146.30,358.28 151.00,358.17 155.70,358.06 160.40,357.94 165.10,357.82 169.80,357.69 174.51,357.55 179.21,357.41 183.91,357.26 188.61,357.10 193.31,356.94 198.01,356.77 202.71,356.60 207.42,356.42 212.12,356.23 216.82,356.03 221.52,355.83 226.22,355.63 230.92,355.41 235.63,355.19 240.33,354.97 245.03,354.74 249.73,354.50 254.43,354.25 259.13,354.00 263.84,353.74 268.54,353.48 273.24,353.21 277.94,352.93 282.64,352.65 287.34,352.36 292.04,352.06 296.75,351.76 301.45,351.45 306.15,351.14 310.85,350.82 315.55,350.49 320.25,350.15 324.96,349.81 329.66,349.47 334.36,349.11 339.06,348.75 343.76,348.39 348.46,348.02 353.16,347.64 357.87,347.25 362.57,346.86 367.27,346.46 371.97,346.06 376.67,345.65 381.37,345.23 386.08,344.81 390.78,344.38 395.48,343.94 400.18,343.50 404.88,343.05 409.58,342.60 414.29,342.14 418.99,341.67 423.69,341.19 428.39,340.71 433.09,340.23 437.79,339.73 442.49,339.23 447.20,338.73 451.90,338.22 456.60,337.70 461.30,337.17 466.00,336.64 470.70,336.10 475.41,335.56 480.11,335.01 484.81,334.45 489.51,333.89 494.21,333.32 498.91,332.74 503.61,332.16 508.32,331.57 513.02,330.98 517.72,330.38 522.42,329.77 527.12,329.15 531.82,328.53 536.53,327.91 541.23,327.27 " /><polyline clip-path="url(#plot-area)" style="fill:none; stroke:#57db94; stroke-width:2.00;"  points="75.77,359.09 80.47,359.09 85.18,359.08 89.88,359.07 94.58,359.05 99.28,359.02 103.98,358.98 108.68,358.93 113.39,358.86 118.09,358.77 122.79,358.67 127.49,358.55 132.19,358.41 136.89,358.23 141.59,358.02 146.30,357.78 151.00,357.52 155.70,357.21 160.40,356.88 165.10,356.55 169.80,356.18 174.51,355.76 179.21,355.29 183.91,354.77 188.61,354.21 193.31,353.61 198.01,352.93 202.71,352.19 207.42,351.37 212.12,350.51 216.82,349.59 221.52,348.63 226.22,347.61 230.92,346.49 235.63,345.31 240.33,344.06 245.03,342.77 249.73,341.44 254.43,340.09 259.13,338.73 263.84,337.32 268.54,335.80 273.24,334.17 277.94,332.43 282.64,330.59 287.34,328.66 292.04,326.63 296.75,324.51 301.45,322.32 306.15,320.04 310.85,317.70 315.55,315.24 320.25,312.61 324.96,309.84 329.66,306.91 334.36,303.85 339.06,300.67 343.76,297.36 348.46,293.94 353.16,290.41 357.87,286.79 362.57,283.08 367.27,279.29 371.97,275.44 376.67,271.42 381.37,267.22 386.08,262.84 390.78,258.31 395.48,253.62 400.18,248.81 404.88,243.88 409.58,238.84 414.29,233.71 418.99,228.50 423.69,223.22 428.39,217.88 433.09,212.50 437.79,207.08 442.49,201.64 447.20,196.18 451.90,190.68 456.60,184.95 461.30,178.98 466.00,172.78 470.70,166.36 475.41,159.72 480.11,152.87 484.81,145.82 489.51,138.56 494.21,131.10 498.91,123.45 503.61,115.61 508.32,107.59 513.02,99.38 517.72,91.01 522.42,82.47 527.12,73.76 531.82,64.89 536.53,55.87 541.23,46.70 " /><polyline clip-path="url(#plot-area)" style="fill:none; stroke:#57d3db; stroke-width:2.00;" stroke-dasharray="5, 5" points="75.77,359.09 80.47,359.09 85.18,359.08 89.88,359.07 94.58,359.05 99.28,359.02 103.98,358.98 108.68,358.93 113.39,358.86 118.09,358.77 122.79,358.67 127.49,358.54 132.19,358.39 136.89,358.22 141.59,358.02 146.30,357.79 151.00,357.53 155.70,357.24 160.40,356.91 165.10,356.55 169.80,356.14 174.51,355.70 179.21,355.22 183.91,354.69 188.61,354.12 193.31,353.50 198.01,352.83 202.71,352.11 207.42,351.33 212.12,350.50 216.82,349.61 221.52,348.67 226.22,347.66 230.92,346.59 235.63,345.45 240.33,344.25 245.03,342.97 249.73,341.63 254.43,340.22 259.13,338.73 263.84,337.16 268.54,335.52 273.24,333.79 277.94,331.99 282.64,330.10 287.34,328.12 292.04,326.06 296.75,323.90 301.45,321.66 306.15,319.32 310.85,316.88 315.55,314.35 320.25,311.72 324.96,308.99 329.66,306.15 334.36,303.21 339.06,300.17 343.76,297.01 348.46,293.74 353.16,290.36 357.87,286.87 362.57,283.26 367.27,279.53 371.97,275.68 376.67,271.71 381.37,267.62 386.08,263.39 390.78,259.04 395.48,254.57 400.18,249.95 404.88,245.21 409.58,240.33 414.29,235.31 418.99,230.16 423.69,224.86 428.39,219.42 433.09,213.83 437.79,208.10 442.49,202.22 447.20,196.18 451.90,190.00 456.60,183.66 461.30,177.16 466.00,170.50 470.70,163.69 475.41,156.71 480.11,149.57 484.81,142.26 489.51,134.78 494.21,127.14 498.91,119.32 503.61,111.33 508.32,103.16 513.02,94.81 517.72,86.29 522.42,77.58 527.12,68.69 531.82,59.62 536.53,50.36 541.23,40.91 " /><rect  x="52.00" y="25.00" width="512.00" height="350.00" style="fill:none; fill-opacity:1.00; stroke:black; stroke-width:0.50;" />
<line  x1="71.07" y1="376.00" x2="71.07" y2="381.00"  style="stroke: black;stroke-width:1.00"/>
<text  x="71.07" y="395.00" text-anchor="middle"  font-weight="regular">0</text>
<line  x1="165.10" y1="376.00" x2="165.10" y2="381.00"  style="stroke: black;stroke-width:1.00"/>
<text  x="165.10" y="395.00" text-anchor="middle"  font-weight="regular">20.0</text>
<line  x1="259.13" y1="376.00" x2="259.13" y2="381.00"  style="stroke: black;stroke-width:1.00"/>
<text  x="259.13" y="395.00" text-anchor="middle"  font-weight="regular">40.0</text>
<line  x1="353.16" y1="376.00" x2="353.16" y2="381.00"  style="stroke: black;stroke-width:1.00"/>
<text  x="353.16" y="395.00" text-anchor="middle"  font-weight="regular">60.0</text>
<line  x1="447.20" y1="376.00" x2="447.20" y2="381.00"  style="stroke: black;stroke-width:1.00"/>
<text  x="447.20" y="395.00" text-anchor="middle"  font-weight="regular">80.0</text>
<line  x1="541.23" y1="376.00" x2="541.23" y2="381.00"  style="stroke: black;stroke-width:1.00"/>
<text  x="541.23" y="395.00" text-anchor="middle"  font-weight="regular"><tspan>1.0e<tspan  font-size="10" dy="-5" dx="1">2</tspan></tspan></text>
<line  x1="46.50" y1="359.09" x2="51.50" y2="359.09"  style="stroke: black;stroke-width:1.00"/>
<text  x="42.50" y="363.09" text-anchor="end"  font-weight="regular">0</text>
<line  x1="46.50" y1="295.45" x2="51.50" y2="295.45"  style="stroke: black;stroke-width:1.00"/>
<text  x="42.50" y="299.45" text-anchor="end"  font-weight="regular"><tspan>2.0e<tspan  font-size="10" dy="-5" dx="1">2</tspan></tspan></text>
<line  x1="46.50" y1="231.82" x2="51.50" y2="231.82"  style="stroke: black;stroke-width:1.00"/>
<text  x="42.50" y="235.82" text-anchor="end"  font-weight="regular"><tspan>4.0e<tspan  font-size="10" dy="-5" dx="1">2</tspan></tspan></text>
<line  x1="46.50" y1="168.18" x2="51.50" y2="168.18"  style="stroke: black;stroke-width:1.00"/>
<text  x="42.50" y="172.18" text-anchor="end"  font-weight="regular"><tspan>6.0e<tspan  font-size="10" dy="-5" dx="1">2</tspan></tspan></text>
<line  x1="46.50" y1="104.55" x2="51.50" y2="104.55"  style="stroke: black;stroke-width:1.00"/>
<text  x="42.50" y="108.55" text-anchor="end"  font-weight="regular"><tspan>8.0e<tspan  font-size="10" dy="-5" dx="1">2</tspan></tspan></text>
<line  x1="46.50" y1="40.91" x2="51.50" y2="40.91"  style="stroke: black;stroke-width:1.00"/>
<text  x="42.50" y="44.91" text-anchor="end"  font-weight="regular"><tspan>1.0e<tspan  font-size="10" dy="-5" dx="1">3</tspan></tspan></text>
<rect  x="454.50" y="35.00" width="100.00" height="96.00" style="fill:white; fill-opacity:0.50; stroke:#333; stroke-width:0.50;" />
<defs><clipPath id="leg-area"><rect x="494.50" y="35.00" width="58.00" height="96.00"/>
</clipPath></defs><line  x1="464.50" y1="46.00" x2="494.50" y2="46.00"  style="stroke: #db5f57;stroke-width:2.00"/>
<text clip-path="url(#leg-area)"  x="524.50" y="50.00" text-anchor="middle"  font-weight="regular">mpiric</text>
<line  x1="464.50" y1="61.00" x2="494.50" y2="61.00" stroke-dasharray="5, 5" style="stroke: #dbae57;stroke-width:2.00"/>
<text clip-path="url(#leg-area)"  x="524.50" y="65.00" text-anchor="middle"  font-weight="regular">libm</text>
<line  x1="464.50" y1="76.00" x2="494.50" y2="76.00"  style="stroke: #b9db57;stroke-width:2.00"/>
<text clip-path="url(#leg-area)"  x="524.50" y="80.00" text-anchor="middle"  font-weight="regular">mpiric</text>
<line  x1="464.50" y1="91.00" x2="494.50" y2="91.00" stroke-dasharray="5, 5" style="stroke: #69db57;stroke-width:2.00"/>
<text clip-path="url(#leg-area)"  x="524.50" y="95.00" text-anchor="middle"  font-weight="regular">libm</text>
<line  x1="464.50" y1="106.00" x2="494.50" y2="106.00"  style="stroke: #57db94;stroke-width:2.00"/>
<text clip-path="url(#leg-area)"  x="524.50" y="110.00" text-anchor="middle"  font-weight="regular">mpiric</text>
<line  x1="464.50" y1="121.00" x2="494.50" y2="121.00" stroke-dasharray="5, 5" style="stroke: #57d3db;stroke-width:2.00"/>
<text clip-path="url(#leg-area)"  x="524.50" y="125.00" text-anchor="middle"  font-weight="regular">libm</text>
</svg>

