<svg class="charter" xmlns="http://www.w3.org/2000/svg" version="1.1" width="100%" viewbox="0 0 600 400">
<defs><clipPath id="plot-area"><rect x="52.50" y="25.00" width="512.00" height="350.00"/>
</clipPath></defs><line clip-path="url(#plot-area)"  x1="71.02" y1="25.00" x2="71.02" y2="375.00"  style="stroke: #ccc;stroke-width:0.50"/>
<line clip-path="url(#plot-area)"  x1="166.01" y1="25.00" x2="166.01" y2="375.00"  style="stroke: #ccc;stroke-width:0.50"/>
<line clip-path="url(#plot-area)"  x1="261.00" y1="25.00" x2="261.00" y2="375.00"  style="stroke: #ccc;stroke-width:0.50"/>
<line clip-path="url(#plot-area)"  x1="356.00" y1="25.00" x2="356.00" y2="375.00"  style="stroke: #ccc;stroke-width:0.50"/>
<line clip-path="url(#plot-area)"  x1="450.99" y1="25.00" x2="450.99" y2="375.00"  style="stroke: #ccc;stroke-width:0.50"/>
<line clip-path="url(#plot-area)"  x1="545.98" y1="25.00" x2="545.98" y2="375.00"  style="stroke: #ccc;stroke-width:0.50"/>
<line clip-path="url(#plot-area)"  x1="52.50" y1="359.09" x2="564.50" y2="359.09"  style="stroke: #ccc;stroke-width:0.50"/>
<line clip-path="url(#plot-area)"  x1="52.50" y1="293.51" x2="564.50" y2="293.51"  style="stroke: #ccc;stroke-width:0.50"/>
<line clip-path="url(#plot-area)"  x1="52.50" y1="227.92" x2="564.50" y2="227.92"  style="stroke: #ccc;stroke-width:0.50"/>
<line clip-path="url(#plot-area)"  x1="52.50" y1="162.34" x2="564.50" y2="162.34"  style="stroke: #ccc;stroke-width:0.50"/>
<line clip-path="url(#plot-area)"  x1="52.50" y1="96.75" x2="564.50" y2="96.75"  style="stroke: #ccc;stroke-width:0.50"/>
<line clip-path="url(#plot-area)"  x1="52.50" y1="31.17" x2="564.50" y2="31.17"  style="stroke: #ccc;stroke-width:0.50"/>
<polyline clip-path="url(#plot-area)" style="fill:none; stroke:#db5f57; stroke-width:2.00;"  points="75.77,359.06 80.52,359.03 85.27,358.99 90.02,358.96 94.77,358.93 99.52,358.90 104.27,358.86 109.02,358.83 113.77,358.79 118.52,358.76 123.27,358.73 128.02,358.70 132.77,358.67 137.52,358.63 142.27,358.60 147.02,358.56 151.77,358.53 156.51,358.50 161.26,358.47 166.01,358.44 170.76,358.41 175.51,358.38 180.26,358.34 185.01,358.31 189.76,358.28 194.51,358.24 199.26,358.21 204.01,358.18 208.76,358.14 213.51,358.11 218.26,358.07 223.01,358.04 227.76,358.00 232.51,357.97 237.26,357.94 242.01,357.90 246.76,357.87 251.51,357.84 256.26,357.81 261.00,357.78 265.75,357.75 270.50,357.72 275.25,357.69 280.00,357.66 284.75,357.63 289.50,357.60 294.25,357.56 299.00,357.53 303.75,357.50 308.50,357.47 313.25,357.43 318.00,357.40 322.75,357.36 327.50,357.33 332.25,357.30 337.00,357.26 341.75,357.23 346.50,357.19 351.25,357.16 356.00,357.12 360.74,357.09 365.49,357.05 370.24,357.02 374.99,356.98 379.74,356.95 384.49,356.92 389.24,356.88 393.99,356.85 398.74,356.81 403.49,356.78 408.24,356.75 412.99,356.72 417.74,356.68 422.49,356.65 427.24,356.62 431.99,356.59 436.74,356.56 441.49,356.53 446.24,356.50 450.99,356.47 455.74,356.44 460.49,356.41 465.23,356.38 469.98,356.35 474.73,356.32 479.48,356.29 484.23,356.26 488.98,356.23 493.73,356.20 498.48,356.16 503.23,356.13 507.98,356.10 512.73,356.07 517.48,356.04 522.23,356.00 526.98,355.97 531.73,355.94 536.48,355.91 541.23,355.87 " /><polyline clip-path="url(#plot-area)" style="fill:none; stroke:#dbae57; stroke-width:2.00;" stroke-dasharray="5, 5" points="75.77,359.06 80.52,359.03 85.27,358.99 90.02,358.96 94.77,358.93 99.52,358.89 104.27,358.86 109.02,358.83 113.77,358.80 118.52,358.76 123.27,358.73 128.02,358.70 132.77,358.66 137.52,358.63 142.27,358.60 147.02,358.57 151.77,358.53 156.51,358.50 161.26,358.47 166.01,358.44 170.76,358.40 175.51,358.37 180.26,358.34 185.01,358.30 189.76,358.27 194.51,358.24 199.26,358.21 204.01,358.17 208.76,358.14 213.51,358.11 218.26,358.07 223.01,358.04 227.76,358.01 232.51,357.98 237.26,357.94 242.01,357.91 246.76,357.88 251.51,357.85 256.26,357.81 261.00,357.78 265.75,357.75 270.50,357.71 275.25,357.68 280.00,357.65 284.75,357.62 289.50,357.58 294.25,357.55 299.00,357.52 303.75,357.48 308.50,357.45 313.25,357.42 318.00,357.39 322.75,357.35 327.50,357.32 332.25,357.29 337.00,357.25 341.75,357.22 346.50,357.19 351.25,357.16 356.00,357.12 360.74,357.09 365.49,357.06 370.24,357.03 374.99,356.99 379.74,356.96 384.49,356.93 389.24,356.89 393.99,356.86 398.74,356.83 403.49,356.80 408.24,356.76 412.99,356.73 417.74,356.70 422.49,356.66 427.24,356.63 431.99,356.60 436.74,356.57 441.49,356.53 446.24,356.50 450.99,356.47 455.74,356.44 460.49,356.40 465.23,356.37 469.98,356.34 474.73,356.30 479.48,356.27 484.23,356.24 488.98,356.21 493.73,356.17 498.48,356.14 503.23,356.11 507.98,356.07 512.73,356.04 517.48,356.01 522.23,355.98 526.98,355.94 531.73,355.91 536.48,355.88 541.23,355.84 " /><polyline clip-path="url(#plot-area)" style="fill:none; stroke:#b9db57; stroke-width:2.00;"  points="75.77,359.09 80.52,359.08 85.27,359.06 90.02,359.04 94.77,359.01 99.52,358.97 104.27,358.93 109.02,358.88 113.77,358.82 118.52,358.76 123.27,358.70 128.02,358.63 132.77,358.54 137.52,358.45 142.27,358.36 147.02,358.25 151.77,358.14 156.51,358.02 161.26,357.90 166.01,357.78 170.76,357.66 175.51,357.52 180.26,357.38 185.01,357.23 189.76,357.06 194.51,356.89 199.26,356.72 204.01,356.54 208.76,356.35 213.51,356.15 218.26,355.95 223.01,355.73 227.76,355.50 232.51,355.27 237.26,355.04 242.01,354.80 246.76,354.56 251.51,354.32 256.26,354.08 261.00,353.84 265.75,353.61 270.50,353.36 275.25,353.10 280.00,352.82 284.75,352.54 289.50,352.25 294.25,351.94 299.00,351.63 303.75,351.31 308.50,350.98 313.25,350.65 318.00,350.30 322.75,349.96 327.50,349.60 332.25,349.24 337.00,348.88 341.75,348.51 346.50,348.13 351.25,347.74 356.00,347.34 360.74,346.93 365.49,346.51 370.24,346.08 374.99,345.64 379.74,345.19 384.49,344.74 389.24,344.28 393.99,343.82 398.74,343.35 403.49,342.87 408.24,342.40 412.99,341.92 417.74,341.44 422.49,340.96 427.24,340.48 431.99,340.00 436.74,339.52 441.49,339.05 446.24,338.57 450.99,338.10 455.74,337.64 460.49,337.15 465.23,336.66 469.98,336.16 474.73,335.64 479.48,335.11 484.23,334.57 488.98,334.02 493.73,333.46 498.48,332.89 503.23,332.30 507.98,331.71 512.73,331.11 517.48,330.50 522.23,329.88 526.98,329.25 531.73,328.62 536.48,327.97 541.23,327.32 " /><polyline clip-path="url(#plot-area)" style="fill:none; stroke:#69db57; stroke-width:2.00;" stroke-dasharray="5, 5" points="75.77,359.09 80.52,359.08 85.27,359.06 90.02,359.04 94.77,359.01 99.52,358.97 104.27,358.93 109.02,358.88 113.77,358.83 118.52,358.76 123.27,358.69 128.02,358.62 132.77,358.54 137.52,358.45 142.27,358.35 147.02,358.25 151.77,358.14 156.51,358.03 161.26,357.91 166.01,357.78 170.76,357.65 175.51,357.50 180.26,357.36 185.01,357.20 189.76,357.04 194.51,356.87 199.26,356.70 204.01,356.52 208.76,356.33 213.51,356.14 218.26,355.94 223.01,355.73 227.76,355.52 232.51,355.30 237.26,355.07 242.01,354.84 246.76,354.60 251.51,354.36 256.26,354.10 261.00,353.84 265.75,353.58 270.50,353.31 275.25,353.03 280.00,352.74 284.75,352.45 289.50,352.15 294.25,351.85 299.00,351.54 303.75,351.22 308.50,350.89 313.25,350.56 318.00,350.22 322.75,349.88 327.50,349.53 332.25,349.17 337.00,348.81 341.75,348.44 346.50,348.06 351.25,347.68 356.00,347.29 360.74,346.89 365.49,346.49 370.24,346.08 374.99,345.66 379.74,345.24 384.49,344.81 389.24,344.37 393.99,343.93 398.74,343.48 403.49,343.02 408.24,342.56 412.99,342.09 417.74,341.62 422.49,341.13 427.24,340.65 431.99,340.15 436.74,339.65 441.49,339.14 446.24,338.63 450.99,338.10 455.74,337.58 460.49,337.04 465.23,336.50 469.98,335.95 474.73,335.40 479.48,334.84 484.23,334.27 488.98,333.70 493.73,333.12 498.48,332.53 503.23,331.94 507.98,331.34 512.73,330.73 517.48,330.12 522.23,329.50 526.98,328.87 531.73,328.24 536.48,327.60 541.23,326.95 " /><polyline clip-path="url(#plot-area)" style="fill:none; stroke:#57db94; stroke-width:2.00;"  points="75.77,359.09 80.52,359.09 85.27,359.08 90.02,359.07 94.77,359.05 99.52,359.02 104.27,358.98 109.02,358.92 113.77,358.85 118.52,358.76 123.27,358.66 128.02,358.53 132.77,358.39 137.52,358.20 142.27,357.99 147.02,357.74 151.77,357.47 156.51,357.15 161.26,356.82 166.01,356.47 170.76,356.09 175.51,355.66 180.26,355.17 185.01,354.64 189.76,354.06 194.51,353.44 199.26,352.75 204.01,351.98 208.76,351.14 213.51,350.24 218.26,349.30 223.01,348.31 227.76,347.26 232.51,346.11 237.26,344.88 242.01,343.60 246.76,342.27 251.51,340.90 256.26,339.51 261.00,338.10 265.75,336.66 270.50,335.09 275.25,333.41 280.00,331.62 284.75,329.72 289.50,327.72 294.25,325.63 299.00,323.45 303.75,321.19 308.50,318.85 313.25,316.43 318.00,313.90 322.75,311.19 327.50,308.33 332.25,305.32 337.00,302.16 341.75,298.88 346.50,295.47 351.25,291.94 356.00,288.31 360.74,284.58 365.49,280.76 370.24,276.85 374.99,272.88 379.74,268.74 384.49,264.41 389.24,259.90 393.99,255.22 398.74,250.40 403.49,245.44 408.24,240.35 412.99,235.16 417.74,229.87 422.49,224.50 427.24,219.06 431.99,213.56 436.74,208.01 441.49,202.42 446.24,196.82 450.99,191.20 455.74,185.53 460.49,179.62 465.23,173.46 469.98,167.08 474.73,160.46 479.48,153.62 484.23,146.56 488.98,139.28 493.73,131.80 498.48,124.12 503.23,116.23 507.98,108.15 512.73,99.88 517.48,91.43 522.23,82.80 526.98,74.00 531.73,65.02 536.48,55.89 541.23,46.59 " /><polyline clip-path="url(#plot-area)" style="fill:none; stroke:#57d3db; stroke-width:2.00;" stroke-dasharray="5, 5" points="75.77,359.09 80.52,359.09 85.27,359.08 90.02,359.07 94.77,359.05 99.52,359.02 104.27,358.98 109.02,358.92 113.77,358.85 118.52,358.76 123.27,358.65 128.02,358.52 132.77,358.37 137.52,358.19 142.27,357.98 147.02,357.75 151.77,357.48 156.51,357.18 161.26,356.84 166.01,356.47 170.76,356.05 175.51,355.60 180.26,355.10 185.01,354.56 189.76,353.97 194.51,353.33 199.26,352.64 204.01,351.89 208.76,351.09 213.51,350.24 218.26,349.32 223.01,348.35 227.76,347.31 232.51,346.20 237.26,345.03 242.01,343.79 246.76,342.48 251.51,341.10 256.26,339.64 261.00,338.10 265.75,336.49 270.50,334.80 275.25,333.02 280.00,331.16 284.75,329.21 289.50,327.17 294.25,325.05 299.00,322.83 303.75,320.51 308.50,318.10 313.25,315.59 318.00,312.98 322.75,310.27 327.50,307.46 332.25,304.53 337.00,301.50 341.75,298.36 346.50,295.11 351.25,291.74 356.00,288.26 360.74,284.66 365.49,280.94 370.24,277.10 374.99,273.13 379.74,269.04 384.49,264.82 389.24,260.46 393.99,255.98 398.74,251.37 403.49,246.61 408.24,241.72 412.99,236.70 417.74,231.52 422.49,226.21 427.24,220.75 431.99,215.14 436.74,209.38 441.49,203.48 446.24,197.41 450.99,191.20 455.74,184.82 460.49,178.29 465.23,171.59 469.98,164.73 474.73,157.71 479.48,150.51 484.23,143.15 488.98,135.62 493.73,127.92 498.48,120.04 503.23,111.98 507.98,103.74 512.73,95.33 517.48,86.72 522.23,77.94 526.98,68.97 531.73,59.81 536.48,50.45 541.23,40.91 " /><rect  x="52.00" y="25.00" width="512.00" height="350.00" style="fill:none; fill-opacity:1.00; stroke:black; stroke-width:0.50;" />
<line  x1="71.02" y1="376.00" x2="71.02" y2="381.00"  style="stroke: black;stroke-width:1.00"/>
<text  x="71.02" y="395.00" text-anchor="middle"  font-weight="regular">0</text>
<line  x1="166.01" y1="376.00" x2="166.01" y2="381.00"  style="stroke: black;stroke-width:1.00"/>
<text  x="166.01" y="395.00" text-anchor="middle"  font-weight="regular">20.0</text>
<line  x1="261.00" y1="376.00" x2="261.00" y2="381.00"  style="stroke: black;stroke-width:1.00"/>
<text  x="261.00" y="395.00" text-anchor="middle"  font-weight="regular">40.0</text>
<line  x1="356.00" y1="376.00" x2="356.00" y2="381.00"  style="stroke: black;stroke-width:1.00"/>
<text  x="356.00" y="395.00" text-anchor="middle"  font-weight="regular">60.0</text>
<line  x1="450.99" y1="376.00" x2="450.99" y2="381.00"  style="stroke: black;stroke-width:1.00"/>
<text  x="450.99" y="395.00" text-anchor="middle"  font-weight="regular">80.0</text>
<line  x1="545.98" y1="376.00" x2="545.98" y2="381.00"  style="stroke: black;stroke-width:1.00"/>
<text  x="545.98" y="395.00" text-anchor="middle"  font-weight="regular"><tspan>1.0e<tspan  font-size="10" dy="-5" dx="1">2</tspan></tspan></text>
<line  x1="46.50" y1="359.09" x2="51.50" y2="359.09"  style="stroke: black;stroke-width:1.00"/>
<text  x="42.50" y="363.09" text-anchor="end"  font-weight="regular">0</text>
<line  x1="46.50" y1="293.51" x2="51.50" y2="293.51"  style="stroke: black;stroke-width:1.00"/>
<text  x="42.50" y="297.51" text-anchor="end"  font-weight="regular"><tspan>2.0e<tspan  font-size="10" dy="-5" dx="1">2</tspan></tspan></text>
<line  x1="46.50" y1="227.92" x2="51.50" y2="227.92"  style="stroke: black;stroke-width:1.00"/>
<text  x="42.50" y="231.92" text-anchor="end"  font-weight="regular"><tspan>4.0e<tspan  font-size="10" dy="-5" dx="1">2</tspan></tspan></text>
<line  x1="46.50" y1="162.34" x2="51.50" y2="162.34"  style="stroke: black;stroke-width:1.00"/>
<text  x="42.50" y="166.34" text-anchor="end"  font-weight="regular"><tspan>6.0e<tspan  font-size="10" dy="-5" dx="1">2</tspan></tspan></text>
<line  x1="46.50" y1="96.75" x2="51.50" y2="96.75"  style="stroke: black;stroke-width:1.00"/>
<text  x="42.50" y="100.75" text-anchor="end"  font-weight="regular"><tspan>8.0e<tspan  font-size="10" dy="-5" dx="1">2</tspan></tspan></text>
<line  x1="46.50" y1="31.17" x2="51.50" y2="31.17"  style="stroke: black;stroke-width:1.00"/>
<text  x="42.50" y="35.17" text-anchor="end"  font-weight="regular"><tspan>1.0e<tspan  font-size="10" dy="-5" dx="1">3</tspan></tspan></text>
<rect  x="454.50" y="35.00" width="100.00" height="96.00" style="fill:white; fill-opacity:0.50; stroke:#333; stroke-width:0.50;" />
<defs><clipPath id="leg-area"><rect x="494.50" y="35.00" width="58.00" height="96.00"/>
</clipPath></defs><line  x1="464.50" y1="46.00" x2="494.50" y2="46.00"  style="stroke: #db5f57;stroke-width:2.00"/>
<text clip-path="url(#leg-area)"  x="524.50" y="50.00" text-anchor="middle"  font-weight="regular">mpiric</text>
<line  x1="464.50" y1="61.00" x2="494.50" y2="61.00" stroke-dasharray="5, 5" style="stroke: #dbae57;stroke-width:2.00"/>
<text clip-path="url(#leg-area)"  x="524.50" y="65.00" text-anchor="middle"  font-weight="regular">libm</text>
<line  x1="464.50" y1="76.00" x2="494.50" y2="76.00"  style="stroke: #b9db57;stroke-width:2.00"/>
<text clip-path="url(#leg-area)"  x="524.50" y="80.00" text-anchor="middle"  font-weight="regular">mpiric</text>
<line  x1="464.50" y1="91.00" x2="494.50" y2="91.00" stroke-dasharray="5, 5" style="stroke: #69db57;stroke-width:2.00"/>
<text clip-path="url(#leg-area)"  x="524.50" y="95.00" text-anchor="middle"  font-weight="regular">libm</text>
<line  x1="464.50" y1="106.00" x2="494.50" y2="106.00"  style="stroke: #57db94;stroke-width:2.00"/>
<text clip-path="url(#leg-area)"  x="524.50" y="110.00" text-anchor="middle"  font-weight="regular">mpiric</text>
<line  x1="464.50" y1="121.00" x2="494.50" y2="121.00" stroke-dasharray="5, 5" style="stroke: #57d3db;stroke-width:2.00"/>
<text clip-path="url(#leg-area)"  x="524.50" y="125.00" text-anchor="middle"  font-weight="regular">libm</text>
</svg>

