<svg class="charter" xmlns="http://www.w3.org/2000/svg" version="1.1" width="100%" viewbox="0 0 600 400">
<defs><clipPath id="plot-area"><rect x="52.50" y="25.00" width="512.00" height="350.00"/>
</clipPath></defs><line clip-path="url(#plot-area)"  x1="71.02" y1="25.00" x2="71.02" y2="375.00"  style="stroke: #ccc;stroke-width:0.50"/>
<line clip-path="url(#plot-area)"  x1="166.01" y1="25.00" x2="166.01" y2="375.00"  style="stroke: #ccc;stroke-width:0.50"/>
<line clip-path="url(#plot-area)"  x1="261.00" y1="25.00" x2="261.00" y2="375.00"  style="stroke: #ccc;stroke-width:0.50"/>
<line clip-path="url(#plot-area)"  x1="356.00" y1="25.00" x2="356.00" y2="375.00"  style="stroke: #ccc;stroke-width:0.50"/>
<line clip-path="url(#plot-area)"  x1="450.99" y1="25.00" x2="450.99" y2="375.00"  style="stroke: #ccc;stroke-width:0.50"/>
<line clip-path="url(#plot-area)"  x1="545.98" y1="25.00" x2="545.98" y2="375.00"  style="stroke: #ccc;stroke-width:0.50"/>
<line clip-path="url(#plot-area)"  x1="52.50" y1="362.34" x2="564.50" y2="362.34"  style="stroke: #ccc;stroke-width:0.50"/>
<line clip-path="url(#plot-area)"  x1="52.50" y1="298.05" x2="564.50" y2="298.05"  style="stroke: #ccc;stroke-width:0.50"/>
<line clip-path="url(#plot-area)"  x1="52.50" y1="233.76" x2="564.50" y2="233.76"  style="stroke: #ccc;stroke-width:0.50"/>
<line clip-path="url(#plot-area)"  x1="52.50" y1="169.48" x2="564.50" y2="169.48"  style="stroke: #ccc;stroke-width:0.50"/>
<line clip-path="url(#plot-area)"  x1="52.50" y1="105.19" x2="564.50" y2="105.19"  style="stroke: #ccc;stroke-width:0.50"/>
<line clip-path="url(#plot-area)"  x1="52.50" y1="40.91" x2="564.50" y2="40.91"  style="stroke: #ccc;stroke-width:0.50"/>
<polyline clip-path="url(#plot-area)" style="fill:none; stroke:#db5f57; stroke-width:2.00;"  points="75.77,41.40 80.52,201.87 85.27,255.23 90.02,282.10 94.77,298.21 99.52,308.78 104.27,316.53 109.02,322.22 113.77,326.63 118.52,330.27 123.27,333.12 128.02,335.56 132.77,337.65 137.52,339.43 142.27,340.96 147.02,342.28 151.77,343.43 156.51,344.48 161.26,345.46 166.01,346.30 170.76,347.04 175.51,347.73 180.26,348.36 185.01,348.95 189.76,349.49 194.51,349.99 199.26,350.46 204.01,350.88 208.76,351.28 213.51,351.65 218.26,351.99 223.01,352.31 227.76,352.60 232.51,352.88 237.26,353.15 242.01,353.41 246.76,353.66 251.51,353.90 256.26,354.11 261.00,354.32 265.75,354.51 270.50,354.69 275.25,354.86 280.00,355.03 284.75,355.19 289.50,355.35 294.25,355.50 299.00,355.64 303.75,355.78 308.50,355.91 313.25,356.04 318.00,356.16 322.75,356.28 327.50,356.40 332.25,356.50 337.00,356.61 341.75,356.71 346.50,356.81 351.25,356.90 356.00,356.99 360.74,357.08 365.49,357.16 370.24,357.24 374.99,357.32 379.74,357.40 384.49,357.47 389.24,357.54 393.99,357.61 398.74,357.68 403.49,357.74 408.24,357.81 412.99,357.87 417.74,357.93 422.49,358.00 427.24,358.06 431.99,358.12 436.74,358.17 441.49,358.22 446.24,358.28 450.99,358.33 455.74,358.37 460.49,358.42 465.23,358.47 469.98,358.51 474.73,358.56 479.48,358.60 484.23,358.64 488.98,358.68 493.73,358.72 498.48,358.76 503.23,358.80 507.98,358.84 512.73,358.88 517.48,358.92 522.23,358.95 526.98,358.99 531.73,359.02 536.48,359.06 541.23,359.09 " /><polyline clip-path="url(#plot-area)" style="fill:none; stroke:#dbae57; stroke-width:2.00;" stroke-dasharray="5, 5" points="75.77,40.91 80.52,201.62 85.27,255.19 90.02,281.98 94.77,298.05 99.52,308.76 104.27,316.42 109.02,322.16 113.77,326.62 118.52,330.19 123.27,333.11 128.02,335.55 132.77,337.61 137.52,339.38 142.27,340.91 147.02,342.25 151.77,343.43 156.51,344.48 161.26,345.42 166.01,346.26 170.76,347.03 175.51,347.72 180.26,348.36 185.01,348.94 189.76,349.48 194.51,349.97 199.26,350.43 204.01,350.86 208.76,351.25 213.51,351.62 218.26,351.97 223.01,352.29 227.76,352.59 232.51,352.88 237.26,353.15 242.01,353.41 246.76,353.65 251.51,353.88 256.26,354.09 261.00,354.30 265.75,354.50 270.50,354.68 275.25,354.86 280.00,355.03 284.75,355.19 289.50,355.35 294.25,355.50 299.00,355.64 303.75,355.78 308.50,355.91 313.25,356.03 318.00,356.15 322.75,356.27 327.50,356.38 332.25,356.49 337.00,356.60 341.75,356.70 346.50,356.79 351.25,356.89 356.00,356.98 360.74,357.07 365.49,357.15 370.24,357.23 374.99,357.31 379.74,357.39 384.49,357.47 389.24,357.54 393.99,357.61 398.74,357.68 403.49,357.74 408.24,357.81 412.99,357.87 417.74,357.93 422.49,357.99 427.24,358.05 431.99,358.11 436.74,358.16 441.49,358.21 446.24,358.27 450.99,358.32 455.74,358.37 460.49,358.42 465.23,358.46 469.98,358.51 474.73,358.55 479.48,358.60 484.23,358.64 488.98,358.68 493.73,358.72 498.48,358.76 503.23,358.80 507.98,358.84 512.73,358.88 517.48,358.92 522.23,358.95 526.98,358.99 531.73,359.02 536.48,359.06 541.23,359.09 " /><rect  x="52.00" y="25.00" width="512.00" height="350.00" style="fill:none; fill-opacity:1.00; stroke:black; stroke-width:0.50;" />
<line  x1="71.02" y1="376.00" x2="71.02" y2="381.00"  style="stroke: black;stroke-width:1.00"/>
<text  x="71.02" y="395.00" text-anchor="middle"  font-weight="regular">0</text>
<line  x1="166.01" y1="376.00" x2="166.01" y2="381.00"  style="stroke: black;stroke-width:1.00"/>
<text  x="166.01" y="395.00" text-anchor="middle"  font-weight="regular">20.0</text>
<line  x1="261.00" y1="376.00" x2="261.00" y2="381.00"  style="stroke: black;stroke-width:1.00"/>
<text  x="261.00" y="395.00" text-anchor="middle"  font-weight="regular">40.0</text>
<line  x1="356.00" y1="376.00" x2="356.00" y2="381.00"  style="stroke: black;stroke-width:1.00"/>
<text  x="356.00" y="395.00" text-anchor="middle"  font-weight="regular">60.0</text>
<line  x1="450.99" y1="376.00" x2="450.99" y2="381.00"  style="stroke: black;stroke-width:1.00"/>
<text  x="450.99" y="395.00" text-anchor="middle"  font-weight="regular">80.0</text>
<line  x1="545.98" y1="376.00" x2="545.98" y2="381.00"  style="stroke: black;stroke-width:1.00"/>
<text  x="545.98" y="395.00" text-anchor="middle"  font-weight="regular"><tspan>1.0e<tspan  font-size="10" dy="-5" dx="1">2</tspan></tspan></text>
<line  x1="46.50" y1="362.34" x2="51.50" y2="362.34"  style="stroke: black;stroke-width:1.00"/>
<text  x="42.50" y="366.34" text-anchor="end"  font-weight="regular">0</text>
<line  x1="46.50" y1="298.05" x2="51.50" y2="298.05"  style="stroke: black;stroke-width:1.00"/>
<text  x="42.50" y="302.05" text-anchor="end"  font-weight="regular">2.0</text>
<line  x1="46.50" y1="233.76" x2="51.50" y2="233.76"  style="stroke: black;stroke-width:1.00"/>
<text  x="42.50" y="237.76" text-anchor="end"  font-weight="regular">4.0</text>
<line  x1="46.50" y1="169.48" x2="51.50" y2="169.48"  style="stroke: black;stroke-width:1.00"/>
<text  x="42.50" y="173.48" text-anchor="end"  font-weight="regular">6.0</text>
<line  x1="46.50" y1="105.19" x2="51.50" y2="105.19"  style="stroke: black;stroke-width:1.00"/>
<text  x="42.50" y="109.19" text-anchor="end"  font-weight="regular">8.0</text>
<line  x1="46.50" y1="40.91" x2="51.50" y2="40.91"  style="stroke: black;stroke-width:1.00"/>
<text  x="42.50" y="44.91" text-anchor="end"  font-weight="regular">10.0</text>
<rect  x="454.50" y="35.00" width="100.00" height="36.00" style="fill:white; fill-opacity:0.50; stroke:#333; stroke-width:0.50;" />
<defs><clipPath id="leg-area"><rect x="494.50" y="35.00" width="58.00" height="36.00"/>
</clipPath></defs><line  x1="464.50" y1="46.00" x2="494.50" y2="46.00"  style="stroke: #db5f57;stroke-width:2.00"/>
<text clip-path="url(#leg-area)"  x="524.50" y="50.00" text-anchor="middle"  font-weight="regular">mpiric</text>
<line  x1="464.50" y1="61.00" x2="494.50" y2="61.00" stroke-dasharray="5, 5" style="stroke: #dbae57;stroke-width:2.00"/>
<text clip-path="url(#leg-area)"  x="524.50" y="65.00" text-anchor="middle"  font-weight="regular">libm</text>
</svg>

