<svg class="charter" xmlns="http://www.w3.org/2000/svg" version="1.1" width="100%" viewbox="0 0 600 400">
<defs><clipPath id="plot-area"><rect x="52.50" y="25.00" width="512.00" height="350.00"/>
</clipPath></defs><line clip-path="url(#plot-area)"  x1="71.02" y1="25.00" x2="71.02" y2="375.00"  style="stroke: #ccc;stroke-width:0.50"/>
<line clip-path="url(#plot-area)"  x1="166.01" y1="25.00" x2="166.01" y2="375.00"  style="stroke: #ccc;stroke-width:0.50"/>
<line clip-path="url(#plot-area)"  x1="261.00" y1="25.00" x2="261.00" y2="375.00"  style="stroke: #ccc;stroke-width:0.50"/>
<line clip-path="url(#plot-area)"  x1="356.00" y1="25.00" x2="356.00" y2="375.00"  style="stroke: #ccc;stroke-width:0.50"/>
<line clip-path="url(#plot-area)"  x1="450.99" y1="25.00" x2="450.99" y2="375.00"  style="stroke: #ccc;stroke-width:0.50"/>
<line clip-path="url(#plot-area)"  x1="545.98" y1="25.00" x2="545.98" y2="375.00"  style="stroke: #ccc;stroke-width:0.50"/>
<line clip-path="url(#plot-area)"  x1="52.50" y1="282.74" x2="564.50" y2="282.74"  style="stroke: #ccc;stroke-width:0.50"/>
<line clip-path="url(#plot-area)"  x1="52.50" y1="170.90" x2="564.50" y2="170.90"  style="stroke: #ccc;stroke-width:0.50"/>
<line clip-path="url(#plot-area)"  x1="52.50" y1="59.06" x2="564.50" y2="59.06"  style="stroke: #ccc;stroke-width:0.50"/>
<polyline clip-path="url(#plot-area)" style="fill:none; stroke:#db5f57; stroke-width:2.00;"  points="75.77,41.47 80.52,144.56 85.27,190.39 90.02,218.02 94.77,236.45 99.52,250.42 104.27,261.10 109.02,269.57 113.77,276.76 118.52,282.93 123.27,287.97 128.02,292.48 132.77,296.52 137.52,300.14 142.27,303.39 147.02,306.30 151.77,308.93 156.51,311.31 161.26,313.50 166.01,315.51 170.76,317.45 175.51,319.25 180.26,320.93 185.01,322.50 189.76,323.96 194.51,325.34 199.26,326.63 204.01,327.84 208.76,328.98 213.51,330.06 218.26,331.09 223.01,332.07 227.76,333.01 232.51,333.92 237.26,334.81 242.01,335.67 246.76,336.52 251.51,337.30 256.26,338.04 261.00,338.75 265.75,339.41 270.50,340.05 275.25,340.67 280.00,341.27 284.75,341.86 289.50,342.43 294.25,342.99 299.00,343.53 303.75,344.06 308.50,344.57 313.25,345.07 318.00,345.55 322.75,346.02 327.50,346.48 332.25,346.93 337.00,347.36 341.75,347.78 346.50,348.19 351.25,348.59 356.00,348.98 360.74,349.36 365.49,349.73 370.24,350.09 374.99,350.44 379.74,350.78 384.49,351.11 389.24,351.44 393.99,351.75 398.74,352.06 403.49,352.36 408.24,352.66 412.99,352.95 417.74,353.23 422.49,353.50 427.24,353.77 431.99,354.04 436.74,354.30 441.49,354.55 446.24,354.80 450.99,355.04 455.74,355.29 460.49,355.54 465.23,355.78 469.98,356.01 474.73,356.24 479.48,356.47 484.23,356.69 488.98,356.91 493.73,357.13 498.48,357.34 503.23,357.55 507.98,357.75 512.73,357.95 517.48,358.15 522.23,358.34 526.98,358.54 531.73,358.72 536.48,358.91 541.23,359.09 " /><polyline clip-path="url(#plot-area)" style="fill:none; stroke:#dbae57; stroke-width:2.00;" stroke-dasharray="5, 5" points="75.77,40.91 80.52,144.50 85.27,190.39 90.02,217.74 94.77,236.41 99.52,250.19 104.27,260.90 109.02,269.54 113.77,276.69 118.52,282.74 123.27,287.94 128.02,292.48 132.77,296.49 137.52,300.05 142.27,303.26 147.02,306.16 151.77,308.80 156.51,311.22 161.26,313.44 166.01,315.49 170.76,317.40 175.51,319.17 180.26,320.83 185.01,322.38 189.76,323.84 194.51,325.22 199.26,326.51 204.01,327.74 208.76,328.90 213.51,330.01 218.26,331.06 223.01,332.06 227.76,333.01 232.51,333.92 237.26,334.80 242.01,335.63 246.76,336.43 251.51,337.20 256.26,337.94 261.00,338.66 265.75,339.34 270.50,340.00 275.25,340.64 280.00,341.26 284.75,341.85 289.50,342.43 294.25,342.99 299.00,343.53 303.75,344.05 308.50,344.56 313.25,345.05 318.00,345.53 322.75,346.00 327.50,346.45 332.25,346.89 337.00,347.32 341.75,347.73 346.50,348.14 351.25,348.53 356.00,348.92 360.74,349.29 365.49,349.66 370.24,350.02 374.99,350.37 379.74,350.71 384.49,351.04 389.24,351.37 393.99,351.69 398.74,352.00 403.49,352.30 408.24,352.60 412.99,352.90 417.74,353.18 422.49,353.46 427.24,353.74 431.99,354.01 436.74,354.27 441.49,354.53 446.24,354.79 450.99,355.03 455.74,355.28 460.49,355.52 465.23,355.76 469.98,355.99 474.73,356.22 479.48,356.44 484.23,356.66 488.98,356.87 493.73,357.09 498.48,357.30 503.23,357.50 507.98,357.70 512.73,357.90 517.48,358.10 522.23,358.29 526.98,358.48 531.73,358.67 536.48,358.85 541.23,359.03 " /><rect  x="52.00" y="25.00" width="512.00" height="350.00" style="fill:none; fill-opacity:1.00; stroke:black; stroke-width:0.50;" />
<line  x1="71.02" y1="376.00" x2="71.02" y2="381.00"  style="stroke: black;stroke-width:1.00"/>
<text  x="71.02" y="395.00" text-anchor="middle"  font-weight="regular">0</text>
<line  x1="166.01" y1="376.00" x2="166.01" y2="381.00"  style="stroke: black;stroke-width:1.00"/>
<text  x="166.01" y="395.00" text-anchor="middle"  font-weight="regular">20.0</text>
<line  x1="261.00" y1="376.00" x2="261.00" y2="381.00"  style="stroke: black;stroke-width:1.00"/>
<text  x="261.00" y="395.00" text-anchor="middle"  font-weight="regular">40.0</text>
<line  x1="356.00" y1="376.00" x2="356.00" y2="381.00"  style="stroke: black;stroke-width:1.00"/>
<text  x="356.00" y="395.00" text-anchor="middle"  font-weight="regular">60.0</text>
<line  x1="450.99" y1="376.00" x2="450.99" y2="381.00"  style="stroke: black;stroke-width:1.00"/>
<text  x="450.99" y="395.00" text-anchor="middle"  font-weight="regular">80.0</text>
<line  x1="545.98" y1="376.00" x2="545.98" y2="381.00"  style="stroke: black;stroke-width:1.00"/>
<text  x="545.98" y="395.00" text-anchor="middle"  font-weight="regular"><tspan>1.0e<tspan  font-size="10" dy="-5" dx="1">2</tspan></tspan></text>
<line  x1="46.50" y1="282.74" x2="51.50" y2="282.74"  style="stroke: black;stroke-width:1.00"/>
<text  x="42.50" y="286.74" text-anchor="end"  font-weight="regular">1.0</text>
<line  x1="46.50" y1="170.90" x2="51.50" y2="170.90"  style="stroke: black;stroke-width:1.00"/>
<text  x="42.50" y="174.90" text-anchor="end"  font-weight="regular">2.0</text>
<line  x1="46.50" y1="59.06" x2="51.50" y2="59.06"  style="stroke: black;stroke-width:1.00"/>
<text  x="42.50" y="63.06" text-anchor="end"  font-weight="regular">3.0</text>
<rect  x="454.50" y="35.00" width="100.00" height="36.00" style="fill:white; fill-opacity:0.50; stroke:#333; stroke-width:0.50;" />
<defs><clipPath id="leg-area"><rect x="494.50" y="35.00" width="58.00" height="36.00"/>
</clipPath></defs><line  x1="464.50" y1="46.00" x2="494.50" y2="46.00"  style="stroke: #db5f57;stroke-width:2.00"/>
<text clip-path="url(#leg-area)"  x="524.50" y="50.00" text-anchor="middle"  font-weight="regular">mpiric</text>
<line  x1="464.50" y1="61.00" x2="494.50" y2="61.00" stroke-dasharray="5, 5" style="stroke: #dbae57;stroke-width:2.00"/>
<text clip-path="url(#leg-area)"  x="524.50" y="65.00" text-anchor="middle"  font-weight="regular">libm</text>
</svg>

