<svg class="charter" xmlns="http://www.w3.org/2000/svg" version="1.1" width="100%" viewbox="0 0 600 400">
<defs><clipPath id="plot-area"><rect x="52.50" y="25.00" width="512.00" height="350.00"/>
</clipPath></defs><line clip-path="url(#plot-area)"  x1="71.07" y1="25.00" x2="71.07" y2="375.00"  style="stroke: #ccc;stroke-width:0.50"/>
<line clip-path="url(#plot-area)"  x1="165.10" y1="25.00" x2="165.10" y2="375.00"  style="stroke: #ccc;stroke-width:0.50"/>
<line clip-path="url(#plot-area)"  x1="259.13" y1="25.00" x2="259.13" y2="375.00"  style="stroke: #ccc;stroke-width:0.50"/>
<line clip-path="url(#plot-area)"  x1="353.16" y1="25.00" x2="353.16" y2="375.00"  style="stroke: #ccc;stroke-width:0.50"/>
<line clip-path="url(#plot-area)"  x1="447.20" y1="25.00" x2="447.20" y2="375.00"  style="stroke: #ccc;stroke-width:0.50"/>
<line clip-path="url(#plot-area)"  x1="541.23" y1="25.00" x2="541.23" y2="375.00"  style="stroke: #ccc;stroke-width:0.50"/>
<line clip-path="url(#plot-area)"  x1="52.50" y1="282.60" x2="564.50" y2="282.60"  style="stroke: #ccc;stroke-width:0.50"/>
<line clip-path="url(#plot-area)"  x1="52.50" y1="170.82" x2="564.50" y2="170.82"  style="stroke: #ccc;stroke-width:0.50"/>
<line clip-path="url(#plot-area)"  x1="52.50" y1="59.05" x2="564.50" y2="59.05"  style="stroke: #ccc;stroke-width:0.50"/>
<polyline clip-path="url(#plot-area)" style="fill:none; stroke:#db5f57; stroke-width:2.00;"  points="75.77,41.47 80.47,144.50 85.18,190.31 89.88,217.93 94.58,236.34 99.28,250.30 103.98,260.98 108.68,269.44 113.39,276.63 118.09,282.79 122.79,287.83 127.49,292.34 132.19,296.38 136.89,300.00 141.59,303.24 146.30,306.15 151.00,308.78 155.70,311.16 160.40,313.34 165.10,315.36 169.80,317.29 174.51,319.09 179.21,320.77 183.91,322.34 188.61,323.80 193.31,325.18 198.01,326.47 202.71,327.68 207.42,328.82 212.12,329.90 216.82,330.93 221.52,331.91 226.22,332.85 230.92,333.76 235.63,334.64 240.33,335.50 245.03,336.35 249.73,337.13 254.43,337.87 259.13,338.58 263.84,339.24 268.54,339.88 273.24,340.50 277.94,341.10 282.64,341.69 287.34,342.26 292.04,342.82 296.75,343.36 301.45,343.89 306.15,344.40 310.85,344.89 315.55,345.38 320.25,345.85 324.96,346.31 329.66,346.75 334.36,347.19 339.06,347.61 343.76,348.02 348.46,348.42 353.16,348.81 357.87,349.19 362.57,349.56 367.27,349.91 371.97,350.26 376.67,350.61 381.37,350.94 386.08,351.26 390.78,351.58 395.48,351.89 400.18,352.19 404.88,352.48 409.58,352.77 414.29,353.05 418.99,353.33 423.69,353.60 428.39,353.86 433.09,354.12 437.79,354.37 442.49,354.62 447.20,354.87 451.90,355.12 456.60,355.36 461.30,355.60 466.00,355.83 470.70,356.06 475.41,356.29 480.11,356.51 484.81,356.73 489.51,356.95 494.21,357.16 498.91,357.37 503.61,357.57 508.32,357.77 513.02,357.97 517.72,358.17 522.42,358.36 527.12,358.55 531.82,358.73 536.53,358.91 541.23,359.09 " /><polyline clip-path="url(#plot-area)" style="fill:none; stroke:#dbae57; stroke-width:2.00;" stroke-dasharray="5, 5" points="75.77,40.91 80.47,144.44 85.18,190.30 89.88,217.64 94.58,236.30 99.28,250.07 103.98,260.78 108.68,269.41 113.39,276.55 118.09,282.60 122.79,287.80 127.49,292.34 132.19,296.34 136.89,299.91 141.59,303.11 146.30,306.01 151.00,308.65 155.70,311.06 160.40,313.29 165.10,315.34 169.80,317.24 174.51,319.02 179.21,320.67 183.91,322.23 188.61,323.68 193.31,325.06 198.01,326.35 202.71,327.58 207.42,328.74 212.12,329.84 216.82,330.89 221.52,331.89 226.22,332.85 230.92,333.76 235.63,334.63 240.33,335.47 245.03,336.27 249.73,337.04 254.43,337.78 259.13,338.49 263.84,339.17 268.54,339.84 273.24,340.47 277.94,341.09 282.64,341.69 287.34,342.26 292.04,342.82 296.75,343.36 301.45,343.88 306.15,344.39 310.85,344.88 315.55,345.36 320.25,345.82 324.96,346.28 329.66,346.72 334.36,347.14 339.06,347.56 343.76,347.96 348.46,348.36 353.16,348.74 357.87,349.12 362.57,349.49 367.27,349.84 371.97,350.19 376.67,350.53 381.37,350.87 386.08,351.19 390.78,351.51 395.48,351.82 400.18,352.13 404.88,352.43 409.58,352.72 414.29,353.01 418.99,353.29 423.69,353.56 428.39,353.83 433.09,354.10 437.79,354.35 442.49,354.61 447.20,354.86 451.90,355.10 456.60,355.34 461.30,355.58 466.00,355.81 470.70,356.04 475.41,356.26 480.11,356.48 484.81,356.70 489.51,356.91 494.21,357.12 498.91,357.32 503.61,357.53 508.32,357.72 513.02,357.92 517.72,358.11 522.42,358.30 527.12,358.49 531.82,358.67 536.53,358.85 541.23,359.03 " /><rect  x="52.00" y="25.00" width="512.00" height="350.00" style="fill:none; fill-opacity:1.00; stroke:black; stroke-width:0.50;" />
<line  x1="71.07" y1="376.00" x2="71.07" y2="381.00"  style="stroke: black;stroke-width:1.00"/>
<text  x="71.07" y="395.00" text-anchor="middle"  font-weight="regular">0</text>
<line  x1="165.10" y1="376.00" x2="165.10" y2="381.00"  style="stroke: black;stroke-width:1.00"/>
<text  x="165.10" y="395.00" text-anchor="middle"  font-weight="regular">20.0</text>
<line  x1="259.13" y1="376.00" x2="259.13" y2="381.00"  style="stroke: black;stroke-width:1.00"/>
<text  x="259.13" y="395.00" text-anchor="middle"  font-weight="regular">40.0</text>
<line  x1="353.16" y1="376.00" x2="353.16" y2="381.00"  style="stroke: black;stroke-width:1.00"/>
<text  x="353.16" y="395.00" text-anchor="middle"  font-weight="regular">60.0</text>
<line  x1="447.20" y1="376.00" x2="447.20" y2="381.00"  style="stroke: black;stroke-width:1.00"/>
<text  x="447.20" y="395.00" text-anchor="middle"  font-weight="regular">80.0</text>
<line  x1="541.23" y1="376.00" x2="541.23" y2="381.00"  style="stroke: black;stroke-width:1.00"/>
<text  x="541.23" y="395.00" text-anchor="middle"  font-weight="regular"><tspan>1.0e<tspan  font-size="10" dy="-5" dx="1">2</tspan></tspan></text>
<line  x1="46.50" y1="282.60" x2="51.50" y2="282.60"  style="stroke: black;stroke-width:1.00"/>
<text  x="42.50" y="286.60" text-anchor="end"  font-weight="regular">1.0</text>
<line  x1="46.50" y1="170.82" x2="51.50" y2="170.82"  style="stroke: black;stroke-width:1.00"/>
<text  x="42.50" y="174.82" text-anchor="end"  font-weight="regular">2.0</text>
<line  x1="46.50" y1="59.05" x2="51.50" y2="59.05"  style="stroke: black;stroke-width:1.00"/>
<text  x="42.50" y="63.05" text-anchor="end"  font-weight="regular">3.0</text>
<rect  x="454.50" y="35.00" width="100.00" height="36.00" style="fill:white; fill-opacity:0.50; stroke:#333; stroke-width:0.50;" />
<defs><clipPath id="leg-area"><rect x="494.50" y="35.00" width="58.00" height="36.00"/>
</clipPath></defs><line  x1="464.50" y1="46.00" x2="494.50" y2="46.00"  style="stroke: #db5f57;stroke-width:2.00"/>
<text clip-path="url(#leg-area)"  x="524.50" y="50.00" text-anchor="middle"  font-weight="regular">mpiric</text>
<line  x1="464.50" y1="61.00" x2="494.50" y2="61.00" stroke-dasharray="5, 5" style="stroke: #dbae57;stroke-width:2.00"/>
<text clip-path="url(#leg-area)"  x="524.50" y="65.00" text-anchor="middle"  font-weight="regular">libm</text>
</svg>

