<svg class="charter" xmlns="http://www.w3.org/2000/svg" version="1.1" width="100%" viewbox="0 0 600 400">
<defs><clipPath id="plot-area"><rect x="52.50" y="25.00" width="512.00" height="350.00"/>
</clipPath></defs><line clip-path="url(#plot-area)"  x1="71.02" y1="25.00" x2="71.02" y2="375.00"  style="stroke: #ccc;stroke-width:0.50"/>
<line clip-path="url(#plot-area)"  x1="166.01" y1="25.00" x2="166.01" y2="375.00"  style="stroke: #ccc;stroke-width:0.50"/>
<line clip-path="url(#plot-area)"  x1="261.00" y1="25.00" x2="261.00" y2="375.00"  style="stroke: #ccc;stroke-width:0.50"/>
<line clip-path="url(#plot-area)"  x1="356.00" y1="25.00" x2="356.00" y2="375.00"  style="stroke: #ccc;stroke-width:0.50"/>
<line clip-path="url(#plot-area)"  x1="450.99" y1="25.00" x2="450.99" y2="375.00"  style="stroke: #ccc;stroke-width:0.50"/>
<line clip-path="url(#plot-area)"  x1="545.98" y1="25.00" x2="545.98" y2="375.00"  style="stroke: #ccc;stroke-width:0.50"/>
<line clip-path="url(#plot-area)"  x1="52.50" y1="282.25" x2="564.50" y2="282.25"  style="stroke: #ccc;stroke-width:0.50"/>
<line clip-path="url(#plot-area)"  x1="52.50" y1="169.88" x2="564.50" y2="169.88"  style="stroke: #ccc;stroke-width:0.50"/>
<line clip-path="url(#plot-area)"  x1="52.50" y1="57.51" x2="564.50" y2="57.51"  style="stroke: #ccc;stroke-width:0.50"/>
<polyline clip-path="url(#plot-area)" style="fill:none; stroke:#db5f57; stroke-width:2.00;"  points="75.77,359.08 80.52,344.37 85.27,333.08 90.02,323.53 94.77,315.03 99.52,307.54 104.27,300.60 109.02,294.12 113.77,288.02 118.52,282.25 123.27,276.77 128.02,271.53 132.77,266.50 137.52,261.65 142.27,256.97 147.02,252.43 151.77,248.02 156.51,243.73 161.26,239.53 166.01,235.43 170.76,231.57 175.51,227.79 180.26,224.08 185.01,220.45 189.76,216.88 194.51,213.38 199.26,209.94 204.01,206.57 208.76,203.25 213.51,199.98 218.26,196.77 223.01,193.60 227.76,190.49 232.51,187.42 237.26,184.40 242.01,181.41 246.76,178.47 251.51,175.57 256.26,172.71 261.00,169.88 265.75,167.09 270.50,164.33 275.25,161.60 280.00,158.91 284.75,156.25 289.50,153.61 294.25,151.01 299.00,148.43 303.75,145.87 308.50,143.35 313.25,140.85 318.00,138.37 322.75,135.91 327.50,133.48 332.25,131.07 337.00,128.68 341.75,126.31 346.50,123.96 351.25,121.63 356.00,119.31 360.74,117.02 365.49,114.74 370.24,112.48 374.99,110.24 379.74,108.01 384.49,105.80 389.24,103.60 393.99,101.42 398.74,99.25 403.49,97.09 408.24,94.95 412.99,92.82 417.74,90.71 422.49,88.61 427.24,86.52 431.99,84.44 436.74,82.37 441.49,80.32 446.24,78.27 450.99,76.24 455.74,74.29 460.49,72.36 465.23,70.43 469.98,68.51 474.73,66.61 479.48,64.71 484.23,62.83 488.98,60.95 493.73,59.08 498.48,57.23 503.23,55.38 507.98,53.54 512.73,51.71 517.48,49.89 522.23,48.07 526.98,46.27 531.73,44.47 536.48,42.69 541.23,40.91 " /><polyline clip-path="url(#plot-area)" style="fill:none; stroke:#dbae57; stroke-width:2.00;" stroke-dasharray="5, 5" points="75.77,359.09 80.52,344.37 85.27,333.08 90.02,323.56 94.77,315.17 99.52,307.58 104.27,300.61 109.02,294.12 113.77,288.02 118.52,282.25 123.27,276.77 128.02,271.53 132.77,266.50 137.52,261.66 142.27,257.00 147.02,252.48 151.77,248.11 156.51,243.86 161.26,239.73 166.01,235.71 170.76,231.78 175.51,227.95 180.26,224.20 185.01,220.54 189.76,216.95 194.51,213.43 199.26,209.98 204.01,206.59 208.76,203.26 213.51,199.99 218.26,196.77 223.01,193.61 227.76,190.49 232.51,187.42 237.26,184.40 242.01,181.41 246.76,178.47 251.51,175.57 256.26,172.71 261.00,169.88 265.75,167.09 270.50,164.33 275.25,161.60 280.00,158.91 284.75,156.25 289.50,153.61 294.25,151.01 299.00,148.43 303.75,145.88 308.50,143.35 313.25,140.85 318.00,138.38 322.75,135.92 327.50,133.50 332.25,131.09 337.00,128.70 341.75,126.34 346.50,124.00 351.25,121.67 356.00,119.37 360.74,117.09 365.49,114.82 370.24,112.57 374.99,110.34 379.74,108.13 384.49,105.94 389.24,103.76 393.99,101.59 398.74,99.45 403.49,97.32 408.24,95.20 412.99,93.10 417.74,91.01 422.49,88.94 427.24,86.88 431.99,84.84 436.74,82.80 441.49,80.79 446.24,78.78 450.99,76.79 455.74,74.81 460.49,72.84 465.23,70.88 469.98,68.94 474.73,67.01 479.48,65.08 484.23,63.17 488.98,61.27 493.73,59.39 498.48,57.51 503.23,55.64 507.98,53.78 512.73,51.93 517.48,50.10 522.23,48.27 526.98,46.45 531.73,44.64 536.48,42.84 541.23,41.05 " /><rect  x="52.00" y="25.00" width="512.00" height="350.00" style="fill:none; fill-opacity:1.00; stroke:black; stroke-width:0.50;" />
<line  x1="71.02" y1="376.00" x2="71.02" y2="381.00"  style="stroke: black;stroke-width:1.00"/>
<text  x="71.02" y="395.00" text-anchor="middle"  font-weight="regular">0</text>
<line  x1="166.01" y1="376.00" x2="166.01" y2="381.00"  style="stroke: black;stroke-width:1.00"/>
<text  x="166.01" y="395.00" text-anchor="middle"  font-weight="regular">20.0</text>
<line  x1="261.00" y1="376.00" x2="261.00" y2="381.00"  style="stroke: black;stroke-width:1.00"/>
<text  x="261.00" y="395.00" text-anchor="middle"  font-weight="regular">40.0</text>
<line  x1="356.00" y1="376.00" x2="356.00" y2="381.00"  style="stroke: black;stroke-width:1.00"/>
<text  x="356.00" y="395.00" text-anchor="middle"  font-weight="regular">60.0</text>
<line  x1="450.99" y1="376.00" x2="450.99" y2="381.00"  style="stroke: black;stroke-width:1.00"/>
<text  x="450.99" y="395.00" text-anchor="middle"  font-weight="regular">80.0</text>
<line  x1="545.98" y1="376.00" x2="545.98" y2="381.00"  style="stroke: black;stroke-width:1.00"/>
<text  x="545.98" y="395.00" text-anchor="middle"  font-weight="regular"><tspan>1.0e<tspan  font-size="10" dy="-5" dx="1">2</tspan></tspan></text>
<line  x1="46.50" y1="282.25" x2="51.50" y2="282.25"  style="stroke: black;stroke-width:1.00"/>
<text  x="42.50" y="286.25" text-anchor="end"  font-weight="regular">1.0</text>
<line  x1="46.50" y1="169.88" x2="51.50" y2="169.88"  style="stroke: black;stroke-width:1.00"/>
<text  x="42.50" y="173.88" text-anchor="end"  font-weight="regular">2.0</text>
<line  x1="46.50" y1="57.51" x2="51.50" y2="57.51"  style="stroke: black;stroke-width:1.00"/>
<text  x="42.50" y="61.51" text-anchor="end"  font-weight="regular">3.0</text>
<rect  x="454.50" y="35.00" width="100.00" height="36.00" style="fill:white; fill-opacity:0.50; stroke:#333; stroke-width:0.50;" />
<defs><clipPath id="leg-area"><rect x="494.50" y="35.00" width="58.00" height="36.00"/>
</clipPath></defs><line  x1="464.50" y1="46.00" x2="494.50" y2="46.00"  style="stroke: #db5f57;stroke-width:2.00"/>
<text clip-path="url(#leg-area)"  x="524.50" y="50.00" text-anchor="middle"  font-weight="regular">mpiric</text>
<line  x1="464.50" y1="61.00" x2="494.50" y2="61.00" stroke-dasharray="5, 5" style="stroke: #dbae57;stroke-width:2.00"/>
<text clip-path="url(#leg-area)"  x="524.50" y="65.00" text-anchor="middle"  font-weight="regular">libm</text>
</svg>

