<svg class="charter" xmlns="http://www.w3.org/2000/svg" version="1.1" width="100%" viewbox="0 0 600 400">
<defs><clipPath id="plot-area"><rect x="52.50" y="25.00" width="512.00" height="350.00"/>
</clipPath></defs><line clip-path="url(#plot-area)"  x1="71.07" y1="25.00" x2="71.07" y2="375.00"  style="stroke: #ccc;stroke-width:0.50"/>
<line clip-path="url(#plot-area)"  x1="165.10" y1="25.00" x2="165.10" y2="375.00"  style="stroke: #ccc;stroke-width:0.50"/>
<line clip-path="url(#plot-area)"  x1="259.13" y1="25.00" x2="259.13" y2="375.00"  style="stroke: #ccc;stroke-width:0.50"/>
<line clip-path="url(#plot-area)"  x1="353.16" y1="25.00" x2="353.16" y2="375.00"  style="stroke: #ccc;stroke-width:0.50"/>
<line clip-path="url(#plot-area)"  x1="447.20" y1="25.00" x2="447.20" y2="375.00"  style="stroke: #ccc;stroke-width:0.50"/>
<line clip-path="url(#plot-area)"  x1="541.23" y1="25.00" x2="541.23" y2="375.00"  style="stroke: #ccc;stroke-width:0.50"/>
<line clip-path="url(#plot-area)"  x1="52.50" y1="282.68" x2="564.50" y2="282.68"  style="stroke: #ccc;stroke-width:0.50"/>
<line clip-path="url(#plot-area)"  x1="52.50" y1="170.93" x2="564.50" y2="170.93"  style="stroke: #ccc;stroke-width:0.50"/>
<line clip-path="url(#plot-area)"  x1="52.50" y1="59.18" x2="564.50" y2="59.18"  style="stroke: #ccc;stroke-width:0.50"/>
<polyline clip-path="url(#plot-area)" style="fill:none; stroke:#db5f57; stroke-width:2.00;"  points="75.77,359.08 80.47,344.45 85.18,333.22 89.88,323.73 94.58,315.27 99.28,307.82 103.98,300.92 108.68,294.47 113.39,288.41 118.09,282.68 122.79,277.22 127.49,272.01 132.19,267.01 136.89,262.19 141.59,257.53 146.30,253.02 151.00,248.64 155.70,244.36 160.40,240.19 165.10,236.12 169.80,232.28 174.51,228.52 179.21,224.83 183.91,221.22 188.61,217.67 193.31,214.19 198.01,210.77 202.71,207.41 207.42,204.11 212.12,200.86 216.82,197.67 221.52,194.52 226.22,191.42 230.92,188.37 235.63,185.36 240.33,182.40 245.03,179.47 249.73,176.59 254.43,173.74 259.13,170.93 263.84,168.15 268.54,165.41 273.24,162.70 277.94,160.02 282.64,157.37 287.34,154.75 292.04,152.16 296.75,149.59 301.45,147.05 306.15,144.54 310.85,142.05 315.55,139.59 320.25,137.15 324.96,134.73 329.66,132.33 334.36,129.95 339.06,127.59 343.76,125.26 348.46,122.94 353.16,120.64 357.87,118.36 362.57,116.09 367.27,113.84 371.97,111.61 376.67,109.40 381.37,107.20 386.08,105.01 390.78,102.84 395.48,100.69 400.18,98.54 404.88,96.41 409.58,94.30 414.29,92.19 418.99,90.10 423.69,88.02 428.39,85.96 433.09,83.90 437.79,81.86 442.49,79.82 447.20,77.80 451.90,75.87 456.60,73.94 461.30,72.03 466.00,70.12 470.70,68.23 475.41,66.34 480.11,64.47 484.81,62.60 489.51,60.74 494.21,58.90 498.91,57.06 503.61,55.23 508.32,53.41 513.02,51.60 517.72,49.80 522.42,48.00 527.12,46.22 531.82,44.44 536.53,42.67 541.23,40.91 " /><polyline clip-path="url(#plot-area)" style="fill:none; stroke:#dbae57; stroke-width:2.00;" stroke-dasharray="5, 5" points="75.77,359.09 80.47,344.45 85.18,333.22 89.88,323.75 94.58,315.41 99.28,307.87 103.98,300.93 108.68,294.48 113.39,288.41 118.09,282.68 122.79,277.22 127.49,272.01 132.19,267.01 136.89,262.20 141.59,257.56 146.30,253.07 151.00,248.72 155.70,244.50 160.40,240.39 165.10,236.39 169.80,232.49 174.51,228.68 179.21,224.95 183.91,221.31 188.61,217.74 193.31,214.24 198.01,210.80 202.71,207.43 207.42,204.12 212.12,200.87 216.82,197.67 221.52,194.52 226.22,191.42 230.92,188.37 235.63,185.36 240.33,182.40 245.03,179.47 249.73,176.59 254.43,173.74 259.13,170.93 263.84,168.15 268.54,165.41 273.24,162.70 277.94,160.02 282.64,157.37 287.34,154.75 292.04,152.16 296.75,149.60 301.45,147.06 306.15,144.55 310.85,142.06 315.55,139.60 320.25,137.16 324.96,134.74 329.66,132.35 334.36,129.98 339.06,127.63 343.76,125.30 348.46,122.99 353.16,120.70 357.87,118.42 362.57,116.17 367.27,113.94 371.97,111.72 376.67,109.52 381.37,107.34 386.08,105.17 390.78,103.02 395.48,100.88 400.18,98.76 404.88,96.66 409.58,94.57 414.29,92.49 418.99,90.43 423.69,88.39 428.39,86.35 433.09,84.33 437.79,82.33 442.49,80.33 447.20,78.35 451.90,76.38 456.60,74.42 461.30,72.48 466.00,70.54 470.70,68.62 475.41,66.71 480.11,64.81 484.81,62.92 489.51,61.04 494.21,59.18 498.91,57.32 503.61,55.47 508.32,53.63 513.02,51.81 517.72,49.99 522.42,48.18 527.12,46.38 531.82,44.59 536.53,42.81 541.23,41.04 " /><rect  x="52.00" y="25.00" width="512.00" height="350.00" style="fill:none; fill-opacity:1.00; stroke:black; stroke-width:0.50;" />
<line  x1="71.07" y1="376.00" x2="71.07" y2="381.00"  style="stroke: black;stroke-width:1.00"/>
<text  x="71.07" y="395.00" text-anchor="middle"  font-weight="regular">0</text>
<line  x1="165.10" y1="376.00" x2="165.10" y2="381.00"  style="stroke: black;stroke-width:1.00"/>
<text  x="165.10" y="395.00" text-anchor="middle"  font-weight="regular">20.0</text>
<line  x1="259.13" y1="376.00" x2="259.13" y2="381.00"  style="stroke: black;stroke-width:1.00"/>
<text  x="259.13" y="395.00" text-anchor="middle"  font-weight="regular">40.0</text>
<line  x1="353.16" y1="376.00" x2="353.16" y2="381.00"  style="stroke: black;stroke-width:1.00"/>
<text  x="353.16" y="395.00" text-anchor="middle"  font-weight="regular">60.0</text>
<line  x1="447.20" y1="376.00" x2="447.20" y2="381.00"  style="stroke: black;stroke-width:1.00"/>
<text  x="447.20" y="395.00" text-anchor="middle"  font-weight="regular">80.0</text>
<line  x1="541.23" y1="376.00" x2="541.23" y2="381.00"  style="stroke: black;stroke-width:1.00"/>
<text  x="541.23" y="395.00" text-anchor="middle"  font-weight="regular"><tspan>1.0e<tspan  font-size="10" dy="-5" dx="1">2</tspan></tspan></text>
<line  x1="46.50" y1="282.68" x2="51.50" y2="282.68"  style="stroke: black;stroke-width:1.00"/>
<text  x="42.50" y="286.68" text-anchor="end"  font-weight="regular">1.0</text>
<line  x1="46.50" y1="170.93" x2="51.50" y2="170.93"  style="stroke: black;stroke-width:1.00"/>
<text  x="42.50" y="174.93" text-anchor="end"  font-weight="regular">2.0</text>
<line  x1="46.50" y1="59.18" x2="51.50" y2="59.18"  style="stroke: black;stroke-width:1.00"/>
<text  x="42.50" y="63.18" text-anchor="end"  font-weight="regular">3.0</text>
<rect  x="454.50" y="35.00" width="100.00" height="36.00" style="fill:white; fill-opacity:0.50; stroke:#333; stroke-width:0.50;" />
<defs><clipPath id="leg-area"><rect x="494.50" y="35.00" width="58.00" height="36.00"/>
</clipPath></defs><line  x1="464.50" y1="46.00" x2="494.50" y2="46.00"  style="stroke: #db5f57;stroke-width:2.00"/>
<text clip-path="url(#leg-area)"  x="524.50" y="50.00" text-anchor="middle"  font-weight="regular">mpiric</text>
<line  x1="464.50" y1="61.00" x2="494.50" y2="61.00" stroke-dasharray="5, 5" style="stroke: #dbae57;stroke-width:2.00"/>
<text clip-path="url(#leg-area)"  x="524.50" y="65.00" text-anchor="middle"  font-weight="regular">libm</text>
</svg>

