<svg class="charter" xmlns="http://www.w3.org/2000/svg" version="1.1" width="100%" viewbox="0 0 600 400">
<defs><clipPath id="plot-area"><rect x="52.50" y="25.00" width="512.00" height="350.00"/>
</clipPath></defs><line clip-path="url(#plot-area)"  x1="71.07" y1="25.00" x2="71.07" y2="375.00"  style="stroke: #ccc;stroke-width:0.50"/>
<line clip-path="url(#plot-area)"  x1="165.10" y1="25.00" x2="165.10" y2="375.00"  style="stroke: #ccc;stroke-width:0.50"/>
<line clip-path="url(#plot-area)"  x1="259.13" y1="25.00" x2="259.13" y2="375.00"  style="stroke: #ccc;stroke-width:0.50"/>
<line clip-path="url(#plot-area)"  x1="353.16" y1="25.00" x2="353.16" y2="375.00"  style="stroke: #ccc;stroke-width:0.50"/>
<line clip-path="url(#plot-area)"  x1="447.20" y1="25.00" x2="447.20" y2="375.00"  style="stroke: #ccc;stroke-width:0.50"/>
<line clip-path="url(#plot-area)"  x1="541.23" y1="25.00" x2="541.23" y2="375.00"  style="stroke: #ccc;stroke-width:0.50"/>
<line clip-path="url(#plot-area)"  x1="52.50" y1="373.87" x2="564.50" y2="373.87"  style="stroke: #ccc;stroke-width:0.50"/>
<line clip-path="url(#plot-area)"  x1="52.50" y1="319.13" x2="564.50" y2="319.13"  style="stroke: #ccc;stroke-width:0.50"/>
<line clip-path="url(#plot-area)"  x1="52.50" y1="264.38" x2="564.50" y2="264.38"  style="stroke: #ccc;stroke-width:0.50"/>
<line clip-path="url(#plot-area)"  x1="52.50" y1="209.64" x2="564.50" y2="209.64"  style="stroke: #ccc;stroke-width:0.50"/>
<line clip-path="url(#plot-area)"  x1="52.50" y1="154.89" x2="564.50" y2="154.89"  style="stroke: #ccc;stroke-width:0.50"/>
<line clip-path="url(#plot-area)"  x1="52.50" y1="100.15" x2="564.50" y2="100.15"  style="stroke: #ccc;stroke-width:0.50"/>
<line clip-path="url(#plot-area)"  x1="52.50" y1="45.40" x2="564.50" y2="45.40"  style="stroke: #ccc;stroke-width:0.50"/>
<polyline clip-path="url(#plot-area)" style="fill:none; stroke:#db5f57; stroke-width:2.00;"  points="75.77,264.11 80.47,263.83 85.18,263.54 89.88,263.23 94.58,262.89 99.28,262.51 103.98,262.08 108.68,261.56 113.39,260.93 118.09,260.12 122.79,259.00 127.49,257.33 132.19,254.49 136.89,248.42 141.59,225.44 146.30,359.09 151.00,285.59 155.70,276.16 160.40,272.41 165.10,270.37 169.80,269.06 174.51,268.14 179.21,267.45 183.91,266.89 188.61,266.43 193.31,266.03 198.01,265.68 202.71,265.35 207.42,265.06 212.12,264.77 216.82,264.50 221.52,264.22 226.22,263.95 230.92,263.66 235.63,263.36 240.33,263.03 245.03,262.67 249.73,262.27 254.43,261.79 259.13,261.21 263.84,260.49 268.54,259.51 273.24,258.12 277.94,255.89 282.64,251.63 287.34,239.95 292.04,40.91 296.75,295.80 301.45,278.87 306.15,273.66 310.85,271.10 315.55,269.55 320.25,268.49 324.96,267.72 329.66,267.11 334.36,266.61 339.06,266.19 343.76,265.82 348.46,265.48 353.16,265.18 357.87,264.89 362.57,264.61 367.27,264.34 371.97,264.06 376.67,263.78 381.37,263.49 386.08,263.17 390.78,262.83 395.48,262.44 400.18,262.00 404.88,261.47 409.58,260.81 414.29,259.96 418.99,258.77 423.69,256.96 428.39,253.80 433.09,246.64 437.79,213.24 442.49,324.42 447.20,283.11 451.90,275.32 456.60,271.99 461.30,270.11 466.00,268.89 470.70,268.01 475.41,267.34 480.11,266.81 484.81,266.36 489.51,265.97 494.21,265.62 498.91,265.30 503.61,265.01 508.32,264.72 513.02,264.45 517.72,264.18 522.42,263.90 527.12,263.61 531.82,263.31 536.53,262.98 541.23,262.61 " /><polyline clip-path="url(#plot-area)" style="fill:none; stroke:#dbae57; stroke-width:2.00;" stroke-dasharray="5, 5" points="75.77,264.11 80.47,263.83 85.18,263.54 89.88,263.23 94.58,262.89 99.28,262.51 103.98,262.08 108.68,261.56 113.39,260.93 118.09,260.12 122.79,259.01 127.49,257.34 132.19,254.52 136.89,248.51 141.59,225.78 146.30,358.09 151.00,285.45 155.70,276.12 160.40,272.40 165.10,270.36 169.80,269.06 174.51,268.14 179.21,267.45 183.91,266.89 188.61,266.43 193.31,266.03 198.01,265.68 202.71,265.36 207.42,265.06 212.12,264.77 216.82,264.50 221.52,264.22 226.22,263.95 230.92,263.66 235.63,263.36 240.33,263.03 245.03,262.67 249.73,262.27 254.43,261.79 259.13,261.21 263.84,260.49 268.54,259.52 273.24,258.13 277.94,255.91 282.64,251.69 287.34,240.13 292.04,43.45 296.75,295.55 301.45,278.80 306.15,273.64 310.85,271.09 315.55,269.54 320.25,268.49 324.96,267.72 329.66,267.11 334.36,266.61 339.06,266.19 343.76,265.82 348.46,265.49 353.16,265.18 357.87,264.89 362.57,264.61 367.27,264.34 371.97,264.06 376.67,263.78 381.37,263.49 386.08,263.17 390.78,262.83 395.48,262.44 400.18,262.00 404.88,261.47 409.58,260.81 414.29,259.96 418.99,258.77 423.69,256.98 428.39,253.84 433.09,246.75 437.79,213.73 442.49,323.82 447.20,283.00 451.90,275.28 456.60,271.98 461.30,270.11 466.00,268.89 470.70,268.01 475.41,267.34 480.11,266.81 484.81,266.36 489.51,265.97 494.21,265.62 498.91,265.30 503.61,265.01 508.32,264.73 513.02,264.45 517.72,264.18 522.42,263.90 527.12,263.61 531.82,263.30 536.53,262.97 541.23,262.61 " /><rect  x="52.00" y="25.00" width="512.00" height="350.00" style="fill:none; fill-opacity:1.00; stroke:black; stroke-width:0.50;" />
<line  x1="71.07" y1="376.00" x2="71.07" y2="381.00"  style="stroke: black;stroke-width:1.00"/>
<text  x="71.07" y="395.00" text-anchor="middle"  font-weight="regular">0</text>
<line  x1="165.10" y1="376.00" x2="165.10" y2="381.00"  style="stroke: black;stroke-width:1.00"/>
<text  x="165.10" y="395.00" text-anchor="middle"  font-weight="regular">20.0</text>
<line  x1="259.13" y1="376.00" x2="259.13" y2="381.00"  style="stroke: black;stroke-width:1.00"/>
<text  x="259.13" y="395.00" text-anchor="middle"  font-weight="regular">40.0</text>
<line  x1="353.16" y1="376.00" x2="353.16" y2="381.00"  style="stroke: black;stroke-width:1.00"/>
<text  x="353.16" y="395.00" text-anchor="middle"  font-weight="regular">60.0</text>
<line  x1="447.20" y1="376.00" x2="447.20" y2="381.00"  style="stroke: black;stroke-width:1.00"/>
<text  x="447.20" y="395.00" text-anchor="middle"  font-weight="regular">80.0</text>
<line  x1="541.23" y1="376.00" x2="541.23" y2="381.00"  style="stroke: black;stroke-width:1.00"/>
<text  x="541.23" y="395.00" text-anchor="middle"  font-weight="regular"><tspan>1.0e<tspan  font-size="10" dy="-5" dx="1">2</tspan></tspan></text>
<line  x1="46.50" y1="373.87" x2="51.50" y2="373.87"  style="stroke: black;stroke-width:1.00"/>
<text  x="42.50" y="377.87" text-anchor="end"  font-weight="regular">-40.0</text>
<line  x1="46.50" y1="319.13" x2="51.50" y2="319.13"  style="stroke: black;stroke-width:1.00"/>
<text  x="42.50" y="323.13" text-anchor="end"  font-weight="regular">-20.0</text>
<line  x1="46.50" y1="264.38" x2="51.50" y2="264.38"  style="stroke: black;stroke-width:1.00"/>
<text  x="42.50" y="268.38" text-anchor="end"  font-weight="regular">0</text>
<line  x1="46.50" y1="209.64" x2="51.50" y2="209.64"  style="stroke: black;stroke-width:1.00"/>
<text  x="42.50" y="213.64" text-anchor="end"  font-weight="regular">20.0</text>
<line  x1="46.50" y1="154.89" x2="51.50" y2="154.89"  style="stroke: black;stroke-width:1.00"/>
<text  x="42.50" y="158.89" text-anchor="end"  font-weight="regular">40.0</text>
<line  x1="46.50" y1="100.15" x2="51.50" y2="100.15"  style="stroke: black;stroke-width:1.00"/>
<text  x="42.50" y="104.15" text-anchor="end"  font-weight="regular">60.0</text>
<line  x1="46.50" y1="45.40" x2="51.50" y2="45.40"  style="stroke: black;stroke-width:1.00"/>
<text  x="42.50" y="49.40" text-anchor="end"  font-weight="regular">80.0</text>
<rect  x="454.50" y="35.00" width="100.00" height="36.00" style="fill:white; fill-opacity:0.50; stroke:#333; stroke-width:0.50;" />
<defs><clipPath id="leg-area"><rect x="494.50" y="35.00" width="58.00" height="36.00"/>
</clipPath></defs><line  x1="464.50" y1="46.00" x2="494.50" y2="46.00"  style="stroke: #db5f57;stroke-width:2.00"/>
<text clip-path="url(#leg-area)"  x="524.50" y="50.00" text-anchor="middle"  font-weight="regular">mpiric</text>
<line  x1="464.50" y1="61.00" x2="494.50" y2="61.00" stroke-dasharray="5, 5" style="stroke: #dbae57;stroke-width:2.00"/>
<text clip-path="url(#leg-area)"  x="524.50" y="65.00" text-anchor="middle"  font-weight="regular">libm</text>
</svg>

