<svg class="charter" xmlns="http://www.w3.org/2000/svg" version="1.1" width="100%" viewbox="0 0 600 400">
<defs><clipPath id="plot-area"><rect x="52.50" y="25.00" width="512.00" height="350.00"/>
</clipPath></defs><line clip-path="url(#plot-area)"  x1="71.02" y1="25.00" x2="71.02" y2="375.00"  style="stroke: #ccc;stroke-width:0.50"/>
<line clip-path="url(#plot-area)"  x1="166.01" y1="25.00" x2="166.01" y2="375.00"  style="stroke: #ccc;stroke-width:0.50"/>
<line clip-path="url(#plot-area)"  x1="261.00" y1="25.00" x2="261.00" y2="375.00"  style="stroke: #ccc;stroke-width:0.50"/>
<line clip-path="url(#plot-area)"  x1="356.00" y1="25.00" x2="356.00" y2="375.00"  style="stroke: #ccc;stroke-width:0.50"/>
<line clip-path="url(#plot-area)"  x1="450.99" y1="25.00" x2="450.99" y2="375.00"  style="stroke: #ccc;stroke-width:0.50"/>
<line clip-path="url(#plot-area)"  x1="545.98" y1="25.00" x2="545.98" y2="375.00"  style="stroke: #ccc;stroke-width:0.50"/>
<line clip-path="url(#plot-area)"  x1="52.50" y1="323.23" x2="564.50" y2="323.23"  style="stroke: #ccc;stroke-width:0.50"/>
<line clip-path="url(#plot-area)"  x1="52.50" y1="252.65" x2="564.50" y2="252.65"  style="stroke: #ccc;stroke-width:0.50"/>
<line clip-path="url(#plot-area)"  x1="52.50" y1="182.07" x2="564.50" y2="182.07"  style="stroke: #ccc;stroke-width:0.50"/>
<line clip-path="url(#plot-area)"  x1="52.50" y1="111.49" x2="564.50" y2="111.49"  style="stroke: #ccc;stroke-width:0.50"/>
<line clip-path="url(#plot-area)"  x1="52.50" y1="40.91" x2="564.50" y2="40.91"  style="stroke: #ccc;stroke-width:0.50"/>
<polyline clip-path="url(#plot-area)" style="fill:none; stroke:#db5f57; stroke-width:2.00;"  points="75.77,359.09 80.52,324.08 85.27,290.60 90.02,260.08 94.77,230.91 99.52,203.99 104.27,180.58 109.02,159.72 113.77,140.96 118.52,124.87 123.27,111.47 128.02,99.67 132.77,89.60 137.52,81.40 142.27,74.46 147.02,68.53 151.77,63.66 156.51,59.73 161.26,56.37 166.01,53.57 170.76,51.35 175.51,49.49 180.26,47.92 185.01,46.66 189.76,45.65 194.51,44.78 199.26,44.07 204.01,43.51 208.76,43.04 213.51,42.65 218.26,42.34 223.01,42.08 227.76,41.87 232.51,41.69 237.26,41.55 242.01,41.44 246.76,41.34 251.51,41.26 256.26,41.20 261.00,41.15 265.75,41.10 270.50,41.07 275.25,41.04 280.00,41.02 284.75,41.00 289.50,40.98 294.25,40.97 299.00,40.96 303.75,40.95 308.50,40.94 313.25,40.94 318.00,40.93 322.75,40.93 327.50,40.92 332.25,40.92 337.00,40.92 341.75,40.92 346.50,40.92 351.25,40.91 356.00,40.91 360.74,40.91 365.49,40.91 370.24,40.91 374.99,40.91 379.74,40.91 384.49,40.91 389.24,40.91 393.99,40.91 398.74,40.91 403.49,40.91 408.24,40.91 412.99,40.91 417.74,40.91 422.49,40.91 427.24,40.91 431.99,40.91 436.74,40.91 441.49,40.91 446.24,40.91 450.99,40.91 455.74,40.91 460.49,40.91 465.23,40.91 469.98,40.91 474.73,40.91 479.48,40.91 484.23,40.91 488.98,40.91 493.73,40.91 498.48,40.91 503.23,40.91 507.98,40.91 512.73,40.91 517.48,40.91 522.23,40.91 526.98,40.91 531.73,40.91 536.48,40.91 541.23,40.91 " /><polyline clip-path="url(#plot-area)" style="fill:none; stroke:#dbae57; stroke-width:2.00;" stroke-dasharray="5, 5" points="75.77,358.64 80.52,324.16 85.27,291.01 90.02,259.73 94.77,230.73 99.52,204.28 104.27,180.53 109.02,159.47 113.77,141.03 118.52,125.04 123.27,111.31 128.02,99.61 132.77,89.71 137.52,81.37 142.27,74.38 147.02,68.55 151.77,63.70 156.51,59.68 161.26,56.35 166.01,53.60 170.76,51.34 175.51,49.47 180.26,47.93 185.01,46.67 189.76,45.63 194.51,44.78 199.26,44.08 204.01,43.51 208.76,43.04 213.51,42.65 218.26,42.34 223.01,42.08 227.76,41.87 232.51,41.69 237.26,41.55 242.01,41.44 246.76,41.34 251.51,41.26 256.26,41.20 261.00,41.15 265.75,41.10 270.50,41.07 275.25,41.04 280.00,41.02 284.75,41.00 289.50,40.98 294.25,40.97 299.00,40.96 303.75,40.95 308.50,40.94 313.25,40.94 318.00,40.93 322.75,40.93 327.50,40.92 332.25,40.92 337.00,40.92 341.75,40.92 346.50,40.92 351.25,40.91 356.00,40.91 360.74,40.91 365.49,40.91 370.24,40.91 374.99,40.91 379.74,40.91 384.49,40.91 389.24,40.91 393.99,40.91 398.74,40.91 403.49,40.91 408.24,40.91 412.99,40.91 417.74,40.91 422.49,40.91 427.24,40.91 431.99,40.91 436.74,40.91 441.49,40.91 446.24,40.91 450.99,40.91 455.74,40.91 460.49,40.91 465.23,40.91 469.98,40.91 474.73,40.91 479.48,40.91 484.23,40.91 488.98,40.91 493.73,40.91 498.48,40.91 503.23,40.91 507.98,40.91 512.73,40.91 517.48,40.91 522.23,40.91 526.98,40.91 531.73,40.91 536.48,40.91 541.23,40.91 " /><rect  x="52.00" y="25.00" width="512.00" height="350.00" style="fill:none; fill-opacity:1.00; stroke:black; stroke-width:0.50;" />
<line  x1="71.02" y1="376.00" x2="71.02" y2="381.00"  style="stroke: black;stroke-width:1.00"/>
<text  x="71.02" y="395.00" text-anchor="middle"  font-weight="regular">0</text>
<line  x1="166.01" y1="376.00" x2="166.01" y2="381.00"  style="stroke: black;stroke-width:1.00"/>
<text  x="166.01" y="395.00" text-anchor="middle"  font-weight="regular">20.0</text>
<line  x1="261.00" y1="376.00" x2="261.00" y2="381.00"  style="stroke: black;stroke-width:1.00"/>
<text  x="261.00" y="395.00" text-anchor="middle"  font-weight="regular">40.0</text>
<line  x1="356.00" y1="376.00" x2="356.00" y2="381.00"  style="stroke: black;stroke-width:1.00"/>
<text  x="356.00" y="395.00" text-anchor="middle"  font-weight="regular">60.0</text>
<line  x1="450.99" y1="376.00" x2="450.99" y2="381.00"  style="stroke: black;stroke-width:1.00"/>
<text  x="450.99" y="395.00" text-anchor="middle"  font-weight="regular">80.0</text>
<line  x1="545.98" y1="376.00" x2="545.98" y2="381.00"  style="stroke: black;stroke-width:1.00"/>
<text  x="545.98" y="395.00" text-anchor="middle"  font-weight="regular"><tspan>1.0e<tspan  font-size="10" dy="-5" dx="1">2</tspan></tspan></text>
<line  x1="46.50" y1="323.23" x2="51.50" y2="323.23"  style="stroke: black;stroke-width:1.00"/>
<text  x="42.50" y="327.23" text-anchor="end"  font-weight="regular">0.2</text>
<line  x1="46.50" y1="252.65" x2="51.50" y2="252.65"  style="stroke: black;stroke-width:1.00"/>
<text  x="42.50" y="256.65" text-anchor="end"  font-weight="regular">0.4</text>
<line  x1="46.50" y1="182.07" x2="51.50" y2="182.07"  style="stroke: black;stroke-width:1.00"/>
<text  x="42.50" y="186.07" text-anchor="end"  font-weight="regular">0.6</text>
<line  x1="46.50" y1="111.49" x2="51.50" y2="111.49"  style="stroke: black;stroke-width:1.00"/>
<text  x="42.50" y="115.49" text-anchor="end"  font-weight="regular">0.8</text>
<line  x1="46.50" y1="40.91" x2="51.50" y2="40.91"  style="stroke: black;stroke-width:1.00"/>
<text  x="42.50" y="44.91" text-anchor="end"  font-weight="regular">1.0</text>
<rect  x="454.50" y="35.00" width="100.00" height="36.00" style="fill:white; fill-opacity:0.50; stroke:#333; stroke-width:0.50;" />
<defs><clipPath id="leg-area"><rect x="494.50" y="35.00" width="58.00" height="36.00"/>
</clipPath></defs><line  x1="464.50" y1="46.00" x2="494.50" y2="46.00"  style="stroke: #db5f57;stroke-width:2.00"/>
<text clip-path="url(#leg-area)"  x="524.50" y="50.00" text-anchor="middle"  font-weight="regular">mpiric</text>
<line  x1="464.50" y1="61.00" x2="494.50" y2="61.00" stroke-dasharray="5, 5" style="stroke: #dbae57;stroke-width:2.00"/>
<text clip-path="url(#leg-area)"  x="524.50" y="65.00" text-anchor="middle"  font-weight="regular">libm</text>
</svg>

