<svg class="charter" xmlns="http://www.w3.org/2000/svg" version="1.1" width="100%" viewbox="0 0 600 400">
<defs><clipPath id="plot-area"><rect x="52.50" y="25.00" width="512.00" height="350.00"/>
</clipPath></defs><line clip-path="url(#plot-area)"  x1="71.07" y1="25.00" x2="71.07" y2="375.00"  style="stroke: #ccc;stroke-width:0.50"/>
<line clip-path="url(#plot-area)"  x1="165.10" y1="25.00" x2="165.10" y2="375.00"  style="stroke: #ccc;stroke-width:0.50"/>
<line clip-path="url(#plot-area)"  x1="259.13" y1="25.00" x2="259.13" y2="375.00"  style="stroke: #ccc;stroke-width:0.50"/>
<line clip-path="url(#plot-area)"  x1="353.16" y1="25.00" x2="353.16" y2="375.00"  style="stroke: #ccc;stroke-width:0.50"/>
<line clip-path="url(#plot-area)"  x1="447.20" y1="25.00" x2="447.20" y2="375.00"  style="stroke: #ccc;stroke-width:0.50"/>
<line clip-path="url(#plot-area)"  x1="541.23" y1="25.00" x2="541.23" y2="375.00"  style="stroke: #ccc;stroke-width:0.50"/>
<line clip-path="url(#plot-area)"  x1="52.50" y1="359.09" x2="564.50" y2="359.09"  style="stroke: #ccc;stroke-width:0.50"/>
<line clip-path="url(#plot-area)"  x1="52.50" y1="288.38" x2="564.50" y2="288.38"  style="stroke: #ccc;stroke-width:0.50"/>
<line clip-path="url(#plot-area)"  x1="52.50" y1="217.68" x2="564.50" y2="217.68"  style="stroke: #ccc;stroke-width:0.50"/>
<line clip-path="url(#plot-area)"  x1="52.50" y1="146.97" x2="564.50" y2="146.97"  style="stroke: #ccc;stroke-width:0.50"/>
<line clip-path="url(#plot-area)"  x1="52.50" y1="76.26" x2="564.50" y2="76.26"  style="stroke: #ccc;stroke-width:0.50"/>
<polyline clip-path="url(#plot-area)" style="fill:none; stroke:#db5f57; stroke-width:2.00;"  points="75.77,359.09 80.47,359.09 85.18,359.09 89.88,359.09 94.58,359.09 99.28,359.09 103.98,359.09 108.68,359.09 113.39,359.09 118.09,359.09 122.79,323.74 127.49,323.74 132.19,323.74 136.89,323.74 141.59,323.74 146.30,323.74 151.00,323.74 155.70,323.74 160.40,323.74 165.10,288.38 169.80,288.38 174.51,288.38 179.21,288.38 183.91,288.38 188.61,288.38 193.31,288.38 198.01,288.38 202.71,288.38 207.42,288.38 212.12,253.03 216.82,253.03 221.52,253.03 226.22,253.03 230.92,253.03 235.63,253.03 240.33,253.03 245.03,253.03 249.73,253.03 254.43,253.03 259.13,217.68 263.84,217.68 268.54,217.68 273.24,217.68 277.94,217.68 282.64,217.68 287.34,217.68 292.04,217.68 296.75,217.68 301.45,217.68 306.15,217.68 310.85,182.32 315.55,182.32 320.25,182.32 324.96,182.32 329.66,182.32 334.36,182.32 339.06,182.32 343.76,182.32 348.46,182.32 353.16,182.32 357.87,146.97 362.57,146.97 367.27,146.97 371.97,146.97 376.67,146.97 381.37,146.97 386.08,146.97 390.78,146.97 395.48,146.97 400.18,146.97 404.88,111.62 409.58,111.62 414.29,111.62 418.99,111.62 423.69,111.62 428.39,111.62 433.09,111.62 437.79,111.62 442.49,111.62 447.20,111.62 451.90,76.26 456.60,76.26 461.30,76.26 466.00,76.26 470.70,76.26 475.41,76.26 480.11,76.26 484.81,76.26 489.51,76.26 494.21,76.26 498.91,40.91 503.61,40.91 508.32,40.91 513.02,40.91 517.72,40.91 522.42,40.91 527.12,40.91 531.82,40.91 536.53,40.91 541.23,40.91 " /><polyline clip-path="url(#plot-area)" style="fill:none; stroke:#dbae57; stroke-width:2.00;" stroke-dasharray="5, 5" points="75.77,359.09 80.47,359.09 85.18,359.09 89.88,359.09 94.58,359.09 99.28,359.09 103.98,359.09 108.68,359.09 113.39,359.09 118.09,359.09 122.79,323.74 127.49,323.74 132.19,323.74 136.89,323.74 141.59,323.74 146.30,323.74 151.00,323.74 155.70,323.74 160.40,323.74 165.10,288.38 169.80,288.38 174.51,288.38 179.21,288.38 183.91,288.38 188.61,288.38 193.31,288.38 198.01,288.38 202.71,288.38 207.42,288.38 212.12,253.03 216.82,253.03 221.52,253.03 226.22,253.03 230.92,253.03 235.63,253.03 240.33,253.03 245.03,253.03 249.73,253.03 254.43,253.03 259.13,217.68 263.84,217.68 268.54,217.68 273.24,217.68 277.94,217.68 282.64,217.68 287.34,217.68 292.04,217.68 296.75,217.68 301.45,217.68 306.15,217.68 310.85,182.32 315.55,182.32 320.25,182.32 324.96,182.32 329.66,182.32 334.36,182.32 339.06,182.32 343.76,182.32 348.46,182.32 353.16,182.32 357.87,146.97 362.57,146.97 367.27,146.97 371.97,146.97 376.67,146.97 381.37,146.97 386.08,146.97 390.78,146.97 395.48,146.97 400.18,146.97 404.88,111.62 409.58,111.62 414.29,111.62 418.99,111.62 423.69,111.62 428.39,111.62 433.09,111.62 437.79,111.62 442.49,111.62 447.20,111.62 451.90,76.26 456.60,76.26 461.30,76.26 466.00,76.26 470.70,76.26 475.41,76.26 480.11,76.26 484.81,76.26 489.51,76.26 494.21,76.26 498.91,40.91 503.61,40.91 508.32,40.91 513.02,40.91 517.72,40.91 522.42,40.91 527.12,40.91 531.82,40.91 536.53,40.91 541.23,40.91 " /><rect  x="52.00" y="25.00" width="512.00" height="350.00" style="fill:none; fill-opacity:1.00; stroke:black; stroke-width:0.50;" />
<line  x1="71.07" y1="376.00" x2="71.07" y2="381.00"  style="stroke: black;stroke-width:1.00"/>
<text  x="71.07" y="395.00" text-anchor="middle"  font-weight="regular">0</text>
<line  x1="165.10" y1="376.00" x2="165.10" y2="381.00"  style="stroke: black;stroke-width:1.00"/>
<text  x="165.10" y="395.00" text-anchor="middle"  font-weight="regular">20.0</text>
<line  x1="259.13" y1="376.00" x2="259.13" y2="381.00"  style="stroke: black;stroke-width:1.00"/>
<text  x="259.13" y="395.00" text-anchor="middle"  font-weight="regular">40.0</text>
<line  x1="353.16" y1="376.00" x2="353.16" y2="381.00"  style="stroke: black;stroke-width:1.00"/>
<text  x="353.16" y="395.00" text-anchor="middle"  font-weight="regular">60.0</text>
<line  x1="447.20" y1="376.00" x2="447.20" y2="381.00"  style="stroke: black;stroke-width:1.00"/>
<text  x="447.20" y="395.00" text-anchor="middle"  font-weight="regular">80.0</text>
<line  x1="541.23" y1="376.00" x2="541.23" y2="381.00"  style="stroke: black;stroke-width:1.00"/>
<text  x="541.23" y="395.00" text-anchor="middle"  font-weight="regular"><tspan>1.0e<tspan  font-size="10" dy="-5" dx="1">2</tspan></tspan></text>
<line  x1="46.50" y1="359.09" x2="51.50" y2="359.09"  style="stroke: black;stroke-width:1.00"/>
<text  x="42.50" y="363.09" text-anchor="end"  font-weight="regular">0</text>
<line  x1="46.50" y1="288.38" x2="51.50" y2="288.38"  style="stroke: black;stroke-width:1.00"/>
<text  x="42.50" y="292.38" text-anchor="end"  font-weight="regular">2.0</text>
<line  x1="46.50" y1="217.68" x2="51.50" y2="217.68"  style="stroke: black;stroke-width:1.00"/>
<text  x="42.50" y="221.68" text-anchor="end"  font-weight="regular">4.0</text>
<line  x1="46.50" y1="146.97" x2="51.50" y2="146.97"  style="stroke: black;stroke-width:1.00"/>
<text  x="42.50" y="150.97" text-anchor="end"  font-weight="regular">6.0</text>
<line  x1="46.50" y1="76.26" x2="51.50" y2="76.26"  style="stroke: black;stroke-width:1.00"/>
<text  x="42.50" y="80.26" text-anchor="end"  font-weight="regular">8.0</text>
<rect  x="454.50" y="35.00" width="100.00" height="36.00" style="fill:white; fill-opacity:0.50; stroke:#333; stroke-width:0.50;" />
<defs><clipPath id="leg-area"><rect x="494.50" y="35.00" width="58.00" height="36.00"/>
</clipPath></defs><line  x1="464.50" y1="46.00" x2="494.50" y2="46.00"  style="stroke: #db5f57;stroke-width:2.00"/>
<text clip-path="url(#leg-area)"  x="524.50" y="50.00" text-anchor="middle"  font-weight="regular">mpiric</text>
<line  x1="464.50" y1="61.00" x2="494.50" y2="61.00" stroke-dasharray="5, 5" style="stroke: #dbae57;stroke-width:2.00"/>
<text clip-path="url(#leg-area)"  x="524.50" y="65.00" text-anchor="middle"  font-weight="regular">libm</text>
</svg>

<svg class="charter" xmlns="http://www.w3.org/2000/svg" version="1.1" width="100%" viewbox="0 0 600 400">
<defs><clipPath id="plot-area"><rect x="52.50" y="25.00" width="512.00" height="350.00"/>
</clipPath></defs><line clip-path="url(#plot-area)"  x1="71.07" y1="25.00" x2="71.07" y2="375.00"  style="stroke: #ccc;stroke-width:0.50"/>
<line clip-path="url(#plot-area)"  x1="165.10" y1="25.00" x2="165.10" y2="375.00"  style="stroke: #ccc;stroke-width:0.50"/>
<line clip-path="url(#plot-area)"  x1="259.13" y1="25.00" x2="259.13" y2="375.00"  style="stroke: #ccc;stroke-width:0.50"/>
<line clip-path="url(#plot-area)"  x1="353.16" y1="25.00" x2="353.16" y2="375.00"  style="stroke: #ccc;stroke-width:0.50"/>
<line clip-path="url(#plot-area)"  x1="447.20" y1="25.00" x2="447.20" y2="375.00"  style="stroke: #ccc;stroke-width:0.50"/>
<line clip-path="url(#plot-area)"  x1="541.23" y1="25.00" x2="541.23" y2="375.00"  style="stroke: #ccc;stroke-width:0.50"/>
<line clip-path="url(#plot-area)"  x1="52.50" y1="374.24" x2="564.50" y2="374.24"  style="stroke: #ccc;stroke-width:0.50"/>
<line clip-path="url(#plot-area)"  x1="52.50" y1="313.64" x2="564.50" y2="313.64"  style="stroke: #ccc;stroke-width:0.50"/>
<line clip-path="url(#plot-area)"  x1="52.50" y1="253.03" x2="564.50" y2="253.03"  style="stroke: #ccc;stroke-width:0.50"/>
<line clip-path="url(#plot-area)"  x1="52.50" y1="192.42" x2="564.50" y2="192.42"  style="stroke: #ccc;stroke-width:0.50"/>
<line clip-path="url(#plot-area)"  x1="52.50" y1="131.82" x2="564.50" y2="131.82"  style="stroke: #ccc;stroke-width:0.50"/>
<line clip-path="url(#plot-area)"  x1="52.50" y1="71.21" x2="564.50" y2="71.21"  style="stroke: #ccc;stroke-width:0.50"/>
<polyline clip-path="url(#plot-area)" style="fill:none; stroke:#db5f57; stroke-width:2.00;"  points="75.77,313.64 80.47,313.64 85.18,313.64 89.88,313.64 94.58,313.64 99.28,313.64 103.98,313.64 108.68,313.64 113.39,313.64 118.09,313.64 122.79,283.33 127.49,283.33 132.19,283.33 136.89,283.33 141.59,283.33 146.30,283.33 151.00,283.33 155.70,283.33 160.40,283.33 165.10,253.03 169.80,253.03 174.51,253.03 179.21,253.03 183.91,253.03 188.61,253.03 193.31,253.03 198.01,253.03 202.71,253.03 207.42,253.03 212.12,222.73 216.82,222.73 221.52,222.73 226.22,222.73 230.92,222.73 235.63,222.73 240.33,222.73 245.03,222.73 249.73,222.73 254.43,222.73 259.13,192.42 263.84,192.42 268.54,192.42 273.24,192.42 277.94,192.42 282.64,192.42 287.34,192.42 292.04,192.42 296.75,192.42 301.45,192.42 306.15,192.42 310.85,162.12 315.55,162.12 320.25,162.12 324.96,162.12 329.66,162.12 334.36,162.12 339.06,162.12 343.76,162.12 348.46,162.12 353.16,162.12 357.87,131.82 362.57,131.82 367.27,131.82 371.97,131.82 376.67,131.82 381.37,131.82 386.08,131.82 390.78,131.82 395.48,131.82 400.18,131.82 404.88,101.52 409.58,101.52 414.29,101.52 418.99,101.52 423.69,101.52 428.39,101.52 433.09,101.52 437.79,101.52 442.49,101.52 447.20,101.52 451.90,71.21 456.60,71.21 461.30,71.21 466.00,71.21 470.70,71.21 475.41,71.21 480.11,71.21 484.81,71.21 489.51,71.21 494.21,71.21 498.91,40.91 503.61,40.91 508.32,40.91 513.02,40.91 517.72,40.91 522.42,40.91 527.12,40.91 531.82,40.91 536.53,40.91 541.23,40.91 " /><polyline clip-path="url(#plot-area)" style="fill:none; stroke:#dbae57; stroke-width:2.00;" stroke-dasharray="5, 5" points="75.77,313.64 80.47,313.64 85.18,313.64 89.88,313.64 94.58,313.64 99.28,313.64 103.98,313.64 108.68,313.64 113.39,313.64 118.09,313.64 122.79,283.33 127.49,283.33 132.19,283.33 136.89,283.33 141.59,283.33 146.30,283.33 151.00,283.33 155.70,283.33 160.40,283.33 165.10,253.03 169.80,253.03 174.51,253.03 179.21,253.03 183.91,253.03 188.61,253.03 193.31,253.03 198.01,253.03 202.71,253.03 207.42,253.03 212.12,222.73 216.82,222.73 221.52,222.73 226.22,222.73 230.92,222.73 235.63,222.73 240.33,222.73 245.03,222.73 249.73,222.73 254.43,222.73 259.13,192.42 263.84,192.42 268.54,192.42 273.24,192.42 277.94,192.42 282.64,192.42 287.34,192.42 292.04,192.42 296.75,192.42 301.45,192.42 306.15,192.42 310.85,162.12 315.55,162.12 320.25,162.12 324.96,162.12 329.66,162.12 334.36,162.12 339.06,162.12 343.76,162.12 348.46,162.12 353.16,162.12 357.87,131.82 362.57,131.82 367.27,131.82 371.97,131.82 376.67,131.82 381.37,131.82 386.08,131.82 390.78,131.82 395.48,131.82 400.18,131.82 404.88,101.52 409.58,101.52 414.29,101.52 418.99,101.52 423.69,101.52 428.39,101.52 433.09,101.52 437.79,101.52 442.49,101.52 447.20,101.52 451.90,71.21 456.60,71.21 461.30,71.21 466.00,71.21 470.70,71.21 475.41,71.21 480.11,71.21 484.81,71.21 489.51,71.21 494.21,71.21 498.91,40.91 503.61,40.91 508.32,40.91 513.02,40.91 517.72,40.91 522.42,40.91 527.12,40.91 531.82,40.91 536.53,40.91 541.23,40.91 " /><polyline clip-path="url(#plot-area)" style="fill:none; stroke:#b9db57; stroke-width:2.00;"  points="75.77,310.61 80.47,307.58 85.18,304.55 89.88,301.52 94.58,298.48 99.28,295.45 103.98,292.42 108.68,289.39 113.39,286.36 118.09,283.33 122.79,310.61 127.49,307.58 132.19,304.55 136.89,301.52 141.59,298.48 146.30,295.45 151.00,292.42 155.70,289.39 160.40,286.36 165.10,313.64 169.80,310.61 174.51,307.58 179.21,304.55 183.91,301.52 188.61,298.48 193.31,295.45 198.01,292.42 202.71,289.39 207.42,286.36 212.12,313.64 216.82,310.61 221.52,307.58 226.22,304.55 230.92,301.52 235.63,298.48 240.33,295.45 245.03,292.42 249.73,289.39 254.43,286.36 259.13,313.64 263.84,310.61 268.54,307.58 273.24,304.55 277.94,301.52 282.64,298.48 287.34,295.45 292.04,292.42 296.75,289.39 301.45,286.36 306.15,283.33 310.85,310.61 315.55,307.58 320.25,304.55 324.96,301.52 329.66,298.48 334.36,295.45 339.06,292.42 343.76,289.39 348.46,286.36 353.16,283.33 357.87,310.61 362.57,307.58 367.27,304.55 371.97,301.52 376.67,298.48 381.37,295.45 386.08,292.42 390.78,289.39 395.48,286.36 400.18,283.33 404.88,310.61 409.58,307.58 414.29,304.55 418.99,301.52 423.69,298.48 428.39,295.45 433.09,292.42 437.79,289.39 442.49,286.36 447.20,283.33 451.90,310.61 456.60,307.58 461.30,304.55 466.00,301.52 470.70,298.48 475.41,295.45 480.11,292.42 484.81,289.39 489.51,286.36 494.21,283.33 498.91,310.61 503.61,307.58 508.32,304.55 513.02,301.52 517.72,298.48 522.42,295.45 527.12,292.42 531.82,289.39 536.53,286.36 541.23,283.33 " /><polyline clip-path="url(#plot-area)" style="fill:none; stroke:#69db57; stroke-width:2.00;" stroke-dasharray="5, 5" points="75.77,310.61 80.47,307.58 85.18,304.55 89.88,301.52 94.58,298.48 99.28,325.76 103.98,322.73 108.68,319.70 113.39,316.67 118.09,313.64 122.79,310.61 127.49,307.58 132.19,304.55 136.89,301.52 141.59,328.79 146.30,325.76 151.00,322.73 155.70,319.70 160.40,316.67 165.10,313.64 169.80,310.61 174.51,307.58 179.21,304.55 183.91,301.52 188.61,328.79 193.31,325.76 198.01,322.73 202.71,319.70 207.42,316.67 212.12,313.64 216.82,310.61 221.52,307.58 226.22,304.55 230.92,301.52 235.63,328.79 240.33,325.76 245.03,322.73 249.73,319.70 254.43,316.67 259.13,313.64 263.84,310.61 268.54,307.58 273.24,304.55 277.94,301.52 282.64,298.48 287.34,325.76 292.04,322.73 296.75,319.70 301.45,316.67 306.15,313.64 310.85,310.61 315.55,307.58 320.25,304.55 324.96,301.52 329.66,298.48 334.36,325.76 339.06,322.73 343.76,319.70 348.46,316.67 353.16,313.64 357.87,310.61 362.57,307.58 367.27,304.55 371.97,301.52 376.67,298.48 381.37,325.76 386.08,322.73 390.78,319.70 395.48,316.67 400.18,313.64 404.88,310.61 409.58,307.58 414.29,304.55 418.99,301.52 423.69,298.48 428.39,325.76 433.09,322.73 437.79,319.70 442.49,316.67 447.20,313.64 451.90,310.61 456.60,307.58 461.30,304.55 466.00,301.52 470.70,298.48 475.41,325.76 480.11,322.73 484.81,319.70 489.51,316.67 494.21,313.64 498.91,310.61 503.61,307.58 508.32,304.55 513.02,301.52 517.72,298.48 522.42,325.76 527.12,322.73 531.82,319.70 536.53,316.67 541.23,313.64 " /><polyline clip-path="url(#plot-area)" style="fill:none; stroke:#57db94; stroke-width:2.00;"  points="75.77,310.61 80.47,307.58 85.18,304.55 89.88,301.52 94.58,298.48 99.28,295.45 103.98,292.42 108.68,289.39 113.39,286.36 118.09,283.33 122.79,280.30 127.49,277.27 132.19,274.24 136.89,271.21 141.59,268.18 146.30,265.15 151.00,262.12 155.70,259.09 160.40,256.06 165.10,313.64 169.80,310.61 174.51,307.58 179.21,304.55 183.91,301.52 188.61,298.48 193.31,295.45 198.01,292.42 202.71,289.39 207.42,286.36 212.12,283.33 216.82,280.30 221.52,277.27 226.22,274.24 230.92,271.21 235.63,268.18 240.33,265.15 245.03,262.12 249.73,259.09 254.43,256.06 259.13,313.64 263.84,310.61 268.54,307.58 273.24,304.55 277.94,301.52 282.64,298.48 287.34,295.45 292.04,292.42 296.75,289.39 301.45,286.36 306.15,283.33 310.85,280.30 315.55,277.27 320.25,274.24 324.96,271.21 329.66,268.18 334.36,265.15 339.06,262.12 343.76,259.09 348.46,256.06 353.16,253.03 357.87,310.61 362.57,307.58 367.27,304.55 371.97,301.52 376.67,298.48 381.37,295.45 386.08,292.42 390.78,289.39 395.48,286.36 400.18,283.33 404.88,280.30 409.58,277.27 414.29,274.24 418.99,271.21 423.69,268.18 428.39,265.15 433.09,262.12 437.79,259.09 442.49,256.06 447.20,253.03 451.90,310.61 456.60,307.58 461.30,304.55 466.00,301.52 470.70,298.48 475.41,295.45 480.11,292.42 484.81,289.39 489.51,286.36 494.21,283.33 498.91,280.30 503.61,277.27 508.32,274.24 513.02,271.21 517.72,268.18 522.42,265.15 527.12,262.12 531.82,259.09 536.53,256.06 541.23,253.03 " /><polyline clip-path="url(#plot-area)" style="fill:none; stroke:#57d3db; stroke-width:2.00;" stroke-dasharray="5, 5" points="75.77,310.61 80.47,307.58 85.18,304.55 89.88,301.52 94.58,298.48 99.28,295.45 103.98,292.42 108.68,289.39 113.39,286.36 118.09,283.33 122.79,340.91 127.49,337.88 132.19,334.85 136.89,331.82 141.59,328.79 146.30,325.76 151.00,322.73 155.70,319.70 160.40,316.67 165.10,313.64 169.80,310.61 174.51,307.58 179.21,304.55 183.91,301.52 188.61,298.48 193.31,295.45 198.01,292.42 202.71,289.39 207.42,286.36 212.12,343.94 216.82,340.91 221.52,337.88 226.22,334.85 230.92,331.82 235.63,328.79 240.33,325.76 245.03,322.73 249.73,319.70 254.43,316.67 259.13,313.64 263.84,310.61 268.54,307.58 273.24,304.55 277.94,301.52 282.64,298.48 287.34,295.45 292.04,292.42 296.75,289.39 301.45,286.36 306.15,283.33 310.85,340.91 315.55,337.88 320.25,334.85 324.96,331.82 329.66,328.79 334.36,325.76 339.06,322.73 343.76,319.70 348.46,316.67 353.16,313.64 357.87,310.61 362.57,307.58 367.27,304.55 371.97,301.52 376.67,298.48 381.37,295.45 386.08,292.42 390.78,289.39 395.48,286.36 400.18,283.33 404.88,340.91 409.58,337.88 414.29,334.85 418.99,331.82 423.69,328.79 428.39,325.76 433.09,322.73 437.79,319.70 442.49,316.67 447.20,313.64 451.90,310.61 456.60,307.58 461.30,304.55 466.00,301.52 470.70,298.48 475.41,295.45 480.11,292.42 484.81,289.39 489.51,286.36 494.21,283.33 498.91,340.91 503.61,337.88 508.32,334.85 513.02,331.82 517.72,328.79 522.42,325.76 527.12,322.73 531.82,319.70 536.53,316.67 541.23,313.64 " /><polyline clip-path="url(#plot-area)" style="fill:none; stroke:#5784db; stroke-width:2.00;"  points="75.77,310.61 80.47,307.58 85.18,304.55 89.88,301.52 94.58,298.48 99.28,295.45 103.98,292.42 108.68,289.39 113.39,286.36 118.09,283.33 122.79,280.30 127.49,277.27 132.19,274.24 136.89,271.21 141.59,268.18 146.30,265.15 151.00,262.12 155.70,259.09 160.40,256.06 165.10,253.03 169.80,250.00 174.51,246.97 179.21,243.94 183.91,240.91 188.61,237.88 193.31,234.85 198.01,231.82 202.71,228.79 207.42,225.76 212.12,313.64 216.82,310.61 221.52,307.58 226.22,304.55 230.92,301.52 235.63,298.48 240.33,295.45 245.03,292.42 249.73,289.39 254.43,286.36 259.13,283.33 263.84,280.30 268.54,277.27 273.24,274.24 277.94,271.21 282.64,268.18 287.34,265.15 292.04,262.12 296.75,259.09 301.45,256.06 306.15,253.03 310.85,250.00 315.55,246.97 320.25,243.94 324.96,240.91 329.66,237.88 334.36,234.85 339.06,231.82 343.76,228.79 348.46,225.76 353.16,222.73 357.87,310.61 362.57,307.58 367.27,304.55 371.97,301.52 376.67,298.48 381.37,295.45 386.08,292.42 390.78,289.39 395.48,286.36 400.18,283.33 404.88,280.30 409.58,277.27 414.29,274.24 418.99,271.21 423.69,268.18 428.39,265.15 433.09,262.12 437.79,259.09 442.49,256.06 447.20,253.03 451.90,250.00 456.60,246.97 461.30,243.94 466.00,240.91 470.70,237.88 475.41,234.85 480.11,231.82 484.81,228.79 489.51,225.76 494.21,222.73 498.91,310.61 503.61,307.58 508.32,304.55 513.02,301.52 517.72,298.48 522.42,295.45 527.12,292.42 531.82,289.39 536.53,286.36 541.23,283.33 " /><polyline clip-path="url(#plot-area)" style="fill:none; stroke:#7957db; stroke-width:2.00;" stroke-dasharray="5, 5" points="75.77,310.61 80.47,307.58 85.18,304.55 89.88,301.52 94.58,298.48 99.28,295.45 103.98,292.42 108.68,289.39 113.39,286.36 118.09,283.33 122.79,280.30 127.49,277.27 132.19,274.24 136.89,271.21 141.59,359.09 146.30,356.06 151.00,353.03 155.70,350.00 160.40,346.97 165.10,343.94 169.80,340.91 174.51,337.88 179.21,334.85 183.91,331.82 188.61,328.79 193.31,325.76 198.01,322.73 202.71,319.70 207.42,316.67 212.12,313.64 216.82,310.61 221.52,307.58 226.22,304.55 230.92,301.52 235.63,298.48 240.33,295.45 245.03,292.42 249.73,289.39 254.43,286.36 259.13,283.33 263.84,280.30 268.54,277.27 273.24,274.24 277.94,271.21 282.64,359.09 287.34,356.06 292.04,353.03 296.75,350.00 301.45,346.97 306.15,343.94 310.85,340.91 315.55,337.88 320.25,334.85 324.96,331.82 329.66,328.79 334.36,325.76 339.06,322.73 343.76,319.70 348.46,316.67 353.16,313.64 357.87,310.61 362.57,307.58 367.27,304.55 371.97,301.52 376.67,298.48 381.37,295.45 386.08,292.42 390.78,289.39 395.48,286.36 400.18,283.33 404.88,280.30 409.58,277.27 414.29,274.24 418.99,271.21 423.69,268.18 428.39,356.06 433.09,353.03 437.79,350.00 442.49,346.97 447.20,343.94 451.90,340.91 456.60,337.88 461.30,334.85 466.00,331.82 470.70,328.79 475.41,325.76 480.11,322.73 484.81,319.70 489.51,316.67 494.21,313.64 498.91,310.61 503.61,307.58 508.32,304.55 513.02,301.52 517.72,298.48 522.42,295.45 527.12,292.42 531.82,289.39 536.53,286.36 541.23,283.33 " /><rect  x="52.00" y="25.00" width="512.00" height="350.00" style="fill:none; fill-opacity:1.00; stroke:black; stroke-width:0.50;" />
<line  x1="71.07" y1="376.00" x2="71.07" y2="381.00"  style="stroke: black;stroke-width:1.00"/>
<text  x="71.07" y="395.00" text-anchor="middle"  font-weight="regular">0</text>
<line  x1="165.10" y1="376.00" x2="165.10" y2="381.00"  style="stroke: black;stroke-width:1.00"/>
<text  x="165.10" y="395.00" text-anchor="middle"  font-weight="regular">20.0</text>
<line  x1="259.13" y1="376.00" x2="259.13" y2="381.00"  style="stroke: black;stroke-width:1.00"/>
<text  x="259.13" y="395.00" text-anchor="middle"  font-weight="regular">40.0</text>
<line  x1="353.16" y1="376.00" x2="353.16" y2="381.00"  style="stroke: black;stroke-width:1.00"/>
<text  x="353.16" y="395.00" text-anchor="middle"  font-weight="regular">60.0</text>
<line  x1="447.20" y1="376.00" x2="447.20" y2="381.00"  style="stroke: black;stroke-width:1.00"/>
<text  x="447.20" y="395.00" text-anchor="middle"  font-weight="regular">80.0</text>
<line  x1="541.23" y1="376.00" x2="541.23" y2="381.00"  style="stroke: black;stroke-width:1.00"/>
<text  x="541.23" y="395.00" text-anchor="middle"  font-weight="regular"><tspan>1.0e<tspan  font-size="10" dy="-5" dx="1">2</tspan></tspan></text>
<line  x1="46.50" y1="374.24" x2="51.50" y2="374.24"  style="stroke: black;stroke-width:1.00"/>
<text  x="42.50" y="378.24" text-anchor="end"  font-weight="regular">-2.0</text>
<line  x1="46.50" y1="313.64" x2="51.50" y2="313.64"  style="stroke: black;stroke-width:1.00"/>
<text  x="42.50" y="317.64" text-anchor="end"  font-weight="regular">0</text>
<line  x1="46.50" y1="253.03" x2="51.50" y2="253.03"  style="stroke: black;stroke-width:1.00"/>
<text  x="42.50" y="257.03" text-anchor="end"  font-weight="regular">2.0</text>
<line  x1="46.50" y1="192.42" x2="51.50" y2="192.42"  style="stroke: black;stroke-width:1.00"/>
<text  x="42.50" y="196.42" text-anchor="end"  font-weight="regular">4.0</text>
<line  x1="46.50" y1="131.82" x2="51.50" y2="131.82"  style="stroke: black;stroke-width:1.00"/>
<text  x="42.50" y="135.82" text-anchor="end"  font-weight="regular">6.0</text>
<line  x1="46.50" y1="71.21" x2="51.50" y2="71.21"  style="stroke: black;stroke-width:1.00"/>
<text  x="42.50" y="75.21" text-anchor="end"  font-weight="regular">8.0</text>
<rect  x="454.50" y="35.00" width="100.00" height="126.00" style="fill:white; fill-opacity:0.50; stroke:#333; stroke-width:0.50;" />
<defs><clipPath id="leg-area"><rect x="494.50" y="35.00" width="58.00" height="126.00"/>
</clipPath></defs><line  x1="464.50" y1="46.00" x2="494.50" y2="46.00"  style="stroke: #db5f57;stroke-width:2.00"/>
<text clip-path="url(#leg-area)"  x="524.50" y="50.00" text-anchor="middle"  font-weight="regular">mpiric</text>
<line  x1="464.50" y1="61.00" x2="494.50" y2="61.00" stroke-dasharray="5, 5" style="stroke: #dbae57;stroke-width:2.00"/>
<text clip-path="url(#leg-area)"  x="524.50" y="65.00" text-anchor="middle"  font-weight="regular">libm</text>
<line  x1="464.50" y1="76.00" x2="494.50" y2="76.00"  style="stroke: #b9db57;stroke-width:2.00"/>
<text clip-path="url(#leg-area)"  x="524.50" y="80.00" text-anchor="middle"  font-weight="regular">mpiric</text>
<line  x1="464.50" y1="91.00" x2="494.50" y2="91.00" stroke-dasharray="5, 5" style="stroke: #69db57;stroke-width:2.00"/>
<text clip-path="url(#leg-area)"  x="524.50" y="95.00" text-anchor="middle"  font-weight="regular">libm</text>
<line  x1="464.50" y1="106.00" x2="494.50" y2="106.00"  style="stroke: #57db94;stroke-width:2.00"/>
<text clip-path="url(#leg-area)"  x="524.50" y="110.00" text-anchor="middle"  font-weight="regular">mpiric</text>
<line  x1="464.50" y1="121.00" x2="494.50" y2="121.00" stroke-dasharray="5, 5" style="stroke: #57d3db;stroke-width:2.00"/>
<text clip-path="url(#leg-area)"  x="524.50" y="125.00" text-anchor="middle"  font-weight="regular">libm</text>
<line  x1="464.50" y1="136.00" x2="494.50" y2="136.00"  style="stroke: #5784db;stroke-width:2.00"/>
<text clip-path="url(#leg-area)"  x="524.50" y="140.00" text-anchor="middle"  font-weight="regular">mpiric</text>
<line  x1="464.50" y1="151.00" x2="494.50" y2="151.00" stroke-dasharray="5, 5" style="stroke: #7957db;stroke-width:2.00"/>
<text clip-path="url(#leg-area)"  x="524.50" y="155.00" text-anchor="middle"  font-weight="regular">libm</text>
</svg>

