<svg class="charter" xmlns="http://www.w3.org/2000/svg" version="1.1" width="100%" viewbox="0 0 600 400">
<defs><clipPath id="plot-area"><rect x="52.50" y="25.00" width="512.00" height="350.00"/>
</clipPath></defs><line clip-path="url(#plot-area)"  x1="71.02" y1="25.00" x2="71.02" y2="375.00"  style="stroke: #ccc;stroke-width:0.50"/>
<line clip-path="url(#plot-area)"  x1="166.01" y1="25.00" x2="166.01" y2="375.00"  style="stroke: #ccc;stroke-width:0.50"/>
<line clip-path="url(#plot-area)"  x1="261.00" y1="25.00" x2="261.00" y2="375.00"  style="stroke: #ccc;stroke-width:0.50"/>
<line clip-path="url(#plot-area)"  x1="356.00" y1="25.00" x2="356.00" y2="375.00"  style="stroke: #ccc;stroke-width:0.50"/>
<line clip-path="url(#plot-area)"  x1="450.99" y1="25.00" x2="450.99" y2="375.00"  style="stroke: #ccc;stroke-width:0.50"/>
<line clip-path="url(#plot-area)"  x1="545.98" y1="25.00" x2="545.98" y2="375.00"  style="stroke: #ccc;stroke-width:0.50"/>
<line clip-path="url(#plot-area)"  x1="52.50" y1="359.09" x2="564.50" y2="359.09"  style="stroke: #ccc;stroke-width:0.50"/>
<line clip-path="url(#plot-area)"  x1="52.50" y1="288.38" x2="564.50" y2="288.38"  style="stroke: #ccc;stroke-width:0.50"/>
<line clip-path="url(#plot-area)"  x1="52.50" y1="217.68" x2="564.50" y2="217.68"  style="stroke: #ccc;stroke-width:0.50"/>
<line clip-path="url(#plot-area)"  x1="52.50" y1="146.97" x2="564.50" y2="146.97"  style="stroke: #ccc;stroke-width:0.50"/>
<line clip-path="url(#plot-area)"  x1="52.50" y1="76.26" x2="564.50" y2="76.26"  style="stroke: #ccc;stroke-width:0.50"/>
<polyline clip-path="url(#plot-area)" style="fill:none; stroke:#db5f57; stroke-width:2.00;"  points="75.77,359.09 80.52,359.09 85.27,359.09 90.02,359.09 94.77,359.09 99.52,359.09 104.27,359.09 109.02,359.09 113.77,359.09 118.52,323.74 123.27,323.74 128.02,323.74 132.77,323.74 137.52,323.74 142.27,323.74 147.02,323.74 151.77,323.74 156.51,323.74 161.26,323.74 166.01,288.38 170.76,288.38 175.51,288.38 180.26,288.38 185.01,288.38 189.76,288.38 194.51,288.38 199.26,288.38 204.01,288.38 208.76,288.38 213.51,288.38 218.26,253.03 223.01,253.03 227.76,253.03 232.51,253.03 237.26,253.03 242.01,253.03 246.76,253.03 251.51,253.03 256.26,253.03 261.00,253.03 265.75,217.68 270.50,217.68 275.25,217.68 280.00,217.68 284.75,217.68 289.50,217.68 294.25,217.68 299.00,217.68 303.75,217.68 308.50,217.68 313.25,182.32 318.00,182.32 322.75,182.32 327.50,182.32 332.25,182.32 337.00,182.32 341.75,182.32 346.50,182.32 351.25,182.32 356.00,182.32 360.74,146.97 365.49,146.97 370.24,146.97 374.99,146.97 379.74,146.97 384.49,146.97 389.24,146.97 393.99,146.97 398.74,146.97 403.49,146.97 408.24,111.62 412.99,111.62 417.74,111.62 422.49,111.62 427.24,111.62 431.99,111.62 436.74,111.62 441.49,111.62 446.24,111.62 450.99,111.62 455.74,76.26 460.49,76.26 465.23,76.26 469.98,76.26 474.73,76.26 479.48,76.26 484.23,76.26 488.98,76.26 493.73,76.26 498.48,76.26 503.23,40.91 507.98,40.91 512.73,40.91 517.48,40.91 522.23,40.91 526.98,40.91 531.73,40.91 536.48,40.91 541.23,40.91 " /><polyline clip-path="url(#plot-area)" style="fill:none; stroke:#dbae57; stroke-width:2.00;" stroke-dasharray="5, 5" points="75.77,359.09 80.52,359.09 85.27,359.09 90.02,359.09 94.77,359.09 99.52,359.09 104.27,359.09 109.02,359.09 113.77,359.09 118.52,323.74 123.27,323.74 128.02,323.74 132.77,323.74 137.52,323.74 142.27,323.74 147.02,323.74 151.77,323.74 156.51,323.74 161.26,323.74 166.01,288.38 170.76,288.38 175.51,288.38 180.26,288.38 185.01,288.38 189.76,288.38 194.51,288.38 199.26,288.38 204.01,288.38 208.76,288.38 213.51,288.38 218.26,253.03 223.01,253.03 227.76,253.03 232.51,253.03 237.26,253.03 242.01,253.03 246.76,253.03 251.51,253.03 256.26,253.03 261.00,253.03 265.75,217.68 270.50,217.68 275.25,217.68 280.00,217.68 284.75,217.68 289.50,217.68 294.25,217.68 299.00,217.68 303.75,217.68 308.50,217.68 313.25,182.32 318.00,182.32 322.75,182.32 327.50,182.32 332.25,182.32 337.00,182.32 341.75,182.32 346.50,182.32 351.25,182.32 356.00,182.32 360.74,146.97 365.49,146.97 370.24,146.97 374.99,146.97 379.74,146.97 384.49,146.97 389.24,146.97 393.99,146.97 398.74,146.97 403.49,146.97 408.24,111.62 412.99,111.62 417.74,111.62 422.49,111.62 427.24,111.62 431.99,111.62 436.74,111.62 441.49,111.62 446.24,111.62 450.99,111.62 455.74,76.26 460.49,76.26 465.23,76.26 469.98,76.26 474.73,76.26 479.48,76.26 484.23,76.26 488.98,76.26 493.73,76.26 498.48,76.26 503.23,40.91 507.98,40.91 512.73,40.91 517.48,40.91 522.23,40.91 526.98,40.91 531.73,40.91 536.48,40.91 541.23,40.91 " /><rect  x="52.00" y="25.00" width="512.00" height="350.00" style="fill:none; fill-opacity:1.00; stroke:black; stroke-width:0.50;" />
<line  x1="71.02" y1="376.00" x2="71.02" y2="381.00"  style="stroke: black;stroke-width:1.00"/>
<text  x="71.02" y="395.00" text-anchor="middle"  font-weight="regular">0</text>
<line  x1="166.01" y1="376.00" x2="166.01" y2="381.00"  style="stroke: black;stroke-width:1.00"/>
<text  x="166.01" y="395.00" text-anchor="middle"  font-weight="regular">20.0</text>
<line  x1="261.00" y1="376.00" x2="261.00" y2="381.00"  style="stroke: black;stroke-width:1.00"/>
<text  x="261.00" y="395.00" text-anchor="middle"  font-weight="regular">40.0</text>
<line  x1="356.00" y1="376.00" x2="356.00" y2="381.00"  style="stroke: black;stroke-width:1.00"/>
<text  x="356.00" y="395.00" text-anchor="middle"  font-weight="regular">60.0</text>
<line  x1="450.99" y1="376.00" x2="450.99" y2="381.00"  style="stroke: black;stroke-width:1.00"/>
<text  x="450.99" y="395.00" text-anchor="middle"  font-weight="regular">80.0</text>
<line  x1="545.98" y1="376.00" x2="545.98" y2="381.00"  style="stroke: black;stroke-width:1.00"/>
<text  x="545.98" y="395.00" text-anchor="middle"  font-weight="regular"><tspan>1.0e<tspan  font-size="10" dy="-5" dx="1">2</tspan></tspan></text>
<line  x1="46.50" y1="359.09" x2="51.50" y2="359.09"  style="stroke: black;stroke-width:1.00"/>
<text  x="42.50" y="363.09" text-anchor="end"  font-weight="regular">0</text>
<line  x1="46.50" y1="288.38" x2="51.50" y2="288.38"  style="stroke: black;stroke-width:1.00"/>
<text  x="42.50" y="292.38" text-anchor="end"  font-weight="regular">2.0</text>
<line  x1="46.50" y1="217.68" x2="51.50" y2="217.68"  style="stroke: black;stroke-width:1.00"/>
<text  x="42.50" y="221.68" text-anchor="end"  font-weight="regular">4.0</text>
<line  x1="46.50" y1="146.97" x2="51.50" y2="146.97"  style="stroke: black;stroke-width:1.00"/>
<text  x="42.50" y="150.97" text-anchor="end"  font-weight="regular">6.0</text>
<line  x1="46.50" y1="76.26" x2="51.50" y2="76.26"  style="stroke: black;stroke-width:1.00"/>
<text  x="42.50" y="80.26" text-anchor="end"  font-weight="regular">8.0</text>
<rect  x="454.50" y="35.00" width="100.00" height="36.00" style="fill:white; fill-opacity:0.50; stroke:#333; stroke-width:0.50;" />
<defs><clipPath id="leg-area"><rect x="494.50" y="35.00" width="58.00" height="36.00"/>
</clipPath></defs><line  x1="464.50" y1="46.00" x2="494.50" y2="46.00"  style="stroke: #db5f57;stroke-width:2.00"/>
<text clip-path="url(#leg-area)"  x="524.50" y="50.00" text-anchor="middle"  font-weight="regular">mpiric</text>
<line  x1="464.50" y1="61.00" x2="494.50" y2="61.00" stroke-dasharray="5, 5" style="stroke: #dbae57;stroke-width:2.00"/>
<text clip-path="url(#leg-area)"  x="524.50" y="65.00" text-anchor="middle"  font-weight="regular">libm</text>
</svg>

<svg class="charter" xmlns="http://www.w3.org/2000/svg" version="1.1" width="100%" viewbox="0 0 600 400">
<defs><clipPath id="plot-area"><rect x="52.50" y="25.00" width="512.00" height="350.00"/>
</clipPath></defs><line clip-path="url(#plot-area)"  x1="71.02" y1="25.00" x2="71.02" y2="375.00"  style="stroke: #ccc;stroke-width:0.50"/>
<line clip-path="url(#plot-area)"  x1="166.01" y1="25.00" x2="166.01" y2="375.00"  style="stroke: #ccc;stroke-width:0.50"/>
<line clip-path="url(#plot-area)"  x1="261.00" y1="25.00" x2="261.00" y2="375.00"  style="stroke: #ccc;stroke-width:0.50"/>
<line clip-path="url(#plot-area)"  x1="356.00" y1="25.00" x2="356.00" y2="375.00"  style="stroke: #ccc;stroke-width:0.50"/>
<line clip-path="url(#plot-area)"  x1="450.99" y1="25.00" x2="450.99" y2="375.00"  style="stroke: #ccc;stroke-width:0.50"/>
<line clip-path="url(#plot-area)"  x1="545.98" y1="25.00" x2="545.98" y2="375.00"  style="stroke: #ccc;stroke-width:0.50"/>
<line clip-path="url(#plot-area)"  x1="52.50" y1="374.24" x2="564.50" y2="374.24"  style="stroke: #ccc;stroke-width:0.50"/>
<line clip-path="url(#plot-area)"  x1="52.50" y1="313.64" x2="564.50" y2="313.64"  style="stroke: #ccc;stroke-width:0.50"/>
<line clip-path="url(#plot-area)"  x1="52.50" y1="253.03" x2="564.50" y2="253.03"  style="stroke: #ccc;stroke-width:0.50"/>
<line clip-path="url(#plot-area)"  x1="52.50" y1="192.42" x2="564.50" y2="192.42"  style="stroke: #ccc;stroke-width:0.50"/>
<line clip-path="url(#plot-area)"  x1="52.50" y1="131.82" x2="564.50" y2="131.82"  style="stroke: #ccc;stroke-width:0.50"/>
<line clip-path="url(#plot-area)"  x1="52.50" y1="71.21" x2="564.50" y2="71.21"  style="stroke: #ccc;stroke-width:0.50"/>
<polyline clip-path="url(#plot-area)" style="fill:none; stroke:#db5f57; stroke-width:2.00;"  points="75.77,313.64 80.52,313.64 85.27,313.64 90.02,313.64 94.77,313.64 99.52,313.64 104.27,313.64 109.02,313.64 113.77,313.64 118.52,283.33 123.27,283.33 128.02,283.33 132.77,283.33 137.52,283.33 142.27,283.33 147.02,283.33 151.77,283.33 156.51,283.33 161.26,283.33 166.01,253.03 170.76,253.03 175.51,253.03 180.26,253.03 185.01,253.03 189.76,253.03 194.51,253.03 199.26,253.03 204.01,253.03 208.76,253.03 213.51,253.03 218.26,222.73 223.01,222.73 227.76,222.73 232.51,222.73 237.26,222.73 242.01,222.73 246.76,222.73 251.51,222.73 256.26,222.73 261.00,222.73 265.75,192.42 270.50,192.42 275.25,192.42 280.00,192.42 284.75,192.42 289.50,192.42 294.25,192.42 299.00,192.42 303.75,192.42 308.50,192.42 313.25,162.12 318.00,162.12 322.75,162.12 327.50,162.12 332.25,162.12 337.00,162.12 341.75,162.12 346.50,162.12 351.25,162.12 356.00,162.12 360.74,131.82 365.49,131.82 370.24,131.82 374.99,131.82 379.74,131.82 384.49,131.82 389.24,131.82 393.99,131.82 398.74,131.82 403.49,131.82 408.24,101.52 412.99,101.52 417.74,101.52 422.49,101.52 427.24,101.52 431.99,101.52 436.74,101.52 441.49,101.52 446.24,101.52 450.99,101.52 455.74,71.21 460.49,71.21 465.23,71.21 469.98,71.21 474.73,71.21 479.48,71.21 484.23,71.21 488.98,71.21 493.73,71.21 498.48,71.21 503.23,40.91 507.98,40.91 512.73,40.91 517.48,40.91 522.23,40.91 526.98,40.91 531.73,40.91 536.48,40.91 541.23,40.91 " /><polyline clip-path="url(#plot-area)" style="fill:none; stroke:#dbae57; stroke-width:2.00;" stroke-dasharray="5, 5" points="75.77,313.64 80.52,313.64 85.27,313.64 90.02,313.64 94.77,313.64 99.52,313.64 104.27,313.64 109.02,313.64 113.77,313.64 118.52,283.33 123.27,283.33 128.02,283.33 132.77,283.33 137.52,283.33 142.27,283.33 147.02,283.33 151.77,283.33 156.51,283.33 161.26,283.33 166.01,253.03 170.76,253.03 175.51,253.03 180.26,253.03 185.01,253.03 189.76,253.03 194.51,253.03 199.26,253.03 204.01,253.03 208.76,253.03 213.51,253.03 218.26,222.73 223.01,222.73 227.76,222.73 232.51,222.73 237.26,222.73 242.01,222.73 246.76,222.73 251.51,222.73 256.26,222.73 261.00,222.73 265.75,192.42 270.50,192.42 275.25,192.42 280.00,192.42 284.75,192.42 289.50,192.42 294.25,192.42 299.00,192.42 303.75,192.42 308.50,192.42 313.25,162.12 318.00,162.12 322.75,162.12 327.50,162.12 332.25,162.12 337.00,162.12 341.75,162.12 346.50,162.12 351.25,162.12 356.00,162.12 360.74,131.82 365.49,131.82 370.24,131.82 374.99,131.82 379.74,131.82 384.49,131.82 389.24,131.82 393.99,131.82 398.74,131.82 403.49,131.82 408.24,101.52 412.99,101.52 417.74,101.52 422.49,101.52 427.24,101.52 431.99,101.52 436.74,101.52 441.49,101.52 446.24,101.52 450.99,101.52 455.74,71.21 460.49,71.21 465.23,71.21 469.98,71.21 474.73,71.21 479.48,71.21 484.23,71.21 488.98,71.21 493.73,71.21 498.48,71.21 503.23,40.91 507.98,40.91 512.73,40.91 517.48,40.91 522.23,40.91 526.98,40.91 531.73,40.91 536.48,40.91 541.23,40.91 " /><polyline clip-path="url(#plot-area)" style="fill:none; stroke:#b9db57; stroke-width:2.00;"  points="75.77,310.61 80.52,307.58 85.27,304.55 90.02,301.52 94.77,298.48 99.52,295.45 104.27,292.42 109.02,289.39 113.77,286.36 118.52,313.64 123.27,310.61 128.02,307.58 132.77,304.55 137.52,301.52 142.27,298.48 147.02,295.45 151.77,292.42 156.51,289.39 161.26,286.36 166.01,313.64 170.76,310.61 175.51,307.58 180.26,304.55 185.01,301.52 189.76,298.48 194.51,295.45 199.26,292.42 204.01,289.39 208.76,286.36 213.51,283.33 218.26,310.61 223.01,307.58 227.76,304.55 232.51,301.52 237.26,298.48 242.01,295.45 246.76,292.42 251.51,289.39 256.26,286.36 261.00,283.33 265.75,310.61 270.50,307.58 275.25,304.55 280.00,301.52 284.75,298.48 289.50,295.45 294.25,292.42 299.00,289.39 303.75,286.36 308.50,283.33 313.25,310.61 318.00,307.58 322.75,304.55 327.50,301.52 332.25,298.48 337.00,295.45 341.75,292.42 346.50,289.39 351.25,286.36 356.00,283.33 360.74,310.61 365.49,307.58 370.24,304.55 374.99,301.52 379.74,298.48 384.49,295.45 389.24,292.42 393.99,289.39 398.74,286.36 403.49,283.33 408.24,310.61 412.99,307.58 417.74,304.55 422.49,301.52 427.24,298.49 431.99,295.45 436.74,292.42 441.49,289.39 446.24,286.36 450.99,283.33 455.74,310.61 460.49,307.58 465.23,304.55 469.98,301.52 474.73,298.48 479.48,295.45 484.23,292.42 488.98,289.39 493.73,286.36 498.48,283.33 503.23,310.61 507.98,307.58 512.73,304.55 517.48,301.52 522.23,298.48 526.98,295.45 531.73,292.42 536.48,289.39 541.23,286.36 " /><polyline clip-path="url(#plot-area)" style="fill:none; stroke:#69db57; stroke-width:2.00;" stroke-dasharray="5, 5" points="75.77,310.61 80.52,307.58 85.27,304.55 90.02,301.52 94.77,298.48 99.52,325.76 104.27,322.73 109.02,319.70 113.77,316.67 118.52,313.64 123.27,310.61 128.02,307.58 132.77,304.55 137.52,301.52 142.27,328.79 147.02,325.76 151.77,322.73 156.51,319.70 161.26,316.67 166.01,313.64 170.76,310.61 175.51,307.58 180.26,304.55 185.01,301.52 189.76,298.48 194.51,325.76 199.26,322.73 204.01,319.70 208.76,316.67 213.51,313.64 218.26,310.61 223.01,307.58 227.76,304.55 232.51,301.52 237.26,298.48 242.01,325.76 246.76,322.73 251.51,319.70 256.26,316.67 261.00,313.64 265.75,310.61 270.50,307.58 275.25,304.55 280.00,301.52 284.75,298.48 289.50,325.76 294.25,322.73 299.00,319.70 303.75,316.67 308.50,313.64 313.25,310.61 318.00,307.58 322.75,304.55 327.50,301.52 332.25,298.48 337.00,325.76 341.75,322.73 346.50,319.70 351.25,316.67 356.00,313.64 360.74,310.61 365.49,307.58 370.24,304.55 374.99,301.52 379.74,298.48 384.49,325.76 389.24,322.73 393.99,319.70 398.74,316.67 403.49,313.64 408.24,310.61 412.99,307.58 417.74,304.55 422.49,301.52 427.24,298.49 431.99,325.76 436.74,322.73 441.49,319.70 446.24,316.67 450.99,313.64 455.74,310.61 460.49,307.58 465.23,304.55 469.98,301.52 474.73,298.48 479.48,325.76 484.23,322.73 488.98,319.70 493.73,316.67 498.48,313.64 503.23,310.61 507.98,307.58 512.73,304.55 517.48,301.52 522.23,328.79 526.98,325.76 531.73,322.73 536.48,319.70 541.23,316.67 " /><polyline clip-path="url(#plot-area)" style="fill:none; stroke:#57db94; stroke-width:2.00;"  points="75.77,310.61 80.52,307.58 85.27,304.55 90.02,301.52 94.77,298.48 99.52,295.45 104.27,292.42 109.02,289.39 113.77,286.36 118.52,283.33 123.27,280.30 128.02,277.27 132.77,274.24 137.52,271.21 142.27,268.18 147.02,265.15 151.77,262.12 156.51,259.09 161.26,256.06 166.01,313.64 170.76,310.61 175.51,307.58 180.26,304.55 185.01,301.52 189.76,298.48 194.51,295.45 199.26,292.42 204.01,289.39 208.76,286.36 213.51,283.33 218.26,280.30 223.01,277.27 227.76,274.24 232.51,271.21 237.26,268.18 242.01,265.15 246.76,262.12 251.51,259.09 256.26,256.06 261.00,253.03 265.75,310.61 270.50,307.58 275.25,304.55 280.00,301.52 284.75,298.48 289.50,295.45 294.25,292.42 299.00,289.39 303.75,286.36 308.50,283.33 313.25,280.30 318.00,277.27 322.75,274.24 327.50,271.21 332.25,268.18 337.00,265.15 341.75,262.12 346.50,259.09 351.25,256.06 356.00,253.03 360.74,310.61 365.49,307.58 370.24,304.55 374.99,301.52 379.74,298.48 384.49,295.45 389.24,292.42 393.99,289.39 398.74,286.36 403.49,283.33 408.24,280.30 412.99,277.27 417.74,274.24 422.49,271.21 427.24,268.18 431.99,265.15 436.74,262.12 441.49,259.09 446.24,256.06 450.99,253.03 455.74,310.61 460.49,307.58 465.23,304.55 469.98,301.52 474.73,298.48 479.48,295.45 484.23,292.42 488.98,289.39 493.73,286.36 498.48,283.33 503.23,280.30 507.98,277.27 512.73,274.24 517.48,271.21 522.23,268.18 526.98,265.15 531.73,262.12 536.48,259.09 541.23,256.06 " /><polyline clip-path="url(#plot-area)" style="fill:none; stroke:#57d3db; stroke-width:2.00;" stroke-dasharray="5, 5" points="75.77,310.61 80.52,307.58 85.27,304.55 90.02,301.52 94.77,298.48 99.52,295.45 104.27,292.42 109.02,289.39 113.77,286.36 118.52,343.94 123.27,340.91 128.02,337.88 132.77,334.85 137.52,331.82 142.27,328.79 147.02,325.76 151.77,322.73 156.51,319.70 161.26,316.67 166.01,313.64 170.76,310.61 175.51,307.58 180.26,304.55 185.01,301.52 189.76,298.48 194.51,295.45 199.26,292.42 204.01,289.39 208.76,286.36 213.51,283.33 218.26,340.91 223.01,337.88 227.76,334.85 232.51,331.82 237.26,328.79 242.01,325.76 246.76,322.73 251.51,319.70 256.26,316.67 261.00,313.64 265.75,310.61 270.50,307.58 275.25,304.55 280.00,301.52 284.75,298.48 289.50,295.45 294.25,292.42 299.00,289.39 303.75,286.36 308.50,283.33 313.25,340.91 318.00,337.88 322.75,334.85 327.50,331.82 332.25,328.79 337.00,325.76 341.75,322.73 346.50,319.70 351.25,316.67 356.00,313.64 360.74,310.61 365.49,307.58 370.24,304.55 374.99,301.52 379.74,298.48 384.49,295.45 389.24,292.42 393.99,289.39 398.74,286.36 403.49,283.33 408.24,340.91 412.99,337.88 417.74,334.85 422.49,331.82 427.24,328.79 431.99,325.76 436.74,322.73 441.49,319.70 446.24,316.67 450.99,313.64 455.74,310.61 460.49,307.58 465.23,304.55 469.98,301.52 474.73,298.48 479.48,295.45 484.23,292.42 488.98,289.39 493.73,286.36 498.48,283.33 503.23,340.91 507.98,337.88 512.73,334.85 517.48,331.82 522.23,328.79 526.98,325.76 531.73,322.73 536.48,319.70 541.23,316.67 " /><polyline clip-path="url(#plot-area)" style="fill:none; stroke:#5784db; stroke-width:2.00;"  points="75.77,310.61 80.52,307.58 85.27,304.55 90.02,301.52 94.77,298.48 99.52,295.45 104.27,292.42 109.02,289.39 113.77,286.36 118.52,283.33 123.27,280.30 128.02,277.27 132.77,274.24 137.52,271.21 142.27,268.18 147.02,265.15 151.77,262.12 156.51,259.09 161.26,256.06 166.01,253.03 170.76,250.00 175.51,246.97 180.26,243.94 185.01,240.91 189.76,237.88 194.51,234.85 199.26,231.82 204.01,228.79 208.76,225.76 213.51,222.73 218.26,310.61 223.01,307.58 227.76,304.55 232.51,301.52 237.26,298.48 242.01,295.45 246.76,292.42 251.51,289.39 256.26,286.36 261.00,283.33 265.75,280.30 270.50,277.27 275.25,274.24 280.00,271.21 284.75,268.18 289.50,265.15 294.25,262.12 299.00,259.09 303.75,256.06 308.50,253.03 313.25,250.00 318.00,246.97 322.75,243.94 327.50,240.91 332.25,237.88 337.00,234.85 341.75,231.82 346.50,228.79 351.25,225.76 356.00,222.73 360.74,310.61 365.49,307.58 370.24,304.55 374.99,301.52 379.74,298.48 384.49,295.45 389.24,292.42 393.99,289.39 398.74,286.36 403.49,283.33 408.24,280.30 412.99,277.27 417.74,274.24 422.49,271.21 427.24,268.18 431.99,265.15 436.74,262.12 441.49,259.09 446.24,256.06 450.99,253.03 455.74,250.00 460.49,246.97 465.23,243.94 469.98,240.91 474.73,237.88 479.48,234.85 484.23,231.82 488.98,228.79 493.73,225.76 498.48,222.73 503.23,310.61 507.98,307.58 512.73,304.55 517.48,301.52 522.23,298.48 526.98,295.45 531.73,292.42 536.48,289.39 541.23,286.36 " /><polyline clip-path="url(#plot-area)" style="fill:none; stroke:#7957db; stroke-width:2.00;" stroke-dasharray="5, 5" points="75.77,310.61 80.52,307.58 85.27,304.55 90.02,301.52 94.77,298.48 99.52,295.45 104.27,292.42 109.02,289.39 113.77,286.36 118.52,283.33 123.27,280.30 128.02,277.27 132.77,274.24 137.52,271.21 142.27,359.09 147.02,356.06 151.77,353.03 156.51,350.00 161.26,346.97 166.01,343.94 170.76,340.91 175.51,337.88 180.26,334.85 185.01,331.82 189.76,328.79 194.51,325.76 199.26,322.73 204.01,319.70 208.76,316.67 213.51,313.64 218.26,310.61 223.01,307.58 227.76,304.55 232.51,301.52 237.26,298.48 242.01,295.45 246.76,292.42 251.51,289.39 256.26,286.36 261.00,283.33 265.75,280.30 270.50,277.27 275.25,274.24 280.00,271.21 284.75,268.18 289.50,356.06 294.25,353.03 299.00,350.00 303.75,346.97 308.50,343.94 313.25,340.91 318.00,337.88 322.75,334.85 327.50,331.82 332.25,328.79 337.00,325.76 341.75,322.73 346.50,319.70 351.25,316.67 356.00,313.64 360.74,310.61 365.49,307.58 370.24,304.55 374.99,301.52 379.74,298.48 384.49,295.45 389.24,292.42 393.99,289.39 398.74,286.36 403.49,283.33 408.24,280.30 412.99,277.27 417.74,274.24 422.49,271.21 427.24,268.18 431.99,356.06 436.74,353.03 441.49,350.00 446.24,346.97 450.99,343.94 455.74,340.91 460.49,337.88 465.23,334.85 469.98,331.82 474.73,328.79 479.48,325.76 484.23,322.73 488.98,319.70 493.73,316.67 498.48,313.64 503.23,310.61 507.98,307.58 512.73,304.55 517.48,301.52 522.23,298.48 526.98,295.45 531.73,292.42 536.48,289.39 541.23,286.36 " /><rect  x="52.00" y="25.00" width="512.00" height="350.00" style="fill:none; fill-opacity:1.00; stroke:black; stroke-width:0.50;" />
<line  x1="71.02" y1="376.00" x2="71.02" y2="381.00"  style="stroke: black;stroke-width:1.00"/>
<text  x="71.02" y="395.00" text-anchor="middle"  font-weight="regular">0</text>
<line  x1="166.01" y1="376.00" x2="166.01" y2="381.00"  style="stroke: black;stroke-width:1.00"/>
<text  x="166.01" y="395.00" text-anchor="middle"  font-weight="regular">20.0</text>
<line  x1="261.00" y1="376.00" x2="261.00" y2="381.00"  style="stroke: black;stroke-width:1.00"/>
<text  x="261.00" y="395.00" text-anchor="middle"  font-weight="regular">40.0</text>
<line  x1="356.00" y1="376.00" x2="356.00" y2="381.00"  style="stroke: black;stroke-width:1.00"/>
<text  x="356.00" y="395.00" text-anchor="middle"  font-weight="regular">60.0</text>
<line  x1="450.99" y1="376.00" x2="450.99" y2="381.00"  style="stroke: black;stroke-width:1.00"/>
<text  x="450.99" y="395.00" text-anchor="middle"  font-weight="regular">80.0</text>
<line  x1="545.98" y1="376.00" x2="545.98" y2="381.00"  style="stroke: black;stroke-width:1.00"/>
<text  x="545.98" y="395.00" text-anchor="middle"  font-weight="regular"><tspan>1.0e<tspan  font-size="10" dy="-5" dx="1">2</tspan></tspan></text>
<line  x1="46.50" y1="374.24" x2="51.50" y2="374.24"  style="stroke: black;stroke-width:1.00"/>
<text  x="42.50" y="378.24" text-anchor="end"  font-weight="regular">-2.0</text>
<line  x1="46.50" y1="313.64" x2="51.50" y2="313.64"  style="stroke: black;stroke-width:1.00"/>
<text  x="42.50" y="317.64" text-anchor="end"  font-weight="regular">0</text>
<line  x1="46.50" y1="253.03" x2="51.50" y2="253.03"  style="stroke: black;stroke-width:1.00"/>
<text  x="42.50" y="257.03" text-anchor="end"  font-weight="regular">2.0</text>
<line  x1="46.50" y1="192.42" x2="51.50" y2="192.42"  style="stroke: black;stroke-width:1.00"/>
<text  x="42.50" y="196.42" text-anchor="end"  font-weight="regular">4.0</text>
<line  x1="46.50" y1="131.82" x2="51.50" y2="131.82"  style="stroke: black;stroke-width:1.00"/>
<text  x="42.50" y="135.82" text-anchor="end"  font-weight="regular">6.0</text>
<line  x1="46.50" y1="71.21" x2="51.50" y2="71.21"  style="stroke: black;stroke-width:1.00"/>
<text  x="42.50" y="75.21" text-anchor="end"  font-weight="regular">8.0</text>
<rect  x="454.50" y="35.00" width="100.00" height="126.00" style="fill:white; fill-opacity:0.50; stroke:#333; stroke-width:0.50;" />
<defs><clipPath id="leg-area"><rect x="494.50" y="35.00" width="58.00" height="126.00"/>
</clipPath></defs><line  x1="464.50" y1="46.00" x2="494.50" y2="46.00"  style="stroke: #db5f57;stroke-width:2.00"/>
<text clip-path="url(#leg-area)"  x="524.50" y="50.00" text-anchor="middle"  font-weight="regular">mpiric</text>
<line  x1="464.50" y1="61.00" x2="494.50" y2="61.00" stroke-dasharray="5, 5" style="stroke: #dbae57;stroke-width:2.00"/>
<text clip-path="url(#leg-area)"  x="524.50" y="65.00" text-anchor="middle"  font-weight="regular">libm</text>
<line  x1="464.50" y1="76.00" x2="494.50" y2="76.00"  style="stroke: #b9db57;stroke-width:2.00"/>
<text clip-path="url(#leg-area)"  x="524.50" y="80.00" text-anchor="middle"  font-weight="regular">mpiric</text>
<line  x1="464.50" y1="91.00" x2="494.50" y2="91.00" stroke-dasharray="5, 5" style="stroke: #69db57;stroke-width:2.00"/>
<text clip-path="url(#leg-area)"  x="524.50" y="95.00" text-anchor="middle"  font-weight="regular">libm</text>
<line  x1="464.50" y1="106.00" x2="494.50" y2="106.00"  style="stroke: #57db94;stroke-width:2.00"/>
<text clip-path="url(#leg-area)"  x="524.50" y="110.00" text-anchor="middle"  font-weight="regular">mpiric</text>
<line  x1="464.50" y1="121.00" x2="494.50" y2="121.00" stroke-dasharray="5, 5" style="stroke: #57d3db;stroke-width:2.00"/>
<text clip-path="url(#leg-area)"  x="524.50" y="125.00" text-anchor="middle"  font-weight="regular">libm</text>
<line  x1="464.50" y1="136.00" x2="494.50" y2="136.00"  style="stroke: #5784db;stroke-width:2.00"/>
<text clip-path="url(#leg-area)"  x="524.50" y="140.00" text-anchor="middle"  font-weight="regular">mpiric</text>
<line  x1="464.50" y1="151.00" x2="494.50" y2="151.00" stroke-dasharray="5, 5" style="stroke: #7957db;stroke-width:2.00"/>
<text clip-path="url(#leg-area)"  x="524.50" y="155.00" text-anchor="middle"  font-weight="regular">libm</text>
</svg>

